<svg width="232" height="55" fill="none" xmlns="http://www.w3.org/2000/svg"><g clip-path="url(#clip0_332_58)" fill="#fff" fill-opacity=".5"><path d="M65.622 27.56c0-5.637 4.328-10.453 10.125-10.453 3.749 0 6.067 1.605 7.884 3.563l-1.855 1.996c-1.546-1.683-3.401-2.936-6.068-2.936-4.019 0-7.072 3.445-7.072 7.83 0 4.346 3.13 7.79 7.227 7.79 2.512 0 4.367-1.33 5.951-3.014l1.933 1.8c-1.971 2.232-4.329 3.877-8.039 3.877-5.72 0-10.086-4.776-10.086-10.453zM87.07 10.765l2.938-1.448V21.06c1.314-2.153 3.362-3.914 6.763-3.914 4.753 0 7.536 3.249 7.536 8.025v12.41h-2.937V25.837c0-3.719-1.971-6.028-5.45-6.028-3.4 0-5.913 2.505-5.913 6.263v11.47H87.07V10.766zm35.169 19.418v-1.84c-1.855-.548-3.826-.861-5.759-.861-3.671 0-5.758 1.644-5.758 4.11 0 2.506 2.28 3.993 4.947 3.993 3.632-.039 6.57-2.231 6.57-5.402zm-14.493 1.488c0-4.307 3.44-6.538 8.425-6.538 2.512 0 4.29.352 6.029.861v-.626c0-3.563-2.126-5.403-5.836-5.403-2.318 0-4.173.587-5.99 1.449l-.889-2.428c2.164-1.017 4.29-1.722 7.189-1.722 2.782 0 4.946.783 6.376 2.192 1.391 1.41 2.048 3.328 2.048 5.873v12.214H122.2v-2.975c-1.391 1.761-3.633 3.406-7.111 3.406-3.671 0-7.343-2.154-7.343-6.303zm22.338-14.133h2.937v3.484c1.314-2.153 3.362-3.915 6.763-3.915 4.754 0 7.536 3.25 7.536 8.026v12.41h-2.937V25.837c0-3.719-1.971-6.028-5.449-6.028-3.401 0-5.913 2.505-5.913 6.263v11.47h-2.937V17.539zm37.989 8.965c0-4.11-3.517-6.773-7.265-6.773-3.749 0-6.841 2.623-6.841 6.812 0 4.032 3.169 6.812 6.841 6.812 3.748 0 7.265-2.74 7.265-6.851zM151.88 41.027l1.353-2.31c2.242 1.684 4.754 2.545 7.575 2.545 4.328 0 7.188-2.427 7.188-7.125v-2.349c-1.7 2.31-4.135 4.228-7.729 4.228-4.715 0-9.275-3.602-9.275-9.435s4.56-9.434 9.275-9.434c3.71 0 6.106 1.84 7.69 4.032v-3.602h2.938V34.06c0 3.092-.928 5.441-2.513 7.086-1.739 1.8-4.367 2.662-7.497 2.662-3.324 0-6.338-.94-9.005-2.78zm38.724-14.68c-.348-3.641-2.396-6.734-6.299-6.734-3.401 0-5.99 2.858-6.415 6.733h12.714zm-5.758 9.043c2.705 0 4.599-1.136 6.222-2.819l1.816 1.683c-1.971 2.232-4.405 3.759-8.115 3.759-5.411 0-9.855-4.228-9.855-10.453 0-5.794 4.019-10.453 9.468-10.453 5.836 0 9.198 4.737 9.198 10.61 0 .274 0 .587-.039 1.057H177.89c.425 4.188 3.478 6.616 6.956 6.616zm12.83-23.372l2.938-1.488v26.974h-2.938V12.018zm8.309-1.253l2.938-1.448v28.265h-2.938V10.765zm6.841 32.063l1.005-2.349c.966.509 1.816.744 3.091.744 1.74 0 2.86-.94 4.058-3.758l-8.966-19.927h3.247l7.149 16.677 6.338-16.677h3.131l-8.271 20.67c-1.662 4.15-3.594 5.638-6.57 5.638-1.661 0-2.898-.353-4.212-1.018zM27.632 46.079c-.425.43-.889.822-1.391 1.174a22.542 22.542 0 01-3.053 1.957c-2.126 1.097-4.367 1.919-6.725 2.389-.58.117-1.159.234-1.739.313l-.889.117-.425.04-.425.038-.889.079-.889.039c-.58.039-1.198.039-1.777.078-1.74 0-3.478-.078-5.218-.235.194-.274.387-.587.58-.9a30.788 30.788 0 001.507-2.74c.85-1.88 1.508-3.837 2.049-5.794.502-1.919 1.12-3.759 1.816-5.638a45.693 45.693 0 012.435-5.442c-.657.744-1.237 1.567-1.778 2.428a35.009 35.009 0 00-1.546 2.584 37.002 37.002 0 00-2.473 5.52c-.696 1.84-1.43 3.68-2.319 5.363-.889 1.683-1.971 3.25-3.208 4.737L0 53.752l2.01.274c2.473.352 4.985.548 7.497.47.618-.04 1.275-.04 1.894-.118l.927-.078.928-.118c.618-.078 1.236-.235 1.855-.313.618-.157 1.236-.274 1.855-.47.618-.156 1.198-.391 1.816-.587.58-.235 1.198-.47 1.778-.744 1.16-.509 2.28-1.174 3.324-1.879a17.346 17.346 0 002.898-2.466c.85-.94 1.623-1.919 2.164-3.054-.425.548-.85 1.018-1.314 1.41zm13.836-33.785a3.657 3.657 0 012.628-1.097 3.63 3.63 0 012.628 1.097 3.84 3.84 0 010 5.324c-1.43 1.448-3.788 1.448-5.256 0a3.753 3.753 0 01-1.083-2.662c0-1.018.387-1.958 1.083-2.662zm2.628 8.69a5.868 5.868 0 004.212-1.761 6.153 6.153 0 000-8.574 5.917 5.917 0 00-8.425 0 6.053 6.053 0 00-1.739 4.268c0 1.605.618 3.131 1.74 4.267a5.78 5.78 0 004.212 1.8zm1.739 8.691c-8.541 7.634-12.097 8.339-15.652 6.695l3.864-4.933c.58-.705.967-1.566 1.199-2.466l1.545-6.616L30.3 23.92c-.889.235-1.74.626-2.435 1.213l-4.87 3.915c-1.661-3.602-.927-7.203 6.57-15.855C36.675 5.012 51.67 3.133 56.114 2.74c-.347 4.502-2.202 19.731-10.28 26.934zm-5.681 11.823c-.078.352-.27.705-.58.9-.889.627-2.28 1.488-3.517 2.271l.077-.235c.58-2.388.58-4.228 0-5.48 1.624-.51 3.363-1.41 5.334-2.78-.503 1.84-1.044 4.032-1.314 5.324zm-13.488-4.267a2.516 2.516 0 01-2.125.979H22.57l6.724-8.221-8.116 6.811v-1.996c-.038-.822.31-1.644.966-2.153l7.111-5.716a4.814 4.814 0 011.546-.783l2.899-.705-.696 2.937c-.154.587-.386 1.135-.773 1.605l-5.565 7.242zM15.072 23.059l-.232.079c.735-1.253 1.585-2.663 2.203-3.563.193-.313.541-.509.889-.587 1.275-.274 3.44-.822 5.256-1.292-1.353 1.997-2.242 3.797-2.744 5.442-1.198-.705-3.014-.705-5.372-.079zM57.312.353c-.81.04-20.443.94-29.448 11.314-.85.979-1.662 1.997-2.473 3.015-1.314.352-5.874 1.605-7.884 2.035a3.686 3.686 0 00-2.319 1.566c-1.391 2.036-3.787 6.225-3.865 6.381L9.584 27.68l3.17-1.41c2.086-.9 5.564-1.84 6.801-1.096.193.118.425.353.464.94.039 1.488.425 2.936 1.16 4.384l-.426.353a4.907 4.907 0 00-1.816 4.032v5.598h5.526c1.546.079 3.015-.626 3.98-1.84l.349-.43c1.43.744 2.86 1.174 4.328 1.174.58.04.773.235.928.47.772 1.253-.155 4.815-1.083 6.93l-1.39 3.21 2.975-1.762c.193-.118 4.29-2.545 6.3-3.954a3.738 3.738 0 001.506-2.35c.426-2.035 1.662-6.694 2.01-8.025.928-.743 1.894-1.605 2.937-2.544 10.203-9.122 11.13-29.048 11.17-29.87L58.51.236l-1.198.117z"/></g><defs><clipPath id="clip0_332_58"><path fill="#fff" d="M0 0h231.879v54.808H0z"/></clipPath></defs></svg>