<svg width="524" height="70" fill="none" xmlns="http://www.w3.org/2000/svg"><path fill-rule="evenodd" clip-rule="evenodd" d="M110.41 44.196v.13c0 6.655-5.549 10.048-13.872 9.982H78.902v-36.6h17.24c7.53 0 12.22 3.718 12.22 9.46v.13c0 4.11-2.246 6.459-4.888 7.894 4.294 1.632 6.936 4.11 6.936 9.004zM94.359 32.517c3.633 0 5.878-1.109 5.878-3.849v-.13c0-2.414-1.915-3.785-5.35-3.785H86.83v7.764h7.53zm2.18 14.81c3.566 0 5.746-1.24 5.746-3.98v-.13c0-2.48-1.849-3.98-6.01-3.98h-9.447v8.09h9.71zm30.979-29.554v36.6h-8.191v-36.6h8.191zm43.86 0v36.6h-6.936l-17.967-23.29v23.29h-8.058v-36.6h7.53l17.372 22.573V17.773h8.059zm29.262-.261l15.919 36.862h-8.653l-3.369-8.22h-15.655l-3.369 8.22h-8.323l15.92-36.862h7.53zm-8.785 21.53h9.842l-4.888-11.875-4.954 11.875zm63.544-21.27v36.602h-6.936l-17.967-23.292v23.292h-8.058V17.773h7.53l17.372 22.573V17.773h8.059zm36.925 25.51l5.217 5.155c-3.832 4.045-8.058 6.524-15.192 6.524-10.899 0-19.024-8.351-19.024-18.855v-.13c0-10.374 7.993-18.921 19.354-18.921 7.002 0 11.163 2.349 14.599 5.676l-5.22 5.937c-2.906-2.544-5.812-4.11-9.511-4.11-6.275 0-10.767 5.154-10.767 11.417v.13c0 6.264 4.426 11.483 10.767 11.483 4.293 0 6.871-1.696 9.777-4.305zm40.028 3.915v7.111h-28.205v-36.6h27.942v7.176h-19.884v7.438h17.504v7.176h-17.504v7.699h20.147zM29.295 2.637L11.328 12.878l6.606 3.784 11.361-6.459 11.361 6.46 6.606-3.785L29.295 2.636zm11.361 19.376l6.606 3.784v7.568l-11.361 6.46v12.918l-6.606 3.784-6.605-3.784V39.825l-11.362-6.46v-7.568l6.606-3.784 11.361 6.46 11.361-6.46zm6.606 16.702v7.569l-6.605 3.784v-7.569l6.605-3.784zM40.59 55.418l11.362-6.459V36.04l6.605-3.784v20.487L40.59 62.986v-7.569zm11.362-32.295l-6.606-3.784 6.606-3.784 6.605 3.784v7.569l-6.605 3.784v-7.569zM22.69 65.726v-7.568l6.605 3.784 6.605-3.784v7.568l-6.605 3.784-6.605-3.784zm-4.756-15.658l-6.606-3.784v-7.569l6.606 3.784v7.569zm11.361-26.946l-6.605-3.784 6.605-3.784 6.605 3.784-6.605 3.784zm-16.051-3.784l-6.605 3.784v7.569L.033 26.907v-7.569l6.606-3.784 6.605 3.784zM.034 32.256l6.605 3.784v12.918l11.36 6.46v7.568L.034 52.743V32.256zm353.686 4.161c0 10.57 8.058 18.92 18.892 18.92 7.002 0 11.228-2.544 15.06-6.523l-4.161-4.176c-3.172 2.936-6.078 4.763-10.635 4.763-7.067 0-12.22-5.872-12.22-13.114 0-7.242 5.087-12.983 12.22-12.983 4.228 0 7.398 1.826 10.372 4.567l4.161-4.763c-3.569-3.328-7.662-5.676-14.533-5.676-11.228 0-19.156 8.547-19.156 18.985zm46.171 18.268V39.223h17.703v15.462h6.54V18.02h-6.54v15.267h-17.703V18.019h-6.537v36.666h6.537zm61.235 0h6.868l-16.448-36.927h-6.01l-16.315 36.927h6.671l3.832-8.873h17.569l3.833 8.873zm-18.958-14.549l6.339-14.68 6.407 14.68h-12.746zm37.649 14.55V18.018h-6.537v36.666h6.537zm41.416-36.667h-6.472v25.314L494.877 18.02h-6.011v36.666h6.407V28.588l20.479 26.097h5.481V18.02z" fill="#FFBA00"/></svg>