<svg width="463" height="117" fill="none" xmlns="http://www.w3.org/2000/svg"><path d="M35.778 43.328V.18L.231 59.578l35.547-16.25zm0 37.413V43.328L.231 59.578 35.778 80.74zm0-37.413l35.59 16.25L35.778.18v43.147z" fill="#FFBA00"/><path d="M35.778 43.328v37.414l35.59-21.164-35.59-16.25zm0 44.181L.231 66.389l35.547 50.43v-29.31z" fill="#FFBA00"/><path d="M71.368 66.388l-35.59 21.12v29.311l35.59-50.43zm59.444 1.207c0 .819-.728 1.552-1.541 1.552h-28.438c.728 6.81 5.996 13.448 13.448 13.448 5.096 0 8.865-1.983 11.735-6.12.299-.432.728-.733 1.241-.733.814 0 1.414.603 1.414 1.422 0 .302-.086.517-.214.733-2.87 5.043-8.566 7.5-14.176 7.5-9.593 0-16.403-8.621-16.403-17.845 0-9.224 6.81-17.802 16.403-17.802s16.531 8.621 16.531 17.845zm-3.083-1.38c-.6-7.284-5.996-13.534-13.448-13.534s-12.763 6.25-13.448 13.535h26.896zm37.645-15.99c.814 0 1.413.732 1.413 1.465 0 .819-.599 1.466-1.413 1.466h-7.623v30.258c0 .733-.643 1.422-1.456 1.422-.814 0-1.457-.733-1.457-1.422V53.156h-7.323c-.814 0-1.413-.647-1.413-1.466 0-.733.599-1.466 1.413-1.466h7.323V39.276c0-.819.643-1.422 1.457-1.422.813 0 1.456.603 1.456 1.422v10.948h7.623zm46.339 14.698v18.275c0 .82-.471 1.423-1.199 1.423-.814 0-1.199-.604-1.199-1.423V64.923c0-6.164-3.555-12.328-10.407-12.328-8.779 0-12.677 7.716-12.206 15.604 0 .215-.043 1.12-.043 1.25v13.75c0 .818-.385 1.422-1.199 1.422-.814 0-1.199-.604-1.199-1.423V23.155c0-.732.385-1.422 1.199-1.422.814 0 1.199.733 1.199 1.422v33.966c2.912-4.397 6.81-7.37 11.906-7.37 8.352 0 13.148 7.37 13.148 15.172zm51.308 2.672c0 .819-.728 1.552-1.542 1.552h-28.437c.728 6.81 5.995 13.448 13.447 13.448 5.097 0 8.866-1.983 11.735-6.12.3-.432.728-.733 1.242-.733.814 0 1.413.603 1.413 1.422 0 .302-.085.517-.214.733-2.869 5.043-8.565 7.5-14.176 7.5-9.593 0-16.403-8.621-16.403-17.845 0-9.224 6.81-17.802 16.403-17.802 9.594 0 16.532 8.621 16.532 17.845zm-3.041-1.38c-.599-7.284-5.996-13.534-13.448-13.534s-12.762 6.25-13.448 13.535h26.896zm38.031-14.525c0 .905-.514 1.422-1.37 1.552-8.352 1.25-12.164 8.103-12.164 16.12v13.707c0 .82-.642 1.422-1.456 1.422-.813 0-1.456-.603-1.456-1.422V51.776c0-.819.643-1.422 1.456-1.422.814 0 1.456.603 1.456 1.422v6.38c2.399-4.01 7.067-7.802 11.949-7.802.728 0 1.585.517 1.585 1.336zm46.768 15.905c0 .819-.728 1.552-1.542 1.552h-28.438c.728 6.81 5.996 13.448 13.448 13.448 5.097 0 8.866-1.983 11.735-6.12.3-.432.728-.733 1.242-.733.814 0 1.413.603 1.413 1.422 0 .302-.085.517-.214.733-2.869 5.043-8.565 7.5-14.176 7.5-9.593 0-16.403-8.621-16.403-17.845 0-9.224 6.81-17.802 16.403-17.802 9.594-.043 16.532 8.621 16.532 17.845zm-3.041-1.38c-.6-7.284-5.996-13.534-13.448-13.534s-12.763 6.25-13.448 13.535h26.896zm49.251-14.224v31.38c0 .819-.728 1.422-1.456 1.422-.813 0-1.456-.603-1.456-1.422v-5.905c-2.398 4.698-6.553 8.103-11.863 8.103-8.48 0-13.191-7.37-13.191-15.172V52.034c0-.732.642-1.422 1.456-1.422s1.456.733 1.456 1.422v18.363c0 6.163 3.469 12.327 10.322 12.327 9.593 0 11.863-9.008 11.863-18.965V52.078c0-.733.643-1.423 1.456-1.423.685-.086 1.413.647 1.413 1.337zm71.779 12.845v18.362c0 .82-.728 1.423-1.456 1.423-.813 0-1.456-.604-1.456-1.423V64.836c0-6.163-3.469-12.198-10.321-12.198-8.566 0-11.863 9.224-11.863 16.422v14.138c0 .82-.728 1.423-1.456 1.423-.814 0-1.457-.604-1.457-1.423V64.836c0-6.163-3.383-12.198-10.193-12.198-8.651 0-12.249 6.854-11.948 15.991V83.2c0 .818-.643 1.422-1.457 1.422-.813 0-1.456-.604-1.456-1.423V51.82c0-.819.643-1.422 1.456-1.422.814 0 1.457.603 1.457 1.422v5.216c2.398-4.397 6.895-7.285 11.991-7.285 5.825 0 10.322 3.707 12.163 9.138 2.356-5.345 6.938-9.138 12.849-9.138 8.394 0 13.147 7.285 13.147 15.086z" fill="#FFBA00"/></svg>