<svg width="274" height="47" fill="none" xmlns="http://www.w3.org/2000/svg"><g clip-path="url(#clip0_332_79)" fill-rule="evenodd" clip-rule="evenodd" fill="#fff" fill-opacity=".5"><path d="M262.716 24.67l-3.989-10.829h-.966l-3.983 10.83h8.938zm9.027 12.938h-4.261l-3.339-9.065h-11.79l-3.335 9.065h-4.261l11.065-29.937h4.857l11.064 29.937zm-45.827-15.007c3.068 0 6.725-.95 6.725-5.474 0-4.796-4.212-5.512-6.725-5.512h-8.995v10.986h8.995zm3.395 3.573l7.135 11.41h-4.886l-6.844-11.003h-7.795v11.002h-4.052V7.671h13.047c7.444 0 10.776 4.75 10.776 9.456 0 6.746-5.459 8.603-7.381 9.047zm-30.669.047c0 .322-.09 7.861-7.832 7.861-7.207 0-7.817-6.019-7.832-7.86V7.671h-4.054v18.55c0 5.411 3.113 11.733 11.886 11.733 8.772 0 11.886-6.322 11.886-11.734V7.671h-4.054v18.55zm-27.784-18.55v3.98h-19.769v7.838h17.559v3.933h-17.559v14.161h-4.053V7.671h23.822zm-40.421 0v23.773h-.885L115.248 7.67h-5.244v29.912h4.053v-23.02h.884l13.656 23.02h5.893V7.671h-4.053zm-53.35 0v3.693h9.001V33.89h-9v3.692H99.14V33.89h-9V11.364h9V7.67H77.087z"/></g><g clip-path="url(#clip1_332_79)"><path fill-rule="evenodd" clip-rule="evenodd" d="M1.51 0v7.023l15.97-1.726h5.895v11.37l-9.926 3.189L0 23.264l1.997 6.869 12.888-5.203 8.49-2.727v18.665H17.48l-15.97-1.73v7.025h48.773v-7.024l-15.97 1.729h-5.897V22.202l8.449 2.713 12.933 5.218 1.995-6.869-13.414-3.398-9.962-3.2V5.298h5.896l15.97 1.726V0H1.51z" fill="#fff" fill-opacity=".5"/></g><defs><clipPath id="clip0_332_79"><path fill="#fff" transform="translate(77.087 7.446)" d="M0 0h196.565v31.272H0z"/></clipPath><clipPath id="clip1_332_79"><path fill="#fff" d="M0 0h53.087v46.163H0z"/></clipPath></defs></svg>