<svg width="232" height="54" fill="none" xmlns="http://www.w3.org/2000/svg"><path fill-rule="evenodd" clip-rule="evenodd" d="M1.839 9.214C0 12.825 0 17.55 0 27c0 9.45 0 14.175 1.839 17.786a16.922 16.922 0 007.375 7.375C12.825 54 17.55 54 27 54c9.45 0 14.175 0 17.786-1.84a16.922 16.922 0 007.375-7.374C54 41.175 54 36.45 54 27c0-9.45 0-14.175-1.839-17.786a16.922 16.922 0 00-7.375-7.375C41.175 0 36.45 0 27 0 17.55 0 12.825 0 9.214 1.84A16.922 16.922 0 001.84 9.213zm38.635 5.35c.474 0 .92.193 1.25.522.33.338.514.793.505 1.257-.083 5.03-.278 8.877-.64 11.923-.354 3.046-.886 5.307-1.687 7.138a11.308 11.308 0 01-1.993 3.096c-1.054 1.14-2.26 1.966-3.576 2.751-.563.337-1.149.669-1.762 1.017-1.31.744-2.75 1.562-4.382 2.653a1.744 1.744 0 01-1.948 0c-1.657-1.104-3.116-1.932-4.438-2.681l-.86-.491c-1.546-.895-2.937-1.747-4.152-2.979a10.59 10.59 0 01-2.068-2.97c-.758-1.57-1.274-3.467-1.654-5.923-.506-3.282-.758-7.577-.85-13.534-.01-.464.167-.92.497-1.257a1.786 1.786 0 011.257-.523h.725c2.237.009 7.172-.21 11.44-3.535.635-.49 1.52-.49 2.154 0 4.269 3.324 9.204 3.544 11.45 3.535h.732zm-3.923 19.718c.548-1.131 1.005-2.692 1.35-4.936.413-2.683.666-6.329.786-11.29-2.633-.076-7.155-.582-11.468-3.484-4.312 2.894-8.833 3.4-11.458 3.484.094 4.1.278 7.29.574 9.796.338 2.852.819 4.784 1.418 6.143.397.903.834 1.552 1.359 2.126.699.768 1.586 1.4 2.792 2.126.5.3 1.052.613 1.653.953a77.644 77.644 0 013.662 2.17 78.487 78.487 0 013.608-2.144c.318-.182.624-.355.915-.523 1.485-.852 2.582-1.561 3.4-2.388a7.466 7.466 0 001.409-2.033z" fill="#fff" fill-opacity=".5"/><path d="M75.155 21.612h-6.048v-3.564h16.47v3.564H79.53v15.336h-4.374V21.612zm15.374 2.727c.505-.702 1.18-1.233 2.026-1.593.863-.36 1.854-.54 2.97-.54v3.888a15.18 15.18 0 00-.945-.054c-1.207 0-2.152.342-2.835 1.026-.684.666-1.026 1.674-1.026 3.024v6.858h-4.212V22.422h4.022v1.917zm21.43-1.917v14.526h-3.996V35.22a5.744 5.744 0 01-1.998 1.458 6.437 6.437 0 01-2.511.486c-1.908 0-3.42-.55-4.536-1.647-1.117-1.099-1.674-2.727-1.674-4.887v-8.208h4.212v7.587c0 2.34.981 3.51 2.943 3.51 1.008 0 1.818-.324 2.43-.972.611-.666.918-1.647.918-2.943v-7.182h4.212zm7.979 14.742c-1.206 0-2.386-.144-3.537-.432-1.152-.306-2.07-.684-2.754-1.134l1.404-3.024c.648.413 1.431.756 2.349 1.026.918.252 1.818.378 2.7.378 1.782 0 2.673-.441 2.673-1.323 0-.414-.243-.711-.729-.891-.486-.18-1.233-.333-2.241-.46-1.188-.18-2.17-.386-2.943-.62a4.661 4.661 0 01-2.025-1.242c-.558-.594-.837-1.44-.837-2.538 0-.918.26-1.728.783-2.43.54-.72 1.313-1.278 2.322-1.674 1.026-.396 2.231-.594 3.618-.594 1.026 0 2.042.117 3.051.35 1.026.217 1.872.522 2.538.919l-1.404 2.997c-1.279-.72-2.673-1.08-4.185-1.08-.901 0-1.576.126-2.025.378-.45.252-.675.576-.675.972 0 .45.243.764.729.945.486.18 1.259.35 2.322.513 1.188.198 2.16.413 2.916.648a4.278 4.278 0 011.971 1.215c.557.594.837 1.422.837 2.484 0 .9-.27 1.7-.81 2.403-.54.702-1.333 1.25-2.376 1.647-1.026.378-2.251.567-3.672.567zm18.015-.918c-.414.305-.927.54-1.539.702a8.005 8.005 0 01-1.89.216c-1.728 0-3.068-.441-4.023-1.323-.935-.883-1.404-2.178-1.404-3.888v-5.967h-2.241v-3.24h2.241v-3.537h4.212v3.537h3.618v3.24h-3.618v5.913c0 .612.153 1.088.459 1.43.324.325.774.487 1.35.487.666 0 1.233-.18 1.701-.54l1.134 2.97zm37.254-18.198l-6.183 18.9h-4.698l-4.158-12.798-4.293 12.798h-4.671l-6.21-18.9h4.536l4.266 13.284 4.455-13.284h4.05l4.32 13.392 4.401-13.392h4.185zm6.114 4.158c2.249 0 3.977.54 5.184 1.62 1.205 1.061 1.809 2.673 1.809 4.833v8.289h-3.942v-1.81c-.793 1.35-2.268 2.026-4.428 2.026-1.117 0-2.089-.19-2.916-.567-.81-.378-1.431-.9-1.863-1.566-.432-.666-.648-1.422-.648-2.268 0-1.35.503-2.412 1.512-3.186 1.026-.775 2.6-1.161 4.725-1.161h3.348c0-.918-.28-1.62-.837-2.106-.559-.505-1.396-.756-2.511-.756a7.21 7.21 0 00-2.295.378c-.739.234-1.369.558-1.89.972l-1.512-2.943c.791-.558 1.736-.99 2.835-1.296a12.898 12.898 0 013.429-.46zm-.324 12.123c.719 0 1.358-.162 1.917-.486.557-.343.953-.837 1.188-1.485v-1.485h-2.889c-1.728 0-2.592.567-2.592 1.7 0 .54.206.973.621 1.297.432.306 1.016.459 1.755.459zm10.318-17.415h4.212v20.034h-4.212V16.914zm7.311 0h4.212v20.034h-4.212V16.914zm21.541 12.825c0 .054-.027.432-.081 1.134h-10.99c.198.9.667 1.61 1.405 2.133.737.522 1.655.783 2.754.783.755 0 1.422-.108 1.998-.324a5.04 5.04 0 001.647-1.08l2.24 2.43c-1.368 1.566-3.366 2.349-5.993 2.349-1.639 0-3.087-.316-4.347-.945-1.261-.648-2.233-1.54-2.916-2.673-.684-1.134-1.027-2.421-1.027-3.861 0-1.422.333-2.7 1-3.834a7.08 7.08 0 012.781-2.673c1.188-.648 2.51-.972 3.969-.972 1.422 0 2.708.306 3.861.918a6.589 6.589 0 012.7 2.646c.666 1.134.999 2.457.999 3.969zm-7.533-4.347c-.954 0-1.755.27-2.403.81-.648.54-1.045 1.277-1.188 2.214h7.155c-.144-.918-.54-1.647-1.188-2.187-.648-.558-1.44-.837-2.376-.837zm18.895 10.854c-.413.305-.926.54-1.539.702a8 8 0 01-1.89.216c-1.728 0-3.068-.441-4.023-1.323-.935-.883-1.404-2.178-1.404-3.888v-5.967h-2.241v-3.24h2.241v-3.537h4.212v3.537h3.618v3.24h-3.618v5.913c0 .612.154 1.088.459 1.43.324.325.775.487 1.35.487.667 0 1.234-.18 1.701-.54l1.134 2.97z" fill="#fff" fill-opacity=".5"/></svg>