<svg width="154" height="57" fill="none" xmlns="http://www.w3.org/2000/svg"><g clip-path="url(#clip0_332_72)" fill="#fff" fill-opacity=".5"><path d="M83.496 38.744h4.83v-22.61h-6.755l-5.472 14.102-5.472-14.102h-6.721v22.61h4.796V22.473l6.35 16.271h2.094l6.35-16.271v16.271zm18.999 0h4.289V28.168c0-4.712-3.411-6.203-7.127-6.203-2.567 0-5.134.813-7.126 2.576l1.62 2.881c1.386-1.288 3.007-1.932 4.763-1.932 2.162 0 3.581 1.085 3.581 2.746v2.271c-1.081-1.322-3.007-2-5.169-2-2.6 0-5.674 1.39-5.674 5.22 0 3.661 3.074 5.424 5.674 5.424 2.129 0 4.054-.78 5.169-2.102v1.695zm0-3.932c-.71.95-2.061 1.424-3.446 1.424-1.689 0-3.074-.882-3.074-2.407 0-1.56 1.385-2.474 3.074-2.474 1.385 0 2.736.474 3.446 1.423v2.034zm8.206 8.135c2.027 1.797 4.222 2.441 7.026 2.441 4.019 0 8.815-1.525 8.815-7.762V22.372h-4.323v2.1c-1.317-1.66-3.074-2.507-5.033-2.507-4.12 0-7.194 2.982-7.194 8.338 0 5.458 3.107 8.34 7.194 8.34 1.993 0 3.749-.95 5.033-2.577v1.661c0 3.22-2.432 4.136-4.492 4.136-2.061 0-3.783-.577-5.101-2.034l-1.925 3.118zm11.518-10c-.709 1.051-2.263 1.865-3.682 1.865-2.431 0-4.12-1.695-4.12-4.508 0-2.814 1.689-4.51 4.12-4.51 1.419 0 2.973.78 3.682 1.866v5.287zm10.706-12.982a2.57 2.57 0 002.567-2.577 2.57 2.57 0 00-2.567-2.576 2.592 2.592 0 00-2.567 2.576 2.592 2.592 0 002.567 2.577zm-2.128 18.78h4.29V22.371h-4.29v16.372zm7.496-8.204c0 5.05 3.614 8.61 8.647 8.61 3.344 0 5.37-1.458 6.451-2.983l-2.803-2.61c-.777 1.084-1.959 1.763-3.446 1.763-2.6 0-4.424-1.933-4.424-4.78 0-2.848 1.824-4.746 4.424-4.746 1.487 0 2.669.644 3.446 1.763l2.803-2.61c-1.081-1.526-3.107-2.983-6.451-2.983-5.033 0-8.647 3.559-8.647 8.576zM23.472 0a68.261 68.261 0 008.072 8.356A68.172 68.172 0 0028.55 28.4c0 6.978 1.048 13.71 2.994 20.046a68.225 68.225 0 00-8.072 8.355 68.268 68.268 0 00-8.072-8.355A68.167 68.167 0 0018.394 28.4c0-6.977-1.048-13.71-2.994-20.045A68.242 68.242 0 0023.472 0zM9.816 44.066A67.546 67.546 0 000 38.329 34.085 34.085 0 001.468 28.4c0-3.454-.513-6.787-1.468-9.928a67.565 67.565 0 009.816-5.737A68.364 68.364 0 0111.624 28.4a68.4 68.4 0 01-1.808 15.665zM35.32 28.4a68.4 68.4 0 001.808 15.665 67.567 67.567 0 019.816-5.737 34.086 34.086 0 01-1.468-9.928c0-3.454.513-6.787 1.468-9.928a67.567 67.567 0 01-9.816-5.737A68.363 68.363 0 0035.32 28.4z"/></g><defs><clipPath id="clip0_332_72"><path fill="#fff" d="M0 0h153.462v57H0z"/></clipPath></defs></svg>