<svg width="282" height="54" fill="none" xmlns="http://www.w3.org/2000/svg"><path d="M247.51 27.23c-1.447-.955-3.04-1.634-4.549-2.482-.979-.55-2.021-1.039-2.87-1.738-1.447-1.188-1.149-3.52.361-4.538 2.168-1.442 5.76-.636 6.143 2.311 0 .064.064.106.128.106h3.274c.085 0 .149-.063.128-.148-.17-2.036-.957-3.732-2.402-4.813-1.383-1.04-2.956-1.59-4.636-1.59-8.652 0-9.439 9.138-4.783 12.022.532.34 5.102 2.629 6.719 3.626 1.615.996 2.125 2.82 1.423 4.262-.638 1.314-2.296 2.226-3.953 2.12-1.808-.106-3.211-1.081-3.7-2.608-.085-.276-.128-.806-.128-1.04 0-.063-.063-.126-.127-.126h-3.55c-.063 0-.127.063-.127.127 0 2.566.638 3.986 2.381 5.28 1.636 1.23 3.421 1.738 5.272 1.738 4.847 0 7.356-2.735 7.864-5.576.447-2.778-.381-5.28-2.868-6.934zM93.366 14.804H90.07a.144.144 0 00-.128.085l-2.912 9.584a.133.133 0 01-.255 0l-2.912-9.584c-.022-.064-.064-.085-.128-.085h-5.42c-.064 0-.127.064-.127.127v24.47c0 .063.063.127.127.127h3.55a.138.138 0 00.128-.128V20.805c0-.149.212-.17.255-.043l2.933 9.648.213.678c.021.064.064.085.128.085h2.72a.144.144 0 00.128-.084l.213-.679 2.933-9.648c.043-.148.256-.106.256.043V39.4c0 .064.063.128.127.128h3.55a.138.138 0 00.128-.128V14.931c0-.063-.064-.127-.128-.127h-2.083zm99.786 0a.144.144 0 00-.128.085l-2.911 9.584a.133.133 0 01-.255 0l-2.913-9.584c-.021-.064-.064-.085-.128-.085h-5.4a.136.136 0 00-.127.127v24.47c0 .063.063.127.127.127h3.551a.138.138 0 00.128-.128V20.805c0-.149.212-.17.255-.043l2.932 9.648.213.678c.021.064.064.085.128.085h2.721c.064 0 .106-.042.128-.084l.212-.679 2.934-9.648c.043-.148.256-.106.256.043V39.4c0 .064.063.128.127.128h3.55c.063 0 .127-.064.127-.128V14.931c0-.063-.064-.127-.127-.127h-5.4zm-45.79 0h-16.773c-.064 0-.128.064-.128.127v3.054c0 .063.064.127.128.127h6.484V39.4c0 .064.063.128.127.128h3.55a.138.138 0 00.128-.128V18.112h6.484c.064 0 .127-.064.127-.127V14.93c0-.063-.042-.127-.127-.127zm20.939 24.723h3.231c.085 0 .148-.085.127-.17l-6.675-24.553c-.021-.064-.063-.085-.127-.085h-4.634a.144.144 0 00-.128.085l-6.675 24.553c-.021.085.043.17.128.17h3.231c.064 0 .106-.043.128-.085l1.934-7.145c.021-.064.064-.085.128-.085h7.143c.064 0 .106.042.128.084l1.934 7.146c.021.042.085.085.127.085zm-8.482-10.814l2.593-9.563a.134.134 0 01.256 0l2.593 9.563c.021.085-.043.17-.128.17h-5.187c-.085 0-.148-.085-.127-.17zm63.584 10.814h3.23c.085 0 .149-.085.128-.17l-6.675-24.553c-.021-.064-.064-.085-.128-.085h-4.634c-.064 0-.106.042-.128.085l-6.674 24.553a.135.135 0 00.127.17h3.232a.144.144 0 00.128-.085l1.934-7.145c.021-.064.064-.085.128-.085h7.142c.064 0 .107.042.128.084l1.934 7.146a.144.144 0 00.128.085zm-8.483-10.814l2.594-9.563a.133.133 0 01.255 0l2.593 9.563a.135.135 0 01-.127.17h-5.187c-.086 0-.149-.085-.128-.17zm-104.93 7.188v-7.59c0-.064.064-.128.127-.128h9.46c.064 0 .128-.063.128-.127v-3.053c0-.064-.064-.127-.128-.127h-9.46c-.063 0-.127-.064-.127-.128V18.26c0-.063.064-.127.127-.127h10.757c.064 0 .128-.064.128-.127v-3.054c0-.063-.064-.127-.128-.127h-14.562a.136.136 0 00-.127.127V39.4c0 .064.063.127.127.127h15.008c.064 0 .128-.063.128-.127v-3.223c0-.063-.064-.127-.128-.127h-11.224c-.064-.021-.106-.064-.106-.148zm169.959 3.414l-12.287-12.658a.127.127 0 010-.17l11.055-11.45a.122.122 0 00-.085-.212h-4.528c-.042 0-.064.021-.085.043l-9.375 9.71a.122.122 0 01-.212-.084v-9.542c0-.063-.064-.127-.128-.127h-3.551c-.064 0-.128.064-.128.127v24.47c0 .063.064.127.128.127h3.551a.138.138 0 00.128-.128V28.65c0-.106.149-.17.212-.085l10.629 10.941a.158.158 0 00.085.043h4.527c.086-.022.149-.17.064-.234z" fill="#fff" fill-opacity=".5"/><path d="M53.931 1.636L32.727 17.182l3.709-9.015 17.495-6.53zm-49.574 0l21.007 15.546-3.511-9.015-17.496-6.53zM46.193 38.51l-5.718 8.735 12.244 3.372L56.227 38.7l-10.034-.19zm-44.11.19l3.486 11.917 12.223-3.372-5.697-8.736-10.012.191zm15.05-14.948l-3.401 5.131 12.117.552-.486-12.253-8.23 6.57zm24.022 0l-8.428-6.57-.287 12.253 12.117-.552-3.402-5.131zM17.793 47.245l7.334-3.54-6.314-4.92-1.02 8.46zm15.37-3.541l7.312 3.541-.999-8.46-6.313 4.92z" stroke="#fff" stroke-opacity=".5" stroke-width=".25" stroke-linecap="round" stroke-linejoin="round"/><path d="M40.475 47.245l-7.312-3.54.595 4.75-.064 2.014 6.781-3.224zm-22.682 0l6.802 3.224-.042-2.015.573-4.75-7.334 3.541z" stroke="#fff" stroke-opacity=".5" stroke-width=".25" stroke-linecap="round" stroke-linejoin="round"/><path d="M17.792 47.245l1.063-8.736-6.76.191 5.697 8.545zm21.641-8.735l1.042 8.735 5.718-8.545-6.76-.19zm5.124-9.627l-12.117.551 1.126 6.213 1.786-3.753 4.315 1.972 4.89-4.983zm-25.914 4.983l4.294-1.972 1.785 3.753 1.127-6.213-12.117-.551 4.91 4.983z" stroke="#fff" stroke-opacity=".5" stroke-width=".25" stroke-linecap="round" stroke-linejoin="round"/><path d="M13.732 28.883l5.081 9.902-.17-4.92-4.91-4.982zm25.935 4.983l-.19 4.919 5.08-9.902-4.89 4.983zM25.85 29.434l-1.127 6.213 1.424 7.336.32-9.669-.617-3.88zm6.59 0l-.596 3.86.298 9.69 1.424-7.337-1.127-6.213z" stroke="#fff" stroke-opacity=".5" stroke-width=".25" stroke-linecap="round" stroke-linejoin="round"/><path d="M33.566 35.647l-1.424 7.336 1.02.721 6.314-4.919.192-4.92-6.102 1.782zm-14.923-1.781l.17 4.919 6.313 4.92 1.02-.722-1.424-7.336-6.08-1.781zm15.051 16.602l.063-2.014-.552-.467h-8.12l-.532.467.042 2.014-6.802-3.223 2.38 1.95L25 52.526h8.27l4.846-3.33 2.36-1.95-6.781 3.223z" stroke="#fff" stroke-opacity=".5" stroke-width=".25" stroke-linecap="round" stroke-linejoin="round"/><path d="M33.162 43.704l-1.02-.72h-5.995l-1.02.72-.574 4.75.531-.467h8.12l.554.467-.596-4.75zm21.684-25.126L56.653 9.8l-2.721-8.164-20.77 15.373 7.994 6.742 11.288 3.287 2.487-2.905-1.084-.784 1.722-1.57-1.318-1.017 1.722-1.315-1.127-.87zM1.636 9.8l1.828 8.778-1.169.87 1.743 1.314L2.72 21.78l1.722 1.569-1.084.784 2.487 2.905 11.289-3.287 7.993-6.742L4.357 1.636 1.637 9.8z" stroke="#fff" stroke-opacity=".5" stroke-width=".25" stroke-linecap="round" stroke-linejoin="round"/><path d="M52.444 27.038L41.156 23.75l3.4 5.132-5.08 9.902 6.718-.085h10.033l-3.783-11.662zm-35.311-3.286L5.845 27.038 2.083 38.7h10.012l6.718.085-5.081-9.902 3.401-5.131zm15.307 5.682l.467-12.425 3.53-8.842H21.852l3.274 8.842.723 12.425.276 3.902.021 9.647h5.995l.021-9.647.277-3.902z" stroke="#fff" stroke-opacity=".5" stroke-width=".25" stroke-linecap="round" stroke-linejoin="round"/></svg>