<svg width="189" height="55" fill="none" xmlns="http://www.w3.org/2000/svg"><g clip-path="url(#clip0_332_63)" fill="#fff" fill-opacity=".5"><path d="M24.153 54.817c13.337 0 24.15-10.838 24.15-24.208S37.49 6.402 24.152 6.402C10.816 6.402.004 17.24.004 30.609c0 13.37 10.812 24.208 24.15 24.208zm27.168-41.683c3.626 0 6.566-2.946 6.566-6.581 0-3.635-2.94-6.582-6.566-6.582s-6.565 2.947-6.565 6.582 2.94 6.581 6.565 6.581zm8.126 29.502h3.962l2.377-12.368c.34-1.74.68-4.54.68-4.54h.075s.037 2.573.15 4.162l1.02 12.746h4.112l5.924-12.784c.83-1.816 1.774-4.123 1.774-4.123h.075s-.679 2.648-1.056 4.539l-2.378 12.368h4l4.15-21.597h-6.225l-5.17 11.233c-1.245 2.686-2.188 5.599-2.188 5.599h-.038s-.038-3.102-.264-6.128l-.83-10.666h-6l-4.15 21.56zm30.865.454c5.283 0 8.566-4.35 8.566-9.305 0-4.576-3.208-7.073-7.132-7.073-5.282 0-8.716 4.274-8.716 9.154.038 4.766 3.245 7.224 7.282 7.224zm-3.245-6.96c0-2.988 1.359-6.354 4.453-6.354 2.377 0 3.32 1.854 3.32 3.896 0 2.95-1.32 6.355-4.452 6.355-2.377.037-3.32-1.778-3.32-3.896zm19.244 6.96c5.283 0 8.566-4.35 8.566-9.305 0-4.576-3.208-7.073-7.132-7.073-5.283 0-8.716 4.274-8.716 9.154 0 4.766 3.245 7.224 7.282 7.224zm-3.245-6.96c0-2.988 1.359-6.354 4.453-6.354 2.377 0 3.32 1.854 3.32 3.896 0 2.95-1.321 6.355-4.452 6.355-2.378.037-3.321-1.778-3.321-3.896zm18.15-8.964h-3.962l-2.981 15.47h4.037l1.623-8.434c.415-2.27 1.773-4.01 3.66-4.01 1.698 0 2.49 1.135 2.113 3.177l-1.811 9.305h4.037l1.849-9.758c.679-3.632-1.094-6.128-4.151-6.128-2.188 0-3.509.983-4.829 2.875h-.076l.491-2.497zm8.641 15.47h4.452l1.509-7.83h5.245c4.83 0 8.113-2.76 8.113-7.375 0-4.047-2.755-6.355-6.868-6.355h-8.263l-4.188 21.56zm7.886-17.777h3.962c1.962 0 2.981 1.059 2.981 2.799 0 2.572-1.849 3.669-3.849 3.669h-4.339l1.245-6.468zm19.168 17.777h3.811v-.15c-.226-.38-.339-1.098-.113-2.157l1.434-7.413c.83-4.502-2.038-6.166-5.887-6.166-3.962 0-6.414 1.93-6.942 5.107h3.622c.377-1.551 1.472-2.194 3.17-2.194 1.547 0 2.414.605 2.414 1.702 0 1.55-1.132 1.664-3.999 1.891-3.774.303-7.019 1.059-7.019 5.144 0 3.215 2.528 4.539 4.906 4.539 2.226 0 3.358-1.06 4.301-2.042h.076c-.038.642.037 1.21.226 1.74zm-5.622-4.539c0-2.118 2.151-2.004 3.622-2.307 1.019-.151 2-.416 2.943-.794l-.49 2.459c-.302 1.437-1.66 2.76-3.773 2.76-1.321 0-2.302-.718-2.302-2.118zm9.471 9.646h2.528c2.981 0 4.302-1.21 5.849-4.312l7.999-16.227h-4.113l-3.207 7.035c-.679 1.438-1.434 3.518-1.434 3.518h-.076s-.226-2.08-.452-3.518l-1.057-7.035h-4.226l2.226 11.007c.264 1.135.453 2.307.529 3.48 0 1.929-.982 2.874-2.68 2.874h-1.282l-.604 3.178zm18.074-26.175h1.547l-.868 4.463h1.094l.868-4.463h1.547l.189-.908h-4.188l-.189.908zm3.622 4.501h.981l.604-3.101.189-1.135s0 .643.038 1.059l.264 3.177h1.018l1.472-3.177c.226-.454.453-1.021.453-1.021s-.189.68-.264 1.135l-.604 3.101h1.019l1.056-5.447h-1.547l-1.283 2.8c-.302.68-.566 1.399-.566 1.399s0-.794-.075-1.513l-.189-2.648h-1.509l-1.057 5.371z"/></g><defs><clipPath id="clip0_332_63"><path fill="#fff" d="M0 0h188.665v54.808H0z"/></clipPath></defs></svg>