<svg width="127" height="44" fill="none" xmlns="http://www.w3.org/2000/svg"><g clip-path="url(#clip0_332_69)" fill="#fff" fill-opacity=".5"><path d="M33.478 9.374c3.105 0 5.05-2.117 5.05-4.725-.037-2.76-1.945-4.8-4.975-4.8-3.03 0-5.012 2.04-4.937 4.8-.075 2.608 1.907 4.725 4.862 4.725zM70.734-.151c-3.03 0-5.012 2.04-4.937 4.8-.075 2.608 1.908 4.725 4.863 4.725 3.104 0 5.05-2.117 5.05-4.725-.038-2.76-1.946-4.8-4.975-4.8z"/><path d="M66.022 13.116h-8.454l-2.656 4.914c-.786 1.512-1.534 3.062-2.357 4.687h-.112c-.785-1.436-1.608-2.986-2.469-4.536l-2.955-5.065H29.887c-.336-3.553-2.02-6.577-4.376-8.467-2.768-2.23-6.92-3.364-12.718-3.364-5.723 0-9.8.378-12.718.87v41.464h9.314V28.613c.86.114 1.982.19 3.217.19 5.573 0 10.324-1.361 13.503-4.423 1.197-1.134 2.095-2.532 2.731-4.12v23.397h17.73l2.843-5.48c.748-1.513 1.534-2.987 2.282-4.612h.187c.748 1.55 1.496 3.1 2.357 4.611l3.03 5.481H75.41v-30.54h-9.388zm-53.49 8.354c-1.348 0-2.357-.076-3.143-.265V8.845c.673-.19 1.982-.378 3.89-.378 4.676 0 7.332 2.306 7.332 6.161 0 4.31-3.067 6.842-8.08 6.842zm25.696 19.2V15.686l8.304 12.436-8.304 12.55zm19.6-13.002l8.193-11.983V40.71l-8.192-13.04zm57.306-8.997c-5.386-2.04-7.705-3.25-7.705-5.934 0-2.192 1.982-4.044 6.059-4.044 4.078 0 7.033 1.171 8.716 2.003l2.057-7.673c-2.468-1.134-5.91-2.117-10.623-2.117-8.641 0-14.251 4.271-15.486 10.168V1.588h-9.389v26.459c0 6.539-2.469 8.353-6.434 8.353-1.87 0-3.516-.302-4.825-.756l-1.047 7.673c1.87.605 4.675.983 6.845.983 9.127 0 14.813-4.196 14.813-16.14V15.95c1.047 4.763 5.199 7.9 11.184 10.017 5.012 1.814 6.957 3.288 6.957 5.934 0 2.76-2.281 4.536-6.62 4.536-4.003 0-7.893-1.323-10.437-2.608l-1.907 7.862c2.356 1.323 7.032 2.57 11.783 2.57 11.408 0 16.795-5.972 16.795-13.04.075-5.935-3.404-9.79-10.736-12.55z"/></g><defs><clipPath id="clip0_332_69"><path fill="#fff" d="M0 0h126.058v43.846H0z"/></clipPath></defs></svg>