<svg width="307" height="80" fill="none" xmlns="http://www.w3.org/2000/svg"><path d="M306.857 43.34c0 10.088-3.986 19.324-10.446 25.86-6.46 6.68-15.256 10.8-25.015 10.8H35.46C15.943 80 0 63.517 0 43.34c0-1.138 0-2.274.137-3.269 1.65 18.615 16.769 33.392 35.324 33.392h235.935c9.759 0 18.692-4.12 25.015-10.799 5.773-5.968 9.484-13.783 10.171-22.593.137.995.275 2.132.275 3.268zm0-6.68c0 1.138 0 2.274-.137 3.269-1.649-18.615-16.906-33.25-35.323-33.25H35.461c-9.758 0-18.692 4.12-25.015 10.799C4.674 23.304.963 31.26.138 39.928c-.137-.994-.137-2.13-.137-3.267 0-10.09 3.986-19.325 10.445-25.862C16.77 4.121 25.703 0 35.461 0h235.936c19.517 0 35.46 16.483 35.46 36.66z" fill="#4ACE24"/><path d="M306.582 39.929c-.825 8.81-4.536 16.767-10.171 22.593-6.46 6.679-15.256 10.8-25.015 10.8H35.323C16.768 73.321 1.65 58.684 0 39.928c.825-8.668 4.536-16.625 10.308-22.593 6.46-6.679 15.257-10.8 25.015-10.8H271.26c18.417.142 33.673 14.778 35.323 33.393z" fill="#4ACE24"/><path opacity=".46" d="M306.857 43.34c0 10.088-3.986 19.324-10.446 25.86-6.46 6.68-15.256 10.8-25.015 10.8H35.46C15.943 80 0 63.517 0 43.34c0-1.138 0-2.274.137-3.269 1.65 18.615 16.769 33.392 35.324 33.392h235.935c9.759 0 18.692-4.12 25.015-10.799 5.773-5.968 9.484-13.783 10.171-22.593.137.995.275 2.132.275 3.268z" fill="#20540F"/><path opacity=".5" d="M306.857 36.66c0 1.138 0 2.274-.137 3.269-1.649-18.615-16.906-33.25-35.323-33.25H35.461c-9.758 0-18.692 4.12-25.015 10.799C4.674 23.304.963 31.26.138 39.928c-.137-.994-.137-2.13-.137-3.267 0-10.09 3.986-19.325 10.445-25.862C16.77 4.121 25.703 0 35.461 0h235.936c19.517 0 35.46 16.483 35.46 36.66z" fill="#C8F9B9"/></svg>