<svg width="350" height="89" fill="none" xmlns="http://www.w3.org/2000/svg"><path d="M349.093 47.838c0 11.136-4.399 21.331-11.53 28.547-7.13 7.371-16.84 11.92-27.611 11.92H39.142C17.599 88.305 0 70.11 0 47.838c0-1.255 0-2.51.152-3.607C1.972 64.778 18.66 81.09 39.142 81.09h270.81c10.771 0 20.632-4.549 27.611-11.92 6.372-6.588 10.468-15.215 11.227-24.94.152 1.099.303 2.354.303 3.608zm.001-7.371c0 1.254 0 2.51-.152 3.607-1.821-20.547-18.661-36.702-38.99-36.702H39.142c-10.771 0-20.633 4.548-27.611 11.92C5.159 25.722 1.062 34.506.152 44.074 0 42.976 0 41.721 0 40.467 0 29.33 4.4 19.135 11.53 11.92 18.51 4.55 28.37 0 39.143 0h270.81c21.543 0 39.142 18.194 39.142 40.467z" fill="#4ACE24"/><path d="M348.942 44.074c-.91 9.724-5.007 18.508-11.227 24.939-7.13 7.371-16.84 11.92-27.611 11.92H39.142c-20.481 0-37.17-16.155-38.99-36.859.91-9.568 5.007-18.351 11.379-24.939 7.13-7.372 16.84-11.92 27.611-11.92h270.81c20.329.157 37.169 16.312 38.99 36.859z" fill="#35AC2E"/><path d="M349.093 47.838c0 11.136-4.399 21.331-11.53 28.547-7.13 7.371-16.84 11.92-27.611 11.92H39.142C17.599 88.305 0 70.11 0 47.838c0-1.255 0-2.51.152-3.607C1.972 64.778 18.66 81.09 39.142 81.09h270.81c10.771 0 20.632-4.549 27.611-11.92 6.372-6.588 10.468-15.215 11.227-24.94.152 1.099.303 2.354.303 3.608z" fill="#2C8C2C"/><path d="M349.094 40.467c0 1.254 0 2.51-.152 3.607-1.821-20.547-18.661-36.702-38.99-36.702H39.142c-10.771 0-20.633 4.548-27.611 11.92C5.159 25.722 1.062 34.506.152 44.074 0 42.976 0 41.721 0 40.467 0 29.33 4.4 19.135 11.53 11.92 18.51 4.55 28.37 0 39.143 0h270.81c21.543 0 39.142 18.194 39.142 40.467z" fill="#71B778"/></svg>