<svg width="177" height="203" fill="none" xmlns="http://www.w3.org/2000/svg"><path d="M63.629 100.017c-23.688 28.158-29.096 62.36-12.32 76.514 2.71 2.401 6.048 3.983 9.494 4.999 17.57 4.85 43.121-6.444 62.729-29.278.338-.229.471-.614.784-1.024l.157-.205.157-.204c18.752-22.353 25.937-48.695 19.48-65.503-.252-.519-.3-.88-.553-1.4-1.587-3.653-3.851-6.849-6.946-9.383-16.572-13.998-49.295-2.674-72.982 25.484zm59.58-14.143c11.201 9.557 6.489 33.732-10.694 54.037-17.183 20.306-40.105 29.227-51.462 19.875-11.177-9.376-6.49-33.731 10.694-54.036 17.183-20.306 40.286-29.252 51.462-19.876zM88.182 188.209l11.384 6.773c-7.945 2.524-13.08 2.652-13.08 2.652l-16.663-7.73s1.133.218 3.17.316c3.146.136 8.618-.221 15.189-2.011zm17.002-7.77l10.866 7.025c-4.101 2.383-8.068 4.38-11.565 5.763l-10.841-6.845c1.736-.782 3.472-1.564 5.366-2.55 2.074-1.011 4.124-2.202 6.174-3.393zm14.836-10.243l10.251 6.555a75.424 75.424 0 01-10.507 8.198l-10.503-7.073c3.762-2.154 7.116-4.622 10.759-7.68zm13.851-14.897l9.552 6.831-1.255 1.638c-2.981 3.891-5.853 7.215-8.929 10.382l-9.914-6.783c3.391-3.577 6.938-7.358 10.546-12.068zm11.769-18.117l9.009 6.903c-2.319 4.723-5.337 9.722-8.716 14.77l-9.395-7.036c2.8-3.867 5.528-8.276 8.389-13.07.266-.771.399-1.157.713-1.567zm7.961-19.084l8.624 6.77c-1.234 4.579-3.143 9.616-5.704 15.29l-8.647-6.951c2.584-5.494 4.494-10.53 5.727-15.109zm.204-24.867l11.416 11.184s.452 6.196-1.919 16.078l-8.672-7.132c1.914-10.557.125-17.128-.548-19.43a1.817 1.817 0 01-.277-.7z" fill="#6DD0E7"/><path d="M120.803 94.104c.024.18.229.338.253.519.784 11.487-5.052 27.163-16.673 40.844-9.219 10.972-20.34 18.7-30.226 21.848-1.085.144-2.17.288-3.279.25-.465-4.906-.611-15.742 6.175-28.415a86.736 86.736 0 014.563-7.228c.156-.205.313-.409.446-.795.785-1.024 1.545-2.228 2.51-3.276.157-.205.338-.229.314-.41 5.877-7.033 18.521-19.93 35.917-23.337zm-38.427 26.614l-.627.819.627-.819zm5.94-101.681L32.947 24.99l1.924 17.894 55.368-5.952-1.924-17.894z" fill="#6DD0E7"/><path d="M49.706 4.345l5.952 55.368L73.55 57.79 67.6 2.42 49.706 4.345zM34.442 88.41L2.746 84.124 1.361 94.367l31.696 4.286 1.385-10.243z" fill="#6DD0E7"/><path d="M14.928 74.912l-4.286 31.696 10.243 1.386 4.287-31.696-10.244-1.386z" fill="#6DD0E7"/></svg>