<svg width="194" height="214" fill="none" xmlns="http://www.w3.org/2000/svg"><path d="M0 68.645s34.87 36.172 59.722 12.751c0 0-13.272-9.758-15.874-7.156-2.472 2.472 1.171 8.978 1.301 9.238-.52-.52-10.93-9.498-7.286-14.573 2.862-4.033 21.208-.91 43.198 13.142l8.197-6.766 1.04 13.271c3.644 2.733 7.287 5.725 11.06 9.108l21.99-77.547S106.173 7.621 86.525 2.416L84.575 4.5v7.677L80.02 17.25l2.862-5.855-3.903-8.458.39-2.211C70.912-.576 62.454-.315 54.908 3.068l-15.744 58.55 1.561-50.353S24.591 9.834 19.387 2.417l-2.863 38.644C9.888 53.55 0 68.645 0 68.645zm100.448 102.66c20.819 3.123 38.384.65 39.425-5.725.65-4.294-6.376-9.108-17.305-12.751-1.301-.391-2.472-.781-3.904-1.171 1.301.39 2.603.78 3.904 1.301 7.286 2.732 11.84 5.855 11.45 8.587-.781 4.554-15.224 6.246-32.529 3.643-17.175-2.602-30.576-8.457-29.926-13.141.52-2.863 6.506-4.684 15.093-4.814h.781-.78c-12.492 0-21.34 2.602-21.99 7.026-1.04 6.115 15.093 13.792 35.781 17.045z" fill="#6DD0E7"/><path d="M52.566 168.183c-.91-.65-1.691-1.301-2.472-1.951.78.65 1.561 1.301 2.472 1.951zm-8.847-12.491c0 .781.13 1.562.39 2.473-.13-.911-.26-1.692-.39-2.473z" stroke="#fff" stroke-miterlimit="10"/><path d="M52.566 168.183c-.91-.65-1.691-1.301-2.472-1.951.78.65 1.561 1.301 2.472 1.951zm-8.847-12.491c0 .781.13 1.562.39 2.473-.13-.911-.26-1.692-.39-2.473z" stroke="#fff" stroke-miterlimit="10"/><path d="M7.937 149.056l23.68 5.855c1.562-6.115 6.897-11.32 14.964-15.093l-20.428-5.465-18.216 14.703zm152.624 37.862l26.283 6.506L194 179.632l-24.071-6.506v.261c-.651 5.334-4.034 9.888-9.368 13.531zM60.504 205.526l28.104 7.676 10.15-21.338c-8.849-.13-20.429-2.342-27.975-3.904l-10.28 17.566zm62.194-78.849l-1.822 5.855 4.034 1.171 3.253-5.595-5.465-1.431zm9.888-103.702s10.539 2.472 10.019 4.424l-36.692 132.456s-7.937.39-10.67-2.603l37.343-134.277z" fill="#6DD0E7"/><path d="M31.358 156.733c0-.651.13-1.171.26-1.692 1.431-6.115 6.896-11.32 14.963-15.093 15.874-4.164 31.097-5.465 44.369-5.205l-1.041 3.253H80.93c-.78 0-1.561 0-2.342.13-1.171 0-2.212.13-3.383.261-.39 0-.78.13-1.041.13-.39 0-.78.13-1.04.13-.651.13-1.432.13-2.083.26-.39 0-.65.13-1.04.13-.391 0-.651.13-1.041.13l-1.952.391-1.952.39c-1.04.26-1.952.39-2.993.65-.26 0-.52.131-.78.261-1.171.26-2.342.65-3.513 1.041-.52.13-.911.39-1.432.52h-.13c-.39.13-.91.39-1.3.521l-.782.39c-.26.13-.52.26-.65.39-.39.13-.65.391-1.041.521-.26.13-.65.26-.91.52-.391.26-.912.521-1.302.781-.26.26-.65.39-.91.65l-.13.13c-.261.261-.521.391-.781.651l-.781.781c-.13 0-.13.13-.13.13-.13.13-.39.39-.65.52-.261.261-.391.521-.651.651v.13c-.39.52-.781 1.041-1.041 1.561l-.13.13-.39.781s0 .13-.13.26c-.131.261-.131.391-.261.651s-.13.651-.26.911c0 .26-.13.65-.13.911v1.431c0 .78.13 1.561.39 2.472 0 .26.13.39.26.651.13.26.13.52.26.65.13.26.26.521.39.651.13.26.26.39.391.65.13.26.26.521.39.651.13.26.26.39.52.65.261.391.521.651.781 1.041.13.13.26.261.39.521l1.172 1.171c.39.39.78.78 1.17 1.041.131 0 .131.13.261.13.78.65 1.562 1.301 2.472 1.952.26.26.65.39.911.65 2.732 1.952 6.115 3.643 9.759 5.335.39.13.65.26 1.04.52.13 0 .13 0 .26.13.391.13.912.391 1.302.521.52.13.91.39 1.431.52l1.952.781 3.513 1.171 2.732.781c.781.26 1.692.52 2.472.65.39.13.781.26 1.302.391.52.13 1.17.26 1.691.39 2.082.52 4.164 1.041 6.376 1.431.91.13 1.691.39 2.602.521.52.13.91.13 1.431.26.65.13 1.171.26 1.822.26.26 0 .65.13 1.04.13.651.13 1.302.13 1.952.26.781.13 1.562.261 2.342.261 4.034.52 8.067.78 11.841.91h1.301c2.082 0 4.033.131 5.985 0 1.301 0 2.472 0 3.643-.13h1.171c.781 0 1.562-.13 2.342-.13.781 0 1.432-.13 2.212-.13.781 0 1.432-.13 2.212-.26.391 0 .651-.13 1.041-.13 1.822-.261 3.383-.521 5.075-.781.65-.13 1.301-.26 1.821-.39 1.301-.261 2.602-.521 3.773-.911.261-.13.521-.13.911-.26 1.692-.521 3.383-1.041 4.814-1.692.391-.13.781-.26 1.172-.52 1.04-.521 2.081-.911 2.992-1.432.39-.26.781-.39 1.041-.65 1.171-.781 2.212-1.561 3.123-2.472l.39-.391c1.301-1.301 2.212-2.732 2.733-4.163.13-.26.13-.651.26-.911s.13-.651.13-.911v-2.212c-.13-.65-.26-1.171-.39-1.821 0-.131-.131-.261-.131-.391-.26-.78-.65-1.561-1.041-2.342-.13-.26-.26-.52-.52-.78-.13-.261-.39-.521-.52-.781-.261-.26-.521-.651-.781-.911l-.781-.781c-.13-.26-.39-.39-.52-.65l-.391-.39c-.13-.131-.39-.391-.65-.521-.39-.26-.651-.651-1.041-.911-.26-.26-.651-.52-1.041-.78a3.93 3.93 0 00-.911-.651l-.13-.13c-.26-.26-.65-.521-1.041-.651-.78-.52-1.691-1.041-2.602-1.561-.39-.26-.781-.39-1.041-.651-.911-.52-1.952-1.041-2.993-1.561-.52-.26-.91-.52-1.431-.651-.52-.26-1.041-.52-1.561-.65-.391-.26-.911-.39-1.431-.651-.261-.13-.391-.13-.651-.26-.39-.13-.781-.26-1.171-.52-.781-.261-1.431-.521-2.212-.781l-1.171-.39-2.342-.781-1.171-.39c-1.041-.261-2.082-.651-3.123-.911-4.294-1.041-7.937-1.562-7.937-1.562l1.041-3.903c2.733.52 5.335 1.041 7.937 1.561a112.785 112.785 0 0112.491 3.513c6.376 2.212 11.45 4.684 15.614 7.157 0 0 .13 0 .13.13 6.245 4.163 10.799 8.848 13.271 13.662 0 .13.131.26.131.39 1.04 2.082 1.561 4.164 1.691 6.376v1.041c0 .52 0 .91-.13 1.431v.26c-.651 5.205-4.034 9.759-9.498 13.532-12.752 8.717-36.823 12.881-63.626 9.628-3.253-.39-6.246-.91-9.368-1.431a134.735 134.735 0 01-23.811-6.636c-20.688-7.676-33.96-19.777-32.398-31.617z" fill="#6DD0E7"/></svg>