<svg width="768" height="102" fill="none" xmlns="http://www.w3.org/2000/svg"><g clip-path="url(#clip0_257_6)"><path fill-rule="evenodd" clip-rule="evenodd" d="M820.364 39.202c-5.892-4.657-8.68-2.014-12.5 1.608-2.985 2.832-6.602 6.261-12.826 7.27a5.384 5.384 0 01-1.808.848 5.252 5.252 0 01-2.724 0c-8.505 1.927-7.702 4.36-4 8.85 6.401.385 11.149.721 11.141.87-.473.55-1.606 1.651-3.199 3.145 1.781-.262 3.588-.489 5.418-.673.798-1.494 2.332-2.7 4.27-3.206 2.955-.77 5.905.426 7.056 2.65 20.663.1 42.847 6.545 60.467 26.728 34.521 39.194-1.03 77.121-1.03 77.121-3.044 3.359-6.617 6.003-7.691 6.798l-.001.001c4.632-1.215 35.923-12.749 45.702-39.906 9.873-.112 24.706 2.744 38.132 17.156 13.518 13.79 14.49 28.564 9.522 40.541.436 1.337-.744 4.976-6.041 12.77-22.932 34.832-56.947 19.615-61.486 17.584l-.258-.115c18.2 18.625 40.197 13.968 40.197 13.968-16.264 53.534-54.524 56.393-54.524 56.393-11.295 41.558-44.516 48.988-44.516 48.988l-16.628-14.256 6.184 20.324c-3.23 6.796-16.238 13.702-24.191 17.925l-.115.061c-6.427-10.184-19.344-34.378-20.445-56.803.358-.265.093-.622.093-.622l10.316-13.72c-6.534 20.328 4.367 26.094 4.367 26.094-1.672-16.469 5.706-29.675 13.955-40.206 26.522-3.026 45.302-32.969 45.302-32.969-15.516 16.866-28.153 18.5-37.188 19.668l-.736.095c-32.027 1.566-50.241-14.835-50.241-14.835s-.093.622-.451.887c-16.456-13.276-23.633-31.205-23.805-32.184 1.051 16.375 2.724 32.844 7.906 42.842-.404.576-.784.995-1.165 1.415-.381.42-.761.84-1.165 1.416-18.08 31.638-63.968 45.122-66.798 42.79.112-.753-.003-1.541-.13-2.401a18.284 18.284 0 01-.199-1.783l-.047-.243c-2.527-13.268-8.958-47.028-32.752-71.765 0 0 39.34 92.068-36.166 133.554-2.172.899-4.16 1.432-6.011 1.93h-.002c-1.035.278-2.028.545-2.987.857h-.002c-.621-.093-1.242-.186-1.6.078-3.86.303-7.36.457-10.455.593h-.001c-3.611.158-6.673.293-9.117.612 2.566 1.974 24.249 18.576 37.524 14.839 0 0-5.626 31.276-35.716 49.668 0 0 12.067 4.351 16.357 1.177 0 0-4.204 17.497-1.416 26.5-7.9 25.212-38.354 58.815-38.354 58.815 33.578-7.694 48.097-38.911 48.097-38.911 22.905 6.29 50.535-16.923 50.535-16.923-13.289 5.961-26.893 5.515-37.373 3.31-10.48-2.204-18.459-6.261-21.118-7.613 2.917-11.012 16.75-46.147 60.2-53.954 12.239 5.331 34.4 16.598 46.41 29.844-6.091 6.72-15.492 16.443-22.705 17.907l-18.072-10.972 9.122 19.809s-16.292 30.316-59.156 29.941c0 0-12.682 35.945-68.278 37.799 0 0 10.001-20.128-3.46-42.813 0 0-.665 34.245-18.351 46.226-17.065 12.074-47.626 20.855-65.755-8.889-17.864-29.387-.6-44.928-.6-44.928s38.647-7.572 44.373-26.749c-11.517 6.862-47.561 24.681-81.689-6.504 0 0-6.97-8.676-7.935-10.728-.34-.724 2.653-1.78 7.771-3.586 9.392-3.314 25.94-9.154 42.185-20.101 1.298-1.237 2.506-2.408 3.715-3.579a696.368 696.368 0 013.079-2.971c-3.967 3.545-23.77 18.614-46.513 14.915-25.142-4.082-18.35-119.773 77.708-134.968l28.188.721-18.658-2.793-22.64-5.933s-13.126-5.781 2.623-6.921c2.581-.25 5.069.122 7.557.494.414-9.16 4.103-29.596 24.77-48.763-3.217 2.381-5.097 4.326-5.097 4.326l-10.709 5.711-1.772-.901s28.888-52.917 65.104-42.09c7.542 2.719 13.482 5.516 17.728 9.014l-.514-2.939.092-.622-.047-.336c-4.88-2.049-8.046-6.827-7.776-12.218.153-3.042 1.61-6.02 3.459-8.106l-7.046-7.326-40.343-4.201.174-3.478-33.079-1.221 1.652 1.826-.566 11.302-3.719 4.607-34.363-1.722-.087 1.739c2.11 1.413 3.284 4.087 3.132 7.13-.24 4.782-4.351 8.498-9.135 8.258-4.785-.24-8.503-4.348-8.264-9.13.174-3.478 2.066-6.433 4.742-7.607.456-.413.478-.847.5-1.282-.932-.047-1.871.031-2.742.104-.755.063-1.459.121-2.064.091-.979-1.45-.764-4.245-.563-6.867.05-.641.098-1.273.128-1.871l-2.61-.131.414-8.259-6.525-.327c-.565 2.586-1.457 2.977-4.502 2.825-.413-.457-.391-.891-.348-1.761-.434-.021-.413-.456-.391-.891l-5.22-.261-1.13-12.259-75.377-8.311c-1.599.268-3.061.39-4.389.405.141.48.282 1.015.404 1.593l1.707-.115.115 1.708-1.684.457s.184 2.734-.088 3.782l1.389.25-.545 2.097-1.366.092s-.864 2.461-1.136 3.509l1.412.592-.933 1.436-1.412-.592s-.591 1.413-1.228 2.143l1.163 1.981-.319.365-.659.388-.319.364-1.14-1.639s-1.001.41-2.321 1.186l.046.683.411 1.003-1.32.775-.66.388-1.163-1.982c-1.001.411-2.003.822-3.027.891l.115 1.709.41 1.002-.556.97c.74.406 1.202.922 1.271 1.49.053 1.459-2.53 2.676-5.751 2.793-2.376.086-4.45-.48-5.396-1.345l.122.906.411 1.002-1.32.776-.66.387-1.186-2.323-1.573-2.984-1.638 1.141.687 5.103.312.763c21.788 17.089 46.949 47.479 37.487 88.86-11.421 50.97-62.993 44.485-62.993 44.485-4.506-.49-8.746-1.828-10.019-2.23 3.704 3.035 31.422 21.581 59.137 13.538 5.892 7.924 12.298 21.607 8.529 40.941-3.212 19.044-14.592 28.512-27.2 31.529-.826 1.139-4.463 2.323-13.881 2.615-41.652 1.909-49.331-34.561-50.355-39.428l-.002-.009-.057-.268c-4.371 25.675 12.322 40.74 12.322 40.74-52.864 18.296-77.659-10.989-77.659-10.989-40.256 15.279-65.788-7.241-65.788-7.241l1.761-21.834-12.807 16.948c-7.395 1.379-20.626-5.09-28.716-9.045l-.117-.058c4.462-11.185 16.444-35.857 33.938-49.925.424.134.557-.29.557-.29l17.161.286c-20.284 6.658-18.542 18.868-18.542 18.868 12.339-11.031 27.357-12.82 40.724-12.331 18.033 19.686 53.292 17.289 53.292 17.289-22.762-2.645-31.51-11.913-37.764-18.539l-.509-.54c-20.087-24.999-17.522-49.378-17.522-49.378s-.558.29-.982.156c1.069-21.119 11.355-37.463 12.047-38.178-12.63 10.473-24.97 21.505-30.012 31.574-.703.012-1.267-.05-1.83-.111-.563-.061-1.127-.123-1.83-.111-36.218 3.959-74.09-25.255-73.867-28.917.676-.351 1.245-.908 1.866-1.515.405-.396.832-.813 1.325-1.209l.17-.181c6.884-7.326 21.682-23.074 31.285-44.585l-1.317-.172-2.797 4.308-.273 1.048-.541-.097c-.516 1.677-2.843 1.819-4.397 1.914l-.227.014-.429.015c-1.278.046-2.519.091-3.802.084a19.933 19.933 0 01-1.683-.086c-.705-.055-1.412-.111-2.109-.074a13.11 13.11 0 00-1.582.182c-22.573 20.088-58.297 38.868-102.611 17.982-2.003-1.231-3.603-2.525-5.093-3.731v-.001h-.001l-.002-.002-.003-.002v-.001l-.003-.001-.002-.002v-.001c-.83-.671-1.626-1.315-2.44-1.905v-.002c-.29-.557-.58-1.115-1.004-1.249-2.513-2.946-4.694-5.688-6.623-8.114v-.001c-2.25-2.829-4.158-5.228-5.852-7.018-.09 3.237-.779 30.541 10.045 39.088 0 0-28.607 13.826-61.167.282 0 0 3.572 12.322 8.66 13.929 0 0-16.625 6.879-22.27 14.426-25.037 8.422-70.115 3.521-70.115 3.521 25.955 22.653 59.74 16.06 59.74 16.06 8.37 22.234 43.385 30.955 43.385 30.955-12.632-7.253-20.265-18.525-24.64-28.302-4.374-9.777-5.781-18.617-6.25-21.564v-.001c10.622-4.11 47.174-13.561 79.021 17.017 2.88 13.037 6.788 37.593 3.13 55.096-9.016-.98-22.405-2.875-27.829-7.852l-1.743-21.074-10.665 19.023s-34.097 4.629-58.982-30.282c0 0-36.53 10.859-70.699-33.046 0 0 22.159-3.734 32.6-27.959 0 0-28.093 19.586-48.178 12.312-19.795-6.715-44.857-26.288-31.448-58.439 13.275-31.726 35.992-26.887 35.992-26.887s28.835 26.828 47.713 20.194c-12.318-5.289-47.914-23.989-42.741-69.934 0 0 2.923-10.739 4.016-12.726.386-.701 2.999 1.1 7.467 4.181 8.2 5.654 22.648 15.615 41.049 22.33 1.764.323 3.421.613 5.078.903 1.384.242 2.768.484 4.214.746-5.199-1.128-29.026-8.299-39.398-28.879C-189.991 61.654-92.411-.832-23.672 67.98l7.354 10.693c-.221-1.762-.367-3.548-.491-5.256l-4.008-10.28c-.442.296-.94.727-1.501 1.31.307-.875.653-1.713 1.03-2.514l-3.613-9.267s-3.036-14.02 7.14-1.944c.848.957 1.56 1.985 2.203 3.049 2.095-2.184 4.238-3.909 5.97-5.302 1.319-1.061 2.398-1.93 3.037-2.663 1.9-2.182 3.899-12.144 4.91-17.801.222-1.107 1.71-1.41 2.278-.338C3.005 32.079 7.94 38.89 17.064 39.684c10.903.97 19.714-8.654 22.648-12.201.377-.414 1.144-.225 1.2.345.413 2.834 1.603 8.518 4.778 11.492 2.742.208 5.604.52 8.513.972C64.395 35.8 86.28 16.014 92.987 9.744c.366-.303.778.077.522.39-10.07 15.327-15.975 27.013-19.186 35.99 5.259 2.473 10.063 5.76 13.893 10.108 1.308-2.975 2.942-5.797 5.015-8.363 1.397-1.66 2.9-3.19 4.512-4.592.277-.244.556-.51.84-.78.974-.925 2.009-1.908 3.24-2.304.589-.157 1.245-.032 1.832.08l.239.044c.439.07.867.107 1.295.145.428.039.855.077 1.295.146.885.078 1.636.324 2.174.966a70.047 70.047 0 011.952-2.56 1.598 1.598 0 01-.5-1.056c-.039-.356-.156-.673-.271-.983-.175-.474-.344-.934-.222-1.498.191-.815.378-1.572.682-2.317.784-2.13 1.799-4.18 3.314-5.828-.02-1.785 1.227-3.101 2.899-3.844.784-.308 1.711-.015 2.482.23l.099.03.127.04c.172.075.402.155.633.235h.001l.059.006c.17-.58.695-1.127 1.408-1.123.654-.002 1.218.346 1.653.8 1.25-.007 2.435.04 3.604.262 1.754.335 3.574 1.27 4.895 2.458.131.113.266.227.404.343l.002.002c.505.424 1.041.875 1.459 1.426.385-.323.712-.65 1.038-.978.037-.039.079-.086.124-.137.275-.31.688-.776 1.13-.583.515.224 1.224.94 1.477 1.439.097.247.071.541-.074.826.977.384 2.105 1.079 2.637 1.78.445.582-.203 1.1-.713 1.51a3.6 3.6 0 00-.404.352c-.672.674-.195 1.31.262 1.92.21.28.416.554.504.824.092.305-.063.708-.207.992-.363.74-1.021 1.455-1.718 1.928.35.744.523 1.473-.419 2.043-1.329.892-2.781 1.18-4.256 1.048-.059-.005-.124.048-.129.107-.684 1.01-.291 1.936.215 2.932.36.627.823 1.44.288 2.107-.184.229-.496.306-.793.38a3.068 3.068 0 00-.38.11c-.913.273-.979.722-1.056 1.244-.026.178-.053.363-.115.554 1.298.115 3.014.209 3.061-.322.074-.826.331-1.04 1.156-.967l4.661.415.032-.354c.063-.708.11-1.239-.379-1.758-1.47-.19-2.998-.386-4.473-.517-.649-.058-.607-.53-.555-1.12l.004-.04.012-.203c.032-.555.09-1.575.463-1.794.292-.16.924-.072 1.384-.008a16.25 16.25 0 00.338.042l2.536.226c.023-.252.085-.457.155-.692l.037-.123.064-.054.021-.004c.436-.084 1.436-.276 1.69.156.151.31.242.616.334.921l2.006.18c1.673-.09 3.341-.12 4.923.14 0 0 .059.006.054.065-.064.717-.444 1.224-.833 1.743a8.395 8.395 0 00-.449.64c-.487.788-1.047 2.403.353 2.706.698.181.928.261.945.738l-.078.885c1.013-.029 2.075.066 3.078.155.354.032.408.096.382.39.043.183.032.301.017.478.383.034.753.052 1.123.07.37.018.74.037 1.124.07.015-.176.09-.348.165-.52.038-.128.059-.2.107-.236.06-.046.161-.037.391-.017 1.775.1 3.603.262 5.372.42h.002c.5.044.534-.005.763-.338l.046-.066c.209-.338.417-.676.685-1.009l.045-.056.009-.012.008-.01.001-.002c.208-.262.245-.309.622-.275 2.848.075 5.803.28 8.614.767.354.032.456.22.42.632l-.074.826c.519-.489 1.103-1.032 1.676-1.456.122-.076.185-.115.25-.118.068-.004.14.032.286.106.628.294.623.353.591.707-.062.7-.14 1.414-.219 2.135-.081.736-.162 1.48-.228 2.224-.038.422.199.44.629.474l.16.012 13.982 1.246c.002.654-.056 1.303-.189 2.123-.005.06-.064.054-.064.054-1.569-.14-3.132-.273-4.693-.405h-.01l-.002-.001h-.007c-3.128-.266-6.248-.53-9.388-.85-.059-.005-.375.204-.44.258-.251.156-.493.194-.552.189-2.011-.12-3.191-.225-4.778-.426-.219.456-.579.484-.697.473l-4.306-.383c.112.07.166.133.273.262.284.382.352.797.421 1.213.034.208.069.416.13.62.058.243.121.47.183.69.169.603.323 1.154.304 1.85l.005.326c.013.633.03 1.442-.268 1.968-.272.442-.442.936-.608 1.422-.343 1.003-.673 1.967-1.868 2.34-.555.187-1.113.201-1.68.216-.435.011-.875.023-1.323.112-.182.043-.377.07-.573.097a6.262 6.262 0 00-.574.098c.099.9.138 1.796-.167 2.541-.32.714-.819 1.287-1.32 1.863-.543.624-1.088 1.25-1.407 2.056a5.748 5.748 0 01-.493 1.02c10.596 1.962 19.65 4.934 27.384 8.518l-.551-3.635 1.911-2.188 2.732-.184-.046-.684 6.807-.801.046.683 2.049-.138-.092-1.367-.683.046-.092-1.367-2.391.161-.069-1.025-1.707.115-.161-2.392 1.707-.115-.161-2.393 1.366-.092.115 1.71 6.807-.803-.092-1.367 8.173-.893-.069-1.026.637-.73s1.297-1.116 1.273-1.458c.319-.365 1.708-.115 1.708-.115l.069 1.025 14.91-2.72s.319-.365 1.343-.434c.365.319.388.66.388.66s7.808-1.212 8.15-1.235c.341-.023.41 1.002.41 1.002l21.671-4.206-.046-.683 2.709-.526.637-.73.161 2.393-2.64 1.55c-.023-.341-21.671 4.207-21.671 4.207l-.272 1.048-2.709.526.115 1.708-3.323 1.597-1.343.434.069 1.025-5.782.733-.365-.319-1.001.411-8.196.552-5.119 5.494.526 2.711 4.646 2.777 8.856-.94 3.753-5.402 14.661-1.33.847 7.495 31.515-1.219.028-1.988 1.72.024-.026 1.898 2.688-.104 3.891-3.352 4.417-.641.115 1.709-3.757.253-3.891 3.352 1.117 1.298 4.735-1.006.433 1.344 9.128-1.988-.046-.683 8.468-1.6.48 2.027 2.551-.525.119-8.645 6.022.083-.076 5.506 4.696-1.05c.866-3.73 1.659-7.433 1.711-11.237l.045-3.22.015-1.073.86.012c.009-.644.233-1.285.454-1.71l-4.899-3.503.218-.212-.206-.646-1.067-.659.003-.215-1.49-1.093-3.833-2.844.221-.426 3.835 2.629 1.491 1.093.215.003 2.13 1.532.86.012.218-.211.212.217.218-.211 1.703 1.311.218-.212.212.218s.221-.426.657-.85c.218-.211.431.006.431.006l.212.218c.212.218-.006.43-.006.43l-.439.637.427.22-.006.43.221-.426.639.438c.648-.206 1.296-.412 2.157-.4 2.581.036 4.704 1.997 4.669 4.573l.86.011-.104 7.512 1.936.026.43.007.139-10.087 9.033.124 5.358 9.611 3.769-.731.091-6.606.406-10.997 15.055.208-.377 8.851-.026 1.932-.003.214-.03 2.146c-.003.215.206.647.636.653l.216.003.056-4.077 6.237.086-.06 4.292.431.006.085-6.224 5.377.075-.086 6.223.645.01.432-7.663 3.441.048-.429 7.447.861.012.505-13.027 3.441.047-.505 13.027.86.012.431-7.661 3.441.047-.431 7.662 3.011.041-.068 4.937a.646.646 0 00.099.32c.64.114 1.28.23 1.921.351l13.24.183.215 2.788c4.726 1.167 9.472 2.437 14.25 3.715l.006.002c2.959.791 5.931 1.587 8.918 2.363a6.24 6.24 0 016.246-5.238c1.935.026 3.429.906 4.701 2.211l1.521-1.052.212.217.218-.211.212.217.857.227 2.172-1.473.215.003 1.52-1.052 3.683-1.881.209.432-3.91 2.737-1.52 1.052-.003.215-.869.631-.006.43.212.217-3.259 2.316c-.003.215.048.43.099.646.051.216.102.43.099.645l4.516.063-.038 2.757a279.01 279.01 0 007.647 1.484c.025-.02.051-.038.077-.057l.006-.43 1.505.022.216.003.86.011c.215.003.218-.211.218-.211l.725-5.786.003-.214-.212-.218c.215.003.218-.212.218-.212l.477-3.428.003-.214-.212-.218c.215.003.218-.211.218-.211l.257-3.002.003-.215-.215-.002c.215.002.218-.212.221-.427l.23-1.07 1.29.018.2 1.076c-.003.215.209.432.209.432s-.215-.003-.218.212l-.003.215.174 3.007c-.003.215.212.218.427.22-.107 0-.161-.002-.188.025a.077.077 0 00-.021.04l-.004.021-.001.014c-.003.029-.003.065-.004.112l-.003.215.168 3.437c-.003.214.212.217.427.22 0 0-.215-.003-.218.212l-.003.214.353 5.586c-.003.215.212.218.427.22l7.312.102.215.003.219-.212.026-1.931a.462.462 0 00-.424-.436l-.86-.011.08-5.795 3.656.05-.08 5.795-1.291-.018c-.215-.003-.215-.003-.218.212l-.003.215-.026 1.931c-.003.215.212.218.212.218l3.656.05c.215.003.215.003.218-.212l.215.004.86.011c.215.003.215.003.218-.211l.212.217 1.721.024-.006.43-.645-.01c.854.442 1.487 1.309 1.688 2.385 6.036-.99 11.431-2.203 15.317-3.223 7.124-1.833 24.373-4.815 29.331-5.605l-10.79 13.355c16.864 1.344 34.415 2.372 51.597 3.258l.039-.099.024-.054c-.752-.17-1.428-.354-1.703-.937-.491-.859-.183-1.718.386-2.47-.445-.23-.92-.613-1.074-.981-.383-.722.064-1.688.648-2.362-.43-.154-.906-.538-.997-.998-.199-.997.416-1.917 1.261-2.484l-2.917.581c-.256.051-.527.117-.806.186-.726.177-1.505.368-2.204.334-.322-.016-.368-.246-.429-.552-1.229.244-2.381.474-3.594.795-.19.038-.333.175-.487.322-.218.21-.456.438-.88.429-.568-.047-1.259-.308-1.796-.6a9.336 9.336 0 01-.39-.219h-.001c-.599-.347-.744-.431-2.234-.135l-2.687.535c-1.845.368-3.682.708-5.517 1.048h-.001c-2.747.51-5.489 1.017-8.241 1.613l-.069.014-.059.012c-.665.137-.865.178-1.023-.993-.038-.3-.104-.528-.155-.706v-.001h-.001c-.134-.466-.168-.584.664-.75 5.882-1.33 11.886-2.447 17.814-3.548 1.075-.214 1.336-.505 1.153-1.426-.29-1.457-.504-2.93-.717-4.402-.061-.307.017-1.12.155-1.227.516-.54.732-.385 1.058-.153.091.065.191.136.308.2.131.053.246.13.361.207.115.077.23.153.36.207l.737.491c-.099-.866.236-.93.956-1.068l.085-.016.043-.009.053-.01 1.48-.322.012-.002c3.864-.84 7.336-1.594 8.766-1.879 1.167-.153 1.781.124 2.164.845.18.231.317.527.437.788l.002.004.008.017.028.062.031.065c.413.874.751.967 2.195.6 1.904-.46 3.885-.934 5.805-1.316.716-.143.764-.082.907.102.072.093.167.215.382.359.276.184.537.291.69.26.446-.168.83-.244 1.214-.32.794-.159.807-.237.849-.502.02-.12.045-.276.15-.495.061-.092.276-.215.737-.306.655-.184 1.324-.3 1.993-.415.334-.058.669-.116 1.001-.182l.019-.003.031-.006c.252-.045.726-.13.627-1.003-.061-.705.37-.95 1.199-1.195.975-.344.959-.42.779-1.303l-.002-.01-.038-.19c-.291-1.458-.673-2.976-1.916-3.606-.353-.169-1.319-1.412.094-1.534.791-.038 1.597-.099 2.403-.16a88.06 88.06 0 012.403-.16c.464-.007.945-.04 1.436-.075h.001c.436-.03.879-.062 1.327-.076 1.013-.122 1.228-.245 1.106-.858-.092-.808.033-.827.414-.886l.145-.023.037-.008.019-.003c.23-.046.445-.069.66-.092.215-.023.43-.046.661-.091.817-.163.886.047 1.07.602l.019.058c.061.306.844.63 1.151.568 1.229-.245 2.534-.505 3.777-.673 1.091-.137 1.305.14 1.55.967.153.369.26.906.29 1.458.152 1.166-.032 1.442-1.184 1.671-1.05.247-1.775.412-2.467.568h-.002c-.764.174-1.488.338-2.568.595-.921.183-1.121.782-.862 2.085.138.69.721.814 1.412.676 1.29-.337 2.687-.535 4.085-.734 1.394-.202 1.414-.13 1.62.579l.019.067.018.06c.184.522.613.676 1.458.508l4.453-.887c-.383-.721-.904-1.335-1.718-1.412l-.194-.015c-.544-.037-1.217-.084-1.586-.508-.414-.476-.26-1.304-.059-1.902l.054-.137.141-.353c.399-.992.741-1.845.821-2.822l-.998.198c-1.935.306-3.652-1.505-4.649-2.901-.244-.316-.474-.62-.699-.92l-.011-.014-.005-.006-.001-.001c-.557-.74-1.086-1.442-1.737-2.16l-.056-.055-.062-.061c-.43-.422-1.145-1.124-1.047-1.725.17-1.15.939-2.1 1.708-3.051l-1.196-1.197c-.399-.4-.921-1.013-.966-1.642-.044-1.427 1.784-2.668 3.151-3.419a1.755 1.755 0 00-.153-.169h-.001c-.049-.05-.099-.1-.153-.168-.092-.062-.107-.139-.045-.23.198-.365.489-.638.8-.93h.001c.146-.137.296-.278.444-.435l.037-.057.042-.066c.197-.306.509-.791.843-.858.691-.138 1.611.476 2.21 1.075.947-1.417 2.55-2.507 3.94-3.452l.007-.004.254-.173.163-.111c2.028-1.44 4.301-2.452 6.758-2.941 2.212-.52 5.037-.764 7.524-.303.783-.475 1.644-.965 2.457-.888 1.228.154 2.348.968 3.299 1.736 2.562 2.041 4.401 5.263 5.549 8.224 1.317 3.406 1.774 6.904 1.064 10.554-.17.751-.431 1.441-.693 2.13v.002c.644.43 1.473.584 2.379.722 1.376.102 2.439-.301 3.678-.772l.222-.084c1.644-.567 2.886.063 4.237.83 2.964-.75 7.001-.118 8.794 2.475.833 1.166.808 2.782.785 4.257-.005.29-.009.576-.007.851l.003.014.002.02c.008.062.001.114-.005.166a.554.554 0 000 .2c1.734 1.783 3.231 3.86 4.551 5.948 1.725-1.796 4.148-3.624 6.473-2.99.707.175 1.319.495 1.931.815.553-1.074 1.606-2.727 3.408-4.467l-2.507-.406c-5.744-2.866-4.144-4.668.086-1.539l3.887.655a23.321 23.321 0 012.446-1.712c-14.432-4.736-7.134-22.528 14.09-16.994l1.266-3.412-3.42-.749c-.112-.105-.245-.214-.378-.323a9.286 9.286 0 01-.184-.152 4.546 4.546 0 01-.194-.17c-6.556-1.061-13.116-2.101-19.665-3.14a6174.713 6174.713 0 01-19.413-3.098c.071-.42.142-.84.282-1.16l34.901 5.878 4.625.78c.176-.054.361-.114.553-.177l.002-.001c.406-.133.841-.275 1.269-.378.294.05.585.12.876.19.29.07.581.141.876.191.231-.09.48-.156.729-.222s.498-.132.729-.223c.519.001.939.072 1.36.143l.589.1c.378.322.672.63 1.036 1.037.371.105.717.228 1.064.351h.001v.001c.347.123.694.246 1.065.352.149.128.301.242.449.353.224.17.438.33.615.517 2.197.37 4.376.715 6.545 1.059h.003c2.147.34 4.284.679 6.417 1.038 7.729 1.302 15.403 2.529 23.128 3.756-.477-8.628-6.349-22.779-27.425-46.944-.275-.256.056-.657.431-.425 7.706 5.453 34.608 23.803 42.262 23.688 7.125-.095 7.914-9.728 7.948-13.6-.02-.531.662-.802 1.062-.468 3.146 2.895 12.468 10.644 22.382 8.379 8.299-1.88 11.984-8.771 13.608-13.13.387-1.059 1.796-.967 2.14.024 1.642 5.08 4.736 13.998 6.759 15.767.68.595 1.784 1.258 3.131 2.069 3.996 2.404 10.138 6.099 13.729 13.105zm-85.995 12.63c.001.177-.001.352-.005.523-.586-.29-1.241-.58-1.964-.854l1.969.331zM589.147 165.208s-.177.253-.474.748l.355-7.085h.002l5.014.107a181.029 181.029 0 00-4.897 6.23zM326.071 159.2c-1.091.345-1.927.84-2.342 1.415l-.31-2.306 1.661-.799.991 1.69zm.554-.157c.466-.117.967-.209 1.494-.27l-.307-1.447c-.683.046-1.707.115-2.413-.181l1.226 1.898zm6.016.033c-.908-.267-2.01-.413-3.215-.391l-.271-1.793 2.39-.161.411 1.003.685 1.342zM723.25 49.979c-4.008.077-8.811 1.043-14.383 3.635-.74-.195-1.481-.39-2.222-.583.295-.727.605-1.538.83-2.363-1.004-1.552-3.602-2.116-6.166-2.672-1.116-.243-2.226-.483-3.194-.804-.441-.156-.942-.262-1.441-.367-1.071-.226-2.128-.45-2.539-1.166 10.008 1.275 19.465 2.737 29.115 4.32zM93.127 180.76c.054.107.103.217.145.329l.832.217 1.569-2.166c-.341.023-.365-.319-.365-.319l-.775-1.321c-.145.01-.228.016-.3.047-.098.042-.176.131-.36.341l-.746 2.872zm-1.433-1.41c.304.141.573.33.806.554l.35-1.947c-.502.206-.923.32-1.344.434-.421.114-.842.228-1.343.434l-.188.216c.608-.004 1.214.053 1.72.309zm4.59-6.43l-2.068-3.114.114-.136 1.93 2.908 2.346-2.686.225.11a10.431 10.431 0 01-2.548 2.918zm2.322-3.028l-3.174-1.542.194-.236 3.182 1.546-.202.232zm-1.16 5.009c1.596-1.111 2.847-2.525 3.772-3.925a112.345 112.345 0 01-2.733 6.771l-.855-.112.66-.388c.318-.364.295-.706-.07-1.025l-.774-1.321zm217.982-10.433c-.39-.285-.777-.566-1.163-.842l.574-.276.589 1.118zm.82.604c.314.233.629.469.945.708l.539-.221-.641-4.42 2.64-1.551 1.961 3.644 1.001-.411-.64-4.419 1.98-1.164c-5.875-.634-8.791-3.184-8.791-3.184l-6.829.46c1.519.938 2.561 2.288 3.188 3.814 1.522.015 2.784.507 2.811 1.238.022.593-.905 1.146-2.15 1.364.013.114.025.227.034.341.006.063.01.127.015.19l.022.346c.008.151.015.311.018.475.377.261.757.525 1.14.795l1.279-.752 1.478 2.747zM157.393 55.901c-1.563.807-2.383 2.257-3.221 3.74-.532.942-1.071 1.897-1.813 2.709-.53.606-1.414 1.181-2.164 1.59-.75.409-1.125.613-1.287-.233-.125-.606-.248-3.233-.19-3.881.027-.295.107-.526.294-.628.629-.526.631-1.41.634-2.269.002-.458.003-.908.099-1.292.096-.408.83-.64 1.313-.715l.063-.708c.016-.177.149-.344.316-.21.22.198.301.621.329.98.603.054 1.972.193 3.238.322h.007c1.085.111 2.091.213 2.472.247.526.107.215.257-.09.349zM585.44 92.36c.029.95-.155.828-.722.383-.72-.537-1.584-.929-2.422-1.308h-.001a90.62 90.62 0 01-.432-.197c-.593-.307-1.009-.792-1.424-1.276-.208-.242-.416-.484-.646-.704-1.089-1.06-2.116-2.21-3.144-3.361-.813-.875-1.672-1.182-2.685-1.46-.675-.184-1.028-.353-.107-.536L580 82.676c.691-.137.921-.183 1.044-.766.011-.084.024-.16.037-.232l.017-.097a5.25 5.25 0 00.055-.33c.189-.807.589-.247.829.09l.036.05.032.044.023.031c.322.414.614.675.997.998.529.505.607 1.1.69 1.73.026.192.051.388.091.586.047.238.084.485.12.734l.001.002c.093.633.189 1.284.475 1.857.26.506.444 1.028.566 1.641.368 1.044.443 2.225.427 3.345zm15.431-1.08c-.319.087-.657.114-.994.14-.783.06-1.557.121-2.063.947a6.38 6.38 0 00-.158.256c-.192.322-.4.67-.749.802-.737.306-1.321.582-1.936 1.103-.276.215-.506.26-.829.245-.629.045-.859-.307-.858-1.105-.044-1.825-.089-3.65-.363-5.43-.137-.69.062-.89.83-1.043.432-.086.871-.182 1.313-.279.893-.195 1.797-.393 2.68-.516a.337.337 0 01.368.246c.034.173.058.373.082.58.05.434.103.893.269 1.184.339.534.527.588.725.644.143.04.29.082.502.308.491.46.997.997 1.35 1.565.169.046-.016.322-.169.353zm-709.417 139.288l-11.338-23.171c19.599 9.746 52.185 7.897 61.747 7.355l1.228-.069c-28.252.877-85.449-32.106-85.449-32.106-4.372 25.674 33.812 47.991 33.812 47.991zM-3.206 99.163s-48.403-10.616-35.098 47.693c-.067-4.219 3.009-40.564 35.522-47.56l-2.343-5.87c-.318 1.007-.203 1.567-.063 2.243v.005c.037.177.075.362.107.565l1.875 2.924zm350.257 147.421c.268-.848.111-1.83-.335-3.371l-2.231 1.162 1.74 3.348c.067-.212.24-.391.413-.569.173-.179.346-.358.413-.57zM137.63 367.988c23.522 11.157 60.498 1.839 60.498 1.839 30.284 20.755 51.349 10.147 50.501 9.879-4.91-8.08-5.536-20.873-5.626-26.498-2.922 10.739-6.805 14.177-6.805 14.177-22.829-3.008-37.76-22.182-37.76-22.182-20.149 23.959-56.814 17.515-56.814 17.515l-2.656-7.835-1.338 13.105zm136.949-18.806c.045 2.813 3.529 27.236 34.569 24.907 28.096-1.859 28.249-36.329 27.377-46.866l.268-.848c-.022-1.406-.313-1.965-.313-1.965l-.669 2.121c-5.757.515-38.65 1.326-49.319-15.103.737 2.099 7.589 17.323 27.429 26.851-1.829 8.752-9.549 27.305-39.342 10.903zm57.672-192.155l1.002-.411-.023-.341-1.366.092.387.66zm249.23 13.232l.891-.391.175-3.477-4.785-.24 3.719 4.108zm-29.26 274.037l25.407 4.439s-40.491 17.789-58.691-.835c0 0 60.292-26.91 76.184-50.289l-.666 1.034c-5.18 8.057-22.832 35.516-42.234 45.651zm-1.035-101.599c-54.988-23.496-17.957-56.431-17.957-56.431l-3.467-.201a12.386 12.386 0 00-.525-.248c-.629-.284-1.15-.52-1.778-1.369l6.127 1.554c-13.447 30.423 14.147 54.27 17.6 56.695zm304.196-254.98c1.508.544 2.394.995 2.923 1.71.133.178.175.423.218.668.043.245.086.49.218.67l-3.731-.56.372-2.488zm15.11 194.656s-14.19 35.4-37.038 47.88l-9.815-8.783 7.9 2.454s26.758-25.887 19.216-56.272c0 0 24.284-.817 40.133-17.525 0 0-.5-5.163-7.47-13.838 4.603 3.233 15.32 10.243 24.742 11.018.715-.529-3.082 22.752-37.668 35.066zm68.686-87.346c-16.356 26.49-38.16 14.958-40.462 13.341 30.776-14.473 20.303-31.623 14.298-38.246-19.366 10.457-35.708 7.056-37.838 6.42 19.559 1.019 38.231-26.078 41.198-31.04l-1.322-1.788s.622.093 1.773.902l.529.715c9.035 5.486 36.83 25.865 21.824 49.696z" fill="#003C4A"/></g><defs><clipPath id="clip0_257_6"><path fill="#fff" d="M0 0h768v101.623H0z"/></clipPath></defs></svg>