<svg width="2200" height="188" fill="none" xmlns="http://www.w3.org/2000/svg"><path fill-rule="evenodd" clip-rule="evenodd" d="M1584.35 52.316l-.37-.632c-21.19 8.55-38.23 15.554-52.99 21.625l-.01.001c-50.44 20.74-74.35 30.573-146.75 53.805-22.03-17.556-51.7-37.657-83.15-58.965-32.35-21.924-66.6-45.127-96.35-68.15l-175.72 164.119-167.902-26.893-41.001-121.584-201.013-9.078c-45.156 44.041-58.497 55.822-87.792 81.692a8832.977 8832.977 0 00-26.053 23.073l.078.031-52.105 4.168-.007-.009c-50.825 6.488-77.791 8.791-139.227 14.036l-.013.002h-.002l-.019.001c-17.915 1.53-38.761 3.31-63.983 5.517-.129-3.733-7.232-19.643-15.555-38.287-11.691-26.188-25.789-57.768-26.351-68.574L0 185.241l187.461-106.74 37.017 105.464c30.191-3.062 53.071-5.419 72.348-7.405l.033-.004.029-.003h.006c59.827-6.164 84.951-8.753 186.354-17.731l-.307-.443 85.516-22.595-.288-.112c18.532-31.18 21.185-34.81 43.433-65.258a9999.75 9999.75 0 0014.476-19.849c13.243 0 55.263-1.007 91.735-1.881 27.966-.67 52.671-1.263 58.641-1.263l22.487 116.711h6.091l272.828 22.245 13.03 1.396.26-.313.09.008 1.76-2.218 111.73-133.566 176.01 111.051c73.79-22.138 98.22-30.517 133.82-42.734l.01-.001v-.003c21.69-7.438 47.51-16.3 91.16-30.556l-.24-.415 283.88 4.681c25.88 28.509 37.96 41.843 77.71 90.237h101.62L2200 56.581l-32.83-.385-114.54 87.823c-5.93-.657-16.23-.831-27.89-1.029-15.2-.258-32.72-.555-45.88-2.012-4.75-8.321-8.75-15.308-12.2-21.321-18.79-32.746-21.01-36.62-36.04-69.747l-1.21.321-345.06 2.085z" fill="#5C5A82"/></svg>