<svg width="120" height="120" fill="none" xmlns="http://www.w3.org/2000/svg"><circle cx="60" cy="60" r="59" fill="url(#paint0_linear_214_343)" stroke="#fff" stroke-width="2"/><path d="M92.085 86.94s-3.562-1.13-1.188-2.714c2.375-1.583 7.972-1.979 7.972-1.979s-6.275-.508-6.671-3.335c-.396-2.827 3.336-4.071 3.336-4.071s-2.658.17-4.863-.113c-2.205-.848-6.954-.452-6.954-.452 1.583.113 5.993 2.092 6.05 5.145l-1.866-.283c.848.282 1.47.848 1.81 1.13-.283 1.244-1.358 2.658-3.506 4.184l-3.731.848s-.679-.735-1.018-1.3c-.34-.509-4.014-.678-4.014-.678s2.77 1.017 2.827 1.3c0 .283.226 1.922.565 2.714a64.683 64.683 0 01-3.28 1.356c-3.618 1.357-6.84 2.319-9.724 2.997-.282-.056.283-.283.17-.396-.17-.17-.791-2.374-.848-2.487-.057-.113-1.357-2.884-1.357-2.884s.565 1.866.565 2.657c0 .792-.452 2.036-.508 2.432-.057.339-.283.96-.396 1.243-1.979.396-3.732.566-5.428.735-1.583-.056-3.675-.17-4.297-.339-1.017-.282-.678-2.77-.678-2.77s-.905 1.47-2.205 2.657c-.113.113-.17.113-.226.226-3.053-.452-5.371-1.3-7.18-2.035-.679-.848 4.014-2.092 4.014-2.092s-2.77.452-4.354.735c-.621.113-1.074.057-1.47 0-1.187-2.205 2.884-5.088 2.884-5.088-3.901 2.261-6.389 4.975-6.22 6.728-.395 1.526-.169 2.205-3.392 5.088.905-.792 4.976-3.11 8.707-2.035 4.297 1.3.396 5.88.396 5.88s5.258-5.485 9.498-4.75c4.24.792 7.124 4.806 7.124 4.806s2.035-5.71 7.35-6.502c5.314-.735 11.646 1.3 11.646 1.3s-1.865-2.77.283-4.692c2.148-1.922 10.177-3.166 10.177-3.166zM60.142 43.633l-2.884 18.091 3.901-1.526.961 11.364 3.166-18.205-3.844 1.13-1.3-10.855z" fill="#fff"/><path d="M93.103 31.307l-9.329 3.223L88.354 20 71.617 33.343l-2.883 16.565 5.823-2.261-5.088 15.887 5.767-1.697-1.13 16.283 16.847-27.703-6.445 1.696 8.594-20.806zm-15.774 36.24l1.809-9.497-4.297 1.356 4.75-16.17-6.672 2.488 2.374-10.855 5.71-4.24-2.77 8.99 7.972-3.167-5.993 18.658 4.41-1.188-7.293 13.626zm-41.103-4.861l-6.558 1.017 26.46 18.77L48.607 68l5.936-.678-10.968-12.665 6.276-.226-9.216-14.078L20 34.7l9.95 11.533-9.893.792 16.17 15.66zm.679 1.752l4.523-.678-12.89-14.756 8.593-.283-6.106-7.124 6.897 1.64 6.502 9.046-7.124.396 10.742 12.947-4.466.452 5.428 7.972-12.1-9.612z" fill="#fff"/><defs><linearGradient id="paint0_linear_214_343" x1="60" y1="0" x2="60" y2="120" gradientUnits="userSpaceOnUse"><stop stop-color="#369FD7"/><stop offset="1" stop-color="#2071D3"/></linearGradient></defs></svg>