<svg width="120" height="120" fill="none" xmlns="http://www.w3.org/2000/svg"><circle cx="60" cy="60" r="59" fill="url(#paint0_linear_214_392)" stroke="#fff" stroke-width="2"/><path d="M41.857 36.505s2.758 6.754 4.503 10.918l10.355-2.363-3.49-11.931c-3.545-.45-11.368 3.376-11.368 3.376zm14.971 8.78l4.558 17.333 5.966-14.463c.562-1.295.787-4.109.45-5.46l-10.974 2.59z" fill="#fff"/><path d="M76.862 40.951l-.9-5.177c-1.07-6.19-2.308-12.72-2.308-12.72s-6.697-3.32-20.316-1.519l-2.814.394C44.052 23.055 36.23 25.25 27 29.302c0 0 2.926 7.991 6.303 15.701l1.182 2.702c2.251 4.896 4.615 9.342 6.303 10.805 3.602 3.152 15.927 10.974 21.273 14.295a.427.427 0 00.225.112c1.689.788 3.152.45 3.152.45l.506-.562s12.269-22.512 11.537-27.633c-.112-1.07-.337-2.532-.619-4.22zM63.693 69.147s-16.658-11.2-19.81-13.957c-3.151-2.758-8.61-23.074-8.61-23.074 21.217-9.343 33.767-4.784 33.767-4.784s3.601 14.126 4.108 17.615c.45 3.49-9.455 24.2-9.455 24.2z" fill="#fff"/><path d="M43.32 74.943s-6.696 3.602-4.389 6.135c2.195 2.42 18.122 6.19 37.594 1.575 3.827-.9 5.909-1.407 8.216-3.095 2.645-1.97 4.39-4.784-1.069-7.598 0 0 10.299 2.533 9.06 7.035 0 0-4.445 10.3-40.238 9.624-3.151-.056-6.303-.394-9.342-1.182-6.19-1.745-13.226-5.346.169-12.494z" fill="#fff"/><path d="M51.312 73.593s-3.995 1.913-2.588 3.264c1.294 1.294 10.805 3.32 22.342.844 2.307-.506 3.546-.732 4.896-1.632 1.576-1.07 2.589-2.533-.619-4.052 0 0 6.134 1.35 5.403 3.77 0 0-2.645 5.516-23.918 5.122-1.858-.056-3.771-.225-5.572-.62-3.714-.956-7.935-2.87.056-6.696zM34.373 87.775c-1.858.45-4.334.506-4.334.506.338-.281 1.013-1.294 1.688-2.307.62.45 1.801 1.406 2.646 1.8zm64.888-6.697s-1.8.225-3.208.281c.563-.506 1.238-1.407 1.463-1.688.676.45 1.52 1.182 1.745 1.407zM48.723 94.247c-2.87 1.97-8.329 6.078-8.329 6.078.45-3.096.62-5.797.507-7.091 2.026.45 5.796.956 7.822 1.013zM97.01 89.35s-7.204-.28-10.862-.844c2.139-.619 5.065-2.082 6.641-2.757.9 1.181 4.108 3.433 4.22 3.602zm-21.836 3.433C73.317 95.034 70.39 101 70.39 101c-1.744-2.758-5.74-6.134-7.54-7.091 3.432-.169 9.623-.788 12.324-1.126z" fill="#fff"/><defs><linearGradient id="paint0_linear_214_392" x1="60" y1="0" x2="60" y2="120" gradientUnits="userSpaceOnUse"><stop stop-color="#08941C"/><stop offset="1" stop-color="#08841C"/></linearGradient></defs></svg>