<svg width="120" height="120" fill="none" xmlns="http://www.w3.org/2000/svg"><circle cx="60" cy="60" r="59" fill="url(#paint0_linear_214_350)" stroke="#fff" stroke-width="2"/><path d="M81.059 57.29l-4.41 36.356-.045.36-.225-.09L44.3 76.143l11.518-.45-8.144-15.883 7.469 4.14 2.7 1.574 2.79 1.665h.044l.045.045.72 1.35-2.52-.135 6.255 12.193-6.255-.9 15.029 9.134 1.484-17.593-2.924 5.625-6.254-12.194-1.305 1.98-.675-1.35h-.045l.315-3.33.27-3.014.99-8.459 8.144 15.883 7.109-9.134z" fill="#fff"/><path d="M65.04 62.914l.496 2.205-1.26.225h-.045L53.792 44.962v-.045l.09-3.15 10.664 20.247.495.9zm-5.264 5.176l.9-.9-10.439-20.383-2.61-1.8 10.62 21.372 1.53 1.71zm-15.883-9.9L31.745 35.108 29 34.028 43.893 58.19zm21.193-12.148L54.467 26.604l.855-2.61 9.764 22.048zm-10.214-7.514l-9.044-18.133.45-1.395 8.594 19.528zm-8.324 11.023l-5.265-10.394-1.8-.81 7.065 11.204zM41.913 61.16l-1.26 10.304v.09l-.044-.045-9.09-4.995 3.24-.135-2.294-4.5 2.114 1.17.765.45.81.45v.046l.225.36-.72-.046 1.755 3.465-1.755-.27 4.275 2.61.405-4.995-.855 1.575-1.755-3.42-.36.54-.225-.36.09-.944.09-.855.27-2.43 2.295 4.5 2.024-2.565z" fill="#fff"/><path d="M37.37 62.735l.134.63-.36.09-2.924-5.805v-.9l3.014 5.76.135.225zm-1.486 1.485l.27-.27-2.97-5.76-.72-.495 3.016 6.03.404.494zm44.68-32.127L78.81 46.716v.18l-.09-.044-12.913-7.2 4.634-.135-3.284-6.434 2.97 1.665 1.124.675 1.125.675h.045l.27.54-1.035-.045 2.52 4.904-2.52-.36 6.074 3.69.585-7.11-1.17 2.25-2.52-4.904-.54.81-.27-.54.136-1.35.09-1.215.405-3.42 3.284 6.39 2.835-3.645z" fill="#fff"/><path d="M74.13 34.343l.18.9-.495.09-4.185-8.234v-1.26l4.32 8.144.18.36zm-2.115 2.07l.36-.36-4.184-8.19-1.08-.719 4.274 8.594.63.675zM55.097 88.786L75.299 99l-19.752-1.71 9.763-.855-10.213-7.649zm29.471-15.207L81.014 95.94l10.213-17.008-6.434 7.424-.225-12.778z" fill="#fff"/><defs><linearGradient id="paint0_linear_214_350" x1="60" y1="0" x2="60" y2="120" gradientUnits="userSpaceOnUse"><stop stop-color="#8A5424"/><stop offset="1" stop-color="#754C24"/></linearGradient></defs></svg>