<svg width="120" height="120" fill="none" xmlns="http://www.w3.org/2000/svg"><circle cx="60" cy="60" r="59" fill="url(#paint0_linear_214_408)" stroke="#fff" stroke-width="2"/><path d="M79.515 90.13c4.69 5.285 8.456 6.87 8.456 6.87.198-2.444-.859-6.21-2.312-10.041-1.321-.727-4.36-.595-6.144 3.17zm-6.87-22.858c.198.198 5.153 6.606 5.747 9.843.727-.066.727-1.057.727-1.057-.594-4.954-6.21-8.654-6.474-8.786z" fill="#fff"/><path d="M49.325 45.076l6.54 12.288.528 4.558 7.861 11.032 3.04.991c2.377 5.417 7.728 10.702 10.239 13.873.066-.066.132-.132.132-.264 1.717-4.492 5.35-4.162 6.738-3.435v-.067c-.264-.528-2.378-4.161-3.7-6.21-.065.86-.726 5.682-7.2-1.65 0 0-3.964-6.343-3.831-13.015 0 0 5.086 1.982 8.39 7.267l.33-3.633c-.066.066-.595-.991-.463-1.124l-8.918-11.296-3.435-2.048-7.465-9.777c-1.123-.066-2.444.33-3.237.462L63.132 53.4 59.3 54.92l-7.73-10.636c-.131-.33-2.245.792-2.245.792zm11.957 11.23l3.17-1.783 2.775 1.387 3.37 5.153-3.105 1.322-3.171-4.427-3.04-1.651zm.132-14.798l7.333 8.588 2.246.991 1.255 2.246 24.046-4.558-7.332-3.105-1.586.132-.793 1.652-14.203-.264-6.077-6.078-5.153.396h.264zm-16.449 6.078l2.114 11.495-4.03-4.228-15.657 12.551-1.783 5.351 22.13-11.759 4.889 1.454-.132-5.22-5.748-10.37-1.783.726zM54.28 65.29l4.095 6.144-9.579-1.387-.594-1.652 6.077-3.105zm23.187-7.134l5.219-1.057 1.585 1.916-2.312 4.162-4.492-5.021z" fill="#fff"/><path d="M72.512 44.151l-3.634-4.03-.396-9.38.925.925 3.105 12.485zm-28.34 9.315l-1.651-11.428-1.057-1.057-.33 7.332 3.038 5.153zm-2.378.066l-2.642-4.492-3.7.396.132.793 6.21 3.303z" fill="#fff"/><path d="M72.645 67.272c.198.198 5.153 6.606 5.747 9.843.727-.066.727-1.057.727-1.057-.594-4.954-6.21-8.654-6.474-8.786z" fill="#606060"/><path d="M72.645 67.272c.198.198 5.153 6.606 5.747 9.843.727-.066.727-1.057.727-1.057-.594-4.954-6.21-8.654-6.474-8.786zM22.9 69.518L12 50.03l11.495 16.45-.595 3.038zm72.271-23.65l-14.6-17.506 12.817 16.714 1.783.792zm-55.227-5.747L28.317 24.134l10.702 16.978-3.37-1.255 3.898 3.7.397-3.436zM67.03 29.684L57.846 17l7.663 12.816-1.85-.33 3.105 3.237.264-3.04zM25.609 72.756l1.717-8.654 4.228-2.378 1.322 2.51-1.19 4.228-6.077 4.294z" fill="#fff"/><defs><linearGradient id="paint0_linear_214_408" x1="60" y1="0" x2="60" y2="120" gradientUnits="userSpaceOnUse"><stop stop-color="#369FD7"/><stop offset="1" stop-color="#2071D3"/></linearGradient></defs></svg>