<svg width="200" height="200" fill="none" xmlns="http://www.w3.org/2000/svg"><circle cx="100" cy="100" r="99" fill="url(#paint0_linear_214_372)" stroke="#fff" stroke-width="2"/><path d="M161.325 76.263s-21.808 22.621-37.35 7.974c0 0 8.3-6.102 9.928-4.475 1.546 1.546-.733 5.615-.814 5.777.326-.325 6.835-5.94 4.557-9.113-1.79-2.523-13.264-.57-27.015 8.218l-5.127-4.231-.651 8.3a102.009 102.009 0 00-6.916 5.696L84.185 45.91s10.74-7.811 23.028-11.066l1.221 1.302v4.8l2.848 3.174-1.791-3.662 2.442-5.289-.245-1.383c5.29-.814 10.579-.65 15.298 1.465l9.846 36.617-.976-31.49s10.09-.896 13.345-5.534l1.79 24.167c4.15 7.812 10.334 17.251 10.334 17.251zm-62.819 64.202c-13.02 1.953-24.005.407-24.656-3.58-.406-2.685 3.988-5.696 10.823-7.975.814-.244 1.546-.488 2.441-.732-.814.244-1.627.488-2.441.814-4.557 1.709-7.405 3.661-7.16 5.37.487 2.848 9.52 3.906 20.342 2.279 10.741-1.628 19.122-5.289 18.716-8.219-.326-1.79-4.069-2.929-9.44-3.011h-.488.488c7.812 0 13.345 1.628 13.752 4.394.651 3.825-9.439 8.626-22.377 10.66z" fill="#fff"/><path d="M128.451 138.513a25.763 25.763 0 000 0zm5.533-7.812c0 .489-.081.977-.244 1.546.081-.569.163-1.057.244-1.546zm-5.533 7.812a25.763 25.763 0 000 0z" stroke="#fff" stroke-miterlimit="10"/><path d="M133.984 130.701c0 .489-.081.977-.244 1.546.081-.569.163-1.057.244-1.546z" stroke="#fff" stroke-miterlimit="10"/><path d="M156.362 126.551l-14.81 3.662c-.976-3.825-4.313-7.08-9.358-9.439l12.776-3.418 11.392 9.195zM60.913 150.23l-16.438 4.068L40 145.673l15.054-4.069v.163c.407 3.336 2.522 6.184 5.858 8.463zm62.574 11.636l-17.576 4.801-6.347-13.345c5.533-.081 12.775-1.464 17.495-2.441l6.428 10.985zm-38.896-49.311l1.14 3.662-2.523.732-2.034-3.499 3.417-.895zm-6.183-64.853s-6.591 1.546-6.266 2.766l22.947 82.837s4.964.244 6.672-1.628L78.408 47.702z" fill="#fff"/><path d="M141.715 131.352c0-.407-.082-.733-.163-1.058-.895-3.825-4.313-7.079-9.358-9.439-9.927-2.604-19.448-3.418-27.748-3.255l.651 2.034h5.615c.488 0 .976 0 1.465.082.732 0 1.383.081 2.115.162.244 0 .489.082.651.082.244 0 .489.081.651.081.407.081.895.082 1.302.163.244 0 .407.081.651.081.244 0 .407.082.651.082l1.221.244 1.22.244c.651.163 1.221.244 1.872.407.163 0 .325.081.488.162.732.163 1.465.407 2.197.651.326.082.57.245.895.326h.082c.244.081.569.244.813.325l.488.245c.163.081.326.162.407.244.244.081.407.244.651.325.163.082.407.163.57.326.244.162.57.325.814.488.162.163.407.244.569.407l.082.081c.162.163.325.244.488.407l.488.488c.081 0 .081.082.081.082.082.081.245.244.407.325.163.163.244.325.407.407v.081c.244.326.488.651.651.977l.081.081.245.488s0 .082.081.163c.081.163.081.244.163.407.081.163.081.407.162.569 0 .163.082.407.082.57v.895c0 .488-.082.977-.244 1.546 0 .163-.082.244-.163.407-.081.163-.081.326-.163.407-.081.163-.162.325-.244.407-.081.163-.163.244-.244.407-.081.162-.163.325-.244.407-.081.162-.163.244-.326.406-.162.245-.325.407-.488.651-.081.082-.163.163-.244.326l-.732.732c-.244.244-.488.488-.733.651-.081 0-.081.082-.162.082-.489.406-.977.813-1.546 1.22-.163.163-.407.244-.57.407-1.709 1.221-3.824 2.278-6.103 3.336a2.45 2.45 0 00-.651.326c-.081 0-.081 0-.163.081-.244.081-.569.244-.813.326-.326.081-.57.244-.895.325l-1.221.488-2.197.733-1.709.488a10.89 10.89 0 01-1.546.407c-.244.081-.488.162-.814.244-.325.081-.732.163-1.057.244-1.302.325-2.604.651-3.988.895-.569.081-1.057.244-1.627.325-.326.082-.57.082-.895.163-.407.082-.732.163-1.139.163-.163 0-.407.081-.651.081-.407.082-.814.082-1.221.163-.488.081-.976.163-1.465.163-2.522.325-5.045.488-7.404.569h-.814c-1.302 0-2.523.082-3.743 0-.814 0-1.546 0-2.279-.081h-.732c-.488 0-.976-.081-1.465-.081-.488 0-.895-.082-1.383-.082s-.895-.081-1.383-.162c-.244 0-.407-.082-.651-.082-1.14-.163-2.116-.325-3.174-.488a26.473 26.473 0 01-1.139-.244c-.814-.163-1.627-.326-2.36-.57-.162-.081-.325-.081-.57-.162-1.057-.326-2.115-.651-3.01-1.058-.244-.082-.488-.163-.732-.326-.651-.325-1.302-.569-1.872-.895-.244-.163-.488-.244-.65-.407-.733-.488-1.384-.976-1.954-1.546l-.244-.244c-.814-.814-1.383-1.709-1.709-2.604-.081-.163-.081-.407-.163-.569-.08-.163-.08-.407-.08-.57v-1.383c.08-.407.162-.733.243-1.14 0-.081.082-.162.082-.244.162-.488.406-.976.65-1.464.082-.163.163-.326.326-.489.081-.162.244-.325.326-.488.162-.163.325-.407.488-.569l.488-.489c.081-.162.244-.244.326-.406.08-.082.162-.163.244-.245.081-.081.244-.244.406-.325.245-.163.407-.407.652-.57.162-.162.406-.325.65-.488.163-.163.407-.325.57-.407l.081-.081c.163-.163.407-.326.651-.407a28.657 28.657 0 011.628-.976c.244-.163.488-.245.65-.407.57-.326 1.221-.651 1.872-.977.326-.163.57-.325.895-.407.326-.162.651-.325.977-.406.244-.163.57-.245.895-.407.163-.082.244-.082.407-.163.244-.081.488-.163.732-.326.488-.162.895-.325 1.383-.488l.733-.244 1.465-.488.732-.244c.65-.163 1.302-.407 1.953-.57 2.685-.651 4.963-.976 4.963-.976l-.65-2.441c-1.71.325-3.337.65-4.964.976a70.455 70.455 0 00-7.812 2.197c-3.987 1.383-7.16 2.929-9.764 4.475 0 0-.082 0-.082.082-3.906 2.604-6.754 5.533-8.3 8.544 0 .081-.081.163-.081.244a10.035 10.035 0 00-1.058 3.987v.651c0 .326 0 .57.081.895v.163c.407 3.255 2.523 6.103 5.94 8.463 7.975 5.451 23.029 8.055 39.791 6.021 2.035-.244 3.906-.569 5.859-.895a84.235 84.235 0 0014.891-4.15c12.938-4.801 21.238-12.368 20.262-19.773z" fill="#fff"/><defs><linearGradient id="paint0_linear_214_372" x1="100" y1="0" x2="100" y2="200" gradientUnits="userSpaceOnUse"><stop stop-color="#AD4129"/><stop offset="1" stop-color="#AD0429"/></linearGradient></defs></svg>