<svg width="200" height="251" fill="none" xmlns="http://www.w3.org/2000/svg"><path d="M84.263 131.853l2.62 6.84 25.759 14.553 4.658-.437c2.183-2.474 3.783-5.384 5.093-7.422l-.582-2.619-25.032-20.084-3.783.146c-2.911 3.056-8.733 9.023-8.733 9.023zm42.06 6.694L99.545 115.99l.437-7.422 7.131-6.695 7.859 1.746 21.83 24.741-1.019 4.22-3.784 4.658-5.676 1.309z" fill="#6DD0E7"/><path d="M102.164 173.62c2.183 4.22 21.539 13.534 21.539 13.534l4.803 34.492a34.774 34.774 0 004.366 2.619c1.019.437 1.892.873 2.911 1.164a35.062 35.062 0 0012.224 1.747l-2.037-25.614 23.431 15.135-.146-12.515 7.131 15.426c3.93-1.892 6.404-3.347 6.404-3.347l-7.714-42.787 24.159-45.552-2.038-9.896-24.013-26.487-8.44-1.31-29.689 18.92-.437 6.112 12.953 13.389 10.187-4.657 10.624-27.215c-.146 1.456-2.765 21.394-1.455 23.14 1.309 1.892 22.266 2.62 22.266 2.62s-21.684 5.821-26.778 8.732c-5.239 2.91-13.535 43.805-13.535 43.805 1.31 2.329 19.502.582 19.502.582-20.811 10.333-42.205 9.314-42.205 9.314l13.535-9.459s11.206-38.712 10.915-40.313c0-.291-1.019.437-2.62 1.892-7.713 6.986-29.979 29.689-29.979 29.689l-17.61-11.497c-.146.145-.437 13.971 1.746 18.337zm27.069-65.926l-11.497-9.896-1.455-6.403 8.15-8.441 6.112.145 10.333 12.08-11.352 7.422-.291 5.093zm18.192-17.464l-13.389-14.553-.437-4.512 8.878-6.258 8.586 2.766 10.915 14.116-14.553 8.441zm14.553-8.44l2.474 1.455-2.765.437-14.262 6.549 14.553-8.441z" fill="#6DD0E7"/><path d="M100.418 155.429l11.206 5.821h8.878l9.023-11.643-.582-3.056 5.675-.436 8.441-9.605 2.183-3.348 2.911 4.366-28.234 38.275-15.572-14.116-3.929-6.258zm46.425-37.112l-12.225-3.056-.437-6.986 12.807-9.168.873-1.31 2.62-.582 14.262-6.986-17.9 28.088zm-36.238-43.659l47.88-38.42-55.739 30.853-3.201-33.036L86.01 67.673 29.689 0l42.059 83.972-19.356.437 8.15 14.117L0 128.797l63.161-9.169-30.998 38.421 43.514-18.774-5.385-11.352 11.06-12.515 4.367-.583-1.892-5.966-19.793-1.019 12.662-7.713-3.638-3.493 13.097 3.347L76.26 71.02l14.99 18.774 2.62-15.281 2.62 13.971 14.116-13.826zm7.957 159.359l1.31-9.896 1.164-1.892 1.747 3.056 19.21 24.741L132.824 202l.146-.437 23.431 15.136-.146-12.516 7.277 15.426L189 245.514l-28.233-70.438-.874 15.136-49.19-3.202 7.859 47.007z" fill="#6DD0E7"/></svg>