<svg width="24" height="24" viewBox="0 0 24 24" fill="none" xmlns="http://www.w3.org/2000/svg">
<path d="M12 24C18.6274 24 24 18.6274 24 12C24 5.37258 18.6274 0 12 0C5.37258 0 0 5.37258 0 12C0 18.6274 5.37258 24 12 24Z" fill="#ED256D"/>
<path d="M10.5899 9.19392C12.2996 10.9879 13.2397 13.5198 15.4157 14.855C16.9888 15.8213 19.1891 15.031 19.9625 13.3999C20.3558 13.3924 20.7509 13.3924 21.1442 13.3943C20.8651 14.2611 20.3203 15.0181 19.5869 15.5579C18.8536 16.0977 17.9689 16.3929 17.0583 16.4018C14.7218 16.4018 13.6984 15.6516 10.9476 11.6471C8.89174 8.73491 7.88486 8.70923 6.75114 8.75648C5.61742 8.80372 3.81356 9.72503 3.80606 12.0808C3.79889 14.337 5.82257 15.3237 6.75114 15.3287C7.67971 15.3336 9.11727 15.2117 10.7247 12.7688C10.9813 13.1359 11.2303 13.5085 11.4775 13.8831C10.183 15.5132 9.02786 16.4018 6.75114 16.4018C4.47442 16.4018 2.63672 14.1913 2.63672 12.0808C2.63672 9.9702 4.6095 7.60329 6.75114 7.60029C8.89278 7.59729 9.76592 8.32315 10.5899 9.19392ZM21.3633 11.6714V12.7538C19.6123 12.7707 17.8595 12.7595 16.1086 12.7613C16.1105 12.4449 16.1105 12.1303 16.1086 11.8138C17.4925 11.81 18.8398 11.8194 20.2218 11.81C19.9885 9.90178 18.7806 8.78884 16.971 8.78884C15.1615 8.78884 13.9045 10.2876 13.2715 11.2332C13.0281 10.8831 12.7865 10.5291 12.5524 10.1715C13.5506 8.87932 15.1864 7.60397 16.971 7.60029C19.2448 7.52499 21.1891 9.56096 21.3633 11.6714Z" fill="white"/>
</svg>
