<svg width="24" height="24" viewBox="0 0 24 24" fill="none" xmlns="http://www.w3.org/2000/svg">
<path d="M12 24C18.6274 24 24 18.6274 24 12C24 5.37258 18.6274 0 12 0C5.37258 0 0 5.37258 0 12C0 18.6274 5.37258 24 12 24Z" fill="#F04086"/>
<path d="M18.448 12.7761C17.944 12.2241 17.216 11.8801 16.2719 11.7441V11.72C16.9946 11.6427 17.6627 11.2992 18.1463 10.7566C18.6298 10.2139 18.8942 9.51074 18.888 8.78392C18.888 7.61585 18.512 6.81581 17.728 6.19181C16.952 5.56776 15.7759 5.35974 14.1918 5.35974H8.20758V10.936H4.77539V13.0641H14.1518C14.8959 13.0641 15.4479 13.1201 15.8159 13.4161C16.0018 13.5624 16.1492 13.7517 16.2454 13.9678C16.3416 14.1839 16.3837 14.4202 16.368 14.6562C16.3827 14.9073 16.3408 15.1585 16.2452 15.3912C16.1497 15.6238 16.0029 15.832 15.8159 16.0003C15.4479 16.3042 14.8879 16.5042 14.1518 16.5042H10.9357V14.8482H8.20757V18.6404H14.3918C15.9599 18.6404 17.168 18.2243 18 17.5923C18.832 16.9523 19.224 16.0082 19.224 14.8562C19.2304 14.0909 18.954 13.3502 18.448 12.7761ZM13.8078 10.928H10.9357V7.48787H13.8078C15.2879 7.48787 16.0239 8.06387 16.0239 9.20791C16.0239 10.352 15.2879 10.928 13.8078 10.928Z" fill="white"/>
</svg>
