<svg width="24" height="24" viewBox="0 0 24 24" fill="none" xmlns="http://www.w3.org/2000/svg">
<path d="M12 24C18.6274 24 24 18.6274 24 12C24 5.37258 18.6274 0 12 0C5.37258 0 0 5.37258 0 12C0 18.6274 5.37258 24 12 24Z" fill="#9885F8"/>
<path d="M18.5378 8.40093C18.8064 8.85144 18.988 9.34841 19.0731 9.86597C18.8502 10.0915 18.5962 10.2839 18.3188 10.4374C18.1075 10.5592 17.872 10.6333 17.629 10.6546C17.386 10.6758 17.1412 10.6437 16.9119 10.5605C16.3165 10.3316 15.7984 9.93798 15.4183 9.42566C14.5444 8.29806 13.2841 7.72745 12.364 7.70952C11.4439 7.6916 11.0144 7.73296 9.86203 8.30132C8.47383 8.986 6.86416 10.9385 6.4854 12.8752C6.39158 12.2656 6.39988 11.6447 6.50996 11.0379C6.64236 10.233 6.9545 9.46824 7.42317 8.80057C7.89185 8.13291 8.50499 7.57947 9.21702 7.18142C9.65582 6.91903 10.1314 6.72386 10.6281 6.60239C11.2614 6.44602 11.9141 6.38305 12.5656 6.41545C13.7769 6.46132 14.8298 6.95894 15.7827 7.67818C16.2445 8.05566 16.6697 8.47585 17.0526 8.93316C17.1663 9.06423 17.3197 9.15462 17.4894 9.1906C17.6592 9.22658 17.836 9.20618 17.9931 9.13251C18.1343 9.06101 18.257 8.95773 18.3515 8.83078C18.446 8.70384 18.5098 8.55669 18.5378 8.40093ZM12.1079 18.5525C10.4367 18.1192 9.00991 17.3002 7.93229 15.9249L7.89045 15.8721C7.87294 15.8673 7.85787 15.8561 7.84824 15.8407C7.8386 15.8253 7.83511 15.8069 7.83845 15.7891C7.65215 15.641 7.50306 15.4514 7.40307 15.2355C7.08021 14.7353 6.82888 14.1923 6.65639 13.6225C6.93048 12.3047 7.53439 11.078 8.41161 10.0571C8.03504 10.8311 7.87626 11.693 7.95228 12.5503C8.02829 13.4077 8.33625 14.2282 8.84312 14.9238C9.42138 15.6719 10.1775 16.2636 11.0426 16.6451C12.0959 17.1314 13.2167 17.3217 14.3615 17.4089C14.6013 17.4271 15.0627 17.4213 15.3022 17.4122C15.0737 17.9454 15.025 18.2738 14.6128 18.8339C14.0153 18.784 12.66 18.6956 12.1079 18.5525ZM7.83839 15.788L7.83838 15.7876L7.83837 15.7876L7.83839 15.788ZM12.2614 21.1187C12.1519 21.1257 12.0166 21.1285 11.9042 21.1299C10.6264 21.1455 9.47174 20.9717 8.32148 20.3751C7.2322 19.8004 6.24711 19.047 5.40724 18.1461C5.30937 18.0432 5.21853 17.9335 5.12418 17.8268C4.88113 17.5071 4.59179 17.2265 4.36985 16.8868C4.28651 16.7593 3.64303 15.7778 3.56906 15.647C4.84767 16.8193 6.13128 17.9692 7.81978 18.5237C8.40097 18.811 9.70976 19.4219 10.394 19.5528C11.1102 19.6898 12.7143 19.9591 14.3081 19.1934C13.9565 19.9513 13.0029 20.6807 12.2614 21.1187ZM18.387 12.0519C17.507 12.1324 16.8625 12.5284 16.4739 13.3366C16.2186 13.8676 16.1721 14.4439 16.0808 15.0088C15.9649 15.7256 15.8673 16.4446 15.7019 17.153C15.7004 17.1593 15.6978 17.1632 15.6962 17.1692C15.4325 18.678 14.3925 20.0923 13.0511 21.0249C14.4405 20.7649 15.5736 20.0195 16.4706 18.8109C16.8381 18.2039 17.1159 17.5469 17.2952 16.8604C17.6342 15.672 17.4156 14.7349 18.0041 13.8004C18.5925 12.8658 19.6358 12.5522 20.2709 12.4376C19.7963 12.086 19.0032 11.9956 18.387 12.0519ZM20.9776 13.7074C20.9392 13.3639 20.7982 13.04 20.573 12.7779C20.0204 12.7852 19.4865 12.9792 19.0581 13.3282C19.258 13.4674 19.4094 13.6656 19.4911 13.8951C19.5606 14.2127 19.5166 14.5446 19.3665 14.833C19.0043 15.6127 18.694 16.1643 17.7273 16.6737C17.5593 17.3182 17.4214 17.9675 17.0848 18.5237C17.8865 18.3054 18.4055 17.8814 19.0875 17.4286C19.4762 17.1598 19.8236 16.8356 20.1186 16.4664C20.7818 15.668 21.163 14.7692 20.9776 13.7074V13.7074ZM19.7924 7.25211C19.4536 6.60672 19.0134 6.01994 18.4885 5.51417C17.3342 4.36553 15.8859 3.55674 14.3025 3.17639C13.6778 3.01802 13.0391 2.92147 12.3955 2.88816C11.7608 2.85378 11.6784 2.81054 10.2331 3.02565C8.7878 3.24077 7.00614 4.27129 5.73412 5.50609C5.04579 6.17543 4.4607 6.9433 3.99801 7.78456C3.34087 8.90797 2.99283 10.1853 2.98926 11.4868C2.99596 12.1817 3.05193 12.8753 3.15676 13.5622C3.21582 13.9399 3.29601 14.3139 3.39694 14.6826C4.3896 15.8964 5.58403 16.9301 6.92781 17.7382C6.33683 17.1956 5.83218 16.5659 5.43133 15.8709C4.86382 14.8898 4.53095 13.7908 4.45875 12.6597C4.32188 11.0862 4.67592 9.50894 5.47216 8.14488C6.26839 6.78082 7.46771 5.69698 8.90515 5.04243C9.42147 4.78748 9.97058 4.60516 10.5369 4.50068C11.155 4.38921 12.9351 4.29367 14.1236 4.58228C15.9322 5.0215 17.4148 5.94343 18.4404 7.53078C18.489 7.60595 19.3801 8.98045 19.4001 9.67135C19.4817 9.57942 19.5543 9.47985 19.6169 9.374C20.0098 8.69669 20.1539 7.97655 19.7924 7.25211L19.7924 7.25211Z" fill="white"/>
</svg>
