<svg width="66" height="66" viewBox="0 0 66 66" fill="none" xmlns="http://www.w3.org/2000/svg">
<g clip-path="url(#clip0_580_42)">
<path d="M43.3548 8.4611C40.1182 6.96099 36.6575 5.87078 33.0394 5.25C32.595 6.04582 32.0759 7.11621 31.718 7.9677C27.8719 7.39472 24.0611 7.39472 20.2857 7.9677C19.9279 7.11621 19.397 6.04582 18.9487 5.25C15.3267 5.87078 11.862 6.965 8.6254 8.46904C2.09717 18.2415 0.327477 27.7712 1.21233 37.1655C5.54219 40.3686 9.73835 42.3144 13.8637 43.5877C14.8823 42.199 15.7907 40.7228 16.5733 39.167C15.0828 38.606 13.6553 37.9136 12.3064 37.1099C12.6643 36.8472 13.0143 36.5727 13.3525 36.2901C21.5796 40.1021 30.5185 40.1021 38.6474 36.2901C38.9895 36.5727 39.3395 36.8472 39.6934 37.1099C38.3406 37.9176 36.9091 38.6099 35.4187 39.171C36.2013 40.7228 37.1058 42.203 38.1283 43.5916C42.2576 42.3183 46.4576 40.3726 50.7875 37.1655C51.8257 26.2751 49.0139 16.8329 43.3548 8.4611ZM17.6941 31.3881C15.2244 31.3881 13.1991 29.1041 13.1991 26.3228C13.1991 23.5415 15.1812 21.2536 17.6941 21.2536C20.2071 21.2536 22.2324 23.5375 22.1892 26.3228C22.1931 29.1041 20.2071 31.3881 17.6941 31.3881ZM34.3057 31.3881C31.836 31.3881 29.8107 29.1041 29.8107 26.3228C29.8107 23.5415 31.7927 21.2536 34.3057 21.2536C36.8187 21.2536 38.844 23.5375 38.8008 26.3228C38.8008 29.1041 36.8187 31.3881 34.3057 31.3881Z" fill="white"/>
<path opacity="0.5" d="M55.6573 39.9816L61.1191 42.8407L61.2657 47.2028L51.1853 50.8684L47.4464 54.424L43.8908 53.2144L31.9042 58.2729L20.3942 57.4665L17.2785 49.8787L19.1846 47.1295L15.2257 48.9623L16.472 53.9475L12 59.5559L17.7183 55.8536L19.4412 59.5559L26.9557 60.1057L26.5524 62.4884L39.0888 64.6511L42.901 62.0119L38.3557 62.1585L32.6374 60.7655L33.8103 59.7758L43.8908 55.7437L49.0593 59.0061L52.7249 52.188L63.1718 48.5224L63.8316 42.4742L55.6573 39.9816Z" fill="white"/>
</g>
<defs>
<clipPath id="clip0_580_42">
<rect width="66" height="66" fill="white"/>
</clipPath>
</defs>
</svg>
