<svg width="24" height="22" viewBox="0 0 24 22" fill="none" xmlns="http://www.w3.org/2000/svg">
<g clip-path="url(#clip0_1417_2119)">
<path d="M0.425466 10.4917L5.95107 12.655L8.09379 19.8646C8.1206 19.9696 8.1737 20.066 8.24809 20.1447C8.32247 20.2235 8.4157 20.282 8.51896 20.3148C8.62223 20.3475 8.73213 20.3534 8.83831 20.3319C8.9445 20.3104 9.04346 20.2623 9.12586 20.1919L12.2067 17.5591C12.3609 17.4248 12.557 17.3483 12.7614 17.3428C12.9659 17.3372 13.1659 17.403 13.3271 17.5287L18.8892 21.7562C18.9774 21.8225 19.0813 21.8648 19.1907 21.8791C19.3001 21.8934 19.4114 21.8791 19.5136 21.8377C19.6159 21.7963 19.7057 21.7291 19.7744 21.6427C19.843 21.5563 19.8881 21.4537 19.9054 21.3447L23.9818 0.816316C24.0086 0.699707 24.0036 0.578018 23.9671 0.464045C23.9307 0.350071 23.8642 0.248025 23.7746 0.168638C23.6851 0.0892497 23.5758 0.0354534 23.4583 0.0129057C23.3408 -0.00964202 23.2194 -0.000108032 23.1068 0.0405051L0.415178 9.21415C0.291007 9.26899 0.185602 9.35897 0.11196 9.473C0.0383186 9.58703 -0.000338842 9.72012 0.000755009 9.85586C0.00184886 9.99159 0.0426462 10.124 0.118116 10.2369C0.193586 10.3497 0.300428 10.438 0.425466 10.4908V10.4917ZM7.74961 11.5037L18.5511 4.52795C18.5928 4.50329 18.6422 4.49503 18.6896 4.50477C18.7371 4.51452 18.7792 4.54157 18.8078 4.58067C18.8364 4.61977 18.8494 4.66812 18.8443 4.71629C18.8392 4.76446 18.8164 4.80902 18.7802 4.84127L9.86052 13.53C9.54424 13.8402 9.34219 14.2483 9.2872 14.6878L8.9851 17.0438C8.98135 17.1102 8.95366 17.1729 8.90716 17.2204C8.86067 17.2678 8.79853 17.2968 8.73227 17.302C8.66602 17.3071 8.60015 17.2881 8.54689 17.2483C8.49362 17.2086 8.45659 17.1509 8.44264 17.0859L7.26981 12.785C7.20484 12.5481 7.21624 12.2968 7.30238 12.0667C7.38853 11.8367 7.54502 11.6397 7.74961 11.5037Z" fill="white" fill-opacity="0.3"/>
</g>
<defs>
<clipPath id="clip0_1417_2119">
<rect width="24" height="21.8854" fill="white"/>
</clipPath>
</defs>
</svg>
