<svg width="24" height="24" viewBox="0 0 24 24" fill="none" xmlns="http://www.w3.org/2000/svg">
<g clip-path="url(#clip0_214_740)">
<path d="M22.3901 5.97648C21.3422 4.1634 19.8363 2.65749 18.0232 1.6096C16.1838 0.536532 14.1761 0 12.0001 0C9.82254 0 7.81467 0.536532 5.97648 1.6096C4.1634 2.65729 2.65749 4.16305 1.6096 5.97601C0.536532 7.81451 0 9.82254 0 12.0001C0 14.6144 0.762928 16.9657 2.28878 19.054C3.81496 21.142 5.78638 22.5871 8.20305 23.3893C8.48396 23.4421 8.69323 23.4054 8.82756 23.2809C8.89321 23.2219 8.94531 23.1494 8.9803 23.0684C9.01528 22.9874 9.03232 22.8997 9.03024 22.8115C9.03024 22.7807 9.02772 22.4995 9.02269 21.9678C9.01704 21.4368 9.01421 20.9733 9.01421 20.5774L8.656 20.6401C8.36935 20.6862 8.07893 20.7046 7.78875 20.6952C7.42419 20.6889 7.06079 20.6521 6.70233 20.5854C6.32108 20.5155 5.96222 20.355 5.65597 20.1174C5.33444 19.8746 5.09468 19.5395 4.96877 19.1568L4.81229 18.7972C4.681 18.5129 4.51595 18.2454 4.32069 18.0006C4.09603 17.709 3.86947 17.5111 3.64103 17.4067L3.53121 17.3285C3.45641 17.2739 3.38838 17.2106 3.32854 17.14C3.27025 17.0753 3.22253 17.0018 3.18714 16.9222C3.15651 16.8491 3.18243 16.7893 3.26538 16.7431C3.34881 16.6946 3.50105 16.6724 3.71786 16.6724L4.0313 16.7195C4.23931 16.7604 4.49697 16.8851 4.80428 17.0938C5.11413 17.305 5.37303 17.5826 5.56218 17.9063C5.80225 18.3337 6.09133 18.6592 6.42943 18.8829C6.76879 19.107 7.11003 19.2188 7.45316 19.2185C7.75195 19.2224 8.05037 19.1963 8.34398 19.1408C8.58685 19.0906 8.82292 19.0119 9.0472 18.906C9.14084 18.2075 9.39583 17.671 9.81217 17.2964C9.27205 17.2431 8.73678 17.1486 8.21106 17.0136C7.69781 16.8733 7.20434 16.6687 6.74239 16.4047C6.25849 16.1416 5.83092 15.7861 5.48394 15.3583C5.15149 14.942 4.87844 14.3952 4.66477 13.7181C4.4511 13.0403 4.34426 12.2592 4.34426 11.3746C4.34426 10.114 4.75589 9.04092 5.57915 8.15544C5.19266 7.20744 5.22911 6.14506 5.6885 4.9683C5.99015 4.87404 6.43791 4.94442 7.03179 5.17946C7.62567 5.41387 8.06055 5.61434 8.33644 5.78088C8.61264 5.94726 8.83369 6.08866 9.00007 6.20319C10.9634 5.66151 13.0368 5.66151 15.0001 6.20319L15.594 5.82754C16.0503 5.55342 16.5317 5.32332 17.0316 5.14034C17.5833 4.93232 18.0053 4.87514 18.2976 4.96877C18.7657 6.14647 18.8074 7.20917 18.4225 8.15686C19.2457 9.04202 19.657 10.1151 19.6564 11.376C19.6564 12.2603 19.5496 13.0438 19.3359 13.7266C19.1229 14.4094 18.8471 14.9564 18.5087 15.3678C18.156 15.7909 17.7265 16.1435 17.2427 16.407C16.7805 16.6703 16.2871 16.8746 15.774 17.0151C15.2483 17.15 14.7131 17.2445 14.1729 17.2979C14.714 17.767 14.9846 18.5063 14.9846 19.5159V22.8129C14.9824 22.9004 14.9987 22.9873 15.0324 23.068C15.0661 23.1487 15.1165 23.2215 15.1802 23.2814C15.3103 23.4058 15.5148 23.4435 15.7976 23.3908C18.214 22.5882 20.1849 21.1428 21.7105 19.0545C23.2369 16.9662 24.0002 14.6149 24.0002 12.0006C23.9992 9.82427 23.4626 7.8164 22.3901 5.97695V5.97648Z" fill="white" fill-opacity="0.3"/>
</g>
<defs>
<clipPath id="clip0_214_740">
<rect width="24" height="23.4127" fill="white"/>
</clipPath>
</defs>
</svg>
