<svg width="24" height="19" viewBox="0 0 24 19" fill="none" xmlns="http://www.w3.org/2000/svg">
<g clip-path="url(#clip0_214_734)">
<path d="M24 4.08281V15.9998C23.998 16.7066 23.7164 17.3839 23.2166 17.8836C22.7168 18.3834 22.0396 18.6651 21.3328 18.667H2.66719C1.96033 18.6651 1.283 18.3833 0.783222 17.8835C0.283443 17.3836 0.00185542 16.7062 0 15.9994L0 4.08281L10.8534 12.9469C11.0088 13.0849 11.1904 13.1901 11.3875 13.2561C11.5845 13.3222 11.7928 13.3477 12 13.3312C12.2072 13.3475 12.4157 13.3218 12.6127 13.2555C12.8097 13.1892 12.9913 13.0837 13.1466 12.9455L24 4.08281ZM21.3328 0H2.66719C2.26544 0.000849194 1.86905 0.0923341 1.50757 0.26764C1.14608 0.442946 0.828803 0.697555 0.579375 1.0125L12 10.3392L23.4211 1.0125C23.1716 0.697493 22.8543 0.442847 22.4927 0.267538C22.1311 0.0922297 21.7346 0.000778713 21.3328 0V0Z" fill="white" fill-opacity="0.3"/>
</g>
<defs>
<clipPath id="clip0_214_734">
<rect width="24" height="18.6666" fill="white"/>
</clipPath>
</defs>
</svg>
