<svg width="22" height="17" viewBox="0 0 22 17" fill="none" xmlns="http://www.w3.org/2000/svg">
<g clip-path="url(#clip0_214_742)">
<path fill-rule="evenodd" clip-rule="evenodd" d="M2.60883 3.36616C2.63633 3.11069 2.53275 2.85868 2.33108 2.68721L0.27775 0.349V0H6.65592L11.5857 10.2145L15.9198 0H22V0.349L20.2437 1.93985C20.0924 2.04897 20.0173 2.22823 20.0484 2.40576V14.0951C20.0173 14.2718 20.0924 14.451 20.2437 14.5601L21.9587 16.151V16.5H13.3311V16.151L15.1085 14.5212C15.2827 14.3566 15.2827 14.3081 15.2827 14.0561V4.60801L10.3427 16.4619H9.67542L3.92333 4.60801V12.5527C3.87567 12.8862 3.993 13.223 4.24142 13.4638L6.55233 16.112V16.4619H0V16.112L2.31092 13.4638C2.55842 13.2222 2.66842 12.8836 2.60883 12.5527V3.36616Z" fill="white" fill-opacity="0.3"/>
</g>
<defs>
<clipPath id="clip0_214_742">
<rect width="22" height="16.5" fill="white"/>
</clipPath>
</defs>
</svg>
