<svg width="24" height="20" viewBox="0 0 24 20" fill="none" xmlns="http://www.w3.org/2000/svg">
<g clip-path="url(#clip0_214_738)">
<path d="M24.0003 2.30851C23.0974 2.70221 22.1425 2.9638 21.1651 3.08523C22.1951 2.47427 22.9653 1.50667 23.3296 0.365784C22.3652 0.937903 21.31 1.34083 20.2096 1.55713C19.535 0.836858 18.6593 0.33612 17.6964 0.119961C16.7335 -0.0961975 15.7278 -0.0177868 14.81 0.345007C13.8922 0.707801 13.1048 1.33821 12.5499 2.15434C11.995 2.97047 11.6984 3.93461 11.6986 4.92149C11.6947 5.29854 11.7329 5.67485 11.8126 6.04342C7.72261 5.84408 4.10262 3.88352 1.67116 0.896728C1.03797 1.97911 0.841821 3.26236 1.12277 4.48447C1.40371 5.70657 2.14056 6.77535 3.18285 7.47256C2.40399 7.45203 1.64148 7.24451 0.959639 6.86751V6.92098C0.961027 8.05711 1.35378 9.15809 2.07179 10.0386C2.7898 10.9191 3.78923 11.5253 4.90185 11.7553C4.48087 11.8665 4.04696 11.9212 3.61154 11.918C3.29907 11.9234 2.98692 11.8951 2.68052 11.8336C3.3184 13.782 5.12698 15.2144 7.27796 15.2608C5.5362 16.6227 3.38822 17.3613 1.17727 17.3588C0.783827 17.3618 0.390599 17.3395 0 17.2922C2.24986 18.7421 4.87158 19.5091 7.54813 19.5004C16.6018 19.5004 21.552 12.0006 21.552 5.49981C21.552 5.28171 21.5445 5.07205 21.5342 4.86333C22.5045 4.16884 23.3401 3.30323 23.9999 2.30898L24.0003 2.30851Z" fill="white" fill-opacity="0.3"/>
</g>
<defs>
<clipPath id="clip0_214_738">
<rect width="24" height="19.5" fill="white"/>
</clipPath>
</defs>
</svg>
