<svg width="170" height="173" viewBox="0 0 170 173" fill="none" xmlns="http://www.w3.org/2000/svg">
<circle cx="87.1753" cy="86.9583" r="66.3158" fill="url(#paint0_linear_257_623)" stroke="white" stroke-width="1.80198"/>
<path d="M112.061 63.7914C107.42 61.6403 102.457 60.0769 97.2688 59.1868C96.6316 60.3279 95.8872 61.8628 95.374 63.0838C89.8588 62.2622 84.3944 62.2622 78.9806 63.0838C78.4675 61.8628 77.7062 60.3279 77.0633 59.1868C71.8696 60.0769 66.9013 61.646 62.2602 63.8027C52.899 77.816 50.3613 91.4812 51.6302 104.952C57.839 109.545 63.8561 112.336 69.7717 114.161C71.2323 112.17 72.5349 110.053 73.6571 107.822C71.5199 107.018 69.4728 106.025 67.5386 104.872C68.0517 104.496 68.5537 104.102 69.0386 103.697C80.8359 109.163 93.6541 109.163 105.31 103.697C105.801 104.102 106.303 104.496 106.81 104.872C104.871 106.031 102.818 107.023 100.681 107.828C101.803 110.053 103.1 112.176 104.566 114.167C110.487 112.341 116.51 109.551 122.719 104.952C124.208 89.3358 120.176 75.7961 112.061 63.7914ZM75.2644 96.6677C71.7229 96.6677 68.8186 93.3926 68.8186 89.4043C68.8186 85.416 71.6609 82.1352 75.2644 82.1352C78.8679 82.1352 81.7721 85.4102 81.7101 89.4043C81.7157 93.3926 78.8679 96.6677 75.2644 96.6677ZM99.0847 96.6677C95.5433 96.6677 92.639 93.3926 92.639 89.4043C92.639 85.416 95.4811 82.1352 99.0847 82.1352C102.688 82.1352 105.592 85.4102 105.53 89.4043C105.53 93.3926 102.688 96.6677 99.0847 96.6677Z" fill="white"/>
<circle cx="146.327" cy="104.878" r="14.9703" fill="white" stroke="white" stroke-width="1.26139"/>
<mask id="mask0_257_623" style="mask-type:alpha" maskUnits="userSpaceOnUse" x="131" y="90" width="30" height="30">
<circle cx="146.327" cy="104.878" r="14.3396" fill="#C4C4C4"/>
</mask>
<g mask="url(#mask0_257_623)">
<path d="M180.737 90.5271H126.247V92.7354H180.737V90.5271Z" fill="#B01820"/>
<path d="M180.737 116.996H126.247V119.204H180.737V116.996Z" fill="#B01820"/>
<path d="M180.737 112.582H126.247V114.79H180.737V112.582Z" fill="#B01820"/>
<path d="M180.737 108.179H126.247V110.387H180.737V108.179Z" fill="#B01820"/>
<path d="M180.737 103.765H126.247V105.974H180.737V103.765Z" fill="#B01820"/>
<path d="M180.737 99.3435H126.247V101.552H180.737V99.3435Z" fill="#B01820"/>
<path d="M180.737 94.9451H126.247V97.1534H180.737V94.9451Z" fill="#B01820"/>
<path d="M180.737 114.792H126.247V117.001H180.737V114.792Z" fill="white"/>
<path d="M180.737 110.386H126.247V112.595H180.737V110.386Z" fill="white"/>
<path d="M180.737 105.972H126.247V108.181H180.737V105.972Z" fill="white"/>
<path d="M180.737 101.554H126.247V103.763H180.737V101.554Z" fill="white"/>
<path d="M180.737 97.156H126.247V99.3643H180.737V97.156Z" fill="white"/>
<path d="M180.737 92.738H126.247V94.9463H180.737V92.738Z" fill="white"/>
<path d="M148.045 90.5344H126.249V105.978H148.045V90.5344Z" fill="#002A70"/>
<path d="M131.699 91.1873L131.498 91.8039H130.853L131.383 92.1767L131.182 92.7933L131.699 92.4061L132.215 92.7933L132.014 92.1767L132.545 91.8039H131.899L131.699 91.1873Z" fill="white"/>
<path d="M135.325 91.1873L135.139 91.8039H134.494L135.01 92.1767L134.809 92.7933L135.325 92.4061L135.856 92.7933L135.655 92.1767L136.171 91.8039H135.526L135.325 91.1873Z" fill="white"/>
<path d="M138.969 91.1873L138.768 91.8039H138.123L138.639 92.1767L138.438 92.7933L138.969 92.4061L139.485 92.7933L139.284 92.1767L139.8 91.8039H139.155L138.969 91.1873Z" fill="white"/>
<path d="M142.598 91.1873L142.397 91.8039H141.752L142.283 92.1767L142.082 92.7933L142.598 92.4061L143.114 92.7933L142.913 92.1767L143.444 91.8039H142.799L142.598 91.1873Z" fill="white"/>
<path d="M145.708 92.7933L146.224 92.4061L146.755 92.7933L146.554 92.1767L147.07 91.8039H146.425L146.224 91.1873L146.038 91.8039H145.393L145.909 92.1767L145.708 92.7933Z" fill="white"/>
<path d="M131.699 94.2725L131.498 94.8891H130.853L131.383 95.2619L131.182 95.8785L131.699 95.5057L132.215 95.8785L132.014 95.2619L132.545 94.8891H131.899L131.699 94.2725Z" fill="white"/>
<path d="M135.325 94.2725L135.139 94.8891H134.494L135.01 95.2619L134.809 95.8785L135.325 95.5057L135.856 95.8785L135.655 95.2619L136.171 94.8891H135.526L135.325 94.2725Z" fill="white"/>
<path d="M138.969 94.2725L138.768 94.8891H138.123L138.639 95.2619L138.438 95.8785L138.969 95.5057L139.485 95.8785L139.284 95.2619L139.8 94.8891H139.155L138.969 94.2725Z" fill="white"/>
<path d="M142.598 94.2725L142.397 94.8891H141.752L142.283 95.2619L142.082 95.8785L142.598 95.5057L143.114 95.8785L142.913 95.2619L143.444 94.8891H142.799L142.598 94.2725Z" fill="white"/>
<path d="M146.224 94.2725L146.038 94.8891H145.393L145.909 95.2619L145.708 95.8785L146.224 95.5057L146.755 95.8785L146.554 95.2619L147.07 94.8891H146.425L146.224 94.2725Z" fill="white"/>
<path d="M131.699 97.3669L131.498 97.9692H130.853L131.383 98.3564L131.182 98.9586L131.699 98.5858L132.215 98.9586L132.014 98.3564L132.545 97.9692H131.899L131.699 97.3669Z" fill="white"/>
<path d="M135.325 97.3669L135.138 97.9692H134.493L135.009 98.3564L134.809 98.9586L135.325 98.5858L135.855 98.9586L135.655 98.3564L136.171 97.9692H135.526L135.325 97.3669Z" fill="white"/>
<path d="M138.968 97.3669L138.767 97.9692H138.122L138.638 98.3564L138.438 98.9586L138.968 98.5858L139.484 98.9586L139.284 98.3564L139.8 97.9692H139.155L138.968 97.3669Z" fill="white"/>
<path d="M142.597 97.3669L142.396 97.9692H141.751L142.282 98.3564L142.081 98.9586L142.597 98.5858L143.113 98.9586L142.912 98.3564L143.443 97.9692H142.798L142.597 97.3669Z" fill="white"/>
<path d="M146.225 97.3669L146.039 97.9692H145.394L145.91 98.3564L145.709 98.9586L146.225 98.5858L146.756 98.9586L146.555 98.3564L147.071 97.9692H146.426L146.225 97.3669Z" fill="white"/>
<path d="M131.699 100.449L131.498 101.066H130.853L131.383 101.438L131.182 102.055L131.699 101.668L132.215 102.055L132.014 101.438L132.545 101.066H131.899L131.699 100.449Z" fill="white"/>
<path d="M135.325 100.449L135.138 101.066H134.493L135.009 101.438L134.809 102.055L135.325 101.668L135.855 102.055L135.655 101.438L136.171 101.066H135.526L135.325 100.449Z" fill="white"/>
<path d="M138.968 100.449L138.767 101.066H138.122L138.638 101.438L138.438 102.055L138.968 101.668L139.484 102.055L139.284 101.438L139.8 101.066H139.155L138.968 100.449Z" fill="white"/>
<path d="M142.597 100.449L142.396 101.066H141.751L142.282 101.438L142.081 102.055L142.597 101.668L143.113 102.055L142.912 101.438L143.443 101.066H142.798L142.597 100.449Z" fill="white"/>
<path d="M146.225 100.449L146.039 101.066H145.394L145.91 101.438L145.709 102.055L146.225 101.668L146.756 102.055L146.555 101.438L147.071 101.066H146.426L146.225 100.449Z" fill="white"/>
<path d="M131.899 104.15L131.699 103.547L131.498 104.15H130.853L131.383 104.537L131.182 105.139L131.699 104.766L132.215 105.139L132.014 104.537L132.545 104.15H131.899Z" fill="white"/>
<path d="M135.526 104.15L135.325 103.547L135.139 104.15H134.494L135.01 104.537L134.809 105.139L135.325 104.766L135.856 105.139L135.655 104.537L136.171 104.15H135.526Z" fill="white"/>
<path d="M139.155 104.15L138.969 103.547L138.768 104.15H138.123L138.639 104.537L138.438 105.139L138.969 104.766L139.485 105.139L139.284 104.537L139.8 104.15H139.155Z" fill="white"/>
<path d="M142.799 104.15L142.598 103.547L142.397 104.15H141.752L142.283 104.537L142.082 105.139L142.598 104.766L143.114 105.139L142.913 104.537L143.444 104.15H142.799Z" fill="white"/>
<path d="M146.425 104.15L146.224 103.547L146.038 104.15H145.393L145.909 104.537L145.708 105.139L146.224 104.766L146.755 105.139L146.554 104.537L147.07 104.15H146.425Z" fill="white"/>
<path d="M133.517 92.7336L133.317 93.3359H132.671L133.188 93.7231L132.987 94.3253L133.517 93.9525L134.034 94.3253L133.833 93.7231L134.349 93.3359H133.704L133.517 92.7336Z" fill="white"/>
<path d="M137.146 92.7336L136.946 93.3359H136.3L136.831 93.7231L136.63 94.3253L137.146 93.9525L137.663 94.3253L137.462 93.7231L137.992 93.3359H137.347L137.146 92.7336Z" fill="white"/>
<path d="M140.773 92.7336L140.586 93.3359H139.941L140.457 93.7231L140.256 94.3253L140.773 93.9525L141.303 94.3253L141.102 93.7231L141.619 93.3359H140.973L140.773 92.7336Z" fill="white"/>
<path d="M144.416 92.7336L144.216 93.3359H143.57L144.087 93.7231L143.886 94.3253L144.416 93.9525L144.933 94.3253L144.732 93.7231L145.248 93.3359H144.603L144.416 92.7336Z" fill="white"/>
<path d="M133.517 95.8201L133.316 96.4367H132.671L133.187 96.8095L132.986 97.4261L133.517 97.0389L134.033 97.4261L133.832 96.8095L134.349 96.4367H133.703L133.517 95.8201Z" fill="white"/>
<path d="M137.146 95.8201L136.945 96.4367H136.3L136.83 96.8095L136.63 97.4261L137.146 97.0389L137.662 97.4261L137.461 96.8095L137.992 96.4367H137.347L137.146 95.8201Z" fill="white"/>
<path d="M140.772 95.8201L140.586 96.4367H139.94L140.457 96.8095L140.256 97.4261L140.772 97.0389L141.303 97.4261L141.102 96.8095L141.618 96.4367H140.973L140.772 95.8201Z" fill="white"/>
<path d="M144.415 95.8201L144.215 96.4367H143.569L144.086 96.8095L143.885 97.4261L144.415 97.0389L144.932 97.4261L144.731 96.8095L145.247 96.4367H144.602L144.415 95.8201Z" fill="white"/>
<path d="M133.517 98.9138L133.316 99.5161H132.671L133.187 99.8889L132.986 100.506L133.517 100.133L134.033 100.506L133.832 99.8889L134.349 99.5161H133.703L133.517 98.9138Z" fill="white"/>
<path d="M137.146 98.9138L136.945 99.5161H136.3L136.83 99.8889L136.63 100.506L137.146 100.133L137.662 100.506L137.461 99.8889L137.992 99.5161H137.347L137.146 98.9138Z" fill="white"/>
<path d="M140.772 98.9138L140.586 99.5161H139.94L140.457 99.8889L140.256 100.506L140.772 100.133L141.303 100.506L141.102 99.8889L141.618 99.5161H140.973L140.772 98.9138Z" fill="white"/>
<path d="M144.415 98.9138L144.215 99.5161H143.569L144.086 99.8889L143.885 100.506L144.415 100.133L144.932 100.506L144.731 99.8889L145.247 99.5161H144.602L144.415 98.9138Z" fill="white"/>
<path d="M133.703 102.612L133.517 101.996L133.316 102.612H132.671L133.187 102.985L132.986 103.588L133.517 103.215L134.033 103.588L133.832 102.985L134.349 102.612H133.703Z" fill="white"/>
<path d="M137.347 102.612L137.146 101.996L136.945 102.612H136.3L136.83 102.985L136.63 103.588L137.146 103.215L137.662 103.588L137.461 102.985L137.992 102.612H137.347Z" fill="white"/>
<path d="M140.973 102.612L140.772 101.996L140.586 102.612H139.94L140.457 102.985L140.256 103.588L140.772 103.215L141.303 103.588L141.102 102.985L141.618 102.612H140.973Z" fill="white"/>
<path d="M144.602 102.612L144.415 101.996L144.215 102.612H143.569L144.086 102.985L143.885 103.588L144.415 103.215L144.932 103.588L144.731 102.985L145.247 102.612H144.602Z" fill="white"/>
</g>
<circle cx="133.781" cy="136.256" r="14.9703" fill="white" stroke="white" stroke-width="1.26139"/>
<mask id="mask1_257_623" style="mask-type:alpha" maskUnits="userSpaceOnUse" x="119" y="121" width="30" height="30">
<circle cx="133.781" cy="136.256" r="14.3396" fill="#C4C4C4"/>
</mask>
<g mask="url(#mask1_257_623)">
<path d="M162.46 141.037H119.441V150.601H162.46V141.037Z" fill="#D52B1E"/>
<path d="M162.46 131.486H119.441V141.051H162.46V131.486Z" fill="#0039A6"/>
<path d="M162.46 121.92H119.441V131.485H162.46V121.92Z" fill="white"/>
</g>
<path d="M86.2808 1.29999C86.2808 1.29999 156.266 4.17631 165.373 70.8274L169.63 57.3384C169.63 57.3384 149.931 -4.45263 86.2808 1.29999Z" fill="#00C4F5" fill-opacity="0.1"/>
<path d="M91.657 172.584C91.657 172.584 14.6245 169.412 4.60046 95.9258L0.242188 110.907C0.351144 110.907 21.5978 178.926 91.657 172.584Z" fill="#00C4F5" fill-opacity="0.1"/>
<defs>
<linearGradient id="paint0_linear_257_623" x1="52.2226" y1="27.8075" x2="130.194" y2="142.524" gradientUnits="userSpaceOnUse">
<stop stop-color="#48DBFF"/>
<stop offset="1" stop-color="#32B7E5"/>
</linearGradient>
</defs>
</svg>
