<svg width="59" height="82" viewBox="0 0 59 82" fill="none" xmlns="http://www.w3.org/2000/svg">
<g clip-path="url(#clip0_214_485)">
<path d="M11.3033 72.8501H6.36831C6.23802 72.8501 6.14029 72.9487 6.14029 73.0801V75.5113C6.14029 75.6427 6.23802 75.7413 6.36831 75.7413H8.29021V78.7639C8.29021 78.7639 7.85045 78.9117 6.66148 78.9117C5.26078 78.9117 3.29002 78.386 3.29002 74.0329C3.29002 69.6632 5.34222 69.0883 7.26411 69.0883C8.92541 69.0883 9.64205 69.384 10.0981 69.5318C10.2447 69.5811 10.375 69.4333 10.375 69.3018L10.9287 66.9528C10.9287 66.8871 10.9125 66.8214 10.8473 66.7721C10.6519 66.6407 9.52804 66 6.66148 66C3.37146 66 0 67.4127 0 74.1971C0 80.9815 3.86008 82 7.11753 82C9.82121 82 11.4499 80.8337 11.4499 80.8337C11.5151 80.8008 11.5314 80.7023 11.5314 80.653V73.0801C11.5314 72.9487 11.4336 72.8501 11.3033 72.8501Z" fill="white" fill-opacity="0.7"/>
<path d="M36.7114 66.8213C36.7114 66.6899 36.6136 66.5913 36.4833 66.5913H33.7145C33.5842 66.5913 33.4865 66.6899 33.4865 66.8213V72.2258H29.1541V66.8213C29.1541 66.6899 29.0564 66.5913 28.9261 66.5913H26.1572C26.0269 66.5913 25.9292 66.6899 25.9292 66.8213V81.4743C25.9292 81.6057 26.0269 81.7042 26.1572 81.7042H28.9261C29.0564 81.7042 29.1541 81.6057 29.1541 81.4743V75.1991H33.4865V81.4578C33.4865 81.5893 33.5842 81.6878 33.7145 81.6878H36.4996C36.6299 81.6878 36.7277 81.5893 36.7277 81.4578V66.8213H36.7114Z" fill="white" fill-opacity="0.7"/>
<path d="M16.5314 68.7433C16.5314 67.7413 15.7334 66.9199 14.7398 66.9199C13.7463 66.9199 12.9482 67.7413 12.9482 68.7433C12.9482 69.7454 13.7463 70.5667 14.7398 70.5667C15.7334 70.5667 16.5314 69.7454 16.5314 68.7433Z" fill="white" fill-opacity="0.7"/>
<path d="M16.3359 78.3695C16.3359 77.9917 16.3359 71.6016 16.3359 71.6016C16.3359 71.4701 16.2382 71.3716 16.1079 71.3716H13.339C13.2087 71.3716 13.0947 71.503 13.0947 71.6344C13.0947 71.6344 13.0947 79.7658 13.0947 81.3264C13.0947 81.6057 13.2739 81.6878 13.5019 81.6878C13.5019 81.6878 14.6909 81.6878 15.9939 81.6878C16.2707 81.6878 16.3359 81.5564 16.3359 81.31C16.3359 80.8007 16.3359 78.7638 16.3359 78.3695Z" fill="white" fill-opacity="0.7"/>
<path d="M47.2495 71.4045H44.4969C44.3666 71.4045 44.2689 71.5031 44.2689 71.6345V78.8132C44.2689 78.8132 43.5686 79.3224 42.575 79.3224C41.5815 79.3224 41.3209 78.8624 41.3209 77.8932C41.3209 76.9076 41.3209 71.6345 41.3209 71.6345C41.3209 71.5031 41.2232 71.4045 41.0929 71.4045H38.2915C38.1612 71.4045 38.0635 71.5031 38.0635 71.6345C38.0635 71.6345 38.0635 75.462 38.0635 78.3696C38.0635 81.2772 39.6759 82 41.891 82C43.7151 82 45.1647 80.9815 45.1647 80.9815C45.1647 80.9815 45.2299 81.5072 45.2624 81.5729C45.295 81.6386 45.3764 81.7043 45.4579 81.7043H47.2332C47.3635 81.7043 47.4612 81.6058 47.4612 81.4744V71.6345C47.4775 71.5031 47.3798 71.4045 47.2495 71.4045Z" fill="white" fill-opacity="0.7"/>
<path d="M54.7741 71.0759C53.2105 71.0759 52.1518 71.7823 52.1518 71.7823V66.8213C52.1518 66.6899 52.0541 66.5913 51.9238 66.5913H49.1387C49.0084 66.5913 48.9106 66.6899 48.9106 66.8213V81.4743C48.9106 81.6057 49.0084 81.7042 49.1387 81.7042H51.0769C51.1583 81.7042 51.2234 81.655 51.2723 81.5728C51.3212 81.4907 51.3863 80.8993 51.3863 80.8993C51.3863 80.8993 52.5264 81.9835 54.6763 81.9835C57.2009 81.9835 58.6504 80.6858 58.6504 76.1683C58.6667 71.6673 56.3539 71.0759 54.7741 71.0759ZM53.6991 79.3223C52.7382 79.2895 52.1029 78.8624 52.1029 78.8624V74.2135C52.1029 74.2135 52.7382 73.8192 53.5199 73.7535C54.5135 73.6714 55.4744 73.9671 55.4744 76.349C55.4581 78.8624 55.0347 79.3716 53.6991 79.3223Z" fill="white" fill-opacity="0.7"/>
<path d="M24.3168 71.3716H22.232V68.5954C22.232 68.4969 22.1832 68.4312 22.0529 68.4312H19.2189C19.1049 68.4312 19.056 68.4804 19.056 68.579V71.4537C19.056 71.4537 17.639 71.7987 17.5413 71.8316C17.4436 71.8644 17.3784 71.9466 17.3784 72.0615V73.8685C17.3784 73.9999 17.4761 74.0985 17.6064 74.0985H19.056C19.056 74.0985 19.056 75.9876 19.056 78.4353C19.056 81.655 21.2874 81.9671 22.8021 81.9671C23.4861 81.9671 24.3168 81.7371 24.4471 81.6878C24.5285 81.655 24.5774 81.5728 24.5774 81.4743V79.4866C24.5774 79.3552 24.4634 79.2566 24.3494 79.2566C24.2353 79.2566 23.9096 79.3059 23.6001 79.3059C22.574 79.3059 22.232 78.8295 22.232 78.2053C22.232 77.581 22.232 74.0821 22.232 74.0821H24.3168C24.4471 74.0821 24.5448 73.9835 24.5448 73.8521V71.6016C24.5448 71.4866 24.4471 71.3716 24.3168 71.3716Z" fill="white" fill-opacity="0.7"/>
</g>
<g clip-path="url(#clip1_214_485)">
<path fill-rule="evenodd" clip-rule="evenodd" d="M29.1387 0C14.8478 0 3.25635 11.478 3.25635 25.6289C3.25635 36.9497 10.7194 46.5409 20.8818 50C22.1521 50.1572 22.6284 49.3711 22.6284 48.7421C22.6284 48.1132 22.6284 46.5409 22.6284 44.3396C15.483 45.912 13.8951 40.8805 13.8951 40.8805C12.7836 37.8931 11.0369 37.1069 11.0369 37.1069C8.65512 35.5346 11.1957 35.5346 11.1957 35.5346C13.7363 35.6918 15.1654 38.2076 15.1654 38.2076C17.5472 42.1384 21.1993 41.0377 22.6284 40.4088C22.7872 38.6792 23.5811 37.5786 24.2163 36.9497C18.4999 36.3208 12.466 34.1195 12.466 24.2138C12.466 21.3836 13.4187 19.1824 15.1654 17.2956C15.0066 16.8239 14.0539 14.1509 15.483 10.6918C15.483 10.6918 17.706 10.0629 22.6284 13.3648C24.6927 12.7358 26.9157 12.5786 29.1387 12.5786C31.3617 12.5786 33.5848 12.8931 35.649 13.3648C40.5714 10.0629 42.7944 10.6918 42.7944 10.6918C44.2235 14.1509 43.2708 16.8239 43.112 17.4528C44.6999 19.1824 45.8114 21.5409 45.8114 24.3711C45.8114 34.2767 39.7775 36.3208 34.0611 36.9497C35.0138 37.7359 35.8078 39.3082 35.8078 41.6667C35.8078 45.1258 35.8078 47.7987 35.8078 48.7421C35.8078 49.3711 36.2841 50.1572 37.5544 50C47.8756 46.5409 55.1798 36.9497 55.1798 25.6289C55.0211 11.478 43.4296 0 29.1387 0Z" fill="white"/>
</g>
<defs>
<clipPath id="clip0_214_485">
<rect width="58.6667" height="16" fill="white" transform="translate(0 66)"/>
</clipPath>
<clipPath id="clip1_214_485">
<rect width="51.7647" height="50" fill="white" transform="translate(3.25635)"/>
</clipPath>
</defs>
</svg>
