<svg width="43" height="28" viewBox="0 0 43 28" fill="none" xmlns="http://www.w3.org/2000/svg">
<path d="M15.3208 5.82645L37.552 2.66862L37.7724 2.63814L37.7548 2.78565L32.3199 24.606L30.2255 17.8556L22.1112 25.1993L23.3775 20.1189L23.8817 18.2701L24.425 16.3537L24.4179 16.3271L24.4374 16.2933L25.1226 15.6527L25.4425 17.1664L31.6716 11.5274L32.1311 15.3742L35.1558 5.02436L24.5008 6.93682L28.2959 7.77639L22.0669 13.4155L23.4464 13.8741L22.7541 14.488L22.7612 14.5147L20.7393 14.8565L18.9111 15.175L13.7442 15.9311L21.8585 8.58736L15.3208 5.82645Z" fill="#5C5C86"/>
<path d="M21.1945 14.4209L22.4217 13.7779L22.7549 14.4884L22.762 14.515L12.3471 23.9319L12.3204 23.939L10.4408 24.3855L20.7401 14.8569L21.1945 14.4209Z" fill="#5C5C86"/>
<path d="M25.094 16.7172L24.4183 16.327L14.0033 25.7439L13.3516 27.5751L24.3242 17.8945L25.094 16.7172Z" fill="#5C5C86"/>
<path d="M2.51562 9.97221L10.5702 8.83607L10.6383 8.81782L10.6134 8.86099L8.67643 16.7535L7.91722 14.3287L4.97692 16.9782L5.4335 15.1403L5.61893 14.47L5.79524 13.7657L5.82931 13.7566L6.05614 13.5133L6.16807 14.0674L8.43458 12.0365L8.58614 13.4194L9.69452 9.65474L5.83206 10.3612L7.19744 10.6889L4.96499 12.7106L5.44668 12.8736L5.21986 13.1169L4.4864 13.2404L3.82107 13.3457L1.92723 13.6341L4.86753 10.9846L2.51562 9.97221Z" fill="#5C5C86"/>
<path d="M4.62908 13.0926L5.07851 12.8627L5.21964 13.1169L1.41942 16.5078L0.738281 16.6903L4.48617 13.2404L4.62908 13.0926Z" fill="#5C5C86"/>
<path d="M6.05431 13.9155L5.7952 13.7659L2.03818 17.1817L1.80957 17.827L5.7618 14.3224L6.05431 13.9155Z" fill="#5C5C86"/>
</svg>
