<svg width="81" height="75" viewBox="0 0 81 75" fill="none" xmlns="http://www.w3.org/2000/svg">
<path d="M72.224 50.1727C69.5071 57.5016 64.5092 63.7648 57.9659 68.0404C51.4226 72.3161 43.6796 74.3783 35.8765 73.9235C28.0734 73.4688 20.6223 70.5211 14.62 65.5143C8.61768 60.5076 4.38115 53.7062 2.53393 46.1113C0.686715 38.5163 1.32639 30.529 4.35882 23.3248C7.39124 16.1207 12.6562 10.0803 19.3789 6.09261C26.1015 2.10496 33.9267 0.380706 41.7028 1.17364C49.4788 1.96657 56.7949 5.23479 62.5743 10.4973" stroke="#25FF08"/>
<path d="M55 40.0028L50.1036 27.2174L42.7314 29.4803L41.0259 20.4854L26.3916 26.2557L28.5922 33.7233L21 36.0428L23.8058 46.6784L31.8382 44.9812L34.644 54.4854L47.0777 52.675L45.0971 42.1526L55 40.0028Z" fill="#25FF08"/>
<path d="M80.3485 29.5904L78.1223 23.8235L73.3977 25.3813L72.3262 19.6312L65.8572 22.0196L67.1897 26.8319L62.1365 28.2993L63.3054 33.0237L68.3524 31.9842L69.9176 37.827L75.3709 37.2214L74.308 30.8723L80.3485 29.5904Z" fill="#25FF08"/>
</svg>
