<svg width="50" height="47" viewBox="0 0 50 47" fill="none" xmlns="http://www.w3.org/2000/svg">
<path d="M45.4583 7.58725L35.9697 18.473L39.999 19.3741L36.4861 27.5909L46.2676 16.7687L42.4401 15.6262L45.4583 7.58725Z" fill="#5C5C86"/>
<path d="M31.7854 15.6392L24.5612 14.6226L32.463 6.59902L16.9596 9.75235L9.48962 19.6861L14.0833 20.1563L5.39023 28.9018L9.75654 29.7251L3.53527 40.0623L23.9434 27.4948L19.1306 26.4432L31.7854 15.6392ZM9.21268 34.1874L13.5984 28.544L10.3138 27.9918L18.8787 18.9462L13.6507 18.3395L18.865 11.9932L24.0499 11.123L19.2027 16.1081L25.5148 16.7056L15.2944 26.9703L18.5964 27.6721L9.21268 34.1874Z" fill="#5C5C86"/>
</svg>
