<svg width="44" height="46" viewBox="0 0 44 46" fill="none" xmlns="http://www.w3.org/2000/svg">
<path d="M31.0586 13.735C31.0586 13.735 28.6565 19.6176 27.1368 23.2452L18.1168 21.1863L21.1562 10.7937C24.2445 10.4015 31.0586 13.735 31.0586 13.735Z" fill="#5C5C86"/>
<path d="M18.0186 21.3827L14.0478 36.4814L8.85149 23.8828C8.36127 22.7553 8.16516 20.3042 8.45929 19.1277L18.0186 21.3827Z" fill="#5C5C86"/>
<path d="M0.566639 17.6077L1.35098 13.0977C2.28239 7.70529 3.36089 2.01876 3.36089 2.01876C3.36089 2.01876 9.19448 -0.873531 21.0578 0.695168L23.5089 1.03833C29.1464 2.01876 35.9604 3.93061 44 7.46018C44 7.46018 41.4509 14.4213 38.5096 21.1373L37.4801 23.4903C35.5192 27.7552 33.4603 31.628 31.9896 32.9025C28.8522 35.6478 18.1165 42.4618 13.4594 45.3541C13.4104 45.4031 13.3123 45.4521 13.2633 45.4521C11.7927 46.1384 10.5181 45.8443 10.5181 45.8443L10.0769 45.3541C10.0769 45.3541 -0.609871 25.7453 0.0274124 21.2844C0.125454 20.3529 0.321529 19.0784 0.566639 17.6077ZM12.0378 42.1677C12.0378 42.1677 26.5482 32.4123 29.2934 30.0102C32.0387 27.6082 36.7938 9.91127 36.7938 9.91127C18.3126 1.77364 7.38069 5.74441 7.38069 5.74441C7.38069 5.74441 4.24327 18.0489 3.80207 21.0883C3.4099 24.1276 12.0378 42.1677 12.0378 42.1677Z" fill="#5C5C86"/>
</svg>
