<svg width="49" height="36" viewBox="0 0 49 36" fill="none" xmlns="http://www.w3.org/2000/svg">
<path d="M10.6663 10.5095L14.766 6.23303L30.6193 14.0626L20.5185 28.6227L8.81993 21.6818C6.92553 20.5368 4.58797 19.0405 3.66078 18.3493C4.31958 17.5595 5.38446 16.3692 6.51759 14.8653L8.9798 12.2636L10.6663 10.5095ZM17.2673 20.946L18.4635 16.7729C19.0496 16.7292 19.6679 16.4204 20.0685 15.8784C20.7716 14.9532 20.6691 13.7167 19.8958 13.1404C19.1225 12.564 17.9248 12.8878 17.2504 13.8198C16.7096 14.5712 16.4829 15.2754 16.8491 15.9073L13.2534 18.8176L17.2673 20.946Z" fill="#5C5C86"/>
<path d="M21.6756 29.5011L21.8882 33.6124L31.5802 18.9863L30.9018 14.2803L21.6756 29.5011Z" fill="#5C5C86"/>
<path d="M2.01143 21.8746L21.8321 33.721L19.9573 29.9754L4.23963 19.9036C3.32671 19.586 2.89661 19.5868 2.34335 19.929C1.89394 20.207 1.47345 21.6141 2.01143 21.8746Z" fill="#5C5C86"/>
<path d="M40.2348 12.8744L37.044 16.6378L39.7459 18.0326L43.351 13.1546C43.618 12.7933 43.8057 12.3829 43.8566 11.91L43.8549 11.7884L42.2954 12.8754C42.2954 12.8754 41.333 12.0726 40.8704 11.7211C40.8569 11.7785 40.8552 11.6569 40.8417 11.7143C40.7047 12.1669 40.5237 12.5486 40.2348 12.8744Z" fill="#5C5C86"/>
<path d="M43.333 8.60436L43.752 8.36978L43.4297 7.80885L43.333 8.60436Z" fill="#5C5C86"/>
<path d="M41.7904 8.8471L40.8628 9.56789C40.8847 9.60337 40.8847 9.60337 40.878 9.63208L42.683 10.8457L44.06 10.0187C44.0787 9.81095 44.0906 9.63192 44.0738 9.44611L43.0077 9.98273L41.7904 8.8471Z" fill="#5C5C86"/>
<path d="M41.5147 6.41792L41.9302 6.45527L41.7834 6.1782L41.5402 6.18146L41.5147 6.41792Z" fill="#5C5C86"/>
<path d="M40.9635 6.95456L40.6336 7.96785L40.7179 8.38171L41.7317 7.68123L40.9635 6.95456Z" fill="#5C5C86"/>
<path d="M39.901 6.70416L39.5917 7.11614L39.8431 7.72095L40.0514 6.70929L39.901 6.70416Z" fill="#5C5C86"/>
<path d="M39.7635 4.9747L39.6738 5.22633L40.2464 5.24011L39.7635 4.9747Z" fill="#5C5C86"/>
<path d="M37.617 5.4683L36.7806 6.05908L37.3004 6.93933L37.6097 6.52734L37.617 5.4683Z" fill="#5C5C86"/>
<path d="M27.6876 10.9464L30.1446 12.2228L33.6227 8.01195C33.7495 7.85999 33.8982 7.74352 34.0536 7.59833C34.2023 7.48185 34.3797 7.37215 34.5504 7.29116C34.65 7.25404 34.7565 7.18822 34.8849 7.15788L35.4119 6.97909C35.4406 6.98586 35.4474 6.95715 35.4761 6.96392L35.196 6.35234L34.3989 6.13407L34.2978 5.53441L35.2561 4.42683L33.6513 4.80611C33.0735 4.94265 32.5768 5.24983 32.1678 5.69892L27.6876 10.9464Z" fill="#5C5C86"/>
<path d="M41.9302 6.45503L41.7834 6.17795L41.5402 6.18122L41.5147 6.41767L41.9302 6.45503Z" fill="#606060"/>
<path d="M40.7179 8.38183L41.7317 7.68135L40.9635 6.95468L40.6336 7.96797L40.7179 8.38183Z" fill="#606060"/>
<path d="M39.901 6.7044L39.5917 7.11639L39.8431 7.72119L40.0514 6.70954L39.901 6.7044Z" fill="#606060"/>
<path d="M37.6088 6.52759L37.616 5.46855L36.7796 6.05932L37.2995 6.93957L37.6088 6.52759Z" fill="#606060"/>
<path d="M43.6172 7.3985L43.455 7.5724L43.4295 7.80886L43.3396 8.57565L43.7519 8.36978L44.1996 8.14197C44.0392 7.92231 43.8282 7.66041 43.6172 7.3985Z" fill="#606060"/>
<path d="M41.4986 4.68653L41.3348 4.73882L42.081 5.43L42.1165 5.40806C41.8193 5.12584 41.637 4.87071 41.4986 4.68653Z" fill="#606060"/>
<path d="M39.7633 4.97469L39.6737 5.22631L40.2462 5.2401L40.3104 5.22493L40.3984 4.85168L39.8191 4.86661L39.7633 4.97469Z" fill="#606060"/>
<path d="M37.6585 3.75068L37.7528 4.37906L38.2073 4.12253L38.2785 3.56349C38.1062 3.52287 37.9914 3.49579 37.9914 3.49579C37.9914 3.49579 37.885 3.56161 37.6585 3.75068Z" fill="#606060"/>
<path d="M40.7694 9.57634C40.7694 9.57634 40.7557 9.63412 40.7421 9.69191L40.8203 9.61886L40.7694 9.57634Z" fill="#606060"/>
<path d="M43.4549 7.57226L43.4294 7.80872L43.3328 8.60422L43.7518 8.36964L44.1995 8.14183L46.0258 7.20864L44.6176 6.24014L43.6171 7.39836L43.4549 7.57226Z" fill="#5C5C86"/>
<path d="M37.293 1.57349L37.6585 3.75087L37.7882 4.35731L38.214 4.09402L38.3139 3.54174L38.5021 2.10106L37.293 1.57349Z" fill="#5C5C86"/>
<path d="M39.9064 2.82627L41.4748 0.801818L41.5553 2.00278L40.1729 3.49526L39.9064 2.82627Z" fill="#5C5C86"/>
<path d="M40.6336 7.96797L40.7179 8.38183L41.7317 7.68135L40.9635 6.95468L40.6336 7.96797Z" fill="#5C5C86"/>
<path d="M41.2988 4.7609L42.0451 5.45208L42.0805 5.43014L43.8578 4.57631L44.1758 3.74207L41.4982 4.68667L41.2988 4.7609Z" fill="#5C5C86"/>
<path d="M36.7796 6.05932L37.2995 6.93957L37.6088 6.52759L37.616 5.46855L36.7796 6.05932Z" fill="#5C5C86"/>
<path d="M39.6737 5.22631L40.2462 5.2401L40.3104 5.22493L40.3984 4.85168L39.8191 4.86661L39.7633 4.97469L39.6737 5.22631Z" fill="#5C5C86"/>
<path d="M39.5917 7.11639L39.8431 7.72119L40.0514 6.70954L39.901 6.7044L39.5917 7.11639Z" fill="#5C5C86"/>
<path d="M41.5402 6.18122L41.5147 6.41767L41.9302 6.45503L41.7834 6.17795L41.5402 6.18122Z" fill="#5C5C86"/>
<path d="M40.7694 9.57634C40.7694 9.57634 40.7557 9.63412 40.7421 9.69191L40.8203 9.61886L40.7694 9.57634Z" fill="#606060"/>
<path d="M45.69 4.00812L48.915 2.79858L48.4346 4.32189L46.1121 4.53193L45.69 4.00812Z" fill="#5C5C86"/>
</svg>
