<svg width="53" height="49" viewBox="0 0 53 49" fill="none" xmlns="http://www.w3.org/2000/svg">
<path d="M5.42248 13.5034C10.2814 11.0736 16.1352 10.5981 21.6411 12.6594C31.8914 16.5193 37.2875 27.9772 33.6569 38.3347C32.746 40.9807 31.3361 43.3004 29.5392 45.2531C33.2011 42.4966 36.4723 37.0907 36.4723 37.0907L45.9236 30.7102C46.0535 30.6313 45.9543 30.4453 45.8422 30.486C44.1735 30.8697 39.8352 31.5881 38.9678 29.4606C37.8792 26.8109 37.052 21.2116 53.4173 8.80079C53.5473 8.72191 53.448 8.53593 53.2799 8.59697C49.774 10.1233 37.5903 15.1802 34.5544 14.506C31.7274 13.8828 32.1907 10.0037 32.4896 8.46785C32.5406 8.25901 32.2911 8.09581 32.1051 8.19505C30.6196 9.08318 26.2854 11.3859 22.5242 9.6746C19.3741 8.24889 18.4639 5.2172 18.1695 3.35756C18.101 2.90666 17.533 2.82738 17.3163 3.1915C16.253 5.06819 14.3025 8.34532 13.3546 8.87969C12.0908 9.59219 8.08878 10.1885 5.42248 13.5034Z" fill="#5C5C86"/>
<path d="M24.4049 20.1878C23.43 18.9875 22.3226 17.7719 19.6512 16.6165C18.7548 16.2441 17.8227 15.948 16.8931 15.7463L16.933 17.2543C19.0854 17.3294 21.594 18.0364 24.4049 20.1878Z" fill="#5C5C86"/>
<path d="M15.0349 17.5316L14.7941 15.5574C12.3208 15.4719 9.90313 16.064 7.76533 17.2523L10.1249 20.1702C11.0271 19.3352 12.709 18.027 15.0349 17.5316Z" fill="#5C5C86"/>
<path d="M4.16446 38.7002C5.6816 40.4332 7.58614 41.8352 9.87303 42.7178C12.2924 43.6158 14.8446 43.8313 17.2111 43.448L15.2716 36.4446C14.1635 36.6248 13.03 36.5605 11.9273 36.2312C11.1097 35.9888 10.384 35.6496 9.71178 35.1958L4.16446 38.7002Z" fill="#5C5C86"/>
<path d="M0.900813 27.2613C0.369024 30.6895 1.10066 34.1032 2.83622 36.9622L7.97581 33.7327C7.64489 33.3454 7.34969 32.8816 7.13087 32.4536C7.09018 32.3415 7.04949 32.2294 7.00879 32.1173C6.9681 32.0052 6.92743 31.893 6.88674 31.7809L6.86639 31.7249C6.8639 31.6306 6.80535 31.5567 6.80286 31.4625C6.78251 31.4064 6.7825 31.4064 6.76216 31.3504C6.74181 31.2943 6.73932 31.2001 6.71898 31.144C6.69863 31.088 6.6783 31.0319 6.69615 30.9937C6.6758 30.9377 6.67329 30.8435 6.65294 30.7874C6.6326 30.7314 6.65046 30.6931 6.63012 30.6371C6.60977 30.581 6.58943 30.525 6.58693 30.4307C6.56659 30.3747 6.58443 30.3365 6.56408 30.2805C6.54374 30.2244 6.54125 30.1301 6.5209 30.0741C6.50056 30.018 6.51842 29.9798 6.49807 29.9238C6.49558 29.8295 6.49309 29.7353 6.45239 29.6232C6.43205 29.5671 6.44991 29.5289 6.44741 29.4347C6.42707 29.3786 6.42458 29.2844 6.40423 29.2283L6.25144 29.1569L0.900813 27.2613Z" fill="#5C5C86"/>
<path d="M1.62078 24.5255C1.53152 24.7165 1.48045 24.9253 1.44724 25.096L6.43623 26.8691L6.47443 26.887C6.47194 26.7927 6.52548 26.6781 6.52299 26.5839C6.63799 25.9395 6.80905 25.2748 7.05649 24.6457C7.49782 23.5023 8.07407 22.4685 8.80562 21.6003L5.76842 18.738C3.9387 20.1634 2.50094 22.1443 1.62078 24.5255Z" fill="#5C5C86"/>
<path d="M20.7606 32.8662C19.9473 34.2081 18.7291 35.2212 17.3125 35.8623L19.4226 42.8989C22.0213 42.0191 24.3555 40.4106 26.071 38.2337L27.4013 41.4618C31.9923 31.0412 28.7408 24.3554 28.7408 24.3554L28.779 24.3733C26.6375 27.5612 17.7197 32.0035 17.7197 32.0035L20.7606 32.8662Z" fill="#5C5C86"/>
</svg>
