<svg width="50" height="29" viewBox="0 0 50 29" fill="none" xmlns="http://www.w3.org/2000/svg">
<path d="M43.3718 13.036L43.2649 13.1429L29.2234 28.6812L0.178223 13.9269L27.7622 23.3354L38.4894 9.43651L38.5963 9.29395L40.1287 10.5057L40.0218 10.6126L28.3324 25.4025L21.775 23.2642L28.6888 26.2934L41.6255 11.8599L41.6968 11.753L43.3718 13.036Z" fill="#5C5C86"/>
<path d="M50.0004 0.384033L46.9712 18.5595L43.3005 13.1782L43.2648 13.1425L41.6254 11.8596L41.6967 11.7526L43.5499 9.72128L44.9755 11.5388L45.7595 5.62288L39.9861 7.54736L41.8036 8.40264L40.1286 10.5053L40.0217 10.6122L38.4893 9.43616L38.1685 9.18671L33.0723 7.4048L50.0004 0.384033Z" fill="#5C5C86"/>
<path d="M3.55518 12.8449L20.1543 17.3047L23.9821 12.0244L24.4471 14.3791L26.3074 7.35059L19.9396 10.6686L22.1218 11.1324L19.2599 15.5208L3.55518 12.8449Z" fill="#5C5C86"/>
<path d="M0 15.8823L8.25717 23.113L8.67882 21.6021L12.0871 27.9694L5.83272 25.1275L7.23819 24.408L0 15.8823Z" fill="#5C5C86"/>
</svg>
