<svg width="50" height="46" viewBox="0 0 50 46" fill="none" xmlns="http://www.w3.org/2000/svg">
<path d="M40.2112 19.367C40.2112 19.367 51.0757 23.9817 49.9129 36.1179C49.9129 36.1179 47.9144 34.0831 47.115 33.6834C47.115 33.6834 39.3391 53.5956 6.70923 42.6584C6.70923 42.6584 11.7236 40.9143 11.9416 40.1149C11.9416 40.1149 -1.46639 33.3927 0.132401 19.7303L1.91288 20.2027C1.91288 20.2027 5.07412 13.1535 13.4678 12.9718C13.4678 12.9718 -4.8093 22.6736 11.3603 35.1005C27.5299 47.5275 42.682 34.1194 42.682 34.1194C42.682 34.1194 48.8955 28.342 40.2112 19.367Z" fill="#5C5C86"/>
<path d="M37.8135 20.1297C37.8135 20.1297 42.0285 23.5453 41.8468 29.3954C41.8468 29.3954 41.1928 27.9419 40.6841 27.6876C40.6841 27.6876 36.5054 39.5695 16.1208 32.7746C16.1208 32.7746 17.974 32.4113 18.083 31.9026C18.083 31.9026 10.1981 27.7239 11.2155 19.1849L12.1966 20.384C12.1966 20.384 12.0149 17.5861 17.3926 16.1327C17.3926 16.1327 8.16323 21.1471 18.7734 28.1963C28.6205 34.7731 36.2511 28.5233 36.2511 28.5233C36.2511 28.5233 41.2655 26.0888 37.8135 20.1297Z" fill="#5C5C86"/>
<path d="M16.9925 12.536L20.2264 4.32399L25.0955 5.77743L26.2219 -2.33073e-08L35.8873 3.70627L34.4339 8.50264L39.4482 9.99244L37.5951 16.8236L32.29 15.7335L30.4369 21.838L22.2249 20.6753L23.533 13.9167L16.9925 12.536Z" fill="#5C5C86"/>
</svg>
