<svg width="79" height="75" viewBox="0 0 79 75" fill="none" xmlns="http://www.w3.org/2000/svg">
<path d="M72.224 50.1727C69.5071 57.5016 64.5092 63.7648 57.9659 68.0404C51.4226 72.3161 43.6796 74.3783 35.8765 73.9235C28.0734 73.4688 20.6223 70.5211 14.62 65.5143C8.61768 60.5076 4.38115 53.7062 2.53393 46.1113C0.686715 38.5163 1.32639 30.529 4.35882 23.3248C7.39124 16.1207 12.6562 10.0803 19.3789 6.09261C26.1015 2.10496 33.9267 0.380706 41.7028 1.17364C49.4788 1.96657 56.7949 5.23479 62.5743 10.4973" stroke="#25FF08"/>
<path d="M69.0006 31.2793L68.8502 31.4297L49.1014 53.2837L8.25061 32.5324L47.0464 45.7651L62.1336 26.2169L62.284 26.0164L64.4393 27.7206L64.2889 27.871L47.8483 48.6723L38.6256 45.6649L48.3496 49.9254L66.5445 29.6253L66.6447 29.4749L69.0006 31.2793Z" fill="#25FF08"/>
<path d="M78.3235 13.4854L74.063 39.0484L68.9003 31.4798L68.8502 31.4297L66.5445 29.6252L66.6447 29.4748L69.2512 26.6178L71.2561 29.1741L72.3588 20.8536L64.2388 23.5603L66.7951 24.7632L64.4393 27.7205L64.2889 27.8709L62.1336 26.2168L61.6825 25.8659L54.5148 23.3598L78.3235 13.4854Z" fill="#25FF08"/>
<path d="M13 31.0108L36.3459 37.2832L41.7296 29.8567L42.3836 33.1685L45 23.2832L36.044 27.9498L39.1132 28.6022L35.088 34.7742L13 31.0108Z" fill="#25FF08"/>
<path d="M8 35.2832L19.6134 45.4529L20.2064 43.3278L25 52.2832L16.2035 48.2862L18.1802 47.2743L8 35.2832Z" fill="#25FF08"/>
</svg>
