<svg width="43" height="44" viewBox="0 0 43 44" fill="none" xmlns="http://www.w3.org/2000/svg">
<path d="M13.2578 8.06986L14.094 11.5763L9.31132 30.4167C10.0692 30.3701 11.297 30.3529 11.3487 30.4317L18.7249 11.2864L14.7693 0.725087L13.2578 8.06986Z" fill="#5C5C86"/>
<path d="M6.9132 8.94324L6.22968 29.4646C6.30842 29.413 7.42795 29.9175 8.09967 30.2202L11.256 10.8924L13.21 8.03341L14.6895 0.777207L6.9132 8.94324Z" fill="#5C5C86"/>
<path d="M1.33835 30.421L6.06765 30.2468L8.5552 31.5659L11.3259 31.325L15.5899 33.3259L15.4691 36.2663L11.0869 33.9824L5.55315 32.7245L0.304629 33.1719L1.33835 30.421Z" fill="#5C5C86"/>
<path d="M12.3743 30.8622L12.9527 29.6492L13.6857 31.5563L12.3743 30.8622Z" fill="#5C5C86"/>
<path d="M3.91012 29.5679L5.34726 28.0843L5.37912 29.4376L3.91012 29.5679Z" fill="#5C5C86"/>
<path d="M5.35823 39.3633L5.782 33.5883L8.08754 34.0806L10.3882 34.5312L8.56189 39.9197C9.09087 40.4513 9.34178 41.1427 9.17439 41.8833C8.9356 43.0989 7.58711 43.8935 6.19444 43.5907C4.80176 43.2879 3.89637 42.0797 4.13516 40.8642C4.30747 40.1654 4.75535 39.6462 5.35823 39.3633ZM6.4529 42.5425C7.19352 42.7099 7.86532 42.2917 8.00071 41.6396C8.13611 40.9876 7.63912 40.3675 6.94032 40.1952C6.1997 40.0278 5.52791 40.446 5.39252 41.0981C5.21038 41.7132 5.71227 42.3751 6.4529 42.5425Z" fill="#5C5C86"/>
<path d="M39.3666 12.9343L38.6146 15.4628L28.9198 25.5645C29.3787 25.8436 30.1917 26.2123 30.1817 26.332L41.6221 16.9775L42.8905 8.94861L39.3666 12.9343Z" fill="#5C5C86"/>
<path d="M35.1124 11.1957L27.3784 23.8098C27.4382 23.8148 27.982 24.5227 28.3063 24.9713L37.1132 13.9524L39.3717 12.8744L42.9005 8.82888L35.1124 11.1957Z" fill="#5C5C86"/>
<path d="M23.9775 22.6848L26.98 24.2594L28.0429 25.9743L29.9032 26.7914L31.8391 29.603L30.7278 31.3787L28.8068 28.3875L25.7788 25.6661L22.3574 24.0568L23.9775 22.6848Z" fill="#5C5C86"/>
<path d="M30.7355 26.9202L31.5082 26.3215L31.2644 27.8076L30.7355 26.9202Z" fill="#5C5C86"/>
<path d="M25.8725 23.083L27.2935 22.6585L26.8002 23.5214L25.8725 23.083Z" fill="#5C5C86"/>
<path d="M23.2722 29.7357L25.6095 26.2541L26.9014 27.3855L28.1934 28.517L25.1328 31.2758C25.2726 31.7694 25.1681 32.303 24.8342 32.6971C24.2361 33.3705 23.149 33.4009 22.3608 32.733C21.5727 32.0651 21.4227 30.9681 22.0208 30.2947C22.3547 29.9006 22.7935 29.696 23.2722 29.7357ZM22.8343 32.1095C23.2284 32.4434 23.8318 32.4332 24.1009 32.094C24.4299 31.7598 24.3598 31.1514 23.9059 30.8125C23.5118 30.4786 22.9084 30.4888 22.6393 30.828C22.3702 31.1672 22.4402 31.7755 22.8343 32.1095Z" fill="#5C5C86"/>
</svg>
