<svg width="80" height="82" viewBox="0 0 80 82" fill="none" xmlns="http://www.w3.org/2000/svg">
<path fill-rule="evenodd" clip-rule="evenodd" d="M15.6665 0H65.6665V50H15.6665V0ZM27.1751 15.6247C27.483 15.9022 27.6402 16.3097 27.5985 16.7221V31.5682C27.6899 32.1038 27.521 32.6509 27.1437 33.0419L23.6154 37.3217V37.8861H33.6202V37.3217L30.0919 33.0419C29.7118 32.6515 29.5325 32.1081 29.6057 31.5682V18.7287L38.3874 37.8861H39.4067L46.9495 18.7287V33.9982C46.9495 34.4058 46.9494 34.4842 46.6829 34.7507L43.97 37.3844V37.9488H57.1424V37.3844L54.5236 34.8134C54.2924 34.6372 54.1778 34.3476 54.2257 34.0609V15.17C54.1778 14.8834 54.2924 14.5938 54.5236 14.4175L57.2051 11.8465V11.2821H47.9217L41.3041 27.7901L33.777 11.2821H24.0388V11.8465L27.1751 15.6247Z" fill="white"/>
<g clip-path="url(#clip0_214_477)">
<path d="M40.5827 80.2141C40.5827 80.4957 40.5827 80.5597 40.7678 80.7325L41.8045 81.7821V81.8269H37.2075V79.811C36.7449 81.1396 35.5213 82.0183 34.1594 81.9997C31.7961 81.9997 30.0807 80.0797 30.0807 76.547C30.0807 73.2383 31.9318 71.0303 34.5296 71.0303C35.6811 70.9551 36.7526 71.643 37.2014 72.7455V68.2976C37.2355 68.0916 37.1542 67.8833 36.9916 67.76L36.0043 66.7744V66.7296L40.5827 66.1728V80.2141ZM37.2075 79.5742V72.9375C36.8744 72.5083 36.3689 72.2627 35.8377 72.2719C34.7209 72.2719 33.641 73.3215 33.641 76.4382C33.641 79.3566 34.5728 80.3869 35.7328 80.3869C36.321 80.3745 36.8684 80.0727 37.2075 79.5742ZM43.6309 81.8269V72.8671C43.6603 72.667 43.5907 72.465 43.4458 72.3295L42.4277 71.2415V71.1967H47.0246V80.2845C47.0246 80.5661 47.0246 80.6301 47.2097 80.8029L48.2217 81.7885V81.8333L43.6309 81.8269ZM43.4643 67.92C43.4643 66.8596 44.2931 66 45.3154 66C46.3378 66 47.1665 66.8596 47.1665 67.92C47.1665 68.9803 46.3378 69.8399 45.3154 69.8399C44.2931 69.8399 43.4643 68.9803 43.4643 67.92ZM59.4271 80.1949C59.4271 80.4765 59.4271 80.5597 59.6122 80.7325L60.6488 81.7821V81.8269H56.0272V79.5294C55.6063 80.9821 54.3242 81.9827 52.8618 81.9997C50.8132 81.9997 49.7149 80.4509 49.7149 77.5198C49.7149 76.1054 49.7149 74.5566 49.7581 72.8159C49.7919 72.621 49.721 72.4225 49.573 72.2975L48.5549 71.2415V71.1967H53.1148C53.1148 71.2607 53.1148 76.7582 53.1148 77.0398C53.1148 78.9598 53.3863 80.2397 54.5463 80.2397C55.1693 80.1994 55.7307 79.836 56.0395 79.2734V72.8735C56.069 72.6734 55.9994 72.4714 55.8544 72.3359L54.8301 71.2415V71.1967H59.4271V80.1949ZM75.0752 81.8269C75.0752 81.4813 75.1369 77.0782 75.1369 76.067C75.1369 74.1471 74.8469 72.8223 73.5449 72.8223C72.8898 72.8432 72.2831 73.1852 71.9098 73.7439C72.0403 74.3422 72.1025 74.9544 72.0949 75.5678C72.0949 76.899 72.0517 78.595 72.0332 80.2909C71.9993 80.4858 72.0702 80.6844 72.2183 80.8093L73.2549 81.7949V81.8397H68.6148C68.6148 81.5197 68.6765 77.091 68.6765 76.0798C68.6765 74.1279 68.3865 72.8351 67.103 72.8351C66.4704 72.8586 65.8931 73.2159 65.5728 73.7823V80.3101C65.5728 80.5917 65.5728 80.6557 65.7579 80.8285L66.7698 81.8141V81.8589H62.1791V72.8991C62.2085 72.699 62.1389 72.497 61.994 72.3615L60.9758 71.2415V71.1967H65.5728V73.4751C65.999 71.9708 67.3574 70.9603 68.8678 71.0239C70.398 71.0239 71.4346 71.9071 71.8727 73.5839C72.3593 72.0374 73.76 70.9997 75.3282 71.0239C77.3767 71.0239 78.5368 72.5919 78.5368 75.555C78.5368 76.9694 78.4936 78.5822 78.4751 80.2781C78.4391 80.4789 78.5215 80.6826 78.6848 80.7965L79.6968 81.7821V81.8269H75.0752ZM17.3265 80.4317L18.6902 81.7821V81.8269H11.7732V81.7821L13.1615 80.4317C13.3096 80.3068 13.3805 80.1082 13.3466 79.9134V71.2799C13.3466 70.9151 13.3466 70.4223 13.4083 69.9999L8.74354 81.9997H8.688L3.85659 70.9599C3.7517 70.6847 3.72084 70.6655 3.65297 70.4799V77.7182C3.59513 78.2026 3.67445 78.6941 3.88127 79.1326L5.82495 81.7821V81.8269H0.666504V81.7821L2.61018 79.1262C2.81547 78.6895 2.89475 78.2005 2.83848 77.7182V69.7183C2.87008 69.3244 2.75529 68.9329 2.51762 68.624L1.14162 66.7744V66.7296H6.07793L10.2121 76.0798L13.8526 66.7296H18.684V66.7744L17.3265 68.3424C17.1639 68.4657 17.0826 68.674 17.1168 68.8799V79.9134C17.0808 80.1141 17.1632 80.3178 17.3265 80.4317ZM22.738 76.1054V76.1502C22.738 78.8894 24.1016 79.9901 25.6998 79.9901C27.0342 80.0374 28.2692 79.2613 28.8467 78.0126H28.8898C28.3345 80.7197 26.7179 81.9997 24.2991 81.9997C21.689 81.9997 19.227 80.3677 19.227 76.5854C19.227 72.6111 21.6952 71.0239 24.4225 71.0239C26.6191 71.0239 28.9577 72.0991 28.9577 75.555C28.9577 75.619 28.9577 75.8494 28.9577 76.1054H22.738ZM22.738 75.555H25.78C25.78 75.2734 25.78 75.0814 25.78 74.9982C25.78 72.1823 25.2185 71.4335 24.3731 71.4335C23.3488 71.4335 22.7256 72.5535 22.7256 75.555H22.738Z" fill="white" fill-opacity="0.7"/>
</g>
<defs>
<clipPath id="clip0_214_477">
<rect width="79.0303" height="16" fill="white" transform="translate(0.666504 66)"/>
</clipPath>
</defs>
</svg>
