<svg width="12" height="16" viewBox="0 0 12 16" fill="none" xmlns="http://www.w3.org/2000/svg">
<path d="M0 6.60008L0.258264 7.27443L2.79783 8.70921L3.25696 8.66617C3.47218 8.42226 3.63001 8.1353 3.75914 7.93443L3.70175 7.67617L1.23392 5.69617L0.860871 5.71051C0.573914 6.01182 0 6.60008 0 6.60008Z" fill="white" fill-opacity="0.7"/>
<path d="M4.1466 7.26007L1.50659 5.03615L1.54964 4.30441L2.25268 3.64441L3.02746 3.81659L5.17964 6.25572L5.07921 6.6718L4.70616 7.13093L4.1466 7.26007Z" fill="white" fill-opacity="0.7"/>
<path d="M1.76475 10.7178C1.97997 11.1339 3.88823 12.0521 3.88823 12.0521L4.36171 15.4526C4.50519 15.553 4.64867 15.6391 4.79215 15.7108C4.89258 15.7539 4.97867 15.7969 5.0791 15.8256C5.4665 15.9547 5.88259 16.0121 6.28433 15.9978L6.08345 13.4726L8.39346 14.9647L8.37911 13.7308L9.08216 15.2517C9.46955 15.0652 9.71346 14.9217 9.71346 14.9217L8.95302 10.7034L11.3348 6.21255L11.1339 5.2369L8.7665 2.62559L7.93433 2.49646L5.00736 4.36168L4.96432 4.96429L6.24128 6.28429L7.24563 5.82516L8.29302 3.14211C8.27868 3.28559 8.02042 5.25124 8.14955 5.42342C8.27868 5.60994 10.3448 5.68168 10.3448 5.68168C10.3448 5.68168 8.20694 6.2556 7.70476 6.54255C7.18824 6.82951 6.37041 10.8613 6.37041 10.8613C6.49954 11.0908 8.29302 10.9186 8.29302 10.9186C6.24128 11.9373 4.13215 11.8369 4.13215 11.8369L5.4665 10.9043C5.4665 10.9043 6.57128 7.08777 6.54259 6.92994C6.54259 6.90124 6.44215 6.97299 6.28433 7.11647C5.52389 7.80517 3.32867 10.0434 3.32867 10.0434L1.59258 8.90995C1.57823 8.9243 1.54954 10.2873 1.76475 10.7178Z" fill="white" fill-opacity="0.7"/>
<path d="M4.43345 4.21831L3.29997 3.24266L3.15649 2.61135L3.95997 1.77917L4.56259 1.79352L5.58128 2.98439L4.46215 3.71613L4.43345 4.21831Z" fill="white" fill-opacity="0.7"/>
<path d="M6.22706 2.49653L4.90706 1.06174L4.86401 0.616956L5.73923 0L6.58576 0.272613L7.66184 1.66436L6.22706 2.49653Z" fill="white" fill-opacity="0.7"/>
<path d="M7.66184 1.66443L7.90575 1.80791L7.63314 1.85095L6.22705 2.4966L7.66184 1.66443Z" fill="white" fill-opacity="0.7"/>
<path d="M1.59277 8.92434L2.69756 9.49826H3.57277L4.46234 8.35043L4.40495 8.04913L4.96452 8.00608L5.79669 7.05912L6.01191 6.72913L6.29887 7.15956L3.51538 10.933L1.98017 9.5413L1.59277 8.92434Z" fill="white" fill-opacity="0.7"/>
<path d="M6.16965 5.26559L4.96443 4.96429L4.92139 4.27559L6.184 3.37168L6.27008 3.24255L6.52834 3.18515L7.93443 2.49646L6.16965 5.26559Z" fill="white" fill-opacity="0.7"/>
</svg>
