<svg width="15" height="16" viewBox="0 0 15 16" fill="none" xmlns="http://www.w3.org/2000/svg">
<path d="M14.2736 6.87C14.2736 6.87 10.7838 10.4901 8.29662 8.14614C8.29662 8.14614 9.62485 7.1695 9.88529 7.42994C10.1327 7.67735 9.76809 8.32845 9.75507 8.35449C9.80716 8.30241 10.8489 7.4039 10.4843 6.89605C10.1978 6.49237 8.36173 6.80489 6.16105 8.21125L5.34067 7.53412L5.2365 8.86234C4.87189 9.1358 4.50727 9.4353 4.12964 9.77387L1.92896 2.01287C1.92896 2.01287 3.64783 0.762774 5.61413 0.241901L5.80946 0.450247V1.21854L6.26522 1.72638L5.97874 1.1404L6.3694 0.293984L6.33033 0.0726115C7.17675 -0.0576067 8.02317 -0.0315567 8.77843 0.307011L10.3541 6.16683L10.1978 1.12738C10.1978 1.12738 11.8125 0.984145 12.3334 0.241901L12.6199 4.10938C13.284 5.35947 14.2736 6.87 14.2736 6.87Z" fill="white" fill-opacity="0.7"/>
<path d="M1.00455 2.29932C1.00455 2.29932 -0.0502197 2.54673 0.00186755 2.74205L3.67402 15.9983C3.67402 15.9983 4.46835 16.0373 4.74181 15.7378L1.00455 2.29932Z" fill="white" fill-opacity="0.7"/>
</svg>
