<svg width="16" height="16" viewBox="0 0 16 16" fill="none" xmlns="http://www.w3.org/2000/svg">
<path d="M12.3633 3.60387C9.29247 0.23954 5.18301 -0.979738 3.17344 0.849196C2.83475 1.14273 2.58638 1.52659 2.40574 1.93302C1.52514 4.01033 2.49606 7.32949 4.97979 10.1068C5.00237 10.1519 5.04753 10.1745 5.09269 10.2197L5.11527 10.2422C5.11527 10.2422 5.11527 10.2422 5.13785 10.2648C7.57643 12.9292 10.6924 14.2388 12.86 13.7195C12.9278 13.6969 12.9729 13.6969 13.0407 13.6743C13.5148 13.5388 13.9438 13.313 14.3051 12.9743C16.2921 11.168 15.4341 6.96821 12.3633 3.60387ZM13.131 11.1454C11.7762 12.3647 8.88603 11.3938 6.67325 8.95522C4.46047 6.51664 3.73792 3.55873 5.07011 2.31686C6.4023 1.09757 9.31504 2.06847 11.5278 4.50705C13.7406 6.94563 14.4632 9.92612 13.131 11.1454Z" fill="white" fill-opacity="0.7"/>
<path d="M1.14141 5.18457L0.125339 6.47161C-0.0552966 5.45554 0.0124417 4.8233 0.0124417 4.8233L1.23173 2.90405C1.23173 2.90405 1.18657 3.03955 1.14141 3.28792C1.07367 3.67177 1.02852 4.34913 1.14141 5.18457Z" fill="white" fill-opacity="0.7"/>
<path d="M1.81872 7.39733L0.780066 8.61663C0.554272 8.07472 0.373639 7.55538 0.260742 7.10379L1.27682 5.88452C1.34455 6.11032 1.41229 6.3361 1.50261 6.58448C1.59293 6.85543 1.70582 7.12638 1.81872 7.39733Z" fill="white" fill-opacity="0.7"/>
<path d="M2.83492 9.38405L1.86401 10.5356C1.52531 10.0614 1.25436 9.58725 1.02856 9.11308L2.06722 7.93896C2.27043 8.43571 2.51881 8.88731 2.83492 9.38405Z" fill="white" fill-opacity="0.7"/>
<path d="M4.43811 11.3262L3.44462 12.3874C3.37688 12.3197 3.33172 12.2745 3.26398 12.2068C2.83497 11.7778 2.4737 11.3713 2.13501 10.9423L3.1285 9.83594C3.51235 10.3101 3.91879 10.8068 4.43811 11.3262Z" fill="white" fill-opacity="0.7"/>
<path d="M6.47004 13.0647L5.47655 14.0582C4.93464 13.697 4.37015 13.2454 3.80566 12.7486L4.82174 11.71C5.25075 12.1164 5.74749 12.5228 6.2894 12.9518C6.37972 12.997 6.42488 13.0196 6.47004 13.0647Z" fill="white" fill-opacity="0.7"/>
<path d="M8.68291 14.3517L7.712 15.3C7.17009 15.0742 6.58303 14.7581 5.92822 14.3517L6.92172 13.4033C7.55394 13.8098 8.141 14.1259 8.68291 14.3517Z" fill="white" fill-opacity="0.7"/>
<path d="M11.731 14.7807L10.173 16C10.173 16 9.40533 15.9549 8.2312 15.5033L9.24728 14.5549C10.5117 14.9614 11.3472 14.8485 11.6407 14.8033C11.6859 14.7807 11.731 14.7807 11.731 14.7807Z" fill="white" fill-opacity="0.7"/>
<path d="M12.1603 10.7165C12.1377 10.7165 12.1151 10.7391 12.0925 10.7391C10.67 10.6488 8.84109 9.67787 7.35085 8.02958C6.15414 6.71997 5.38644 5.22973 5.16064 3.96528C5.16064 3.8298 5.16065 3.69431 5.18323 3.55884C5.79287 3.58142 7.12506 3.73948 8.57014 4.77813C8.84109 4.98135 9.11205 5.20714 9.383 5.45552C9.40558 5.47809 9.42816 5.50066 9.47332 5.52324C9.58621 5.63613 9.72169 5.74905 9.83459 5.88453C9.85717 5.90711 9.85717 5.92968 9.87975 5.92968C10.6475 6.76512 12.0248 8.5263 12.1603 10.7165Z" fill="white" fill-opacity="0.7"/>
<path d="M9.51829 5.56835C9.47314 5.52319 9.42798 5.47803 9.42798 5.47803C9.45056 5.50061 9.47314 5.52319 9.51829 5.56835Z" fill="#606060"/>
</svg>
