<svg width="16" height="19" viewBox="0 0 16 19" fill="none" xmlns="http://www.w3.org/2000/svg">
<path d="M15.8475 11.1018C15.7288 9.22042 14.8983 7.49161 13.5085 6.23737C12.1187 4.98313 10.3221 4.35602 8.4746 4.47467C4.6441 4.71195 1.74578 8.08483 1.98307 11.9831C2.03392 12.6781 2.16952 13.3391 2.38986 13.9662C2.83053 15.1865 3.57629 16.2543 4.54239 17.0509C4.67798 17.1696 4.83054 17.2713 4.98308 17.3899C5.11868 17.4916 5.25425 17.5764 5.38985 17.6611C6.44069 18.3052 7.64409 18.6611 8.93222 18.6611C9.06782 18.6611 9.22036 18.6611 9.35595 18.6441C11.4746 18.5086 13.3051 17.4238 14.4746 15.8136C14.6271 15.6102 14.7627 15.4069 14.8814 15.1865C14.9492 15.0679 15.017 14.9492 15.0848 14.8136C15.2204 14.5425 15.339 14.2543 15.4576 13.9662C15.7288 13.2204 15.8644 12.4069 15.8644 11.5764C15.8475 11.4069 15.8475 11.2543 15.8475 11.1018ZM14.3899 13.9492C14.3051 14.1357 14.2204 14.3221 14.1356 14.4916C14.0678 14.6272 14 14.7458 13.9153 14.8645C13.8305 14.9831 13.7627 15.1018 13.678 15.2204C13.5085 15.4577 13.3221 15.6611 13.1187 15.8645C12.1356 16.8814 10.7966 17.5255 9.28815 17.6272C8.35595 17.678 7.45765 17.5255 6.64409 17.1696C6.4407 17.0848 6.25425 17.0001 6.06781 16.8984C5.91527 16.8136 5.76274 16.7119 5.61019 16.6103C5.5085 16.5425 5.4068 16.4577 5.3051 16.3899C4.49154 15.7628 3.84748 14.9153 3.42375 13.9492C3.15256 13.3221 2.98308 12.6272 2.94919 11.9153C2.7458 8.5594 5.2373 5.64416 8.52544 5.44077C8.64408 5.44077 8.77969 5.42381 8.89833 5.42381C10.356 5.42381 11.7458 5.96619 12.8475 6.94924C13.4407 7.49161 13.9322 8.13568 14.2712 8.84754C14.6102 9.55941 14.8136 10.3391 14.8644 11.1526C14.9322 12.1526 14.7458 13.1018 14.3899 13.9492Z" fill="white" fill-opacity="0.7"/>
<path d="M4.05085 5.32199C3.81356 5.45758 3.57627 5.61012 3.37288 5.77962C2.98305 6.10165 2.66101 6.47453 2.38983 6.84741C2.38983 6.84741 2.38983 6.86435 2.37288 6.86435C1.79661 7.64402 1.37287 8.55927 1.15253 9.54232L0.796602 9.15249L0 8.27113C0 8.25418 0 8.23724 0 8.22029C0.355932 6.9152 1.08474 5.74572 2.06779 4.84741L3.27117 5.13554L3.9661 5.30503L4.05085 5.32199Z" fill="white" fill-opacity="0.7"/>
<path d="M15.1355 6.13571C15.1525 6.13571 15.1525 6.13571 15.1355 6.13571C15.1525 6.13571 15.1525 6.13571 15.1355 6.13571ZM15.1355 6.10181C15.1355 6.11876 15.1355 6.11876 15.1355 6.10181C15.1355 6.11876 15.1355 6.11876 15.1355 6.10181C15.1355 6.11876 15.1355 6.11876 15.1355 6.10181ZM14.8474 5.71199C14.8474 5.72893 14.8643 5.72893 14.8474 5.71199C14.9999 5.89843 15.0847 6.05097 15.1186 6.10181C15.0677 6.03402 14.9152 5.76284 14.6779 5.49165C14.7457 5.57639 14.7965 5.66114 14.8474 5.71199ZM13.7288 4.18656L13.4576 4.35605C13.4915 4.373 13.5254 4.38996 13.5593 4.42385L13.8135 4.10182C13.8135 4.10182 13.8135 4.10182 13.7966 4.08487L13.7288 4.18656ZM15.9321 5.25436C15.1525 4.13571 14.0677 3.28826 12.8474 2.77979L11.8135 3.45775L11.2203 3.84758L11.1694 3.88148C11.4406 3.93233 11.7118 4.00013 11.966 4.08487C12.4406 4.25436 12.8813 4.49165 13.2542 4.76284C13.2542 4.76284 13.2711 4.76283 13.2711 4.77978C14.0847 5.32216 14.7965 6.03402 15.3389 6.88148L15.5423 6.38995L15.9999 5.28826C15.9491 5.28826 15.9321 5.27131 15.9321 5.25436ZM15.1525 6.13571C15.1355 6.13571 15.1355 6.13571 15.1525 6.13571C15.1355 6.11877 15.1355 6.11877 15.1525 6.13571C15.1355 6.11877 15.1355 6.11877 15.1525 6.13571C15.1355 6.11877 15.1355 6.11877 15.1355 6.11877C15.0847 6.05097 14.9321 5.77978 14.6948 5.50859C14.5762 5.373 14.4406 5.23741 14.305 5.13571C14.2881 5.11876 14.2711 5.11877 14.2711 5.10182L14.3898 5.15267C14.1355 4.88148 13.8474 4.59335 13.5593 4.42385L13.8135 4.10182C13.8135 4.10182 13.8135 4.10182 13.7966 4.08487L13.8982 3.93233C13.5593 3.67809 13.2542 3.49165 13.0847 3.38995C13.0338 3.35605 12.9999 3.33911 12.983 3.32216C12.983 3.32216 12.966 3.32215 12.966 3.3052C12.966 3.3052 12.9491 3.30521 12.9491 3.28826C12.9491 3.28826 12.983 3.28826 12.9999 3.3052C13.0169 3.3052 13.0169 3.30521 13.0338 3.32216C13.0508 3.32216 13.0508 3.32216 13.0677 3.3391C13.0847 3.3391 13.0847 3.3391 13.1016 3.35605C13.3559 3.4408 13.627 3.5764 13.8643 3.74589C13.8813 3.74589 13.8813 3.76283 13.8982 3.76283C13.9321 3.77978 13.983 3.81368 14.0169 3.84758C14.4406 4.13571 14.966 4.57639 15.4406 5.23741C15.4576 5.25436 15.4576 5.25436 15.4745 5.27131L15.4915 5.28826L15.1525 6.13571ZM14.8474 5.71199C14.8474 5.72893 14.8643 5.72893 14.8474 5.71199C14.9999 5.89843 15.0847 6.05097 15.1186 6.10181C15.0677 6.03402 14.9152 5.76284 14.6779 5.49165C14.7457 5.57639 14.7965 5.66114 14.8474 5.71199Z" fill="white" fill-opacity="0.7"/>
<path d="M9.50843 0L3.40674 1.23729L3.89827 3.66102L5.84742 3.27118L7.42368 2.94916L7.30504 2.67796L7.0508 2.11864L7.06775 2.1356L6.83046 0.898303L6.89826 0.881358L8.88132 0.474574L9.20334 2.0678L7.42368 2.37288L7.47453 2.66102L7.52539 2.9322L8.03386 2.83051L9.98302 2.44068L9.50843 0Z" fill="white" fill-opacity="0.7"/>
<path d="M8.23731 3.77977C8.22036 3.77977 8.22037 3.77977 8.20342 3.77977C7.44071 3.83061 6.71188 4.00011 6.05087 4.2713L5.84749 3.25435L5.79663 2.98316L7.30511 2.67807L7.42374 2.94926L7.62715 3.37299L7.52546 2.91536L7.4746 2.64418L7.98308 2.54248L8.03393 2.81367L8.23731 3.77977Z" fill="white" fill-opacity="0.7"/>
<path d="M8.44068 4.83057L6.55933 5.20345C7.1017 5.00006 7.67797 4.86446 8.27119 4.83057C8.32203 4.84752 8.38983 4.84752 8.44068 4.83057Z" fill="white" fill-opacity="0.7"/>
<path d="M13.2034 11.271C13.1356 10.1185 12.6271 9.0507 11.7627 8.27104C10.8983 7.49138 9.81355 7.11851 8.66101 7.18631C8.42372 7.20325 8.1695 7.23715 7.94916 7.288L9.08474 11.627L7.16948 13.949L6.32202 14.966C6.86439 15.3897 7.50848 15.6948 8.20339 15.8304C8.44068 15.8812 8.67796 15.8982 8.93219 15.8982C9.01694 15.8982 9.10168 15.8982 9.20338 15.8982C9.44066 15.8812 9.661 15.8473 9.88134 15.7965H9.89831C10.3898 15.6778 10.8475 15.4744 11.2542 15.2032C11.7458 14.8812 12.1525 14.4575 12.4746 13.966C12.9322 13.271 13.1864 12.4405 13.1864 11.5592C13.2203 11.4575 13.2203 11.3558 13.2034 11.271Z" fill="white" fill-opacity="0.7"/>
</svg>
