<svg width="16" height="17" viewBox="0 0 16 17" fill="none" xmlns="http://www.w3.org/2000/svg">
<path d="M4.70605 4.91131C4.70605 4.91131 5.57954 7.05045 6.13215 8.36958L9.41216 7.62088L8.30694 3.84174C7.18389 3.69913 4.70605 4.91131 4.70605 4.91131Z" fill="white" fill-opacity="0.7"/>
<path d="M9.448 7.69208L10.8919 13.1825L12.7815 8.60121C12.9597 8.19121 13.0311 7.2999 12.9241 6.87207L9.448 7.69208Z" fill="white" fill-opacity="0.7"/>
<path d="M15.7939 6.31957L15.5087 4.67957C15.17 2.71869 14.7779 0.650867 14.7779 0.650867C14.7779 0.650867 12.6566 -0.400878 8.34263 0.169559L7.45132 0.294344C5.40132 0.650867 2.92349 1.34608 0 2.62956C0 2.62956 0.92695 5.16088 1.99652 7.60306L2.37087 8.45871C3.08392 10.0096 3.83262 11.4179 4.3674 11.8813C5.50828 12.8796 9.4122 15.3574 11.1057 16.4092C11.1235 16.427 11.1592 16.4448 11.177 16.4448C11.7118 16.6944 12.1752 16.5874 12.1752 16.5874L12.3357 16.4092C12.3357 16.4092 16.2218 9.27871 15.99 7.65653C15.9544 7.31784 15.8831 6.85436 15.7939 6.31957ZM11.6226 15.2505C11.6226 15.2505 6.3461 11.7031 5.34784 10.8296C4.34958 9.9561 2.62043 3.52087 2.62043 3.52087C9.34089 0.561732 13.3161 2.00565 13.3161 2.00565C13.3161 2.00565 14.457 6.48001 14.6174 7.58523C14.76 8.69045 11.6226 15.2505 11.6226 15.2505Z" fill="white" fill-opacity="0.7"/>
</svg>
