<svg width="235" height="22" viewBox="0 0 235 22" fill="none" xmlns="http://www.w3.org/2000/svg">
<path d="M9.97359 21.3913C10.2479 21.406 10.5271 21.4133 10.8114 21.4133C12.9856 21.4133 14.8706 20.9831 16.4663 20.1227C18.082 19.2427 19.3187 17.9911 20.1765 16.368C21.0342 14.7449 21.463 12.848 21.463 10.6773C21.463 8.50667 21.0342 6.61956 20.1765 5.016C19.3187 3.41244 18.082 2.18044 16.4663 1.32C14.8706 0.44 12.9856 0 10.8114 0C8.63715 0 6.74219 0.44 5.12648 1.32C3.53073 2.18044 2.29402 3.41244 1.41635 5.016C0.538686 6.61956 0.0998535 8.50667 0.0998535 10.6773C0.0998535 10.9945 0.109204 11.3056 0.127281 11.6111H5.75544C5.73487 11.3117 5.72489 11 5.72489 10.6773C5.72489 8.54578 6.1737 6.93244 7.07131 5.83733C7.96892 4.74222 9.21561 4.19467 10.8114 4.19467C12.4071 4.19467 13.6538 4.752 14.5514 5.86667C15.469 6.96178 15.9278 8.56533 15.9278 10.6773C15.9278 12.8089 15.469 14.432 14.5514 15.5467C13.6538 16.6613 12.4071 17.2187 10.8114 17.2187C10.5311 17.2194 10.2512 17.201 9.97359 17.1637V21.3913ZM45.0509 21.1493V0.264H39.755V12.056L30.0907 0.264H25.9916V21.1493H31.2277V9.29867L40.892 21.1493H45.0509ZM65.3457 0.264H50.1461V21.1493H65.3457V16.9253H55.6216V12.6427H64.7174V8.41867H55.6216V4.488H65.3457V0.264ZM100.059 0.264H97.037L91.2325 16.9547L85.4279 0.293333L83.154 0.264L77.2596 16.8667L71.5448 0.264H68.4032L75.8833 21.1493H78.4565L84.2311 5.016L89.9758 21.1493H92.549L100.059 0.264Z" fill="white"/>
<path fill-rule="evenodd" clip-rule="evenodd" d="M115.461 15.9868L117.735 21.1495H120.877L111.362 0.26416H108.759L99.2742 21.1495H102.416L104.69 15.9868H115.461ZM114.414 13.5815H105.737L110.075 3.63749L114.414 13.5815Z" fill="white"/>
<path d="M129.528 12.7602L138.025 0.26416H134.495L128.002 10.1202L121.479 0.26416H117.949L126.416 12.7015V21.1495H129.528V12.7602Z" fill="white"/>
<path fill-rule="evenodd" clip-rule="evenodd" d="M155.435 12.2322C154.756 11.3522 153.809 10.7557 152.592 10.4428C153.669 10.0517 154.497 9.45527 155.076 8.65349C155.674 7.85171 155.973 6.88371 155.973 5.74949C155.973 3.96994 155.385 2.61083 154.208 1.67216C153.051 0.733494 151.395 0.26416 149.241 0.26416H141.372V21.1495H149.57C151.784 21.1495 153.48 20.6704 154.657 19.7122C155.854 18.7539 156.452 17.3459 156.452 15.4882C156.452 14.1779 156.113 13.0926 155.435 12.2322ZM149.092 9.94416H142.629V1.40816H149.092C152.782 1.40816 154.627 2.7966 154.627 5.57349C154.627 7.00105 154.158 8.08638 153.221 8.82949C152.283 9.5726 150.907 9.94416 149.092 9.94416ZM153.729 18.9495C152.832 19.6535 151.435 20.0055 149.54 20.0055H142.629V11.1468H149.54C153.25 11.1468 155.106 12.6428 155.106 15.6348C155.106 17.121 154.647 18.2259 153.729 18.9495Z" fill="white"/>
<path d="M162.722 0.26416V21.1495H174.042V20.0348H163.948V0.26416H162.722Z" fill="white"/>
<path fill-rule="evenodd" clip-rule="evenodd" d="M179.818 20.0933C181.234 20.9537 182.89 21.384 184.785 21.384C186.7 21.384 188.355 20.9537 189.752 20.0933C191.168 19.2329 192.245 18.0009 192.983 16.3973C193.741 14.7742 194.12 12.8675 194.12 10.6773C194.12 8.48707 193.741 6.59996 192.983 5.01596C192.245 3.41241 191.168 2.18041 189.752 1.31996C188.355 0.459519 186.7 0.0292969 184.785 0.0292969C182.87 0.0292969 181.214 0.459519 179.818 1.31996C178.422 2.18041 177.345 3.41241 176.587 5.01596C175.849 6.61952 175.479 8.51641 175.479 10.7066C175.479 12.8969 175.849 14.7937 176.587 16.3973C177.345 18.0009 178.422 19.2329 179.818 20.0933ZM190.649 17.688C189.253 19.3502 187.298 20.1813 184.785 20.1813C182.271 20.1813 180.317 19.3502 178.92 17.688C177.524 16.0062 176.826 13.6693 176.826 10.6773C176.826 7.6853 177.514 5.36796 178.89 3.7253C180.287 2.06307 182.251 1.23196 184.785 1.23196C187.318 1.23196 189.273 2.0533 190.649 3.69596C192.045 5.33863 192.744 7.66574 192.744 10.6773C192.744 13.6889 192.045 16.0257 190.649 17.688Z" fill="white"/>
<path d="M202.611 20.1226C204.027 20.9635 205.713 21.384 207.668 21.384C210.66 21.384 213.073 20.4453 214.908 18.568L214.28 17.5413C213.223 18.48 212.176 19.1546 211.138 19.5653C210.121 19.976 208.954 20.1813 207.638 20.1813C205.045 20.1813 203.04 19.3502 201.624 17.688C200.207 16.0257 199.499 13.6889 199.499 10.6773C199.499 7.6853 200.207 5.36796 201.624 3.7253C203.06 2.06307 205.065 1.23196 207.638 1.23196C208.954 1.23196 210.121 1.4373 211.138 1.84796C212.176 2.25863 213.223 2.9333 214.28 3.87196L214.908 2.8453C213.073 0.967964 210.66 0.0292969 207.668 0.0292969C205.713 0.0292969 204.027 0.459519 202.611 1.31996C201.195 2.16085 200.098 3.38307 199.32 4.98663C198.562 6.57063 198.183 8.46752 198.183 10.6773C198.183 12.8871 198.562 14.8035 199.32 16.4266C200.098 18.0302 201.195 19.2622 202.611 20.1226ZM232.669 21.1493H234.524L222.017 10.5306L233.836 0.263964H232.04L220.73 10.032V0.263964H219.504V21.1493H220.73V11.0586L232.669 21.1493Z" fill="white"/>
<path d="M0 15.2827H6.23342V21.3938H0V15.2827Z" fill="#2670FF"/>
</svg>
