<svg width="20" height="16" viewBox="0 0 20 16" fill="none" xmlns="http://www.w3.org/2000/svg">
<g clip-path="url(#clip0_107_35)">
<path d="M17.9591 0H19.8598V10.2573H17.9591V0ZM16.7955 0.863047C16.1702 1.53173 15.4312 2.08412 14.6128 2.4945C13.5447 3.02669 12.368 3.30443 11.1746 3.30596H3.14188V7.1949C3.14226 7.61128 3.25858 8.01933 3.47781 8.37332C3.69704 8.72731 4.01052 9.01325 4.38311 9.19911V16.0003L7.69295 14.3448V8.27051H5.38115C5.09594 8.2701 4.82253 8.15659 4.62089 7.95488C4.41925 7.75317 4.30585 7.47973 4.30554 7.19452V6.9517H11.175C11.5328 6.95204 11.8902 6.97744 12.2444 7.02772V7.19452C12.2441 7.47979 12.1306 7.7533 11.9289 7.95502C11.7272 8.15674 11.4537 8.2702 11.1684 8.27051H8.85661V14.3448L12.1668 15.9999V9.19834C12.5258 9.01918 12.8301 8.74699 13.048 8.41015C13.2659 8.07332 13.3895 7.68419 13.4057 7.28334C14.7026 7.67427 15.8725 8.40243 16.7959 9.39344L16.7955 0.863047ZM0 2.68495H1.97822V7.57232H0V2.68495Z" fill="#6DD0E7"/>
</g>
<defs>
<clipPath id="clip0_107_35">
<rect width="19.8598" height="16" fill="white"/>
</clipPath>
</defs>
</svg>
