<svg width="16" height="16" viewBox="0 0 16 16" fill="none" xmlns="http://www.w3.org/2000/svg">
<path d="M4.94384 6.46964C4.42427 6.46964 4.00305 6.77376 4.00305 7.15189V8.86112C4.00305 9.03411 4.0936 9.19304 4.24129 9.31388L7.08585 6.46932L4.94384 6.46964ZM11.0557 9.54369C11.5753 9.54369 11.9965 9.23613 11.9965 8.86112V7.15158C11.9965 6.97048 11.8997 6.80593 11.7414 6.68415L8.88251 9.54338L11.0557 9.54369ZM4.94384 6.46964C4.42427 6.46964 4.00305 6.77376 4.00305 7.15189V8.86112C4.00305 9.03411 4.0936 9.19304 4.24129 9.31388L7.08585 6.46932L4.94384 6.46964ZM11.7414 6.68415L8.88251 9.54338L11.0557 9.54369C11.5753 9.54369 11.9965 9.23613 11.9965 8.86112V7.15158C11.9965 6.97048 11.8997 6.80593 11.7414 6.68415ZM15.8072 0.174145C15.7488 0.117655 15.68 0.0732083 15.6045 0.0433419C15.529 0.0134756 15.4483 -0.00122495 15.3671 7.98339e-05C15.2859 0.00138462 15.2058 0.0186692 15.1313 0.0509464C15.0568 0.0832236 14.9894 0.129861 14.9329 0.188196L8.65113 6.46964L5.57677 9.54369L4.34746 10.7733L0.181166 14.9393C0.065021 15.0556 -0.000146147 15.2134 2.46114e-07 15.3778C0.00014664 15.5422 0.0655946 15.6998 0.181946 15.8159C0.298298 15.9321 0.456023 15.9972 0.620423 15.9971C0.784822 15.9969 0.942431 15.9315 1.05858 15.8151L1.53943 15.3343L2.79778 14.0759L6.09978 10.7733L7.32909 9.54369L10.4028 6.46932L11.6325 5.23908L14.068 2.80263L15.809 1.06155L15.8215 1.04906C15.9355 0.931076 15.9981 0.772671 15.9954 0.608629C15.9927 0.444587 15.925 0.28832 15.8072 0.174145ZM15.9933 8.00651C15.9933 12.421 12.4143 16 7.99979 16C6.46727 16.0024 4.96666 15.5622 3.67831 14.7323L7.63634 10.773H11.9965C12.3226 10.773 12.6353 10.6435 12.8659 10.413C13.0965 10.1824 13.2261 9.86975 13.2262 9.54369V6.46964C13.2265 6.30123 13.192 6.13457 13.125 5.98006C13.058 5.82555 12.9599 5.68651 12.8368 5.57162L14.7249 3.68347C15.5555 4.97215 15.9958 6.47336 15.9933 8.00651ZM12.31 1.27387L8.34451 5.23939H4.00305C3.67677 5.23939 3.36385 5.369 3.13313 5.59972C2.90242 5.83044 2.7728 6.14336 2.7728 6.46964V9.54369C2.77268 9.70963 2.80624 9.87387 2.87145 10.0265C2.93666 10.179 3.03217 10.3168 3.15218 10.4314L1.26684 12.3167C0.284692 10.7817 -0.143534 8.95712 0.0531135 7.14538C0.249761 5.33364 1.05948 3.64346 2.34811 2.35486C3.63675 1.06626 5.32696 0.256594 7.1387 0.0599977C8.95044 -0.136599 10.775 0.291679 12.31 1.27387Z" fill="#6DD0E7"/>
</svg>
