<svg width="17" height="16" viewBox="0 0 17 16" fill="none" xmlns="http://www.w3.org/2000/svg">
<g clip-path="url(#clip0_107_37)">
<path d="M16.4151 2.03714C16.2555 2.19636 16.0542 2.30727 15.8344 2.35709C15.6145 2.40691 15.3851 2.39361 15.1725 2.31872L14.5779 3.67295L14.1169 4.00201L15.0163 4.90144L14.3196 5.5982L13.3618 4.64081L12.4732 5.52944C12.7522 5.68726 12.9179 5.80186 12.9405 5.81758L13.15 5.96492V6.22096C13.15 7.84695 12.9175 9.37864 12.4575 10.7731C12.4302 10.8556 12.4021 10.9377 12.373 11.0194L15.7416 14.3394L15.6171 15.455L14.5023 15.5787L11.615 12.7324C11.4064 13.119 11.1751 13.4929 10.9225 13.8522C10.0974 15.0244 9.2684 15.7107 8.87451 16.0001V12.4279C8.92493 12.3569 8.97503 12.2845 9.02349 12.2118C9.85842 10.948 10.3797 9.451 10.5722 7.76084L10.6154 7.37775L10.2536 7.24351C9.8095 7.07492 9.34631 6.96165 8.87451 6.90626V4.40245C9.51229 4.45103 10.1419 4.57591 10.75 4.7744L12.1229 3.40184L11.1655 2.44413L11.8622 1.74671L12.7617 2.64713L13.0907 2.18546L14.4446 1.59151C14.3734 1.39018 14.3574 1.17341 14.3985 0.963811C14.4395 0.754212 14.5359 0.559449 14.6778 0.39982C14.8197 0.24019 15.0018 0.121538 15.2052 0.0562264C15.4085 -0.0090847 15.6257 -0.0186635 15.834 0.0284881C16.0423 0.0756398 16.2341 0.177796 16.3895 0.324311C16.5449 0.470826 16.6582 0.656336 16.7175 0.86151C16.7768 1.06668 16.78 1.28401 16.7267 1.49084C16.6735 1.69767 16.5658 1.88644 16.4147 2.03747L16.4151 2.03714ZM7.88897 12.4283C7.83854 12.3562 7.78878 12.2842 7.74032 12.2115C6.90473 10.9477 6.38348 9.44969 6.19161 7.75854L6.14806 7.37546L6.50953 7.24122C6.95391 7.07269 7.41748 6.95996 7.88962 6.90561V4.40278C7.25826 4.4508 6.63484 4.57368 6.03248 4.76884L4.64355 3.39955L5.59897 2.44413L4.90156 1.74737L4.0018 2.6468L3.67274 2.18579L2.31917 1.59119C2.40891 1.3363 2.40937 1.05849 2.32048 0.803312C2.23159 0.548133 2.05862 0.330735 1.82995 0.186774C1.60127 0.0428135 1.33046 -0.0191641 1.06193 0.0110063C0.793398 0.0411766 0.543093 0.161704 0.352062 0.352821C0.161032 0.543938 0.0406174 0.794298 0.0105679 1.06284C-0.0194816 1.33138 0.0426176 1.60217 0.186681 1.83078C0.330744 2.05939 0.548219 2.23227 0.803438 2.32104C1.05866 2.40982 1.33647 2.40923 1.59131 2.31938L2.18591 3.67295L2.6466 4.00234L1.74716 4.90177L2.44458 5.59853L3.40392 4.63852L4.30172 5.52322C4.01588 5.68431 3.8466 5.80153 3.82368 5.8179L3.61348 5.96524V6.22096C3.61348 7.84695 3.8466 9.37864 4.3063 10.7731C4.34297 10.8845 4.38161 10.9945 4.4209 11.1038L1.10443 14.4213L1.22787 15.5365L2.34275 15.6609L5.19133 12.8117C5.38877 13.1702 5.60574 13.5175 5.84126 13.8522C6.66637 15.0244 7.4954 15.711 7.88929 16.0001L7.88897 12.4283ZM8.38207 11.3818C8.96488 10.4113 9.35386 9.29154 9.54114 8.04406C9.16534 7.9291 8.77503 7.86846 8.38207 7.86398C7.98921 7.86802 7.59893 7.92799 7.22299 8.04209C7.40962 9.29056 7.7986 10.411 8.38207 11.3818Z" fill="#6DD0E7"/>
</g>
<defs>
<clipPath id="clip0_107_37">
<rect width="16.764" height="16" fill="white"/>
</clipPath>
</defs>
</svg>
