<svg width="189" height="192" viewBox="0 0 189 192" fill="none" xmlns="http://www.w3.org/2000/svg">
<circle cx="95" cy="96" r="74" fill="url(#paint0_linear_1417_2004)" stroke="white" stroke-width="2"/>
<path d="M83.6917 105.981L82.1525 122.707C82.1525 122.707 81.5368 127.838 86.6674 122.707C91.7981 117.577 96.7235 113.575 96.7235 113.575L83.6917 105.981Z" fill="white"/>
<path d="M72.9176 100.953L55.9865 95.412C55.9865 95.412 53.9342 94.5911 54.6525 92.744C54.7551 92.3336 55.063 92.0257 55.8839 91.5127C59.6805 88.9473 125.25 65.3463 125.25 65.3463C125.25 65.3463 127.097 64.7306 128.226 65.1411C128.739 65.3463 129.047 65.5515 129.355 66.3725C129.458 66.6803 129.56 67.296 129.458 67.9116C129.458 68.3221 129.355 68.7326 129.355 69.3482C128.944 75.8129 117.041 123.938 117.041 123.938C117.041 123.938 116.323 126.709 113.758 126.812C112.834 126.812 111.705 126.606 110.371 125.478C105.343 121.168 88.0018 109.47 84.1025 106.905C83.8973 106.802 83.7946 106.597 83.7946 106.392C83.692 106.084 83.9999 105.776 83.9999 105.776C83.9999 105.776 114.271 78.8913 115.092 76.0181C115.194 75.8129 114.886 75.7102 114.579 75.8129C112.526 76.5312 77.7405 98.593 73.8412 100.953C73.6359 101.056 72.9176 100.953 72.9176 100.953Z" fill="white"/>
<circle cx="144" cy="145" r="16.7" fill="white" stroke="white" stroke-width="1.4"/>
<mask id="mask0_1417_2004" style="mask-type:alpha" maskUnits="userSpaceOnUse" x="128" y="129" width="32" height="32">
<circle cx="144" cy="145" r="16" fill="#C4C4C4"/>
</mask>
<g mask="url(#mask0_1417_2004)">
<path d="M176 150.328H128V161H176V150.328Z" fill="#D52B1E"/>
<path d="M176 139.672H128V150.344H176V139.672Z" fill="#0039A6"/>
<path d="M176 129H128V139.672H176V129Z" fill="white"/>
</g>
<path d="M96 0.421894C96 0.421894 174.089 3.63127 184.251 78L189 62.9492C189 62.9492 167.02 -5.99684 96 0.421894Z" fill="#00C4F5" fill-opacity="0.1"/>
<path d="M102 191.534C102 191.534 16.0477 187.996 4.86293 106L0 122.716C0.121573 122.716 23.8284 198.611 102 191.534Z" fill="#00C4F5" fill-opacity="0.1"/>
<defs>
<linearGradient id="paint0_linear_1417_2004" x1="56" y1="30" x2="143" y2="158" gradientUnits="userSpaceOnUse">
<stop stop-color="#7DD2FF"/>
<stop offset="1" stop-color="#21B2F7"/>
</linearGradient>
</defs>
</svg>
