<svg width="189" height="192" viewBox="0 0 189 192" fill="none" xmlns="http://www.w3.org/2000/svg">
<circle cx="97" cy="96" r="74" fill="url(#paint0_linear_214_601)" stroke="white" stroke-width="2"/>
<path d="M85.6917 105.981L84.1525 122.707C84.1525 122.707 83.5368 127.838 88.6674 122.707C93.7981 117.577 98.7235 113.575 98.7235 113.575L85.6917 105.981Z" fill="white"/>
<path d="M74.9176 100.953L57.9865 95.412C57.9865 95.412 55.9342 94.5911 56.6525 92.744C56.7551 92.3336 57.063 92.0257 57.8839 91.5127C61.6805 88.9473 127.25 65.3463 127.25 65.3463C127.25 65.3463 129.097 64.7306 130.226 65.1411C130.739 65.3463 131.047 65.5515 131.355 66.3725C131.458 66.6803 131.56 67.296 131.458 67.9116C131.458 68.3221 131.355 68.7326 131.355 69.3482C130.944 75.8129 119.041 123.938 119.041 123.938C119.041 123.938 118.323 126.709 115.758 126.812C114.834 126.812 113.705 126.606 112.371 125.478C107.343 121.168 90.0018 109.47 86.1025 106.905C85.8973 106.802 85.7946 106.597 85.7946 106.392C85.692 106.084 85.9999 105.776 85.9999 105.776C85.9999 105.776 116.271 78.8913 117.092 76.0181C117.194 75.8129 116.886 75.7102 116.579 75.8129C114.526 76.5312 79.7405 98.593 75.8412 100.953C75.6359 101.056 74.9176 100.953 74.9176 100.953Z" fill="white"/>
<circle cx="149" cy="151" r="16.7" fill="white" stroke="white" stroke-width="1.4"/>
<mask id="mask0_214_601" style="mask-type:alpha" maskUnits="userSpaceOnUse" x="133" y="135" width="32" height="32">
<circle cx="149" cy="151" r="16" fill="#C4C4C4"/>
</mask>
<g mask="url(#mask0_214_601)">
<path d="M187.4 135H126.6V137.464H187.4V135Z" fill="#B01820"/>
<path d="M187.4 164.536H126.6V167H187.4V164.536Z" fill="#B01820"/>
<path d="M187.4 159.608H126.6V162.072H187.4V159.608Z" fill="#B01820"/>
<path d="M187.4 154.696H126.6V157.16H187.4V154.696Z" fill="#B01820"/>
<path d="M187.4 149.768H126.6V152.232H187.4V149.768Z" fill="#B01820"/>
<path d="M187.4 144.84H126.6V147.304H187.4V144.84Z" fill="#B01820"/>
<path d="M187.4 139.928H126.6V142.392H187.4V139.928Z" fill="#B01820"/>
<path d="M187.4 162.072H126.6V164.536H187.4V162.072Z" fill="white"/>
<path d="M187.4 157.16H126.6V159.624H187.4V157.16Z" fill="white"/>
<path d="M187.4 152.232H126.6V154.696H187.4V152.232Z" fill="white"/>
<path d="M187.4 147.304H126.6V149.768H187.4V147.304Z" fill="white"/>
<path d="M187.4 142.392H126.6V144.856H187.4V142.392Z" fill="white"/>
<path d="M187.4 137.464H126.6V139.928H187.4V137.464Z" fill="white"/>
<path d="M150.92 135H126.6V152.232H150.92V135Z" fill="#002A70"/>
<path d="M132.68 135.736L132.456 136.424H131.736L132.328 136.84L132.104 137.528L132.68 137.096L133.256 137.528L133.032 136.84L133.624 136.424H132.904L132.68 135.736Z" fill="white"/>
<path d="M136.728 135.736L136.52 136.424H135.8L136.376 136.84L136.152 137.528L136.728 137.096L137.32 137.528L137.096 136.84L137.672 136.424H136.952L136.728 135.736Z" fill="white"/>
<path d="M140.792 135.736L140.568 136.424H139.848L140.424 136.84L140.2 137.528L140.792 137.096L141.368 137.528L141.144 136.84L141.72 136.424H141L140.792 135.736Z" fill="white"/>
<path d="M144.84 135.736L144.616 136.424H143.896L144.488 136.84L144.264 137.528L144.84 137.096L145.416 137.528L145.192 136.84L145.784 136.424H145.064L144.84 135.736Z" fill="white"/>
<path d="M148.312 137.528L148.888 137.096L149.48 137.528L149.256 136.84L149.832 136.424H149.112L148.888 135.736L148.68 136.424H147.96L148.536 136.84L148.312 137.528Z" fill="white"/>
<path d="M132.68 139.176L132.456 139.864H131.736L132.328 140.28L132.104 140.968L132.68 140.552L133.256 140.968L133.032 140.28L133.624 139.864H132.904L132.68 139.176Z" fill="white"/>
<path d="M136.728 139.176L136.52 139.864H135.8L136.376 140.28L136.152 140.968L136.728 140.552L137.32 140.968L137.096 140.28L137.672 139.864H136.952L136.728 139.176Z" fill="white"/>
<path d="M140.792 139.176L140.568 139.864H139.848L140.424 140.28L140.2 140.968L140.792 140.552L141.368 140.968L141.144 140.28L141.72 139.864H141L140.792 139.176Z" fill="white"/>
<path d="M144.84 139.176L144.616 139.864H143.896L144.488 140.28L144.264 140.968L144.84 140.552L145.416 140.968L145.192 140.28L145.784 139.864H145.064L144.84 139.176Z" fill="white"/>
<path d="M148.888 139.176L148.68 139.864H147.96L148.536 140.28L148.312 140.968L148.888 140.552L149.48 140.968L149.256 140.28L149.832 139.864H149.112L148.888 139.176Z" fill="white"/>
<path d="M132.68 142.632L132.456 143.304H131.736L132.328 143.736L132.104 144.408L132.68 143.992L133.256 144.408L133.032 143.736L133.624 143.304H132.904L132.68 142.632Z" fill="white"/>
<path d="M136.728 142.632L136.52 143.304H135.8L136.376 143.736L136.152 144.408L136.728 143.992L137.32 144.408L137.096 143.736L137.672 143.304H136.952L136.728 142.632Z" fill="white"/>
<path d="M140.792 142.632L140.568 143.304H139.848L140.424 143.736L140.2 144.408L140.792 143.992L141.368 144.408L141.144 143.736L141.72 143.304H141L140.792 142.632Z" fill="white"/>
<path d="M144.84 142.632L144.616 143.304H143.896L144.488 143.736L144.264 144.408L144.84 143.992L145.416 144.408L145.192 143.736L145.784 143.304H145.064L144.84 142.632Z" fill="white"/>
<path d="M148.888 142.632L148.68 143.304H147.96L148.536 143.736L148.312 144.408L148.888 143.992L149.48 144.408L149.256 143.736L149.832 143.304H149.112L148.888 142.632Z" fill="white"/>
<path d="M132.68 146.072L132.456 146.76H131.736L132.328 147.176L132.104 147.864L132.68 147.432L133.256 147.864L133.032 147.176L133.624 146.76H132.904L132.68 146.072Z" fill="white"/>
<path d="M136.728 146.072L136.52 146.76H135.8L136.376 147.176L136.152 147.864L136.728 147.432L137.32 147.864L137.096 147.176L137.672 146.76H136.952L136.728 146.072Z" fill="white"/>
<path d="M140.792 146.072L140.568 146.76H139.848L140.424 147.176L140.2 147.864L140.792 147.432L141.368 147.864L141.144 147.176L141.72 146.76H141L140.792 146.072Z" fill="white"/>
<path d="M144.84 146.072L144.616 146.76H143.896L144.488 147.176L144.264 147.864L144.84 147.432L145.416 147.864L145.192 147.176L145.784 146.76H145.064L144.84 146.072Z" fill="white"/>
<path d="M148.888 146.072L148.68 146.76H147.96L148.536 147.176L148.312 147.864L148.888 147.432L149.48 147.864L149.256 147.176L149.832 146.76H149.112L148.888 146.072Z" fill="white"/>
<path d="M132.904 150.2L132.68 149.528L132.456 150.2H131.736L132.328 150.632L132.104 151.304L132.68 150.888L133.256 151.304L133.032 150.632L133.624 150.2H132.904Z" fill="white"/>
<path d="M136.952 150.2L136.728 149.528L136.52 150.2H135.8L136.376 150.632L136.152 151.304L136.728 150.888L137.32 151.304L137.096 150.632L137.672 150.2H136.952Z" fill="white"/>
<path d="M141 150.2L140.792 149.528L140.568 150.2H139.848L140.424 150.632L140.2 151.304L140.792 150.888L141.368 151.304L141.144 150.632L141.72 150.2H141Z" fill="white"/>
<path d="M145.064 150.2L144.84 149.528L144.616 150.2H143.896L144.488 150.632L144.264 151.304L144.84 150.888L145.416 151.304L145.192 150.632L145.784 150.2H145.064Z" fill="white"/>
<path d="M149.112 150.2L148.888 149.528L148.68 150.2H147.96L148.536 150.632L148.312 151.304L148.888 150.888L149.48 151.304L149.256 150.632L149.832 150.2H149.112Z" fill="white"/>
<path d="M134.712 137.464L134.488 138.136H133.768L134.344 138.568L134.12 139.24L134.712 138.824L135.288 139.24L135.064 138.568L135.64 138.136H134.92L134.712 137.464Z" fill="white"/>
<path d="M138.76 137.464L138.536 138.136H137.816L138.408 138.568L138.184 139.24L138.76 138.824L139.336 139.24L139.112 138.568L139.704 138.136H138.984L138.76 137.464Z" fill="white"/>
<path d="M142.808 137.464L142.6 138.136H141.88L142.456 138.568L142.232 139.24L142.808 138.824L143.4 139.24L143.176 138.568L143.752 138.136H143.032L142.808 137.464Z" fill="white"/>
<path d="M146.872 137.464L146.648 138.136H145.928L146.504 138.568L146.28 139.24L146.872 138.824L147.448 139.24L147.224 138.568L147.8 138.136H147.08L146.872 137.464Z" fill="white"/>
<path d="M134.712 140.904L134.488 141.592H133.768L134.344 142.008L134.12 142.696L134.712 142.264L135.288 142.696L135.064 142.008L135.64 141.592H134.92L134.712 140.904Z" fill="white"/>
<path d="M138.76 140.904L138.536 141.592H137.816L138.408 142.008L138.184 142.696L138.76 142.264L139.336 142.696L139.112 142.008L139.704 141.592H138.984L138.76 140.904Z" fill="white"/>
<path d="M142.808 140.904L142.6 141.592H141.88L142.456 142.008L142.232 142.696L142.808 142.264L143.4 142.696L143.176 142.008L143.752 141.592H143.032L142.808 140.904Z" fill="white"/>
<path d="M146.872 140.904L146.648 141.592H145.928L146.504 142.008L146.28 142.696L146.872 142.264L147.448 142.696L147.224 142.008L147.8 141.592H147.08L146.872 140.904Z" fill="white"/>
<path d="M134.712 144.36L134.488 145.032H133.768L134.344 145.448L134.12 146.136L134.712 145.72L135.288 146.136L135.064 145.448L135.64 145.032H134.92L134.712 144.36Z" fill="white"/>
<path d="M138.76 144.36L138.536 145.032H137.816L138.408 145.448L138.184 146.136L138.76 145.72L139.336 146.136L139.112 145.448L139.704 145.032H138.984L138.76 144.36Z" fill="white"/>
<path d="M142.808 144.36L142.6 145.032H141.88L142.456 145.448L142.232 146.136L142.808 145.72L143.4 146.136L143.176 145.448L143.752 145.032H143.032L142.808 144.36Z" fill="white"/>
<path d="M146.872 144.36L146.648 145.032H145.928L146.504 145.448L146.28 146.136L146.872 145.72L147.448 146.136L147.224 145.448L147.8 145.032H147.08L146.872 144.36Z" fill="white"/>
<path d="M134.92 148.488L134.712 147.8L134.488 148.488H133.768L134.344 148.904L134.12 149.576L134.712 149.16L135.288 149.576L135.064 148.904L135.64 148.488H134.92Z" fill="white"/>
<path d="M138.984 148.488L138.76 147.8L138.536 148.488H137.816L138.408 148.904L138.184 149.576L138.76 149.16L139.336 149.576L139.112 148.904L139.704 148.488H138.984Z" fill="white"/>
<path d="M143.032 148.488L142.808 147.8L142.6 148.488H141.88L142.456 148.904L142.232 149.576L142.808 149.16L143.4 149.576L143.176 148.904L143.752 148.488H143.032Z" fill="white"/>
<path d="M147.08 148.488L146.872 147.8L146.648 148.488H145.928L146.504 148.904L146.28 149.576L146.872 149.16L147.448 149.576L147.224 148.904L147.8 148.488H147.08Z" fill="white"/>
</g>
<path d="M96 0.421894C96 0.421894 174.089 3.63127 184.251 78L189 62.9492C189 62.9492 167.02 -5.99684 96 0.421894Z" fill="#00C4F5" fill-opacity="0.1"/>
<path d="M102 191.534C102 191.534 16.0477 187.996 4.86293 106L0 122.716C0.121573 122.716 23.8284 198.611 102 191.534Z" fill="#00C4F5" fill-opacity="0.1"/>
<defs>
<linearGradient id="paint0_linear_214_601" x1="58" y1="30" x2="145" y2="158" gradientUnits="userSpaceOnUse">
<stop stop-color="#37ACE9"/>
<stop offset="1" stop-color="#198EC5"/>
</linearGradient>
</defs>
</svg>
