<svg width="170" height="173" viewBox="0 0 170 173" fill="none" xmlns="http://www.w3.org/2000/svg">
<circle cx="85.1611" cy="86.0361" r="66.3158" fill="url(#paint0_linear_257_605)" stroke="white" stroke-width="1.80198"/>
<path d="M75.0242 94.9827L73.6447 109.973C73.6447 109.973 73.0929 114.571 77.6911 109.973C82.2893 105.375 86.7036 101.788 86.7036 101.788L75.0242 94.9827Z" fill="white"/>
<path d="M65.3706 90.4781L50.1965 85.512C50.1965 85.512 48.3572 84.7763 49.0009 83.121C49.0929 82.7531 49.3688 82.4772 50.1045 82.0174C53.5072 79.7183 112.272 58.5665 112.272 58.5665C112.272 58.5665 113.928 58.0147 114.939 58.3826C115.399 58.5665 115.675 58.7504 115.951 59.4861C116.043 59.762 116.135 60.3138 116.043 60.8656C116.043 61.2335 115.951 61.6013 115.951 62.1531C115.583 67.9469 104.915 111.078 104.915 111.078C104.915 111.078 104.272 113.561 101.972 113.653C101.145 113.653 100.133 113.469 98.9376 112.458C94.4313 108.595 78.8894 98.1112 75.3947 95.8121C75.2108 95.7201 75.1188 95.5362 75.1188 95.3522C75.0268 95.0763 75.3027 94.8004 75.3027 94.8004C75.3027 94.8004 102.432 70.7058 103.168 68.1308C103.26 67.9469 102.984 67.8549 102.708 67.9468C100.869 68.5906 69.6929 88.3629 66.1983 90.4781C66.0143 90.5701 65.3706 90.4781 65.3706 90.4781Z" fill="white"/>
<circle cx="129.074" cy="129.949" r="14.9703" fill="white" stroke="white" stroke-width="1.26139"/>
<mask id="mask0_257_605" style="mask-type:alpha" maskUnits="userSpaceOnUse" x="114" y="115" width="30" height="30">
<circle cx="129.074" cy="129.949" r="14.3396" fill="#C4C4C4"/>
</mask>
<g mask="url(#mask0_257_605)">
<path d="M157.754 134.723H114.735V144.288H157.754V134.723Z" fill="#D52B1E"/>
<path d="M157.754 125.173H114.735V134.737H157.754V125.173Z" fill="#0039A6"/>
<path d="M157.754 115.606H114.735V125.171H157.754V115.606Z" fill="white"/>
</g>
<path d="M86.0576 0.378112C86.0576 0.378112 156.043 3.25443 165.15 69.9055L169.406 56.4166C169.406 56.4166 149.708 -5.37451 86.0576 0.378112Z" fill="#00C4F5" fill-opacity="0.1"/>
<path d="M91.4339 171.662C91.4339 171.662 14.4014 168.49 4.37732 95.0039L0.019043 109.985C0.128 109.985 21.3746 178.004 91.4339 171.662Z" fill="#00C4F5" fill-opacity="0.1"/>
<defs>
<linearGradient id="paint0_linear_257_605" x1="50.2084" y1="26.8853" x2="128.18" y2="141.602" gradientUnits="userSpaceOnUse">
<stop stop-color="#4FBE3D"/>
<stop offset="1" stop-color="#38AB41"/>
</linearGradient>
</defs>
</svg>
