<svg width="66" height="66" viewBox="0 0 66 66" fill="none" xmlns="http://www.w3.org/2000/svg">
<g clip-path="url(#clip0_580_31)">
<path d="M23.8073 30.8634L22.8453 41.3171C22.8453 41.3171 22.4605 44.5238 25.6672 41.3171C28.8738 38.1105 31.9522 35.6093 31.9522 35.6093L23.8073 30.8634Z" fill="white"/>
<path d="M17.0735 27.7207L6.49155 24.2575C6.49155 24.2575 5.20888 23.7444 5.65781 22.59C5.72195 22.3335 5.91435 22.1411 6.42741 21.8204C8.80034 20.2171 49.7815 5.46645 49.7815 5.46645C49.7815 5.46645 50.9359 5.08165 51.6413 5.33818C51.962 5.46645 52.1544 5.59472 52.3468 6.10778C52.4109 6.30018 52.4751 6.68498 52.4109 7.06978C52.4109 7.32631 52.3468 7.58285 52.3468 7.96765C52.0903 12.008 44.6508 42.0865 44.6508 42.0865C44.6508 42.0865 44.2019 43.8181 42.5985 43.8822C42.0214 43.8822 41.3159 43.754 40.4822 43.0485C37.3396 40.3549 26.5011 33.0437 24.064 31.4404C23.9358 31.3763 23.8716 31.248 23.8716 31.1197C23.8075 30.9273 23.9999 30.7349 23.9999 30.7349C23.9999 30.7349 42.9192 13.932 43.4323 12.1363C43.4964 12.008 43.304 11.9439 43.1116 12.008C41.829 12.457 20.0878 26.2456 17.6507 27.7207C17.5225 27.7848 17.0735 27.7207 17.0735 27.7207Z" fill="white"/>
<path opacity="0.5" d="M55.6573 39.9816L61.1191 42.8407L61.2657 47.2028L51.1853 50.8684L47.4464 54.424L43.8908 53.2144L31.9042 58.2729L20.3942 57.4665L17.2785 49.8787L19.1846 47.1295L15.2257 48.9623L16.472 53.9475L12 59.5559L17.7183 55.8536L19.4412 59.5559L26.9557 60.1057L26.5524 62.4884L39.0888 64.6511L42.901 62.0119L38.3557 62.1585L32.6374 60.7655L33.8103 59.7758L43.8908 55.7437L49.0593 59.0061L52.7249 52.188L63.1718 48.5224L63.8316 42.4742L55.6573 39.9816Z" fill="white"/>
</g>
<defs>
<clipPath id="clip0_580_31">
<rect width="66" height="66" fill="white"/>
</clipPath>
</defs>
</svg>
