<svg width="66" height="66" viewBox="0 0 66 66" fill="none" xmlns="http://www.w3.org/2000/svg">
<g clip-path="url(#clip0_580_4)">
<path d="M25.1859 43.3728C42.9049 43.3728 52.5699 28.7143 52.5699 15.9888C52.5699 15.5593 52.5699 15.1834 52.5162 14.7539C54.3955 13.4115 56.0063 11.6933 57.295 9.76031C55.5768 10.512 53.6975 11.049 51.7645 11.2637C53.7512 10.0825 55.2546 8.20318 56.0063 5.94802C54.127 7.0756 52.0867 7.82732 49.8852 8.31056C48.1133 6.43127 45.6434 5.25 42.8513 5.25C37.5355 5.25 33.24 9.54553 33.24 14.8613C33.24 15.613 33.3474 16.3647 33.5085 17.0627C25.508 16.6869 18.4204 12.8209 13.6953 7.02191C12.8899 8.41795 12.4067 10.0825 12.4067 11.8544C12.4067 15.1834 14.1249 18.1366 16.7022 19.8548C15.1451 19.8011 13.6416 19.3716 12.353 18.6735C12.353 18.7272 12.353 18.7272 12.353 18.7809C12.353 23.4523 15.682 27.3183 20.0849 28.2311C19.2795 28.4459 18.4204 28.5533 17.5613 28.5533C16.917 28.5533 16.3263 28.4996 15.7357 28.3922C16.9707 32.2045 20.5145 34.9966 24.7026 35.0503C21.4273 37.6276 17.2391 39.1847 12.7288 39.1847C11.9771 39.1847 11.1717 39.131 10.42 39.0773C14.6618 41.762 19.7091 43.3728 25.1859 43.3728Z" fill="white"/>
<path opacity="0.5" d="M55.6573 39.9816L61.1191 42.8407L61.2657 47.2028L51.1853 50.8684L47.4464 54.424L43.8908 53.2144L31.9042 58.2729L20.3942 57.4665L17.2785 49.8787L19.1846 47.1295L15.2257 48.9623L16.472 53.9475L12 59.5559L17.7183 55.8536L19.4412 59.5559L26.9557 60.1057L26.5524 62.4884L39.0888 64.6511L42.901 62.0119L38.3557 62.1585L32.6374 60.7655L33.8103 59.7758L43.8908 55.7437L49.0593 59.0061L52.7249 52.188L63.1718 48.5224L63.8316 42.4742L55.6573 39.9816Z" fill="white"/>
</g>
<defs>
<clipPath id="clip0_580_4">
<rect width="66" height="66" fill="white"/>
</clipPath>
</defs>
</svg>
