<svg width="189" height="192" viewBox="0 0 189 192" fill="none" xmlns="http://www.w3.org/2000/svg">
<circle cx="95" cy="96" r="74" fill="url(#paint0_linear_214_500)" stroke="white" stroke-width="2"/>
<path d="M84.1254 127.997C112.476 127.997 127.94 104.543 127.94 84.1821C127.94 83.4948 127.94 82.8935 127.854 82.2062C130.861 80.0584 133.438 77.3093 135.5 74.2165C132.751 75.4192 129.744 76.2783 126.651 76.622C129.83 74.732 132.235 71.7251 133.438 68.1168C130.431 69.921 127.167 71.1237 123.644 71.8969C120.809 68.89 116.857 67 112.39 67C103.885 67 97.012 73.8729 97.012 82.378C97.012 83.5808 97.1839 84.7835 97.4416 85.9003C84.6409 85.299 73.3007 79.1134 65.7406 69.8351C64.4519 72.0687 63.6787 74.732 63.6787 77.567C63.6787 82.8935 66.4278 87.6186 70.5515 90.3677C68.0601 90.2818 65.6546 89.5945 63.5928 88.4777C63.5928 88.5636 63.5928 88.5636 63.5928 88.6495C63.5928 96.1237 68.9192 102.309 75.9639 103.77C74.6753 104.113 73.3007 104.285 71.9261 104.285C70.8952 104.285 69.9502 104.199 69.0052 104.027C70.9811 110.127 76.6512 114.595 83.3522 114.68C78.1117 118.804 71.4107 121.296 64.1942 121.296C62.9914 121.296 61.7027 121.21 60.5 121.124C67.2869 125.419 75.3625 127.997 84.1254 127.997Z" fill="white"/>
<circle cx="144" cy="145" r="16.7" fill="white" stroke="white" stroke-width="1.4"/>
<mask id="mask0_214_500" style="mask-type:alpha" maskUnits="userSpaceOnUse" x="128" y="129" width="32" height="32">
<circle cx="144" cy="145" r="15.5" fill="#C4C4C4" stroke="white"/>
</mask>
<g mask="url(#mask0_214_500)">
<path d="M182.4 129H121.6V131.464H182.4V129Z" fill="#B01820"/>
<path d="M182.4 158.536H121.6V161H182.4V158.536Z" fill="#B01820"/>
<path d="M182.4 153.608H121.6V156.072H182.4V153.608Z" fill="#B01820"/>
<path d="M182.4 148.696H121.6V151.16H182.4V148.696Z" fill="#B01820"/>
<path d="M182.4 143.768H121.6V146.232H182.4V143.768Z" fill="#B01820"/>
<path d="M182.4 138.84H121.6V141.304H182.4V138.84Z" fill="#B01820"/>
<path d="M182.4 133.928H121.6V136.392H182.4V133.928Z" fill="#B01820"/>
<path d="M182.4 156.072H121.6V158.536H182.4V156.072Z" fill="white"/>
<path d="M182.4 151.16H121.6V153.624H182.4V151.16Z" fill="white"/>
<path d="M182.4 146.232H121.6V148.696H182.4V146.232Z" fill="white"/>
<path d="M182.4 141.304H121.6V143.768H182.4V141.304Z" fill="white"/>
<path d="M182.4 136.392H121.6V138.856H182.4V136.392Z" fill="white"/>
<path d="M182.4 131.464H121.6V133.928H182.4V131.464Z" fill="white"/>
<path d="M145.92 129H121.6V146.232H145.92V129Z" fill="#002A70"/>
<path d="M127.68 129.736L127.456 130.424H126.736L127.328 130.84L127.104 131.528L127.68 131.096L128.256 131.528L128.032 130.84L128.624 130.424H127.904L127.68 129.736Z" fill="white"/>
<path d="M131.728 129.736L131.52 130.424H130.8L131.376 130.84L131.152 131.528L131.728 131.096L132.32 131.528L132.096 130.84L132.672 130.424H131.952L131.728 129.736Z" fill="white"/>
<path d="M135.792 129.736L135.568 130.424H134.848L135.424 130.84L135.2 131.528L135.792 131.096L136.368 131.528L136.144 130.84L136.72 130.424H136L135.792 129.736Z" fill="white"/>
<path d="M139.84 129.736L139.616 130.424H138.896L139.488 130.84L139.264 131.528L139.84 131.096L140.416 131.528L140.192 130.84L140.784 130.424H140.064L139.84 129.736Z" fill="white"/>
<path d="M143.312 131.528L143.888 131.096L144.48 131.528L144.256 130.84L144.832 130.424H144.112L143.888 129.736L143.68 130.424H142.96L143.536 130.84L143.312 131.528Z" fill="white"/>
<path d="M127.68 133.176L127.456 133.864H126.736L127.328 134.28L127.104 134.968L127.68 134.552L128.256 134.968L128.032 134.28L128.624 133.864H127.904L127.68 133.176Z" fill="white"/>
<path d="M131.728 133.176L131.52 133.864H130.8L131.376 134.28L131.152 134.968L131.728 134.552L132.32 134.968L132.096 134.28L132.672 133.864H131.952L131.728 133.176Z" fill="white"/>
<path d="M135.792 133.176L135.568 133.864H134.848L135.424 134.28L135.2 134.968L135.792 134.552L136.368 134.968L136.144 134.28L136.72 133.864H136L135.792 133.176Z" fill="white"/>
<path d="M139.84 133.176L139.616 133.864H138.896L139.488 134.28L139.264 134.968L139.84 134.552L140.416 134.968L140.192 134.28L140.784 133.864H140.064L139.84 133.176Z" fill="white"/>
<path d="M143.888 133.176L143.68 133.864H142.96L143.536 134.28L143.312 134.968L143.888 134.552L144.48 134.968L144.256 134.28L144.832 133.864H144.112L143.888 133.176Z" fill="white"/>
<path d="M127.68 136.632L127.456 137.304H126.736L127.328 137.736L127.104 138.408L127.68 137.992L128.256 138.408L128.032 137.736L128.624 137.304H127.904L127.68 136.632Z" fill="white"/>
<path d="M131.728 136.632L131.52 137.304H130.8L131.376 137.736L131.152 138.408L131.728 137.992L132.32 138.408L132.096 137.736L132.672 137.304H131.952L131.728 136.632Z" fill="white"/>
<path d="M135.792 136.632L135.568 137.304H134.848L135.424 137.736L135.2 138.408L135.792 137.992L136.368 138.408L136.144 137.736L136.72 137.304H136L135.792 136.632Z" fill="white"/>
<path d="M139.84 136.632L139.616 137.304H138.896L139.488 137.736L139.264 138.408L139.84 137.992L140.416 138.408L140.192 137.736L140.784 137.304H140.064L139.84 136.632Z" fill="white"/>
<path d="M143.888 136.632L143.68 137.304H142.96L143.536 137.736L143.312 138.408L143.888 137.992L144.48 138.408L144.256 137.736L144.832 137.304H144.112L143.888 136.632Z" fill="white"/>
<path d="M127.68 140.072L127.456 140.76H126.736L127.328 141.176L127.104 141.864L127.68 141.432L128.256 141.864L128.032 141.176L128.624 140.76H127.904L127.68 140.072Z" fill="white"/>
<path d="M131.728 140.072L131.52 140.76H130.8L131.376 141.176L131.152 141.864L131.728 141.432L132.32 141.864L132.096 141.176L132.672 140.76H131.952L131.728 140.072Z" fill="white"/>
<path d="M135.792 140.072L135.568 140.76H134.848L135.424 141.176L135.2 141.864L135.792 141.432L136.368 141.864L136.144 141.176L136.72 140.76H136L135.792 140.072Z" fill="white"/>
<path d="M139.84 140.072L139.616 140.76H138.896L139.488 141.176L139.264 141.864L139.84 141.432L140.416 141.864L140.192 141.176L140.784 140.76H140.064L139.84 140.072Z" fill="white"/>
<path d="M143.888 140.072L143.68 140.76H142.96L143.536 141.176L143.312 141.864L143.888 141.432L144.48 141.864L144.256 141.176L144.832 140.76H144.112L143.888 140.072Z" fill="white"/>
<path d="M127.904 144.2L127.68 143.528L127.456 144.2H126.736L127.328 144.632L127.104 145.304L127.68 144.888L128.256 145.304L128.032 144.632L128.624 144.2H127.904Z" fill="white"/>
<path d="M131.952 144.2L131.728 143.528L131.52 144.2H130.8L131.376 144.632L131.152 145.304L131.728 144.888L132.32 145.304L132.096 144.632L132.672 144.2H131.952Z" fill="white"/>
<path d="M136 144.2L135.792 143.528L135.568 144.2H134.848L135.424 144.632L135.2 145.304L135.792 144.888L136.368 145.304L136.144 144.632L136.72 144.2H136Z" fill="white"/>
<path d="M140.064 144.2L139.84 143.528L139.616 144.2H138.896L139.488 144.632L139.264 145.304L139.84 144.888L140.416 145.304L140.192 144.632L140.784 144.2H140.064Z" fill="white"/>
<path d="M144.112 144.2L143.888 143.528L143.68 144.2H142.96L143.536 144.632L143.312 145.304L143.888 144.888L144.48 145.304L144.256 144.632L144.832 144.2H144.112Z" fill="white"/>
<path d="M129.712 131.464L129.488 132.136H128.768L129.344 132.568L129.12 133.24L129.712 132.824L130.288 133.24L130.064 132.568L130.64 132.136H129.92L129.712 131.464Z" fill="white"/>
<path d="M133.76 131.464L133.536 132.136H132.816L133.408 132.568L133.184 133.24L133.76 132.824L134.336 133.24L134.112 132.568L134.704 132.136H133.984L133.76 131.464Z" fill="white"/>
<path d="M137.808 131.464L137.6 132.136H136.88L137.456 132.568L137.232 133.24L137.808 132.824L138.4 133.24L138.176 132.568L138.752 132.136H138.032L137.808 131.464Z" fill="white"/>
<path d="M141.872 131.464L141.648 132.136H140.928L141.504 132.568L141.28 133.24L141.872 132.824L142.448 133.24L142.224 132.568L142.8 132.136H142.08L141.872 131.464Z" fill="white"/>
<path d="M129.712 134.904L129.488 135.592H128.768L129.344 136.008L129.12 136.696L129.712 136.264L130.288 136.696L130.064 136.008L130.64 135.592H129.92L129.712 134.904Z" fill="white"/>
<path d="M133.76 134.904L133.536 135.592H132.816L133.408 136.008L133.184 136.696L133.76 136.264L134.336 136.696L134.112 136.008L134.704 135.592H133.984L133.76 134.904Z" fill="white"/>
<path d="M137.808 134.904L137.6 135.592H136.88L137.456 136.008L137.232 136.696L137.808 136.264L138.4 136.696L138.176 136.008L138.752 135.592H138.032L137.808 134.904Z" fill="white"/>
<path d="M141.872 134.904L141.648 135.592H140.928L141.504 136.008L141.28 136.696L141.872 136.264L142.448 136.696L142.224 136.008L142.8 135.592H142.08L141.872 134.904Z" fill="white"/>
<path d="M129.712 138.36L129.488 139.032H128.768L129.344 139.448L129.12 140.136L129.712 139.72L130.288 140.136L130.064 139.448L130.64 139.032H129.92L129.712 138.36Z" fill="white"/>
<path d="M133.76 138.36L133.536 139.032H132.816L133.408 139.448L133.184 140.136L133.76 139.72L134.336 140.136L134.112 139.448L134.704 139.032H133.984L133.76 138.36Z" fill="white"/>
<path d="M137.808 138.36L137.6 139.032H136.88L137.456 139.448L137.232 140.136L137.808 139.72L138.4 140.136L138.176 139.448L138.752 139.032H138.032L137.808 138.36Z" fill="white"/>
<path d="M141.872 138.36L141.648 139.032H140.928L141.504 139.448L141.28 140.136L141.872 139.72L142.448 140.136L142.224 139.448L142.8 139.032H142.08L141.872 138.36Z" fill="white"/>
<path d="M129.92 142.488L129.712 141.8L129.488 142.488H128.768L129.344 142.904L129.12 143.576L129.712 143.16L130.288 143.576L130.064 142.904L130.64 142.488H129.92Z" fill="white"/>
<path d="M133.984 142.488L133.76 141.8L133.536 142.488H132.816L133.408 142.904L133.184 143.576L133.76 143.16L134.336 143.576L134.112 142.904L134.704 142.488H133.984Z" fill="white"/>
<path d="M138.032 142.488L137.808 141.8L137.6 142.488H136.88L137.456 142.904L137.232 143.576L137.808 143.16L138.4 143.576L138.176 142.904L138.752 142.488H138.032Z" fill="white"/>
<path d="M142.08 142.488L141.872 141.8L141.648 142.488H140.928L141.504 142.904L141.28 143.576L141.872 143.16L142.448 143.576L142.224 142.904L142.8 142.488H142.08Z" fill="white"/>
</g>
<path d="M96 0.421894C96 0.421894 174.089 3.63127 184.251 78L189 62.9492C189 62.9492 167.02 -5.99684 96 0.421894Z" fill="#00C4F5" fill-opacity="0.1"/>
<path d="M102 191.534C102 191.534 16.0477 187.996 4.86293 106L0 122.716C0.121573 122.716 23.8284 198.611 102 191.534Z" fill="#00C4F5" fill-opacity="0.1"/>
<defs>
<linearGradient id="paint0_linear_214_500" x1="56" y1="30" x2="143" y2="158" gradientUnits="userSpaceOnUse">
<stop stop-color="#1D9BF0"/>
<stop offset="1" stop-color="#0779C6"/>
</linearGradient>
</defs>
</svg>
