<svg width="170" height="173" viewBox="0 0 170 173" fill="none" xmlns="http://www.w3.org/2000/svg">
<circle cx="85.1406" cy="86.9583" r="66.3158" fill="url(#paint0_linear_257_522)" stroke="white" stroke-width="1.80198"/>
<path d="M75.3944 115.634C100.803 115.634 114.662 94.6144 114.662 76.3666C114.662 75.7506 114.662 75.2116 114.585 74.5957C117.28 72.6708 119.59 70.207 121.437 67.4351C118.974 68.5131 116.279 69.283 113.507 69.591C116.356 67.8971 118.512 65.2023 119.59 61.9685C116.895 63.5854 113.969 64.6633 110.812 65.3563C108.271 62.6614 104.73 60.9675 100.726 60.9675C93.1033 60.9675 86.9437 67.1271 86.9437 74.7497C86.9437 75.8276 87.0976 76.9055 87.3286 77.9065C75.8563 77.3675 65.693 71.8239 58.9174 63.5084C57.7625 65.5102 57.0695 67.8971 57.0695 70.4379C57.0695 75.2116 59.5334 79.4464 63.2291 81.9102C60.9963 81.8332 58.8404 81.2173 56.9925 80.2163C56.9925 80.2933 56.9925 80.2933 56.9925 80.3703C56.9925 87.0689 61.7662 92.6126 68.0798 93.9215C66.9249 94.2295 65.693 94.3834 64.4611 94.3834C63.5371 94.3834 62.6902 94.3064 61.8432 94.1525C63.6141 99.6191 68.6958 103.623 74.7014 103.7C70.0047 107.396 63.9991 109.628 57.5315 109.628C56.4536 109.628 55.2986 109.552 54.2207 109.475C60.3033 113.324 67.5409 115.634 75.3944 115.634Z" fill="white"/>
<circle cx="129.057" cy="130.871" r="14.9703" fill="white" stroke="white" stroke-width="1.26139"/>
<mask id="mask0_257_522" style="mask-type:alpha" maskUnits="userSpaceOnUse" x="114" y="116" width="30" height="30">
<circle cx="129.057" cy="130.871" r="13.8891" fill="#C4C4C4" stroke="white" stroke-width="0.900991"/>
</mask>
<g mask="url(#mask0_257_522)">
<path d="M163.468 116.528H108.978V118.736H163.468V116.528Z" fill="#B01820"/>
<path d="M163.469 142.997H108.979V145.206H163.469V142.997Z" fill="#B01820"/>
<path d="M163.469 138.583H108.979V140.792H163.469V138.583Z" fill="#B01820"/>
<path d="M163.469 134.181H108.979V136.389H163.469V134.181Z" fill="#B01820"/>
<path d="M163.469 129.767H108.979V131.975H163.469V129.767Z" fill="#B01820"/>
<path d="M163.469 125.345H108.979V127.554H163.469V125.345Z" fill="#B01820"/>
<path d="M163.469 120.947H108.979V123.155H163.469V120.947Z" fill="#B01820"/>
<path d="M163.471 140.795H108.981V143.003H163.471V140.795Z" fill="white"/>
<path d="M163.471 136.393H108.981V138.601H163.471V136.393Z" fill="white"/>
<path d="M163.471 131.979H108.981V134.187H163.471V131.979Z" fill="white"/>
<path d="M163.471 127.557H108.981V129.765H163.471V127.557Z" fill="white"/>
<path d="M163.471 123.158H108.981V125.366H163.471V123.158Z" fill="white"/>
<path d="M163.471 118.74H108.98V120.948H163.471V118.74Z" fill="white"/>
<path d="M130.777 116.533H108.98V131.976H130.777V116.533Z" fill="#002A70"/>
<path d="M114.43 117.192L114.229 117.809H113.583L114.114 118.182L113.913 118.798L114.43 118.411L114.946 118.798L114.745 118.182L115.276 117.809H114.63L114.43 117.192Z" fill="white"/>
<path d="M118.058 117.192L117.872 117.809H117.227L117.743 118.182L117.542 118.798L118.058 118.411L118.589 118.798L118.388 118.182L118.904 117.809H118.259L118.058 117.192Z" fill="white"/>
<path d="M121.7 117.192L121.499 117.809H120.854L121.37 118.182L121.169 118.798L121.7 118.411L122.216 118.798L122.015 118.182L122.531 117.809H121.886L121.7 117.192Z" fill="white"/>
<path d="M125.328 117.192L125.128 117.809H124.482L125.013 118.182L124.812 118.798L125.328 118.411L125.845 118.798L125.644 118.182L126.174 117.809H125.529L125.328 117.192Z" fill="white"/>
<path d="M128.439 118.798L128.955 118.411L129.486 118.798L129.285 118.182L129.801 117.809H129.156L128.955 117.192L128.769 117.809H128.124L128.64 118.182L128.439 118.798Z" fill="white"/>
<path d="M114.43 120.277L114.229 120.894H113.583L114.114 121.267L113.913 121.883L114.43 121.511L114.946 121.883L114.745 121.267L115.276 120.894H114.63L114.43 120.277Z" fill="white"/>
<path d="M118.058 120.277L117.872 120.894H117.227L117.743 121.267L117.542 121.883L118.058 121.511L118.589 121.883L118.388 121.267L118.904 120.894H118.259L118.058 120.277Z" fill="white"/>
<path d="M121.7 120.277L121.499 120.894H120.854L121.37 121.267L121.169 121.883L121.7 121.511L122.216 121.883L122.015 121.267L122.531 120.894H121.886L121.7 120.277Z" fill="white"/>
<path d="M125.328 120.277L125.128 120.894H124.482L125.013 121.267L124.812 121.883L125.328 121.511L125.845 121.883L125.644 121.267L126.174 120.894H125.529L125.328 120.277Z" fill="white"/>
<path d="M128.955 120.277L128.769 120.894H128.124L128.64 121.267L128.439 121.883L128.955 121.511L129.486 121.883L129.285 121.267L129.801 120.894H129.156L128.955 120.277Z" fill="white"/>
<path d="M114.43 123.372L114.229 123.974H113.583L114.114 124.361L113.913 124.964L114.43 124.591L114.946 124.964L114.745 124.361L115.276 123.974H114.63L114.43 123.372Z" fill="white"/>
<path d="M118.058 123.372L117.871 123.974H117.226L117.742 124.361L117.542 124.964L118.058 124.591L118.588 124.964L118.388 124.361L118.904 123.974H118.259L118.058 123.372Z" fill="white"/>
<path d="M121.699 123.372L121.498 123.974H120.853L121.369 124.361L121.168 124.964L121.699 124.591L122.215 124.964L122.015 124.361L122.531 123.974H121.885L121.699 123.372Z" fill="white"/>
<path d="M125.328 123.372L125.127 123.974H124.482L125.012 124.361L124.812 124.964L125.328 124.591L125.844 124.964L125.643 124.361L126.174 123.974H125.529L125.328 123.372Z" fill="white"/>
<path d="M128.956 123.372L128.77 123.974H128.125L128.641 124.361L128.44 124.964L128.956 124.591L129.487 124.964L129.286 124.361L129.802 123.974H129.157L128.956 123.372Z" fill="white"/>
<path d="M114.43 126.454L114.229 127.07H113.583L114.114 127.443L113.913 128.06L114.43 127.673L114.946 128.06L114.745 127.443L115.276 127.07H114.63L114.43 126.454Z" fill="white"/>
<path d="M118.058 126.454L117.871 127.07H117.226L117.742 127.443L117.542 128.06L118.058 127.673L118.588 128.06L118.388 127.443L118.904 127.07H118.259L118.058 126.454Z" fill="white"/>
<path d="M121.699 126.454L121.498 127.07H120.853L121.369 127.443L121.168 128.06L121.699 127.673L122.215 128.06L122.015 127.443L122.531 127.07H121.885L121.699 126.454Z" fill="white"/>
<path d="M125.328 126.454L125.127 127.07H124.482L125.012 127.443L124.812 128.06L125.328 127.673L125.844 128.06L125.643 127.443L126.174 127.07H125.529L125.328 126.454Z" fill="white"/>
<path d="M128.956 126.454L128.77 127.07H128.125L128.641 127.443L128.44 128.06L128.956 127.673L129.487 128.06L129.286 127.443L129.802 127.07H129.157L128.956 126.454Z" fill="white"/>
<path d="M114.63 130.155L114.43 129.552L114.229 130.155H113.583L114.114 130.542L113.913 131.144L114.43 130.771L114.946 131.144L114.745 130.542L115.276 130.155H114.63Z" fill="white"/>
<path d="M118.259 130.155L118.058 129.552L117.872 130.155H117.227L117.743 130.542L117.542 131.144L118.058 130.771L118.589 131.144L118.388 130.542L118.904 130.155H118.259Z" fill="white"/>
<path d="M121.886 130.155L121.7 129.552L121.499 130.155H120.854L121.37 130.542L121.169 131.144L121.7 130.771L122.216 131.144L122.015 130.542L122.531 130.155H121.886Z" fill="white"/>
<path d="M125.529 130.155L125.328 129.552L125.128 130.155H124.482L125.013 130.542L124.812 131.144L125.328 130.771L125.845 131.144L125.644 130.542L126.174 130.155H125.529Z" fill="white"/>
<path d="M129.156 130.155L128.955 129.552L128.769 130.155H128.124L128.64 130.542L128.439 131.144L128.955 130.771L129.486 131.144L129.285 130.542L129.801 130.155H129.156Z" fill="white"/>
<path d="M116.252 118.739L116.052 119.341H115.406L115.922 119.728L115.722 120.33L116.252 119.957L116.769 120.33L116.568 119.728L117.084 119.341H116.439L116.252 118.739Z" fill="white"/>
<path d="M119.879 118.739L119.678 119.341H119.033L119.564 119.728L119.363 120.33L119.879 119.957L120.395 120.33L120.195 119.728L120.725 119.341H120.08L119.879 118.739Z" fill="white"/>
<path d="M123.506 118.739L123.319 119.341H122.674L123.19 119.728L122.989 120.33L123.506 119.957L124.036 120.33L123.835 119.728L124.352 119.341H123.706L123.506 118.739Z" fill="white"/>
<path d="M127.149 118.739L126.949 119.341H126.303L126.819 119.728L126.619 120.33L127.149 119.957L127.665 120.33L127.465 119.728L127.981 119.341H127.336L127.149 118.739Z" fill="white"/>
<path d="M116.252 121.825L116.051 122.442H115.406L115.922 122.814L115.721 123.431L116.252 123.044L116.768 123.431L116.567 122.814L117.083 122.442H116.438L116.252 121.825Z" fill="white"/>
<path d="M119.879 121.825L119.678 122.442H119.033L119.563 122.814L119.363 123.431L119.879 123.044L120.395 123.431L120.194 122.814L120.725 122.442H120.08L119.879 121.825Z" fill="white"/>
<path d="M123.505 121.825L123.319 122.442H122.673L123.19 122.814L122.989 123.431L123.505 123.044L124.036 123.431L123.835 122.814L124.351 122.442H123.706L123.505 121.825Z" fill="white"/>
<path d="M127.148 121.825L126.948 122.442H126.302L126.818 122.814L126.618 123.431L127.148 123.044L127.665 123.431L127.464 122.814L127.98 122.442H127.335L127.148 121.825Z" fill="white"/>
<path d="M116.252 124.919L116.051 125.521H115.406L115.922 125.894L115.721 126.51L116.252 126.138L116.768 126.51L116.567 125.894L117.083 125.521H116.438L116.252 124.919Z" fill="white"/>
<path d="M119.879 124.919L119.678 125.521H119.033L119.563 125.894L119.363 126.51L119.879 126.138L120.395 126.51L120.194 125.894L120.725 125.521H120.08L119.879 124.919Z" fill="white"/>
<path d="M123.505 124.919L123.319 125.521H122.673L123.19 125.894L122.989 126.51L123.505 126.138L124.036 126.51L123.835 125.894L124.351 125.521H123.706L123.505 124.919Z" fill="white"/>
<path d="M127.148 124.919L126.948 125.521H126.302L126.818 125.894L126.618 126.51L127.148 126.138L127.665 126.51L127.464 125.894L127.98 125.521H127.335L127.148 124.919Z" fill="white"/>
<path d="M116.438 128.617L116.252 128.001L116.051 128.617H115.406L115.922 128.99L115.721 129.592L116.252 129.22L116.768 129.592L116.567 128.99L117.083 128.617H116.438Z" fill="white"/>
<path d="M120.08 128.617L119.879 128.001L119.678 128.617H119.033L119.563 128.99L119.363 129.592L119.879 129.22L120.395 129.592L120.194 128.99L120.725 128.617H120.08Z" fill="white"/>
<path d="M123.706 128.617L123.505 128.001L123.319 128.617H122.673L123.19 128.99L122.989 129.592L123.505 129.22L124.036 129.592L123.835 128.99L124.351 128.617H123.706Z" fill="white"/>
<path d="M127.335 128.617L127.148 128.001L126.948 128.617H126.302L126.818 128.99L126.618 129.592L127.148 129.22L127.665 129.592L127.464 128.99L127.98 128.617H127.335Z" fill="white"/>
</g>
<path d="M86.0381 1.29999C86.0381 1.29999 156.023 4.17631 165.13 70.8274L169.387 57.3384C169.387 57.3384 149.688 -4.45263 86.0381 1.29999Z" fill="#00C4F5" fill-opacity="0.1"/>
<path d="M91.4149 172.584C91.4149 172.584 14.3823 169.412 4.35828 95.9258L0 110.907C0.108957 110.907 21.3556 178.926 91.4149 172.584Z" fill="#00C4F5" fill-opacity="0.1"/>
<defs>
<linearGradient id="paint0_linear_257_522" x1="50.1879" y1="27.8075" x2="128.159" y2="142.524" gradientUnits="userSpaceOnUse">
<stop stop-color="#FFD748"/>
<stop offset="1" stop-color="#E59D32"/>
</linearGradient>
</defs>
</svg>
