<svg width="32" height="32" viewBox="0 0 32 32" fill="none" xmlns="http://www.w3.org/2000/svg">
<mask id="mask0_133_1044" style="mask-type:alpha" maskUnits="userSpaceOnUse" x="0" y="0" width="32" height="32">
<circle cx="16" cy="16" r="16" fill="#C4C4C4"/>
</mask>
<g mask="url(#mask0_133_1044)">
<path d="M54.4001 0H-6.3999V2.464H54.4001V0Z" fill="#B01820"/>
<path d="M54.4001 29.5359H-6.3999V31.9999H54.4001V29.5359Z" fill="#B01820"/>
<path d="M54.4001 24.6079H-6.3999V27.0719H54.4001V24.6079Z" fill="#B01820"/>
<path d="M54.4001 19.696H-6.3999V22.16H54.4001V19.696Z" fill="#B01820"/>
<path d="M54.4001 14.7681H-6.3999V17.2321H54.4001V14.7681Z" fill="#B01820"/>
<path d="M54.4001 9.83984H-6.3999V12.3038H54.4001V9.83984Z" fill="#B01820"/>
<path d="M54.4001 4.92798H-6.3999V7.39198H54.4001V4.92798Z" fill="#B01820"/>
<path d="M54.4001 27.072H-6.3999V29.536H54.4001V27.072Z" fill="white"/>
<path d="M54.4001 22.1602H-6.3999V24.6242H54.4001V22.1602Z" fill="white"/>
<path d="M54.4001 17.2319H-6.3999V19.6959H54.4001V17.2319Z" fill="white"/>
<path d="M54.4001 12.304H-6.3999V14.768H54.4001V12.304Z" fill="white"/>
<path d="M54.4001 7.39209H-6.3999V9.85609H54.4001V7.39209Z" fill="white"/>
<path d="M54.4001 2.46411H-6.3999V4.92811H54.4001V2.46411Z" fill="white"/>
<path d="M17.9201 0H-6.3999V17.232H17.9201V0Z" fill="#002A70"/>
<path d="M-0.32016 0.736084L-0.54416 1.42408H-1.26416L-0.67216 1.84008L-0.89616 2.52808L-0.32016 2.09608L0.25584 2.52808L0.0318402 1.84008L0.62384 1.42408H-0.0961597L-0.32016 0.736084Z" fill="white"/>
<path d="M3.7278 0.736084L3.5198 1.42408H2.7998L3.3758 1.84008L3.1518 2.52808L3.7278 2.09608L4.3198 2.52808L4.0958 1.84008L4.6718 1.42408H3.9518L3.7278 0.736084Z" fill="white"/>
<path d="M7.79214 0.736084L7.56814 1.42408H6.84814L7.42414 1.84008L7.20014 2.52808L7.79214 2.09608L8.36814 2.52808L8.14414 1.84008L8.72014 1.42408H8.00014L7.79214 0.736084Z" fill="white"/>
<path d="M11.84 0.736084L11.616 1.42408H10.896L11.488 1.84008L11.264 2.52808L11.84 2.09608L12.416 2.52808L12.192 1.84008L12.784 1.42408H12.064L11.84 0.736084Z" fill="white"/>
<path d="M15.312 2.52808L15.888 2.09608L16.48 2.52808L16.256 1.84008L16.832 1.42408H16.112L15.888 0.736084L15.68 1.42408H14.96L15.536 1.84008L15.312 2.52808Z" fill="white"/>
<path d="M-0.32016 4.17603L-0.54416 4.86403H-1.26416L-0.67216 5.28003L-0.89616 5.96803L-0.32016 5.55203L0.25584 5.96803L0.0318402 5.28003L0.62384 4.86403H-0.0961597L-0.32016 4.17603Z" fill="white"/>
<path d="M3.7278 4.17603L3.5198 4.86403H2.7998L3.3758 5.28003L3.1518 5.96803L3.7278 5.55203L4.3198 5.96803L4.0958 5.28003L4.6718 4.86403H3.9518L3.7278 4.17603Z" fill="white"/>
<path d="M7.79214 4.17603L7.56814 4.86403H6.84814L7.42414 5.28003L7.20014 5.96803L7.79214 5.55203L8.36814 5.96803L8.14414 5.28003L8.72014 4.86403H8.00014L7.79214 4.17603Z" fill="white"/>
<path d="M11.84 4.17603L11.616 4.86403H10.896L11.488 5.28003L11.264 5.96803L11.84 5.55203L12.416 5.96803L12.192 5.28003L12.784 4.86403H12.064L11.84 4.17603Z" fill="white"/>
<path d="M15.888 4.17603L15.68 4.86403H14.96L15.536 5.28003L15.312 5.96803L15.888 5.55203L16.48 5.96803L16.256 5.28003L16.832 4.86403H16.112L15.888 4.17603Z" fill="white"/>
<path d="M-0.32016 7.63208L-0.54416 8.30408H-1.26416L-0.67216 8.73608L-0.89616 9.40808L-0.32016 8.99208L0.25584 9.40808L0.0318402 8.73608L0.62384 8.30408H-0.0961597L-0.32016 7.63208Z" fill="white"/>
<path d="M3.7278 7.63208L3.5198 8.30408H2.7998L3.3758 8.73608L3.1518 9.40808L3.7278 8.99208L4.3198 9.40808L4.0958 8.73608L4.6718 8.30408H3.9518L3.7278 7.63208Z" fill="white"/>
<path d="M7.79214 7.63208L7.56814 8.30408H6.84814L7.42414 8.73608L7.20014 9.40808L7.79214 8.99208L8.36814 9.40808L8.14414 8.73608L8.72014 8.30408H8.00014L7.79214 7.63208Z" fill="white"/>
<path d="M11.84 7.63208L11.616 8.30408H10.896L11.488 8.73608L11.264 9.40808L11.84 8.99208L12.416 9.40808L12.192 8.73608L12.784 8.30408H12.064L11.84 7.63208Z" fill="white"/>
<path d="M15.888 7.63208L15.68 8.30408H14.96L15.536 8.73608L15.312 9.40808L15.888 8.99208L16.48 9.40808L16.256 8.73608L16.832 8.30408H16.112L15.888 7.63208Z" fill="white"/>
<path d="M-0.32016 11.072L-0.54416 11.76H-1.26416L-0.67216 12.176L-0.89616 12.864L-0.32016 12.432L0.25584 12.864L0.0318402 12.176L0.62384 11.76H-0.0961597L-0.32016 11.072Z" fill="white"/>
<path d="M3.7278 11.072L3.5198 11.76H2.7998L3.3758 12.176L3.1518 12.864L3.7278 12.432L4.3198 12.864L4.0958 12.176L4.6718 11.76H3.9518L3.7278 11.072Z" fill="white"/>
<path d="M7.79214 11.072L7.56814 11.76H6.84814L7.42414 12.176L7.20014 12.864L7.79214 12.432L8.36814 12.864L8.14414 12.176L8.72014 11.76H8.00014L7.79214 11.072Z" fill="white"/>
<path d="M11.84 11.072L11.616 11.76H10.896L11.488 12.176L11.264 12.864L11.84 12.432L12.416 12.864L12.192 12.176L12.784 11.76H12.064L11.84 11.072Z" fill="white"/>
<path d="M15.888 11.072L15.68 11.76H14.96L15.536 12.176L15.312 12.864L15.888 12.432L16.48 12.864L16.256 12.176L16.832 11.76H16.112L15.888 11.072Z" fill="white"/>
<path d="M-0.0961597 15.1998L-0.32016 14.5278L-0.54416 15.1998H-1.26416L-0.67216 15.6318L-0.89616 16.3038L-0.32016 15.8878L0.25584 16.3038L0.0318402 15.6318L0.62384 15.1998H-0.0961597Z" fill="white"/>
<path d="M3.9518 15.1998L3.7278 14.5278L3.5198 15.1998H2.7998L3.3758 15.6318L3.1518 16.3038L3.7278 15.8878L4.3198 16.3038L4.0958 15.6318L4.6718 15.1998H3.9518Z" fill="white"/>
<path d="M8.00014 15.1998L7.79214 14.5278L7.56814 15.1998H6.84814L7.42414 15.6318L7.20014 16.3038L7.79214 15.8878L8.36814 16.3038L8.14414 15.6318L8.72014 15.1998H8.00014Z" fill="white"/>
<path d="M12.064 15.1998L11.84 14.5278L11.616 15.1998H10.896L11.488 15.6318L11.264 16.3038L11.84 15.8878L12.416 16.3038L12.192 15.6318L12.784 15.1998H12.064Z" fill="white"/>
<path d="M16.112 15.1998L15.888 14.5278L15.68 15.1998H14.96L15.536 15.6318L15.312 16.3038L15.888 15.8878L16.48 16.3038L16.256 15.6318L16.832 15.1998H16.112Z" fill="white"/>
<path d="M1.71207 2.46411L1.48807 3.13611H0.768066L1.34407 3.56811L1.12007 4.24011L1.71207 3.82411L2.28807 4.24011L2.06407 3.56811L2.64007 3.13611H1.92007L1.71207 2.46411Z" fill="white"/>
<path d="M5.75992 2.46411L5.53592 3.13611H4.81592L5.40792 3.56811L5.18392 4.24011L5.75992 3.82411L6.33592 4.24011L6.11192 3.56811L6.70392 3.13611H5.98392L5.75992 2.46411Z" fill="white"/>
<path d="M9.80788 2.46411L9.59988 3.13611H8.87988L9.45588 3.56811L9.23188 4.24011L9.80788 3.82411L10.3999 4.24011L10.1759 3.56811L10.7519 3.13611H10.0319L9.80788 2.46411Z" fill="white"/>
<path d="M13.8717 2.46411L13.6477 3.13611H12.9277L13.5037 3.56811L13.2797 4.24011L13.8717 3.82411L14.4477 4.24011L14.2237 3.56811L14.7997 3.13611H14.0797L13.8717 2.46411Z" fill="white"/>
<path d="M1.71207 5.90381L1.48807 6.59181H0.768066L1.34407 7.00781L1.12007 7.69581L1.71207 7.26381L2.28807 7.69581L2.06407 7.00781L2.64007 6.59181H1.92007L1.71207 5.90381Z" fill="white"/>
<path d="M5.75992 5.90381L5.53592 6.59181H4.81592L5.40792 7.00781L5.18392 7.69581L5.75992 7.26381L6.33592 7.69581L6.11192 7.00781L6.70392 6.59181H5.98392L5.75992 5.90381Z" fill="white"/>
<path d="M9.80788 5.90381L9.59988 6.59181H8.87988L9.45588 7.00781L9.23188 7.69581L9.80788 7.26381L10.3999 7.69581L10.1759 7.00781L10.7519 6.59181H10.0319L9.80788 5.90381Z" fill="white"/>
<path d="M13.8717 5.90381L13.6477 6.59181H12.9277L13.5037 7.00781L13.2797 7.69581L13.8717 7.26381L14.4477 7.69581L14.2237 7.00781L14.7997 6.59181H14.0797L13.8717 5.90381Z" fill="white"/>
<path d="M1.71207 9.35986L1.48807 10.0319H0.768066L1.34407 10.4479L1.12007 11.1359L1.71207 10.7199L2.28807 11.1359L2.06407 10.4479L2.64007 10.0319H1.92007L1.71207 9.35986Z" fill="white"/>
<path d="M5.75992 9.35986L5.53592 10.0319H4.81592L5.40792 10.4479L5.18392 11.1359L5.75992 10.7199L6.33592 11.1359L6.11192 10.4479L6.70392 10.0319H5.98392L5.75992 9.35986Z" fill="white"/>
<path d="M9.80788 9.35986L9.59988 10.0319H8.87988L9.45588 10.4479L9.23188 11.1359L9.80788 10.7199L10.3999 11.1359L10.1759 10.4479L10.7519 10.0319H10.0319L9.80788 9.35986Z" fill="white"/>
<path d="M13.8717 9.35986L13.6477 10.0319H12.9277L13.5037 10.4479L13.2797 11.1359L13.8717 10.7199L14.4477 11.1359L14.2237 10.4479L14.7997 10.0319H14.0797L13.8717 9.35986Z" fill="white"/>
<path d="M1.92007 13.488L1.71207 12.8L1.48807 13.488H0.768066L1.34407 13.904L1.12007 14.576L1.71207 14.16L2.28807 14.576L2.06407 13.904L2.64007 13.488H1.92007Z" fill="white"/>
<path d="M5.98392 13.488L5.75992 12.8L5.53592 13.488H4.81592L5.40792 13.904L5.18392 14.576L5.75992 14.16L6.33592 14.576L6.11192 13.904L6.70392 13.488H5.98392Z" fill="white"/>
<path d="M10.0319 13.488L9.80788 12.8L9.59988 13.488H8.87988L9.45588 13.904L9.23188 14.576L9.80788 14.16L10.3999 14.576L10.1759 13.904L10.7519 13.488H10.0319Z" fill="white"/>
<path d="M14.0797 13.488L13.8717 12.8L13.6477 13.488H12.9277L13.5037 13.904L13.2797 14.576L13.8717 14.16L14.4477 14.576L14.2237 13.904L14.7997 13.488H14.0797Z" fill="white"/>
</g>
</svg>
