<svg width="307" height="80" viewBox="0 0 307 80" fill="none" xmlns="http://www.w3.org/2000/svg">
<path d="M306.857 43.3392C306.857 53.428 302.871 62.6643 296.411 69.2007C289.951 75.8792 281.155 79.9999 271.396 79.9999H35.4605C15.9435 79.9999 0 63.5168 0 43.3392C0 42.2025 0 41.0657 0.137444 40.071C1.78677 58.6856 16.9056 73.4635 35.4605 73.4635H271.396C281.155 73.4635 290.088 69.3428 296.411 62.6643C302.184 56.6962 305.895 48.881 306.582 40.071C306.719 41.0657 306.857 42.2025 306.857 43.3392Z" fill="#4ACE24"/>
<path d="M306.857 36.6607C306.857 37.7975 306.857 38.9342 306.72 39.9289C305.071 21.3144 289.814 6.6785 271.397 6.6785H35.4612C25.7026 6.6785 16.7688 10.7993 10.4464 17.4778C4.67373 23.3037 0.962741 31.2611 0.138077 39.9289C0.00063324 38.9342 0.00063324 37.7975 0.00063324 36.6607C0.00063324 26.5719 3.98651 17.3357 10.4464 10.7993C16.7688 4.12078 25.7026 0 35.4612 0H271.397C290.914 0 306.857 16.4831 306.857 36.6607Z" fill="#4ACE24"/>
<path d="M306.582 39.9289C305.757 48.7388 302.046 56.6962 296.411 62.5221C289.951 69.2006 281.155 73.3214 271.396 73.3214H35.3232C16.7682 73.3214 1.6494 58.6855 6.86646e-05 39.9289C0.824732 31.261 4.53572 23.3037 10.3084 17.3357C16.7682 10.6572 25.5646 6.53638 35.3232 6.53638H271.259C289.676 6.67847 304.932 21.3143 306.582 39.9289Z" fill="#4ACE24"/>
<path opacity="0.46" d="M306.857 43.3392C306.857 53.428 302.871 62.6643 296.411 69.2007C289.951 75.8792 281.155 79.9999 271.396 79.9999H35.4605C15.9435 79.9999 0 63.5168 0 43.3392C0 42.2025 0 41.0657 0.137444 40.071C1.78677 58.6856 16.9056 73.4635 35.4605 73.4635H271.396C281.155 73.4635 290.088 69.3428 296.411 62.6643C302.184 56.6962 305.895 48.881 306.582 40.071C306.719 41.0657 306.857 42.2025 306.857 43.3392Z" fill="#20540F"/>
<path opacity="0.5" d="M306.857 36.6607C306.857 37.7975 306.857 38.9342 306.72 39.9289C305.071 21.3144 289.814 6.6785 271.397 6.6785H35.4612C25.7026 6.6785 16.7688 10.7993 10.4464 17.4778C4.67373 23.3037 0.962741 31.2611 0.138077 39.9289C0.00063324 38.9342 0.00063324 37.7975 0.00063324 36.6607C0.00063324 26.5719 3.98651 17.3357 10.4464 10.7993C16.7688 4.12078 25.7026 0 35.4612 0H271.397C290.914 0 306.857 16.4831 306.857 36.6607Z" fill="#C8F9B9"/>
</svg>
