<svg width="350" height="89" viewBox="0 0 350 89" fill="none" xmlns="http://www.w3.org/2000/svg">
<path d="M349.093 47.8383C349.093 58.9745 344.694 69.1695 337.563 76.3845C330.433 83.7563 320.723 88.3048 309.952 88.3048H39.1418C17.5986 88.3048 0 70.1106 0 47.8383C0 46.5835 0 45.3288 0.151712 44.2308C1.97226 64.7778 18.6606 81.0899 39.1418 81.0899H309.952C320.723 81.0899 330.584 76.5413 337.563 69.1695C343.935 62.5819 348.031 53.9553 348.79 44.2308C348.942 45.3288 349.093 46.5835 349.093 47.8383Z" fill="#4ACE24"/>
<path d="M349.094 40.4665C349.094 41.7213 349.094 42.9761 348.942 44.074C347.121 23.527 330.281 7.37181 309.952 7.37181H39.1423C28.3707 7.37181 18.5094 11.9204 11.5306 19.2922C5.15871 25.7229 1.06247 34.5063 0.152201 44.074C0.000488281 42.9761 0.000488281 41.7213 0.000488281 40.4665C0.000488281 29.3304 4.40014 19.1353 11.5306 11.9204C18.5094 4.54856 28.3707 0 39.1423 0H309.952C331.495 0 349.094 18.1943 349.094 40.4665Z" fill="#4ACE24"/>
<path d="M348.942 44.074C348.032 53.7985 343.935 62.582 337.715 69.0127C330.585 76.3845 320.875 80.9331 310.104 80.9331H39.1422C18.661 80.9331 1.97265 64.7778 0.1521 44.074C1.06237 34.5063 5.15861 25.7229 11.5305 19.1353C18.661 11.7635 28.3706 7.21497 39.1422 7.21497H309.952C330.281 7.37181 347.121 23.5271 348.942 44.074Z" fill="#35AC2E"/>
<path d="M349.093 47.8383C349.093 58.9745 344.694 69.1695 337.563 76.3845C330.433 83.7563 320.723 88.3048 309.952 88.3048H39.1418C17.5986 88.3048 0 70.1106 0 47.8383C0 46.5835 0 45.3288 0.151712 44.2308C1.97226 64.7778 18.6606 81.0899 39.1418 81.0899H309.952C320.723 81.0899 330.584 76.5413 337.563 69.1695C343.935 62.5819 348.031 53.9553 348.79 44.2308C348.942 45.3288 349.093 46.5835 349.093 47.8383Z" fill="#2C8C2C"/>
<path d="M349.094 40.4665C349.094 41.7213 349.094 42.9761 348.942 44.074C347.121 23.527 330.281 7.37181 309.952 7.37181H39.1423C28.3707 7.37181 18.5094 11.9204 11.5306 19.2922C5.15871 25.7229 1.06247 34.5063 0.152201 44.074C0.000488281 42.9761 0.000488281 41.7213 0.000488281 40.4665C0.000488281 29.3304 4.40014 19.1353 11.5306 11.9204C18.5094 4.54856 28.3707 0 39.1423 0H309.952C331.495 0 349.094 18.1943 349.094 40.4665Z" fill="#71B778"/>
</svg>
