<svg width="177" height="203" viewBox="0 0 177 203" fill="none" xmlns="http://www.w3.org/2000/svg">
<path d="M63.6285 100.017C39.9413 128.175 34.5332 162.377 51.3099 176.531C54.0197 178.932 57.357 180.514 60.8033 181.53C78.3723 186.38 103.924 175.086 123.532 152.252C123.87 152.023 124.003 151.638 124.316 151.228L124.473 151.023C124.473 151.023 124.473 151.023 124.63 150.819C143.382 128.466 150.567 102.124 144.11 85.3156C143.858 84.7971 143.81 84.4354 143.557 83.9168C141.97 80.2632 139.706 77.067 136.611 74.5329C120.039 60.5354 87.3158 71.8585 63.6285 100.017ZM123.209 85.8743C134.41 95.4311 129.698 119.606 112.515 139.911C95.3319 160.217 72.4102 169.138 61.0528 159.786C49.8763 150.41 54.5639 126.055 71.747 105.75C88.9301 85.444 112.033 76.4983 123.209 85.8743Z" fill="#6DD0E7"/>
<path d="M88.1819 188.209L99.566 194.982C91.6205 197.506 86.4856 197.634 86.4856 197.634L69.8232 189.904C69.8232 189.904 70.9562 190.122 72.9931 190.22C76.1388 190.356 81.6112 189.999 88.1819 188.209Z" fill="#6DD0E7"/>
<path d="M105.184 180.439L116.05 187.464C111.949 189.847 107.982 191.844 104.485 193.227L93.6436 186.382C95.38 185.6 97.1164 184.818 99.0097 183.832C101.084 182.821 103.134 181.63 105.184 180.439Z" fill="#6DD0E7"/>
<path d="M120.02 170.196L130.271 176.751C126.832 179.966 123.322 182.638 119.764 184.949L109.261 177.876C113.023 175.722 116.377 173.254 120.02 170.196Z" fill="#6DD0E7"/>
<path d="M133.871 155.299L143.423 162.13C142.952 162.745 142.639 163.154 142.168 163.768C139.187 167.659 136.315 170.983 133.239 174.15L123.325 167.367C126.716 163.79 130.263 160.009 133.871 155.299Z" fill="#6DD0E7"/>
<path d="M145.64 137.182L154.649 144.085C152.33 148.808 149.312 153.807 145.933 158.855L136.538 151.819C139.338 147.952 142.066 143.543 144.927 138.749C145.193 137.978 145.326 137.592 145.64 137.182Z" fill="#6DD0E7"/>
<path d="M153.601 118.098L162.225 124.868C160.991 129.447 159.082 134.484 156.521 140.158L147.874 133.207C150.458 127.713 152.368 122.677 153.601 118.098Z" fill="#6DD0E7"/>
<path d="M153.805 93.2312L165.221 104.415C165.221 104.415 165.673 110.611 163.302 120.493L154.63 113.361C156.544 102.804 154.755 96.2333 154.082 93.9305C153.853 93.5928 153.805 93.2312 153.805 93.2312Z" fill="#6DD0E7"/>
<path d="M120.803 94.1041C120.827 94.2849 121.032 94.4418 121.056 94.6226C121.84 106.11 116.004 121.786 104.383 135.467C95.1643 146.439 84.0439 154.167 74.1572 157.315C73.0723 157.459 71.9873 157.603 70.8784 157.565C70.413 152.659 70.2666 141.823 77.0526 129.15C78.3927 126.764 79.9137 124.355 81.6156 121.922C81.7724 121.717 81.9292 121.513 82.0622 121.127C82.8466 120.103 83.6073 118.899 84.5725 117.851C84.7294 117.646 84.9101 117.622 84.8862 117.441C90.7628 110.408 103.407 97.5107 120.803 94.1041Z" fill="#6DD0E7"/>
<path d="M82.3761 120.718C82.0624 121.127 81.7485 121.537 81.7485 121.537C81.9054 121.332 82.0624 121.127 82.3761 120.718Z" fill="#6DD0E7"/>
<path d="M88.3155 19.0373L32.9473 24.9894L34.8708 42.883L90.2391 36.9309L88.3155 19.0373Z" fill="#6DD0E7"/>
<path d="M49.7056 4.345L55.6577 59.7133L73.5513 57.7897L67.5992 2.42144L49.7056 4.345Z" fill="#6DD0E7"/>
<path d="M34.4419 88.4102L2.74609 84.1235L1.36073 94.3667L33.0566 98.6535L34.4419 88.4102Z" fill="#6DD0E7"/>
<path d="M14.9283 74.9125L10.6416 106.608L20.8849 107.994L25.1716 76.2979L14.9283 74.9125Z" fill="#6DD0E7"/>
</svg>
