<svg width="194" height="214" viewBox="0 0 194 214" fill="none" xmlns="http://www.w3.org/2000/svg">
<path d="M-0.000205994 68.645C-0.000205994 68.645 34.8703 104.817 59.722 81.3961C59.722 81.3961 46.4504 71.6376 43.8481 74.2398C41.376 76.712 45.0191 83.2177 45.1493 83.478C44.6288 82.9575 34.2197 73.9796 37.8629 68.9052C40.7254 64.8717 59.0714 67.9944 81.0607 82.0467L89.2579 75.2808L90.2988 88.5523C93.9419 91.2847 97.5851 94.2774 101.358 97.6603L123.348 20.1125C123.348 20.1125 106.173 7.62163 86.5255 2.41708L84.5738 4.49886V12.1756L80.0198 17.25L82.8823 11.3949L78.9788 2.93748L79.3692 0.725533C70.9118 -0.575605 62.4544 -0.315314 54.9078 3.06764L39.1641 61.6189L40.7254 11.2648C40.7254 11.2648 24.5913 9.83356 19.3867 2.41708L16.5242 41.0608C9.88842 53.5517 -0.000205994 68.645 -0.000205994 68.645Z" fill="#6DD0E7"/>
<path d="M100.448 171.305C121.267 174.428 138.832 171.955 139.873 165.58C140.523 161.286 133.497 156.472 122.568 152.829C121.267 152.438 120.096 152.048 118.664 151.658C119.965 152.048 121.267 152.438 122.568 152.959C129.854 155.691 134.408 158.814 134.018 161.546C133.237 166.1 118.794 167.792 101.489 165.189C84.3143 162.587 70.9126 156.732 71.5632 152.048C72.0836 149.185 78.0689 147.364 86.6564 147.234C86.9166 147.234 87.1768 147.234 87.437 147.234C87.1768 147.234 86.9166 147.234 86.6564 147.234C74.1655 147.234 65.3177 149.836 64.6671 154.26C63.6262 160.375 79.7603 168.052 100.448 171.305Z" fill="#6DD0E7"/>
<path d="M52.5662 168.183C51.6554 167.533 50.8747 166.882 50.094 166.232C50.8747 166.882 51.6554 167.533 52.5662 168.183Z" stroke="white" stroke-miterlimit="10"/>
<path d="M43.7186 155.692C43.7186 156.473 43.8487 157.254 44.1089 158.165C43.9788 157.254 43.8487 156.473 43.7186 155.692Z" stroke="white" stroke-miterlimit="10"/>
<path d="M52.5662 168.183C51.6554 167.533 50.8747 166.882 50.094 166.232C50.8747 166.882 51.6554 167.533 52.5662 168.183Z" stroke="white" stroke-miterlimit="10"/>
<path d="M43.7186 155.692C43.7186 156.473 43.8487 157.254 44.1089 158.165C43.9788 157.254 43.8487 156.473 43.7186 155.692Z" stroke="white" stroke-miterlimit="10"/>
<path d="M7.93704 149.056L31.6177 154.911C33.1791 148.796 38.5138 143.591 46.5808 139.818L26.153 134.353L7.93704 149.056Z" fill="#6DD0E7"/>
<path d="M160.561 186.918L186.844 193.424L194 179.632L169.929 173.126C169.929 173.256 169.929 173.256 169.929 173.387C169.278 178.721 165.895 183.275 160.561 186.918Z" fill="#6DD0E7"/>
<path d="M60.5036 205.526L88.6082 213.202L98.7571 191.864C89.9093 191.734 78.3292 189.522 70.7826 187.96L60.5036 205.526Z" fill="#6DD0E7"/>
<path d="M122.698 126.677L120.876 132.532L124.91 133.703L128.163 128.108L122.698 126.677Z" fill="#6DD0E7"/>
<path d="M132.586 22.9749C132.586 22.9749 143.125 25.447 142.605 27.3987L105.913 159.855C105.913 159.855 97.9758 160.245 95.2434 157.252L132.586 22.9749Z" fill="#6DD0E7"/>
<path d="M31.3576 156.733C31.3576 156.082 31.4877 155.562 31.6178 155.041C33.0491 148.926 38.5138 143.721 46.5809 139.948C62.4548 135.784 77.6781 134.483 90.9497 134.743L89.9088 137.996C88.8679 137.996 87.9571 137.996 86.9162 137.996C86.1355 137.996 85.3548 137.996 84.444 137.996C84.0537 137.996 83.6633 137.996 83.273 137.996C82.8826 137.996 82.4923 137.996 82.102 137.996C81.7116 137.996 81.3213 137.996 80.9309 137.996C80.1502 137.996 79.3696 137.996 78.5889 138.126C77.4179 138.126 76.3769 138.256 75.2059 138.387C74.8156 138.387 74.4252 138.517 74.165 138.517C73.7747 138.517 73.3843 138.647 73.1241 138.647C72.4735 138.777 71.6929 138.777 71.0423 138.907C70.652 138.907 70.3917 139.037 70.0014 139.037C69.611 139.037 69.3508 139.167 68.9605 139.167C68.3099 139.297 67.6593 139.427 67.0088 139.558C66.3582 139.688 65.7076 139.818 65.0571 139.948C64.0161 140.208 63.1053 140.338 62.0644 140.598C61.8042 140.598 61.544 140.729 61.2838 140.859C60.1127 141.119 58.9417 141.509 57.7707 141.9C57.2502 142.03 56.8599 142.29 56.3394 142.42H56.2093C55.819 142.55 55.2985 142.81 54.9082 142.941C54.6479 143.071 54.3877 143.201 54.1275 143.331C53.8673 143.461 53.6071 143.591 53.4769 143.721C53.0866 143.851 52.8263 144.112 52.436 144.242C52.1758 144.372 51.7855 144.502 51.5252 144.762C51.1349 145.022 50.6144 145.283 50.2241 145.543C49.9639 145.803 49.5735 145.933 49.3133 146.193L49.1832 146.323C48.9229 146.584 48.6627 146.714 48.4025 146.974C48.1422 147.234 47.882 147.494 47.6218 147.755C47.4917 147.755 47.4917 147.885 47.4917 147.885C47.3616 148.015 47.1014 148.275 46.8411 148.405C46.5809 148.666 46.4508 148.926 46.1906 149.056C46.1906 149.056 46.1906 149.056 46.1906 149.186C45.8002 149.706 45.4099 150.227 45.1496 150.747L45.0195 150.877C44.8894 151.138 44.7593 151.398 44.6292 151.658C44.6292 151.658 44.6292 151.788 44.4991 151.918C44.3689 152.179 44.369 152.309 44.2389 152.569C44.1087 152.829 44.1087 153.22 43.9786 153.48C43.9786 153.74 43.8485 154.13 43.8485 154.391C43.8485 154.651 43.8485 154.781 43.8485 155.041C43.8485 155.301 43.8485 155.562 43.8485 155.822C43.8485 156.602 43.9786 157.383 44.2389 158.294C44.2389 158.554 44.3689 158.684 44.4991 158.945C44.6292 159.205 44.6292 159.465 44.7593 159.595C44.8894 159.855 45.0195 160.116 45.1496 160.246C45.2797 160.506 45.4099 160.636 45.54 160.896C45.6701 161.156 45.8002 161.417 45.9303 161.547C46.0604 161.807 46.1905 161.937 46.4508 162.197C46.711 162.588 46.9712 162.848 47.2315 163.238C47.3616 163.368 47.4917 163.499 47.6218 163.759C48.0122 164.149 48.4025 164.539 48.7928 164.93C49.1832 165.32 49.5735 165.71 49.9639 165.971C50.094 165.971 50.094 166.101 50.2241 166.101C51.0048 166.751 51.7855 167.402 52.6963 168.053C52.9565 168.313 53.3468 168.443 53.607 168.703C56.3394 170.655 59.7224 172.346 63.3656 174.038C63.7559 174.168 64.0161 174.298 64.4065 174.558C64.5366 174.558 64.5366 174.558 64.6667 174.688C65.057 174.818 65.5775 175.079 65.9678 175.209C66.4883 175.339 66.8786 175.599 67.3991 175.729C68.0497 175.989 68.7002 176.25 69.3508 176.51C70.5218 176.9 71.6929 177.291 72.8639 177.681C73.7747 177.941 74.6855 178.201 75.5963 178.462C76.377 178.722 77.2878 178.982 78.0684 179.112C78.4588 179.242 78.8491 179.372 79.3696 179.503C79.89 179.633 80.5406 179.763 81.061 179.893C83.1429 180.413 85.2247 180.934 87.4366 181.324C88.3474 181.454 89.1281 181.714 90.0389 181.845C90.5593 181.975 90.9497 181.975 91.4701 182.105C92.1207 182.235 92.6412 182.365 93.2917 182.365C93.5519 182.365 93.9423 182.495 94.3327 182.495C94.9832 182.625 95.6338 182.625 96.2844 182.755C97.065 182.885 97.8457 183.016 98.6264 183.016C102.66 183.536 106.693 183.796 110.467 183.926C110.857 183.926 111.247 183.926 111.768 183.926C113.85 183.926 115.801 184.057 117.753 183.926C119.054 183.926 120.225 183.926 121.396 183.796C121.787 183.796 122.177 183.796 122.567 183.796C123.348 183.796 124.129 183.666 124.909 183.666C125.69 183.666 126.341 183.536 127.121 183.536C127.902 183.536 128.553 183.406 129.333 183.276C129.724 183.276 129.984 183.146 130.374 183.146C132.196 182.885 133.757 182.625 135.449 182.365C136.099 182.235 136.75 182.105 137.27 181.975C138.571 181.714 139.872 181.454 141.043 181.064C141.304 180.934 141.564 180.934 141.954 180.804C143.646 180.283 145.337 179.763 146.768 179.112C147.159 178.982 147.549 178.852 147.94 178.592C148.98 178.071 150.021 177.681 150.932 177.16C151.322 176.9 151.713 176.77 151.973 176.51C153.144 175.729 154.185 174.949 155.096 174.038C155.226 173.908 155.356 173.778 155.486 173.647C156.787 172.346 157.698 170.915 158.219 169.484C158.349 169.224 158.349 168.833 158.479 168.573C158.609 168.313 158.609 167.922 158.609 167.662C158.609 167.402 158.609 167.272 158.609 167.012C158.609 166.751 158.609 166.491 158.609 166.231C158.609 165.971 158.609 165.71 158.609 165.45C158.479 164.8 158.349 164.279 158.219 163.629C158.219 163.498 158.088 163.368 158.088 163.238C157.828 162.458 157.438 161.677 157.047 160.896C156.917 160.636 156.787 160.376 156.527 160.116C156.397 159.855 156.137 159.595 156.007 159.335C155.746 159.075 155.486 158.684 155.226 158.424C154.966 158.164 154.705 157.904 154.445 157.643C154.315 157.383 154.055 157.253 153.925 156.993C153.795 156.863 153.665 156.733 153.534 156.603C153.404 156.472 153.144 156.212 152.884 156.082C152.494 155.822 152.233 155.431 151.843 155.171C151.583 154.911 151.192 154.651 150.802 154.391C150.542 154.13 150.151 153.87 149.891 153.74L149.761 153.61C149.501 153.35 149.111 153.089 148.72 152.959C147.94 152.439 147.029 151.918 146.118 151.398C145.728 151.138 145.337 151.008 145.077 150.747C144.166 150.227 143.125 149.706 142.084 149.186C141.564 148.926 141.174 148.666 140.653 148.535C140.133 148.275 139.612 148.015 139.092 147.885C138.701 147.625 138.181 147.495 137.661 147.234C137.4 147.104 137.27 147.104 137.01 146.974C136.62 146.844 136.229 146.714 135.839 146.454C135.058 146.193 134.408 145.933 133.627 145.673C133.237 145.543 132.846 145.413 132.456 145.283C131.675 145.022 130.895 144.762 130.114 144.502C129.724 144.372 129.333 144.242 128.943 144.112C127.902 143.851 126.861 143.461 125.82 143.201C121.526 142.16 117.883 141.639 117.883 141.639L118.924 137.736C121.657 138.256 124.259 138.777 126.861 139.297C131.545 140.338 135.579 141.509 139.352 142.81C145.728 145.022 150.802 147.494 154.966 149.967C154.966 149.967 155.096 149.967 155.096 150.097C161.341 154.26 165.895 158.945 168.367 163.759C168.367 163.889 168.498 164.019 168.498 164.149C169.538 166.231 170.059 168.313 170.189 170.525C170.189 170.915 170.189 171.305 170.189 171.566C170.189 172.086 170.189 172.476 170.059 172.997V173.127C170.059 173.257 170.059 173.257 170.059 173.257C169.408 178.462 166.025 183.016 160.561 186.789C147.809 195.506 123.738 199.67 96.9349 196.417C93.6821 196.027 90.6895 195.507 87.5667 194.986C78.9792 193.425 70.9122 191.083 63.7559 188.35C43.0678 180.674 29.7962 168.573 31.3576 156.733Z" fill="#6DD0E7"/>
</svg>
