<svg width="768" height="102" viewBox="0 0 768 102" fill="none" xmlns="http://www.w3.org/2000/svg">
<g clip-path="url(#clip0_257_6)">
<path fill-rule="evenodd" clip-rule="evenodd" d="M820.364 39.202C814.472 34.5445 811.684 37.1877 807.864 40.8101C804.879 43.6417 801.262 47.0715 795.038 48.0807C794.52 48.4568 793.91 48.7509 793.23 48.9281C792.282 49.1755 791.338 49.1587 790.506 48.9275C782.001 50.8548 782.804 53.2887 786.506 57.7781C792.907 58.1634 797.655 58.4995 797.647 58.6485C797.174 59.1976 796.041 60.2992 794.448 61.7934C796.229 61.5305 798.036 61.3041 799.866 61.1197C800.664 59.6263 802.198 58.42 804.136 57.9144C807.091 57.1439 810.041 58.34 811.192 60.5649C831.855 60.6645 854.039 67.1093 871.659 87.2916C906.18 126.486 870.629 164.413 870.629 164.413C867.585 167.772 864.012 170.416 862.938 171.211L862.937 171.212C867.569 169.997 898.86 158.463 908.639 131.306C918.512 131.194 933.345 134.05 946.771 148.462C960.289 162.252 961.261 177.026 956.293 189.003C956.729 190.34 955.549 193.979 950.252 201.773C927.32 236.605 893.305 221.388 888.766 219.357C888.665 219.312 888.579 219.273 888.508 219.242C906.708 237.867 928.705 233.21 928.705 233.21C912.441 286.744 874.181 289.603 874.181 289.603C862.886 331.161 829.665 338.591 829.665 338.591L813.037 324.335L819.221 344.659C815.991 351.455 802.983 358.361 795.03 362.584L794.915 362.645C788.488 352.461 775.571 328.267 774.47 305.842C774.828 305.577 774.563 305.22 774.563 305.22L784.879 291.5C778.345 311.828 789.246 317.594 789.246 317.594C787.574 301.125 794.952 287.919 803.201 277.388C829.723 274.362 848.503 244.419 848.503 244.419C832.987 261.285 820.35 262.919 811.315 264.087C811.067 264.119 810.822 264.15 810.579 264.182C778.552 265.748 760.338 249.347 760.338 249.347C760.338 249.347 760.245 249.969 759.887 250.234C743.431 236.958 736.254 219.029 736.082 218.05C737.133 234.425 738.806 250.894 743.988 260.892C743.584 261.468 743.204 261.887 742.823 262.307C742.442 262.727 742.062 263.147 741.658 263.723C723.578 295.361 677.69 308.845 674.86 306.513C674.972 305.76 674.857 304.972 674.73 304.112V304.112C674.648 303.552 674.562 302.961 674.531 302.329L674.484 302.086C671.957 288.818 665.526 255.058 641.732 230.321C641.732 230.321 681.072 322.389 605.566 363.875C603.394 364.774 601.406 365.307 599.555 365.805L599.554 365.805L599.553 365.805C598.518 366.083 597.525 366.35 596.566 366.662L596.564 366.662C595.943 366.569 595.322 366.476 594.964 366.74C591.104 367.043 587.604 367.197 584.509 367.333L584.508 367.333C580.897 367.491 577.835 367.626 575.391 367.945C577.957 369.919 599.64 386.521 612.915 382.784C612.915 382.784 607.289 414.06 577.199 432.452C577.199 432.452 589.266 436.803 593.556 433.629C593.556 433.629 589.352 451.126 592.14 460.129C584.24 485.341 553.786 518.944 553.786 518.944C587.364 511.25 601.883 480.033 601.883 480.033C624.788 486.323 652.418 463.11 652.418 463.11C639.129 469.071 625.525 468.625 615.045 466.42C604.565 464.216 596.586 460.159 593.927 458.807C596.844 447.795 610.677 412.66 654.127 404.853C666.366 410.184 688.527 421.451 700.537 434.697C694.446 441.417 685.045 451.14 677.832 452.604L659.76 441.632L668.882 461.441C668.882 461.441 652.59 491.757 609.726 491.382C609.726 491.382 597.044 527.327 541.448 529.181C541.448 529.181 551.449 509.053 537.988 486.368C537.988 486.368 537.323 520.613 519.637 532.594C502.572 544.668 472.011 553.449 453.882 523.705C436.018 494.318 453.282 478.777 453.282 478.777C453.282 478.777 491.929 471.205 497.655 452.028C486.138 458.89 450.094 476.709 415.966 445.524C415.966 445.524 408.996 436.848 408.031 434.796C407.691 434.072 410.684 433.016 415.802 431.21C425.194 427.896 441.742 422.056 457.987 411.109C459.285 409.872 460.493 408.701 461.702 407.53C462.711 406.552 463.72 405.575 464.781 404.559C460.814 408.104 441.011 423.173 418.268 419.474C393.126 415.392 399.918 299.701 495.976 284.506L524.164 285.227L505.506 282.434L482.866 276.501C482.866 276.501 469.74 270.72 485.489 269.58C488.07 269.33 490.558 269.702 493.046 270.074C493.46 260.914 497.149 240.478 517.816 221.311C514.599 223.692 512.719 225.637 512.719 225.637L502.01 231.348L500.238 230.447C500.238 230.447 529.126 177.53 565.342 188.357C572.884 191.076 578.824 193.873 583.07 197.371L582.556 194.432C582.649 193.81 582.648 193.81 582.648 193.81C582.632 193.697 582.617 193.585 582.601 193.474C577.721 191.425 574.555 186.647 574.825 181.256C574.978 178.214 576.435 175.236 578.284 173.15L571.238 165.824L530.895 161.623L531.069 158.145L497.99 156.924L499.642 158.75L499.076 170.052L495.357 174.659L460.994 172.937L460.907 174.676C463.017 176.089 464.191 178.763 464.039 181.806C463.799 186.588 459.688 190.304 454.904 190.064C450.119 189.824 446.401 185.716 446.64 180.934C446.814 177.456 448.706 174.501 451.382 173.327C451.838 172.914 451.86 172.48 451.882 172.045C450.95 171.998 450.011 172.076 449.14 172.149C448.385 172.212 447.681 172.27 447.076 172.24C446.097 170.79 446.312 167.995 446.513 165.373C446.563 164.732 446.611 164.1 446.641 163.502L444.031 163.371L444.445 155.112L437.92 154.785C437.355 157.371 436.463 157.762 433.418 157.61C433.005 157.153 433.027 156.719 433.07 155.849C432.636 155.828 432.657 155.393 432.679 154.958L427.459 154.697L426.329 142.438L350.952 134.127C349.353 134.395 347.891 134.517 346.563 134.532C346.704 135.012 346.845 135.547 346.967 136.125L348.674 136.01L348.789 137.718L347.105 138.175C347.105 138.175 347.289 140.909 347.017 141.957L348.406 142.207L347.861 144.304L346.495 144.396C346.495 144.396 345.631 146.857 345.359 147.905L346.771 148.497L345.838 149.933L344.426 149.341C344.426 149.341 343.835 150.754 343.198 151.484L344.361 153.465L344.042 153.83L343.383 154.218L343.064 154.582L341.924 152.943C341.924 152.943 340.923 153.353 339.603 154.129L339.649 154.812L340.06 155.815L338.74 156.59L338.08 156.978L336.917 154.996C335.916 155.407 334.914 155.818 333.89 155.887L334.005 157.596L334.415 158.598L333.859 159.568C334.599 159.974 335.061 160.49 335.13 161.058C335.183 162.517 332.6 163.734 329.379 163.851C327.003 163.937 324.929 163.371 323.983 162.506L324.105 163.412L324.516 164.414L323.196 165.19L322.536 165.577L321.35 163.254L319.777 160.27L318.139 161.411L318.826 166.514L319.138 167.277C340.926 184.366 366.087 214.756 356.625 256.137C345.204 307.107 293.632 300.622 293.632 300.622C289.126 300.132 284.886 298.794 283.613 298.392L283.613 298.392C287.317 301.427 315.035 319.973 342.75 311.93C348.642 319.854 355.048 333.537 351.279 352.871C348.067 371.915 336.687 381.383 324.079 384.4C323.253 385.539 319.616 386.723 310.198 387.015C268.546 388.924 260.867 352.454 259.843 347.587L259.841 347.578C259.819 347.474 259.8 347.384 259.784 347.31C255.413 372.985 272.106 388.05 272.106 388.05C219.242 406.346 194.447 377.061 194.447 377.061C154.191 392.34 128.659 369.82 128.659 369.82L130.42 347.986L117.613 364.934C110.218 366.313 96.9868 359.844 88.8971 355.889L88.7801 355.831C93.2422 344.646 105.224 319.974 122.718 305.906C123.142 306.04 123.275 305.616 123.275 305.616L140.436 305.902C120.152 312.56 121.894 324.77 121.894 324.77C134.233 313.739 149.251 311.95 162.618 312.439C180.651 332.125 215.91 329.728 215.91 329.728C193.148 327.083 184.4 317.815 178.146 311.189C177.975 311.007 177.805 310.827 177.637 310.649C157.55 285.65 160.115 261.271 160.115 261.271C160.115 261.271 159.557 261.561 159.133 261.427C160.202 240.308 170.488 223.964 171.18 223.249C158.55 233.722 146.21 244.754 141.168 254.823C140.465 254.835 139.901 254.773 139.338 254.712C138.775 254.651 138.211 254.589 137.508 254.601C101.29 258.56 63.4181 229.346 63.641 225.684C64.3166 225.333 64.8858 224.776 65.5072 224.169L65.5074 224.169C65.9121 223.773 66.3391 223.356 66.8319 222.96L67.0017 222.779C73.8856 215.453 88.6837 199.705 98.2865 178.194L96.97 178.022L94.1726 182.33L93.9002 183.378L93.3586 183.281C92.8432 184.958 90.5161 185.1 88.9617 185.195C88.884 185.2 88.8082 185.204 88.7347 185.209L88.3063 185.224C87.0276 185.27 85.7875 185.315 84.5038 185.308C83.9483 185.311 83.3853 185.267 82.8211 185.222C82.1161 185.167 81.4091 185.111 80.7122 185.148C80.1755 185.173 79.6498 185.242 79.1302 185.33C56.5565 205.418 20.8329 224.198 -23.4812 203.312C-25.4844 202.081 -27.084 200.787 -28.574 199.581L-28.5747 199.58L-28.5751 199.58L-28.5771 199.578L-28.58 199.576L-28.5807 199.575L-28.5826 199.574L-28.5848 199.572L-28.5855 199.571L-28.5856 199.571C-29.4155 198.9 -30.2114 198.256 -31.0245 197.666L-31.0252 197.664C-31.3152 197.107 -31.605 196.549 -32.0287 196.415C-34.5421 193.469 -36.7227 190.727 -38.6518 188.301L-38.6519 188.301L-38.6527 188.3C-40.9027 185.471 -42.8104 183.072 -44.5045 181.282C-44.5935 184.519 -45.2829 211.823 -34.459 220.37C-34.459 220.37 -63.0662 234.196 -95.6259 220.652C-95.6259 220.652 -92.0544 232.974 -86.9663 234.581C-86.9663 234.581 -103.591 241.46 -109.236 249.007C-134.273 257.429 -179.351 252.528 -179.351 252.528C-153.396 275.181 -119.611 268.588 -119.611 268.588C-111.241 290.822 -76.2264 299.543 -76.2264 299.543C-88.8577 292.29 -96.4908 281.018 -100.866 271.241C-105.24 261.464 -106.647 252.624 -107.116 249.677L-107.116 249.676C-96.494 245.566 -59.942 236.115 -28.0948 266.693C-25.2149 279.73 -21.3073 304.286 -24.9654 321.789C-33.981 320.809 -47.3705 318.914 -52.7937 313.937L-54.5366 292.863L-65.2016 311.886C-65.2016 311.886 -99.2992 316.515 -124.184 281.604C-124.184 281.604 -160.714 292.463 -194.883 248.558C-194.883 248.558 -172.724 244.824 -162.283 220.599C-162.283 220.599 -190.376 240.185 -210.461 232.911C-230.256 226.196 -255.318 206.623 -241.909 174.472C-228.634 142.746 -205.917 147.585 -205.917 147.585C-205.917 147.585 -177.082 174.413 -158.204 167.779C-170.522 162.49 -206.118 143.79 -200.945 97.8448C-200.945 97.8448 -198.022 87.106 -196.929 85.1189C-196.543 84.4179 -193.93 86.2194 -189.462 89.3005C-181.262 94.9539 -166.814 104.915 -148.413 111.63C-146.649 111.953 -144.992 112.243 -143.335 112.533C-141.951 112.775 -140.567 113.017 -139.121 113.279C-144.32 112.151 -168.147 104.98 -178.519 84.4003C-189.991 61.654 -92.4106 -0.832074 -23.6722 67.9797L-16.3181 78.6733C-16.5392 76.9111 -16.6848 75.1254 -16.8091 73.4172L-20.8175 63.1377C-21.2594 63.4327 -21.7569 63.8643 -22.3181 64.4477C-22.0106 63.5721 -21.6647 62.7344 -21.2874 61.9327L-24.901 52.6655C-24.901 52.6655 -27.9373 38.6461 -17.7603 50.7215C-16.9131 51.6789 -16.2014 52.7069 -15.5584 53.7706C-13.4634 51.587 -11.3197 49.8622 -9.58763 48.4686C-8.26939 47.4079 -7.18956 46.5391 -6.55098 45.8058C-4.65089 43.6237 -2.65199 33.662 -1.64153 28.0049C-1.41942 26.898 0.0697479 26.5944 0.636673 27.6667C3.0045 32.0788 7.9399 38.8908 17.0641 39.684C27.9666 40.6538 36.778 31.0299 39.7115 27.4829C40.0892 27.0688 40.8561 27.2579 40.9117 27.8279C41.3246 30.662 42.5147 36.3459 45.6898 39.3197C48.4318 39.528 51.2938 39.8403 54.2028 40.2916C64.3951 35.8003 86.2796 16.0139 92.9865 9.74362C93.3532 9.44136 93.7645 9.82079 93.5089 10.1341C83.4387 25.4611 77.5336 37.1468 74.3231 46.1242C79.5815 48.5967 84.3859 51.8833 88.2161 56.2323C89.5236 53.2574 91.158 50.4355 93.231 47.8688C94.6275 46.2097 96.1315 44.6791 97.743 43.277C98.0202 43.0328 98.2994 42.7675 98.5838 42.4972C99.5569 41.5722 100.592 40.5888 101.823 40.1925C102.412 40.0359 103.068 40.1608 103.655 40.2726C103.736 40.288 103.815 40.3032 103.894 40.3174C104.333 40.3863 104.761 40.4244 105.189 40.4625C105.617 40.5006 106.044 40.5387 106.484 40.6076C107.369 40.6864 108.12 40.9316 108.658 41.574C109.268 40.7366 109.942 39.8454 110.61 39.0133C110.336 38.7511 110.132 38.3762 110.11 37.9581C110.071 37.6019 109.954 37.2853 109.839 36.9749C109.664 36.5006 109.495 36.0409 109.617 35.4768C109.808 34.6616 109.995 33.9054 110.299 33.1597C111.083 31.0299 112.098 28.9802 113.613 27.3317C113.593 25.5465 114.84 24.2308 116.512 23.488C117.296 23.1796 118.223 23.4733 118.994 23.7174L119.093 23.7488C119.136 23.7624 119.179 23.7757 119.22 23.7887C119.392 23.8634 119.622 23.9433 119.853 24.0232L119.854 24.0234L119.913 24.0287C120.083 23.4494 120.608 22.9016 121.321 22.9057C121.975 22.9045 122.539 23.252 122.974 23.7069C124.224 23.6993 125.409 23.7454 126.578 23.9684C128.332 24.303 130.152 25.2379 131.473 26.4257C131.604 26.5392 131.739 26.6533 131.877 26.7693L131.879 26.7708C132.384 27.1954 132.92 27.6465 133.338 28.1968C133.723 27.8744 134.05 27.5468 134.376 27.2192C134.413 27.1803 134.455 27.1333 134.5 27.082C134.775 26.7726 135.188 26.3063 135.63 26.4986C136.145 26.7228 136.854 27.4399 137.107 27.938C137.204 28.1845 137.178 28.4794 137.033 28.7638C138.01 29.148 139.138 29.8429 139.67 30.5442C140.115 31.1259 139.467 31.6446 138.957 32.0534C138.795 32.1826 138.648 32.3007 138.553 32.4065C137.881 33.0799 138.358 33.7161 138.815 34.3256C139.025 34.6056 139.231 34.8801 139.319 35.1499C139.411 35.4553 139.256 35.8577 139.112 36.1421C138.749 36.8825 138.091 37.5967 137.394 38.0698C137.744 38.8143 137.917 39.5431 136.975 40.113C135.646 41.0054 134.194 41.2921 132.719 41.1607C132.66 41.1555 132.595 41.2092 132.59 41.2682C131.906 42.2773 132.299 43.204 132.805 44.2003C133.165 44.8268 133.628 45.6409 133.093 46.3066C132.909 46.536 132.597 46.6128 132.3 46.6861C132.166 46.7191 132.035 46.7514 131.92 46.7966C131.007 47.0704 130.941 47.5189 130.864 48.0412C130.838 48.2185 130.811 48.4043 130.749 48.5946C132.047 48.7102 133.763 48.8036 133.81 48.2728C133.884 47.4471 134.141 47.2322 134.966 47.3057L139.627 47.7208L139.659 47.367C139.722 46.6592 139.769 46.1284 139.28 45.6092C137.81 45.4189 136.282 45.2233 134.807 45.0919C134.158 45.0341 134.2 44.5623 134.252 43.9725L134.256 43.9316C134.26 43.8756 134.264 43.8068 134.268 43.729C134.3 43.1741 134.358 42.1538 134.731 41.9345C135.023 41.7751 135.655 41.8628 136.115 41.9266C136.18 41.9357 136.242 41.9443 136.299 41.9516C136.335 41.9562 136.369 41.9603 136.401 41.9637C136.419 41.9657 136.436 41.9674 136.453 41.9689L138.989 42.1948C139.012 41.9429 139.074 41.7378 139.144 41.5028C139.156 41.4627 139.169 41.4218 139.181 41.3796L139.245 41.3259L139.266 41.3219C139.702 41.2383 140.702 41.0462 140.956 41.4783C141.107 41.7888 141.198 42.094 141.29 42.3992L141.29 42.3998L143.296 42.5784C144.969 42.4896 146.637 42.4598 148.219 42.7197C148.219 42.7197 148.278 42.7249 148.273 42.7839C148.209 43.5011 147.829 44.0077 147.44 44.5267L147.44 44.527C147.285 44.7335 147.129 44.942 146.991 45.1665C146.504 45.9554 145.944 47.5701 147.344 47.8731C148.042 48.0541 148.272 48.1342 148.289 48.6112L148.211 49.496C149.224 49.4673 150.286 49.5619 151.289 49.6512C151.643 49.6828 151.697 49.747 151.671 50.0419C151.714 50.2241 151.703 50.3421 151.688 50.519C152.071 50.5532 152.441 50.5712 152.811 50.5893C153.181 50.6074 153.551 50.6255 153.935 50.6597C153.95 50.4828 154.025 50.3111 154.1 50.1394C154.138 50.0109 154.159 49.9394 154.207 49.9028C154.267 49.857 154.368 49.866 154.598 49.8865C156.373 49.9851 158.201 50.148 159.97 50.3055L159.971 50.3056L159.971 50.3056L159.971 50.3056L159.971 50.3056L159.972 50.3057L159.972 50.3057L159.972 50.3057C160.472 50.3502 160.506 50.3006 160.735 49.9683L160.781 49.9022C160.99 49.5641 161.198 49.2259 161.466 48.8931C161.482 48.8733 161.497 48.8545 161.511 48.8367L161.52 48.8255L161.528 48.8152L161.529 48.8134C161.737 48.5508 161.774 48.5044 162.151 48.538C164.999 48.6133 167.954 48.8171 170.765 49.3052C171.119 49.3367 171.221 49.5242 171.185 49.937L171.111 50.7628C171.63 50.274 172.214 49.7315 172.787 49.3069C172.909 49.2313 172.972 49.1924 173.037 49.1888C173.105 49.1849 173.177 49.221 173.323 49.2952C173.951 49.589 173.946 49.6479 173.914 50.0018C173.852 50.7024 173.774 51.4161 173.695 52.1371L173.695 52.1375C173.614 52.8732 173.533 53.6165 173.467 54.3611C173.429 54.7834 173.666 54.8015 174.096 54.8346C174.147 54.8385 174.2 54.8426 174.256 54.8475L188.238 56.0929C188.24 56.7469 188.182 57.3957 188.049 58.2162C188.044 58.2752 187.985 58.2699 187.985 58.2699C186.416 58.1301 184.853 57.9975 183.292 57.8651L183.289 57.8649L183.287 57.8647L183.285 57.8645L183.282 57.8643L183.28 57.864L183.278 57.8638L183.275 57.8636L183.273 57.8634C180.145 57.598 177.025 57.3334 173.885 57.014C173.826 57.0088 173.51 57.2184 173.445 57.2721C173.194 57.4281 172.952 57.466 172.893 57.4608C170.882 57.3411 169.702 57.236 168.115 57.0351C167.896 57.4912 167.536 57.5187 167.418 57.5082L163.112 57.1246C163.224 57.1941 163.278 57.2583 163.385 57.3868C163.669 57.7687 163.737 58.1843 163.806 58.6C163.84 58.8078 163.875 59.0156 163.936 59.2192C163.994 59.4626 164.057 59.6895 164.119 59.9095L164.119 59.9097C164.288 60.5131 164.442 61.0641 164.423 61.7594C164.424 61.8605 164.426 61.9702 164.428 62.0858C164.441 62.7187 164.458 63.5281 164.16 64.0544C163.888 64.4956 163.718 64.9902 163.552 65.4757C163.209 66.4786 162.879 67.4427 161.684 67.8169C161.129 68.0029 160.571 68.0173 160.004 68.032C159.569 68.0433 159.129 68.0547 158.681 68.144C158.499 68.1872 158.304 68.2144 158.108 68.2415C157.912 68.2687 157.717 68.2958 157.534 68.3391C157.633 69.2395 157.672 70.1347 157.367 70.8805C157.047 71.5935 156.548 72.1674 156.047 72.7428L156.047 72.743C155.504 73.3668 154.959 73.9924 154.64 74.7989C154.502 75.1718 154.337 75.5107 154.147 75.8196C164.743 77.7806 173.797 80.7528 181.531 84.3366L180.98 80.7023L182.891 78.5138L185.623 78.3298L185.577 77.6463L192.384 76.8446L192.43 77.5281L194.479 77.3901L194.387 76.0231L193.704 76.0691L193.612 74.7021L191.221 74.8631L191.152 73.8378L189.445 73.9528L189.284 71.5605L190.991 71.4456L190.83 69.0533L192.196 68.9613L192.311 70.6701L199.118 69.8683L199.026 68.5013L207.199 67.6076L207.13 66.5824L207.767 65.8529C207.767 65.8529 209.064 64.7356 209.04 64.3939C209.359 64.0291 210.748 64.2789 210.748 64.2789L210.817 65.3041L225.727 62.5835C225.727 62.5835 226.046 62.2187 227.07 62.1497C227.435 62.4685 227.458 62.8102 227.458 62.8102C227.458 62.8102 235.266 61.5978 235.608 61.5748C235.949 61.5518 236.018 62.577 236.018 62.577L257.689 58.3712L257.643 57.6877L260.352 57.1619L260.989 56.4324L261.15 58.8247L258.51 60.3757C258.487 60.0339 236.839 64.5816 236.839 64.5816L236.567 65.6298L233.858 66.1556L233.973 67.8643L230.65 69.4613L229.307 69.8951L229.376 70.9203L223.594 71.653L223.229 71.3343L222.228 71.745L214.032 72.297L208.913 77.7912L209.439 80.5023L214.085 83.2791L222.941 82.3394L226.694 76.9371L241.355 75.6065L242.202 83.102L273.717 81.8831L273.745 79.8952L275.465 79.919L275.439 81.8165L278.127 81.7125L282.018 78.3608L286.435 77.72L286.55 79.4288L282.793 79.6818L278.902 83.0335L280.019 84.3316L284.754 83.3261L285.187 84.6701L294.315 82.6822L294.269 81.9986L302.737 80.3984L303.217 82.426L305.768 81.9013L305.887 73.2557L311.909 73.3389L311.833 78.8448L316.529 77.7945C317.395 74.0645 318.188 70.3624 318.24 66.5575L318.285 63.3384L318.3 62.2653L319.16 62.2772C319.169 61.6334 319.393 60.9925 319.614 60.5662L314.715 57.0641L314.933 56.8525L314.727 56.2057L313.66 55.547L313.663 55.3324L312.173 54.2385L308.34 51.3951L308.561 50.9688L312.396 53.5976L313.887 54.6915L314.102 54.6945L316.232 56.2265L317.092 56.2384L317.31 56.0267L317.522 56.2443L317.74 56.0326L319.443 57.3441L319.661 57.1325L319.873 57.35C319.873 57.35 320.094 56.9238 320.53 56.5005C320.748 56.2889 320.961 56.5064 320.961 56.5064L321.173 56.724C321.385 56.9416 321.167 57.1532 321.167 57.1532L320.728 57.7911L321.155 58.0117L321.149 58.4409L321.37 58.0147L322.009 58.4528C322.657 58.2471 323.305 58.0414 324.166 58.0533C326.747 58.089 328.87 60.0502 328.835 62.6255L329.695 62.6374L329.591 70.1488L331.527 70.1755L331.957 70.1815L332.096 60.0947L341.129 60.2195L346.487 69.8304L350.256 69.0989L350.347 62.4934L350.753 51.4956L365.808 51.7036L365.431 60.5553L365.405 62.4868L365.402 62.7014L365.372 64.8475C365.369 65.0621 365.578 65.4943 366.008 65.5003L366.224 65.5032L366.28 61.4256L372.517 61.5118L372.457 65.804L372.888 65.8099L372.973 59.5862L378.35 59.6605L378.264 65.8842L378.909 65.8931L379.341 58.2312L382.782 58.2788L382.353 65.7261L383.214 65.738L383.719 52.7107L387.16 52.7583L386.655 65.7855L387.515 65.7974L387.946 58.1355L391.387 58.183L390.956 65.8449L393.967 65.8865L393.899 70.8226C393.897 70.9085 393.93 71.0292 393.998 71.1435C394.638 71.2568 395.278 71.3738 395.919 71.4944L409.159 71.6774L409.374 74.4651C414.1 75.6318 418.846 76.9016 423.624 78.1802L423.63 78.1817C426.589 78.9735 429.561 79.7686 432.548 80.5448C433.028 77.5427 435.659 75.2633 438.794 75.3066C440.729 75.3333 442.223 76.2125 443.495 77.518L445.016 76.4658L445.228 76.6834L445.446 76.4717L445.658 76.6893L446.515 76.9158L448.687 75.4432L448.902 75.4462L450.422 74.394L454.105 72.513L454.314 72.9452L450.404 75.6816L448.884 76.7339L448.881 76.9485L448.012 77.5804L448.006 78.0097L448.218 78.2272L444.959 80.5434C444.956 80.758 445.007 80.9734 445.058 81.1887L445.058 81.1894C445.109 81.4046 445.16 81.6197 445.157 81.8341L449.673 81.8965L449.635 84.6544C452.102 85.1704 454.653 85.6645 457.282 86.1381C457.307 86.1189 457.333 86.0999 457.359 86.081L457.365 85.6518L458.87 85.6726L459.086 85.6756L459.946 85.6875C460.161 85.6904 460.164 85.4758 460.164 85.4758L460.889 79.6902L460.892 79.4756L460.68 79.258C460.895 79.261 460.898 79.0464 460.898 79.0464L461.375 75.6185L461.378 75.4039L461.166 75.1863C461.381 75.1893 461.384 74.9747 461.384 74.9747L461.641 71.9731L461.644 71.7585L461.429 71.7555C461.644 71.7585 461.647 71.5439 461.65 71.3293L461.88 70.2592L463.17 70.277L463.37 71.3531C463.367 71.5677 463.579 71.7853 463.579 71.7853C463.579 71.7853 463.364 71.7823 463.361 71.9969L463.358 72.2115L463.532 75.219C463.529 75.4336 463.744 75.4366 463.959 75.4396C463.852 75.4381 463.798 75.4374 463.771 75.4639C463.761 75.4734 463.754 75.4865 463.75 75.5044C463.749 75.5108 463.747 75.5178 463.746 75.5255C463.746 75.5298 463.745 75.5343 463.745 75.5391C463.742 75.5677 463.742 75.6043 463.741 75.6512L463.738 75.8658L463.906 79.3026C463.903 79.5172 464.118 79.5202 464.333 79.5231C464.333 79.5231 464.118 79.5202 464.115 79.7348L464.112 79.9494L464.465 85.5353C464.462 85.7499 464.677 85.7528 464.892 85.7558L472.204 85.8568L472.419 85.8598L472.638 85.6482L472.664 83.7167C472.667 83.502 472.455 83.2845 472.24 83.2815L471.38 83.2696L471.46 77.4751L475.116 77.5256L475.036 83.3201L473.745 83.3023C473.53 83.2993 473.53 83.2993 473.527 83.5139L473.524 83.7285L473.498 85.6601C473.495 85.8747 473.71 85.8776 473.71 85.8776L477.366 85.9281C477.581 85.9311 477.581 85.9311 477.584 85.7165L477.799 85.7195L478.659 85.7314C478.874 85.7343 478.874 85.7343 478.877 85.5197L479.089 85.7373L480.81 85.7611L480.804 86.1903L480.159 86.1814C481.013 86.6225 481.646 87.4899 481.847 88.5659C487.883 87.576 493.278 86.3626 497.164 85.3431C504.288 83.5096 521.537 80.5281 526.495 79.738L515.705 93.0926C532.569 94.4374 550.12 95.4653 567.302 96.3508C567.314 96.3178 567.327 96.285 567.341 96.2522C567.349 96.2341 567.357 96.216 567.365 96.1979C566.613 96.0288 565.937 95.8443 565.662 95.2613C565.171 94.402 565.479 93.5432 566.048 92.7919C565.603 92.5616 565.128 92.1778 564.974 91.8096C564.591 91.0885 565.038 90.1224 565.622 89.4478C565.192 89.2942 564.716 88.9104 564.625 88.4502C564.426 87.4531 565.041 86.5331 565.886 85.9661L562.969 86.5472C562.713 86.5981 562.442 86.6644 562.163 86.7326C561.437 86.9101 560.658 87.1006 559.959 87.067C559.637 87.0514 559.591 86.8213 559.53 86.5145C558.301 86.7592 557.149 86.9886 555.936 87.31C555.746 87.3479 555.603 87.4852 555.449 87.6322C555.231 87.8413 554.993 88.07 554.569 88.0608C554.001 88.0144 553.31 87.7533 552.773 87.4615C552.62 87.38 552.493 87.3067 552.383 87.2424L552.382 87.2419C551.783 86.8949 551.638 86.8105 550.148 87.1072L547.461 87.6424C545.616 88.0099 543.779 88.3503 541.944 88.6902L541.943 88.6905C539.196 89.1994 536.454 89.7072 533.702 90.3033L533.633 90.317L533.574 90.3293C532.909 90.4658 532.709 90.5069 532.551 89.3363C532.513 89.0358 532.447 88.8076 532.396 88.63L532.396 88.6289L532.395 88.6281C532.261 88.1635 532.227 88.0452 533.059 87.8794C538.941 86.5484 544.945 85.4322 550.873 84.3313C551.948 84.1172 552.209 83.8259 552.026 82.9054C551.736 81.4481 551.522 79.9754 551.309 78.5028C551.248 78.196 551.326 77.3831 551.464 77.2758C551.98 76.7368 552.196 76.8905 552.522 77.1227C552.613 77.1877 552.713 77.2588 552.83 77.3226C552.961 77.3764 553.076 77.4531 553.191 77.5299C553.306 77.6066 553.421 77.6834 553.551 77.7372L554.288 78.2284C554.189 77.3623 554.524 77.2981 555.244 77.1599L555.329 77.1436L555.372 77.1352L555.425 77.1247L556.905 76.8033L556.917 76.8007C560.781 75.9613 564.253 75.2069 565.683 74.922C566.85 74.7693 567.464 75.0457 567.847 75.7669C568.027 75.9983 568.164 76.2942 568.284 76.5555L568.286 76.5586L568.294 76.5756L568.322 76.6376L568.353 76.7029C568.766 77.5774 569.104 77.6696 570.548 77.3024C572.452 76.8433 574.433 76.369 576.353 75.9867C577.069 75.8439 577.117 75.9053 577.26 76.0894C577.332 76.1815 577.427 76.3043 577.642 76.4476C577.918 76.6318 578.179 76.7393 578.332 76.7088C578.778 76.5403 579.162 76.4638 579.546 76.3874C580.34 76.2291 580.353 76.1507 580.395 75.8856C580.415 75.7665 580.44 75.6097 580.545 75.3909C580.606 75.2989 580.821 75.1763 581.282 75.0846C581.937 74.9009 582.606 74.7854 583.275 74.6699C583.609 74.6122 583.944 74.5544 584.276 74.4881L584.295 74.4846L584.326 74.4789C584.578 74.4342 585.052 74.3496 584.953 73.4762C584.892 72.7706 585.323 72.5254 586.152 72.2805C587.127 71.9373 587.111 71.861 586.931 70.9784L586.929 70.9685C586.917 70.9087 586.904 70.8452 586.891 70.7777C586.6 69.3203 586.218 67.8016 584.975 67.1719C584.622 67.003 583.656 65.76 585.069 65.6381C585.86 65.6002 586.666 65.5393 587.472 65.4785C588.278 65.4176 589.084 65.3567 589.875 65.3188C590.339 65.311 590.82 65.2773 591.311 65.2429L591.312 65.2428C591.748 65.2123 592.191 65.1812 592.639 65.1671C593.652 65.045 593.867 64.9224 593.745 64.3088C593.653 63.5013 593.778 63.4821 594.159 63.4232C594.203 63.4163 594.252 63.4088 594.304 63.3995L594.341 63.3925L594.36 63.3888C594.59 63.3429 594.805 63.32 595.02 63.2971C595.235 63.2743 595.45 63.2514 595.681 63.2055C596.498 63.0428 596.567 63.2528 596.751 63.8083L596.77 63.8657C596.831 64.1725 597.614 64.4951 597.921 64.4339L597.921 64.4338C599.15 64.1892 600.455 63.9292 601.698 63.7612C602.789 63.6238 603.003 63.9001 603.248 64.7285C603.401 65.0967 603.508 65.6337 603.538 66.1859C603.69 67.3517 603.506 67.6277 602.354 67.8571C601.304 68.1042 600.579 68.2685 599.887 68.4253L599.885 68.4257C599.121 68.5989 598.397 68.7631 597.317 69.0199C596.396 69.2034 596.196 69.8015 596.455 71.1054C596.593 71.7958 597.176 71.9188 597.867 71.7812C599.157 71.4445 600.554 71.2459 601.952 71.0473C603.346 70.8451 603.366 70.9164 603.572 71.6255L603.591 71.6935L603.609 71.7539C603.793 72.2755 604.222 72.4292 605.067 72.2609L609.52 71.3739C609.137 70.6528 608.616 70.0389 607.802 69.9617C607.74 69.9566 607.675 69.9521 607.608 69.9474C607.064 69.9096 606.391 69.8627 606.022 69.4392C605.608 68.9634 605.762 68.1352 605.963 67.5371L606.017 67.3998C606.065 67.28 606.112 67.1625 606.158 67.047C606.557 66.0549 606.899 65.2024 606.979 64.2245L605.981 64.4234C604.046 64.729 602.329 62.918 601.332 61.5216C601.088 61.2065 600.858 60.9015 600.633 60.6028L600.622 60.5884L600.617 60.5821L600.617 60.5815L600.616 60.5807C600.059 59.8402 599.53 59.1386 598.879 58.4217L598.823 58.3656L598.761 58.305C598.331 57.8827 597.616 57.1805 597.714 56.5803C597.884 55.43 598.653 54.4795 599.422 53.5289L598.226 52.3318C597.827 51.9327 597.305 51.3189 597.26 50.69C597.216 49.2634 599.044 48.022 600.411 47.2713C600.357 47.2022 600.308 47.1523 600.258 47.1023L600.257 47.1018C600.208 47.0521 600.158 47.0024 600.104 46.9336C600.012 46.8722 599.997 46.7955 600.059 46.7035C600.257 46.3387 600.548 46.0661 600.859 45.7748L600.86 45.774C601.006 45.637 601.156 45.4959 601.304 45.3391C601.316 45.3213 601.328 45.3021 601.341 45.2817L601.383 45.2164C601.58 44.9099 601.892 44.4245 602.226 44.358C602.917 44.2203 603.837 44.8344 604.436 45.433C605.383 44.0156 606.986 42.9262 608.376 41.9815L608.383 41.9768L608.637 41.8041L608.8 41.6929C610.828 40.2522 613.101 39.2412 615.558 38.7518C617.77 38.2316 620.595 37.9878 623.082 38.4495C623.865 37.9744 624.726 37.4841 625.539 37.5613C626.767 37.7154 627.887 38.529 628.838 39.2965C631.4 41.3381 633.239 44.5603 634.387 47.5214C635.704 50.9274 636.161 54.4249 635.451 58.0751C635.281 58.8262 635.02 59.516 634.758 60.2057L634.758 60.2068C635.402 60.6367 636.231 60.7906 637.137 60.9292C638.513 61.0313 639.576 60.6276 640.815 60.1569L641.037 60.0725C642.681 59.5059 643.923 60.1355 645.274 60.9033C648.238 60.1534 652.275 60.7847 654.068 63.378C654.901 64.5445 654.876 66.16 654.853 67.6349C654.848 67.9257 654.844 68.211 654.846 68.4863L654.849 68.5003C654.85 68.5071 654.851 68.5137 654.851 68.5203C654.859 68.5817 654.852 68.6337 654.846 68.6858C654.838 68.7471 654.83 68.8084 654.846 68.8851C656.58 70.669 658.077 72.7459 659.397 74.8338C661.122 73.0377 663.545 71.2105 665.87 71.844C666.577 72.0192 667.189 72.3389 667.801 72.6586C668.354 71.5855 669.407 69.932 671.209 68.1917L668.702 67.7863C662.958 64.9198 664.558 63.118 668.788 66.2472L672.675 66.902C673.399 66.3217 674.211 65.7451 675.121 65.1901C660.689 60.4538 667.987 42.6621 689.211 48.1955L690.477 44.7837L687.057 44.035C686.945 43.9298 686.812 43.8211 686.679 43.7124C686.617 43.6615 686.555 43.6106 686.495 43.5601C686.426 43.5027 686.361 43.4457 686.301 43.3897C679.745 42.3287 673.185 41.2888 666.636 40.2507C660.15 39.2225 653.675 38.196 647.223 37.1521C647.294 36.7325 647.365 36.3128 647.505 35.9913L682.406 41.8704L687.031 42.6496C687.207 42.5961 687.392 42.5355 687.584 42.4728L687.586 42.472C687.992 42.3392 688.427 42.1971 688.855 42.0936C689.149 42.1432 689.44 42.2138 689.731 42.2843C690.021 42.3549 690.312 42.4254 690.607 42.475C690.838 42.3845 691.087 42.3186 691.336 42.2526C691.585 42.1867 691.834 42.1207 692.065 42.0302C692.584 42.0313 693.004 42.1021 693.425 42.173L694.014 42.2721C694.392 42.5948 694.686 42.9032 695.05 43.3098C695.421 43.4154 695.767 43.5385 696.114 43.6615L696.115 43.6618L696.115 43.6621C696.462 43.7852 696.809 43.9082 697.18 44.0139C697.329 44.1417 697.481 44.2563 697.629 44.3673L697.629 44.3678C697.853 44.5368 698.067 44.6976 698.244 44.8836C700.441 45.2537 702.62 45.599 704.789 45.9427L704.79 45.9429L704.792 45.9431C706.939 46.2834 709.076 46.622 711.209 46.9814C718.938 48.2833 726.612 49.51 734.337 50.7369C733.86 42.1091 727.988 27.958 706.912 3.79281C706.637 3.53661 706.968 3.13556 707.343 3.36761C715.049 8.82059 741.951 27.1713 749.605 27.0564C756.73 26.9606 757.519 17.3279 757.553 13.4564C757.533 12.9248 758.215 12.6541 758.615 12.9877C761.761 15.8832 771.083 23.6323 780.997 21.3668C789.296 19.4877 792.981 12.596 794.605 8.23653C794.992 7.17809 796.401 7.2701 796.745 8.26098C798.387 13.341 801.481 22.2588 803.504 24.0281C804.184 24.6227 805.288 25.2864 806.635 26.0967C810.631 28.5011 816.773 32.1957 820.364 39.202ZM734.369 51.8324C734.37 52.0092 734.368 52.1835 734.364 52.3554C733.778 52.0657 733.123 51.775 732.4 51.5013L734.369 51.8324ZM589.147 165.208C589.147 165.208 588.97 165.461 588.673 165.956L589.028 158.871L589.03 158.871C590.701 158.907 592.373 158.943 594.044 158.978C592.41 160.964 590.777 163.04 589.147 165.208ZM326.071 159.2C324.98 159.545 324.144 160.04 323.729 160.615L323.419 158.309L325.08 157.51L326.071 159.2ZM326.625 159.043C327.091 158.926 327.592 158.834 328.119 158.773L327.812 157.326C327.129 157.372 326.105 157.441 325.399 157.145L326.625 159.043ZM332.641 159.076C331.733 158.809 330.631 158.663 329.426 158.685L329.155 156.892L331.545 156.731L331.956 157.734L332.641 159.076ZM723.25 49.9791C719.242 50.0558 714.439 51.0224 708.867 53.6141C708.127 53.4192 707.386 53.2249 706.645 53.0312C706.94 52.3042 707.25 51.4932 707.475 50.668C706.471 49.1157 703.873 48.5519 701.309 47.9955C700.193 47.7533 699.083 47.5126 698.115 47.1923C697.674 47.0359 697.173 46.9301 696.674 46.825C695.603 46.599 694.546 46.3759 694.135 45.6588C704.143 46.9342 713.6 48.3957 723.25 49.9791ZM93.1271 180.759C93.1813 180.866 93.2298 180.976 93.2724 181.088L94.1036 181.305L95.673 179.139C95.3315 179.162 95.3085 178.82 95.3085 178.82L94.5335 177.499C94.3885 177.509 94.305 177.515 94.2326 177.546C94.1346 177.588 94.0567 177.677 93.8736 177.887L93.1271 180.759ZM91.6944 179.349C91.9978 179.49 92.2673 179.679 92.4996 179.903L92.8491 177.956C92.3484 178.162 91.9272 178.276 91.5061 178.39C91.085 178.504 90.6639 178.618 90.1632 178.824L89.9745 179.04C90.5831 179.036 91.1893 179.093 91.6944 179.349ZM96.2834 172.919L94.2162 169.805L94.3303 169.669L96.2604 172.577L98.6056 169.891L98.8312 170.001C98.2173 171.072 97.2618 172.166 96.2834 172.919ZM98.6056 169.891L95.4315 168.349C95.4966 168.27 95.5615 168.191 95.626 168.113L98.8082 169.659L98.6056 169.891ZM97.4459 174.9C99.0424 173.789 100.293 172.375 101.218 170.975C100.371 173.29 99.4558 175.548 98.4854 177.746L97.6299 177.634L98.2899 177.246C98.6084 176.882 98.5854 176.54 98.2209 176.221L97.4459 174.9ZM315.428 164.467C315.038 164.182 314.651 163.901 314.265 163.625L314.839 163.349L315.428 164.467ZM316.248 165.071C316.562 165.304 316.877 165.54 317.193 165.779L317.732 165.558L317.091 161.138L319.731 159.587L321.692 163.231L322.693 162.82L322.053 158.401L324.033 157.237C318.158 156.603 315.242 154.053 315.242 154.053L308.413 154.513C309.932 155.451 310.974 156.801 311.601 158.327C313.123 158.342 314.385 158.834 314.412 159.565C314.434 160.158 313.507 160.711 312.262 160.929C312.275 161.043 312.287 161.156 312.296 161.27C312.302 161.333 312.306 161.397 312.311 161.46C312.318 161.568 312.326 161.684 312.333 161.806C312.341 161.957 312.348 162.117 312.351 162.281C312.728 162.542 313.108 162.806 313.491 163.076L314.77 162.324L316.248 165.071ZM157.393 55.9019C155.83 56.708 155.01 58.1584 154.172 59.6414C153.64 60.5832 153.101 61.5381 152.359 62.3495C151.829 62.9562 150.945 63.5314 150.195 63.9402C149.445 64.349 149.07 64.5534 148.908 63.7066C148.783 63.1011 148.66 60.4744 148.718 59.8256C148.745 59.5307 148.825 59.3001 149.012 59.1979C149.641 58.6722 149.643 57.7874 149.646 56.929C149.648 56.4713 149.649 56.0211 149.745 55.6369C149.841 55.2293 150.575 54.9974 151.058 54.9215L151.121 54.2137C151.137 54.0368 151.27 53.8703 151.437 54.0041C151.657 54.202 151.738 54.6254 151.766 54.9845C152.369 55.0382 153.738 55.1774 155.004 55.306L155.006 55.3062L155.011 55.3068C156.096 55.417 157.102 55.5193 157.483 55.5532C158.009 55.6595 157.698 55.8102 157.393 55.9019ZM585.44 92.3586C585.469 93.3096 585.285 93.1868 584.718 92.7416C583.998 92.2051 583.134 91.8134 582.296 91.4336L582.295 91.4334C582.15 91.3677 582.006 91.3024 581.863 91.2367C581.27 90.9296 580.854 90.4453 580.439 89.961C580.231 89.7189 580.023 89.4768 579.793 89.2568C578.704 88.1978 577.677 87.0467 576.649 85.8957C575.836 85.0209 574.977 84.7136 573.964 84.4369C573.289 84.2525 572.936 84.0835 573.857 83.9L580 82.6765C580.691 82.5389 580.921 82.493 581.044 81.9102C581.055 81.8257 581.068 81.7502 581.081 81.6776C581.086 81.6449 581.092 81.6127 581.098 81.5805C581.118 81.4769 581.137 81.3734 581.153 81.2507C581.342 80.4444 581.742 81.0044 581.982 81.3412L582.018 81.3907C582.029 81.4064 582.04 81.4213 582.05 81.4352C582.058 81.4461 582.066 81.4564 582.073 81.466C582.395 81.8803 582.687 82.1413 583.07 82.4636C583.599 82.9688 583.677 83.5635 583.76 84.1931C583.786 84.386 583.811 84.5823 583.851 84.7802C583.898 85.0182 583.935 85.2646 583.971 85.5138L583.972 85.5156C584.065 86.1494 584.161 86.8005 584.447 87.3728C584.707 87.8792 584.891 88.4008 585.013 89.0144C585.381 90.0577 585.456 91.2388 585.44 92.3586ZM600.871 91.2786C600.552 91.3661 600.214 91.3925 599.877 91.4188C599.094 91.4799 598.32 91.5404 597.814 92.3659C597.761 92.4457 597.709 92.5328 597.656 92.6219C597.464 92.9435 597.256 93.2918 596.907 93.4237C596.17 93.73 595.586 94.0058 594.971 94.527C594.695 94.7415 594.465 94.7874 594.142 94.7719C593.513 94.8175 593.283 94.4646 593.284 93.667C593.24 91.8416 593.195 90.0163 592.921 88.2368C592.784 87.5465 592.983 87.3472 593.751 87.1943C594.183 87.1082 594.622 87.012 595.064 86.9152C595.957 86.7196 596.861 86.5216 597.744 86.399C597.897 86.3684 598.081 86.4912 598.112 86.6447C598.146 86.8178 598.17 87.0181 598.194 87.2244L598.194 87.2259C598.244 87.6589 598.297 88.1181 598.463 88.4088C598.802 88.9435 598.99 88.997 599.188 89.0531C599.331 89.0935 599.478 89.1354 599.69 89.3606C600.181 89.821 600.687 90.3582 601.04 90.9259C601.209 90.972 601.024 91.248 600.871 91.2786ZM-108.546 230.567L-119.884 207.396C-100.285 217.142 -67.6992 215.293 -58.1374 214.751C-57.672 214.724 -57.2612 214.701 -56.909 214.682C-85.1605 215.559 -142.358 182.576 -142.358 182.576C-146.73 208.25 -108.546 230.567 -108.546 230.567ZM-3.20604 99.163C-3.20604 99.163 -51.6095 88.547 -38.304 146.856C-38.3713 142.637 -35.2953 106.292 -2.78212 99.2968L-5.1255 93.4256C-5.44331 94.4327 -5.32793 94.9926 -5.18846 95.6692L-5.18837 95.6697L-5.18819 95.6706L-5.188 95.6716L-5.18782 95.6727L-5.18755 95.6739L-5.18745 95.6741C-5.15105 95.851 -5.11299 96.0359 -5.0807 96.2389L-3.20604 99.163ZM347.051 246.584C347.319 245.736 347.162 244.754 346.716 243.213L344.485 244.375L346.225 247.723C346.292 247.511 346.465 247.332 346.638 247.154C346.811 246.975 346.984 246.796 347.051 246.584ZM137.63 367.988C161.152 379.145 198.128 369.827 198.128 369.827C228.412 390.582 249.477 379.974 248.629 379.706C243.719 371.626 243.093 358.833 243.003 353.208C240.081 363.947 236.198 367.385 236.198 367.385C213.369 364.377 198.438 345.203 198.438 345.203C178.289 369.162 141.624 362.718 141.624 362.718L138.968 354.883L137.63 367.988ZM274.579 349.182C274.624 351.995 278.108 376.418 309.148 374.089C337.244 372.23 337.397 337.76 336.525 327.223L336.793 326.375C336.771 324.969 336.48 324.41 336.48 324.41L335.811 326.531C330.054 327.046 297.161 327.857 286.492 311.428C287.229 313.527 294.081 328.751 313.921 338.279C312.092 347.031 304.372 365.584 274.579 349.182ZM332.251 157.027L333.253 156.616L333.23 156.275L331.864 156.367L332.251 157.027ZM581.481 170.259L582.372 169.868L582.547 166.391L577.762 166.151L581.481 170.259ZM552.221 444.296L577.628 448.735C577.628 448.735 537.137 466.524 518.937 447.9C518.937 447.9 579.229 420.99 595.121 397.611C594.93 397.907 594.707 398.253 594.455 398.645C589.275 406.702 571.623 434.161 552.221 444.296ZM551.186 342.697C496.198 319.201 533.229 286.266 533.229 286.266L529.762 286.065C529.577 285.971 529.403 285.892 529.237 285.817C528.608 285.533 528.087 285.297 527.459 284.448L533.586 286.002C520.139 316.425 547.733 340.272 551.186 342.697ZM855.382 87.7171C856.89 88.2609 857.776 88.7115 858.305 89.4267C858.438 89.6055 858.48 89.8505 858.523 90.0955C858.566 90.3404 858.609 90.5853 858.741 90.7641L855.01 90.2055L855.382 87.7171ZM870.492 282.373C870.492 282.373 856.302 317.773 833.454 330.253L823.639 321.47L831.539 323.924C831.539 323.924 858.297 298.037 850.755 267.652C850.755 267.652 875.039 266.835 890.888 250.127C890.888 250.127 890.388 244.964 883.418 236.289C888.021 239.522 898.738 246.532 908.16 247.307C908.875 246.778 905.078 270.059 870.492 282.373ZM939.178 195.027C922.822 221.517 901.018 209.985 898.716 208.368C929.492 193.895 919.019 176.745 913.014 170.122C893.648 180.579 877.306 177.178 875.176 176.542C894.735 177.561 913.407 150.464 916.374 145.502L915.052 143.714C915.052 143.714 915.674 143.807 916.825 144.616L917.354 145.331C926.389 150.817 954.184 171.196 939.178 195.027Z" fill="#003C4A"/>
</g>
<defs>
<clipPath id="clip0_257_6">
<rect width="768" height="101.623" fill="white"/>
</clipPath>
</defs>
</svg>
