<svg width="2200" height="188" viewBox="0 0 2200 188" fill="none" xmlns="http://www.w3.org/2000/svg">
<path fill-rule="evenodd" clip-rule="evenodd" d="M1584.35 52.3161L1583.98 51.6842C1562.79 60.2332 1545.75 67.2383 1530.99 73.309L1530.98 73.3102C1480.54 94.0495 1456.63 103.883 1384.23 127.115C1362.2 109.559 1332.53 89.4582 1301.08 68.1503C1268.73 46.2256 1234.48 23.023 1204.73 0L1029.01 164.119L861.108 137.226L820.107 15.6425L619.094 6.56406C573.938 50.6052 560.597 62.3856 531.302 88.2555C523.895 94.7964 515.468 102.238 505.249 111.329L505.327 111.36L453.222 115.528L453.215 115.519C402.39 122.007 375.424 124.31 313.988 129.555L313.975 129.557L313.973 129.557L313.954 129.558C296.039 131.088 275.193 132.868 249.971 135.075C249.842 131.342 242.739 115.432 234.416 96.7875L234.416 96.7872C222.725 70.6003 208.627 39.0201 208.065 28.2143L0 185.241L187.461 78.5017L224.478 183.965C254.669 180.903 277.549 178.546 296.826 176.56L296.859 176.556L296.888 176.553L296.893 176.553L296.894 176.553C356.721 170.389 381.845 167.8 483.248 158.822L482.941 158.379L568.457 135.784L568.169 135.672C586.701 104.492 589.354 100.862 611.602 70.4138C615.692 64.8165 620.444 58.313 626.078 50.5655C639.321 50.5655 681.341 49.5582 717.813 48.6838C745.779 48.0134 770.484 47.4211 776.454 47.4211L798.941 164.132H805.032L1077.86 186.377L1090.89 187.773L1091.15 187.46L1091.24 187.468L1093 185.25L1204.73 51.6842L1380.74 162.735C1454.53 140.597 1478.96 132.218 1514.56 120.001L1514.56 120.001L1514.57 120L1514.57 119.997C1536.26 112.559 1562.08 103.697 1605.73 89.4406L1605.49 89.0263L1889.37 93.7074C1915.25 122.216 1927.33 135.55 1967.08 183.944L2068.7 183.944L2200 56.5812L2167.17 56.1958L2052.63 144.019C2046.7 143.362 2036.4 143.188 2024.74 142.99C2009.54 142.732 1992.02 142.435 1978.86 140.978C1974.11 132.657 1970.11 125.67 1966.66 119.657C1947.87 86.9111 1945.65 83.0375 1930.62 49.9097L1929.41 50.2311L1584.35 52.3161Z" fill="#5C5A82"/>
</svg>
