<svg width="120" height="120" viewBox="0 0 120 120" fill="none" xmlns="http://www.w3.org/2000/svg">
<circle cx="60" cy="60" r="59" fill="url(#paint0_linear_214_408)" stroke="white" stroke-width="2"/>
<path d="M79.5151 90.1297C84.2055 95.4145 87.971 97 87.971 97C88.1692 94.5558 87.1122 90.7903 85.6589 86.9588C84.3376 86.2321 81.2988 86.3642 79.5151 90.1297Z" fill="white"/>
<path d="M72.645 67.2722C72.8432 67.4703 77.7978 73.8783 78.3923 77.1153C79.119 77.0492 79.119 76.0583 79.119 76.0583C78.5245 71.1037 72.9093 67.4043 72.645 67.2722Z" fill="white"/>
<path d="M49.3247 45.0764L55.8648 57.3638L56.3933 61.922L64.2545 72.9543L67.2933 73.9452C69.6715 79.3622 75.0225 84.6471 77.5328 87.818C77.5989 87.752 77.665 87.6859 77.665 87.5538C79.3825 83.0616 83.0159 83.3919 84.4032 84.1186C84.4032 84.1186 84.4032 84.1186 84.4032 84.0525C84.139 83.5241 82.025 79.8907 80.7038 77.8428C80.6377 78.7016 79.9771 83.5241 73.5031 76.1913C73.5031 76.1913 69.5394 69.8494 69.6716 63.1772C69.6716 63.1772 74.7583 65.159 78.0613 70.4439L78.3916 66.8106C78.3256 66.8766 77.7971 65.8196 77.9292 65.6875L69.011 54.391L65.5758 52.3431L58.1109 42.5661C56.9878 42.5 55.6666 42.8964 54.8738 43.0285L63.1315 53.4001L59.3 54.9195L51.5708 44.2837C51.4387 43.9534 49.3247 45.0764 49.3247 45.0764ZM61.2818 56.3068L64.4527 54.5232L67.2273 55.9105L70.5964 61.0632L67.4916 62.3845L64.3206 57.9584L61.2818 56.3068Z" fill="white"/>
<path d="M61.4142 41.5084L68.747 50.0964L70.9931 51.0873L72.2482 53.3334L96.2945 48.7752L88.9617 45.6703L87.3763 45.8024L86.5835 47.454L72.3803 47.1897L66.3027 41.1121L61.1499 41.5084H61.4142Z" fill="white"/>
<path d="M44.9648 47.5859L47.0787 59.0805L43.049 54.8526L27.3925 67.4042L25.6089 72.7552L47.7394 60.9963L52.6279 62.4496L52.4958 57.2308L46.7484 46.8592L44.9648 47.5859Z" fill="white"/>
<path d="M54.2793 65.2903L58.3751 71.434L48.7962 70.0467L48.2017 68.3952L54.2793 65.2903Z" fill="white"/>
<path d="M77.4668 58.156L82.6857 57.099L84.2711 59.0148L81.959 63.1766L77.4668 58.156Z" fill="white"/>
<path d="M72.5116 44.1513L68.8783 40.1215L68.4819 30.7408L69.4068 31.6657L72.5116 44.1513Z" fill="white"/>
<path d="M44.1721 53.4662L42.5206 42.0376L41.4636 40.9807L41.1333 48.3134L44.1721 53.4662Z" fill="white"/>
<path d="M41.794 53.532L39.1516 49.0398L35.4521 49.4362L35.5843 50.2289L41.794 53.532Z" fill="white"/>
<path d="M72.645 67.2722C72.8432 67.4703 77.7978 73.8783 78.3923 77.1153C79.119 77.0492 79.119 76.0583 79.119 76.0583C78.5245 71.1037 72.9093 67.4043 72.645 67.2722Z" fill="#606060"/>
<path d="M72.645 67.2722C72.8432 67.4703 77.7978 73.8783 78.3923 77.1153C79.119 77.0492 79.119 76.0583 79.119 76.0583C78.5245 71.1037 72.9093 67.4043 72.645 67.2722Z" fill="white"/>
<path d="M22.9001 69.5183L12 50.0302L23.4946 66.4795L22.9001 69.5183Z" fill="white"/>
<path d="M95.1713 45.8684L80.5718 28.3622L93.3876 45.0757L95.1713 45.8684Z" fill="white"/>
<path d="M39.9436 40.121L28.3169 24.1342L39.0188 41.1119L35.6497 39.8568L39.5473 43.5562L39.9436 40.121Z" fill="white"/>
<path d="M67.0292 29.6837L57.8467 17L65.5098 29.8159L63.6601 29.4856L66.7649 32.7226L67.0292 29.6837Z" fill="white"/>
<path d="M25.6089 72.756L27.3265 64.102L31.5544 61.7238L32.8756 64.2341L31.6865 68.462L25.6089 72.756Z" fill="white"/>
<defs>
<linearGradient id="paint0_linear_214_408" x1="60" y1="0" x2="60" y2="120" gradientUnits="userSpaceOnUse">
<stop stop-color="#369FD7"/>
<stop offset="1" stop-color="#2071D3"/>
</linearGradient>
</defs>
</svg>
