<svg width="120" height="120" viewBox="0 0 120 120" fill="none" xmlns="http://www.w3.org/2000/svg">
<circle cx="60" cy="60" r="59" fill="url(#paint0_linear_214_350)" stroke="white" stroke-width="2"/>
<path d="M81.0588 57.2901L76.6494 93.6457L76.6044 94.0056L76.3794 93.9156L44.2983 76.1428L55.8169 75.6929L47.6729 59.8098L55.142 63.9493L57.8417 65.5241L60.6313 67.1889H60.6763L60.7213 67.2339L61.4412 68.5837L58.9215 68.4488L65.1758 80.6423L58.9215 79.7424L73.9497 88.8763L75.4345 71.2834L72.5099 76.9077L66.2556 64.7142L64.9508 66.694L64.2759 65.3441H64.2309L64.5459 62.0145L64.8158 58.9999L65.8057 50.541L73.9497 66.424L81.0588 57.2901Z" fill="white"/>
<path d="M65.0409 62.9144L65.5358 65.1192L64.2759 65.3441H64.231L53.7922 44.9616V44.9166L53.8822 41.767L64.5459 62.0145L65.0409 62.9144Z" fill="white"/>
<path d="M59.7762 68.0891L60.6761 67.1892L50.2374 46.8067L47.6277 45.007L58.2464 66.3793L59.7762 68.0891Z" fill="white"/>
<path d="M43.8932 58.1901L31.7447 35.1079L29 34.028L43.8932 58.1901Z" fill="white"/>
<path d="M65.0858 46.0417L54.467 26.6041L55.3219 23.9944L65.0858 46.0417Z" fill="white"/>
<path d="M54.872 38.5276L45.8281 20.3948L46.2781 19L54.872 38.5276Z" fill="white"/>
<path d="M46.5478 49.5511L41.2834 39.1574L39.4836 38.3475L46.5478 49.5511Z" fill="white"/>
<path d="M41.9135 61.1599L40.6536 71.4636V71.5536L40.6087 71.5086L31.5198 66.5142L34.7594 66.3792L32.4647 61.8798L34.5794 63.0496L35.3443 63.4996L36.1542 63.9495V63.9945L36.3792 64.3545L35.6593 64.3095L37.4141 67.774L35.6593 67.5041L39.9337 70.1138L40.3387 65.1194L39.4838 66.6942L37.729 63.2746L37.3691 63.8145L37.1441 63.4546L37.2341 62.5097L37.3241 61.6548L37.594 59.2251L39.8888 63.7245L41.9135 61.1599Z" fill="white"/>
<path d="M37.3693 62.7347L37.5043 63.3646L37.1444 63.4546L34.2197 57.6503V56.7504L37.2344 62.5097L37.3693 62.7347Z" fill="white"/>
<path d="M35.8844 64.2195L36.1544 63.9495L33.1847 58.1902L32.4648 57.6953L35.4795 63.7246L35.8844 64.2195Z" fill="white"/>
<path d="M80.5641 32.0933L78.8093 46.7165V46.8965L78.7193 46.8515L65.8059 39.6524L70.4403 39.5174L67.1557 33.0832L70.1254 34.748L71.2502 35.4229L72.3751 36.0978H72.4201L72.6901 36.6377L71.6552 36.5927L74.1749 41.4971L71.6552 41.1372L77.7294 44.8267L78.3144 37.7176L77.1445 39.9673L74.6248 35.0629L74.0849 35.8728L73.8149 35.3329L73.9499 33.9831L74.0399 32.7682L74.4449 29.3486L77.7294 35.7378L80.5641 32.0933Z" fill="white"/>
<path d="M74.1298 34.3431L74.3098 35.243L73.8149 35.333L69.6304 27.099V25.8392L73.9498 33.9832L74.1298 34.3431Z" fill="white"/>
<path d="M72.0152 36.4128L72.3752 36.0529L68.1907 27.8639L67.1108 27.144L71.3853 35.7379L72.0152 36.4128Z" fill="white"/>
<path d="M55.0967 88.7863L75.2992 99L55.5466 97.2902L65.3104 96.4353L55.0967 88.7863Z" fill="white"/>
<path d="M84.5682 73.5785L81.0137 95.9408L91.2274 78.9328L84.7932 86.3569L84.5682 73.5785Z" fill="white"/>
<defs>
<linearGradient id="paint0_linear_214_350" x1="60" y1="0" x2="60" y2="120" gradientUnits="userSpaceOnUse">
<stop stop-color="#8A5424"/>
<stop offset="1" stop-color="#754C24"/>
</linearGradient>
</defs>
</svg>
