<svg width="120" height="120" viewBox="0 0 120 120" fill="none" xmlns="http://www.w3.org/2000/svg">
<circle cx="60" cy="60" r="59" fill="url(#paint0_linear_214_392)" stroke="white" stroke-width="2"/>
<path d="M41.8574 36.5053C41.8574 36.5053 44.615 43.2587 46.3597 47.4233L56.7149 45.0596L53.2256 33.1286C49.6801 32.6784 41.8574 36.5053 41.8574 36.5053Z" fill="white"/>
<path d="M56.8276 45.2846L61.3861 62.6182L67.3516 48.1547C67.9144 46.8603 68.1395 44.0464 67.8019 42.6957L56.8276 45.2846Z" fill="white"/>
<path d="M76.8624 40.9513L75.9619 35.7737C74.8927 29.5831 73.6545 23.0548 73.6545 23.0548C73.6545 23.0548 66.9574 19.7344 53.3381 21.5353L50.5242 21.9293C44.0523 23.0548 36.2296 25.2497 27 29.3017C27 29.3017 29.9264 37.2932 33.3031 45.0033L34.485 47.7046C36.7361 52.6008 39.0998 57.0468 40.7881 58.51C44.3899 61.6616 56.7148 69.4842 62.0612 72.8046C62.1175 72.8609 62.2301 72.9172 62.2863 72.9172C63.9747 73.7051 65.4379 73.3674 65.4379 73.3674L65.9444 72.8046C65.9444 72.8046 78.213 50.2934 77.4814 45.1721C77.3689 44.1028 77.1438 42.6396 76.8624 40.9513ZM63.6933 69.1466C63.6933 69.1466 47.035 57.9472 43.8834 55.1896C40.7319 52.432 35.2729 32.1156 35.2729 32.1156C56.4897 22.7734 69.0397 27.3319 69.0397 27.3319C69.0397 27.3319 72.6415 41.4577 73.148 44.947C73.5983 48.4362 63.6933 69.1466 63.6933 69.1466Z" fill="white"/>
<path d="M43.3207 74.9433C43.3207 74.9433 36.6236 78.5451 38.931 81.0776C41.1259 83.4975 57.0526 87.2682 76.5248 82.6533C80.3517 81.7529 82.434 81.2464 84.7414 79.5581C87.3865 77.5883 89.1311 74.7744 83.6721 71.9605C83.6721 71.9605 93.971 74.493 92.7329 78.9953C92.7329 78.9953 88.2869 89.2942 52.4941 88.6188C49.3425 88.5626 46.1909 88.2249 43.1519 87.437C36.9613 85.6924 29.9265 82.0906 43.3207 74.9433Z" fill="white"/>
<path d="M51.3123 73.5927C51.3123 73.5927 47.3166 75.5061 48.7235 76.8568C50.0179 78.1512 59.5289 80.1772 71.0659 77.701C73.3733 77.1945 74.6115 76.9694 75.9621 76.0689C77.5379 74.9997 78.5509 73.5364 75.3431 72.0169C75.3431 72.0169 81.4774 73.3676 80.7458 75.7875C80.7458 75.7875 78.1007 81.3028 56.8276 80.9088C54.9704 80.8526 53.0569 80.6837 51.256 80.2898C47.5417 79.3331 43.3208 77.4196 51.3123 73.5927Z" fill="white"/>
<path d="M34.3725 87.7745C32.5153 88.2247 30.0391 88.281 30.0391 88.281C30.3767 87.9996 31.0521 86.9866 31.7274 85.9736C32.3465 86.4238 33.5283 87.3805 34.3725 87.7745Z" fill="white"/>
<path d="M99.2611 81.0777C99.2611 81.0777 97.4602 81.3028 96.0532 81.3591C96.616 80.8526 97.2914 79.9521 97.5165 79.6707C98.1918 80.1209 99.036 80.8526 99.2611 81.0777Z" fill="white"/>
<path d="M48.7234 94.2466C45.8533 96.2163 40.3943 100.325 40.3943 100.325C40.8445 97.2293 41.0133 94.528 40.9008 93.2336C42.9268 93.6838 46.6974 94.1903 48.7234 94.2466Z" fill="white"/>
<path d="M97.0099 89.3505C97.0099 89.3505 89.8063 89.0691 86.1482 88.5063C88.2868 87.8872 91.2132 86.424 92.789 85.7487C93.6895 86.9305 96.8973 89.1816 97.0099 89.3505Z" fill="white"/>
<path d="M75.174 92.7833C73.3169 95.0344 70.3904 101 70.3904 101C68.6458 98.2423 64.65 94.8656 62.8491 93.9089C66.2821 93.7401 72.4727 93.121 75.174 92.7833Z" fill="white"/>
<defs>
<linearGradient id="paint0_linear_214_392" x1="60" y1="0" x2="60" y2="120" gradientUnits="userSpaceOnUse">
<stop stop-color="#08941C"/>
<stop offset="1" stop-color="#08841C"/>
</linearGradient>
</defs>
</svg>
