<svg width="120" height="120" viewBox="0 0 120 120" fill="none" xmlns="http://www.w3.org/2000/svg">
<circle cx="60" cy="60" r="59" fill="url(#paint0_linear_214_343)" stroke="white" stroke-width="2"/>
<path d="M92.0848 86.9399C92.0848 86.9399 88.523 85.8092 90.8975 84.2262C93.2721 82.6431 98.8693 82.2474 98.8693 82.2474C98.8693 82.2474 92.5936 81.7385 92.1979 78.9117C91.8021 76.0848 95.5336 74.8409 95.5336 74.8409C95.5336 74.8409 92.8763 75.0106 90.6714 74.7279C88.4664 73.8798 83.7173 74.2756 83.7173 74.2756C85.3003 74.3886 89.7102 76.3675 89.7668 79.4205L87.9011 79.1378C88.7491 79.4205 89.371 79.9859 89.7102 80.2686C89.4276 81.5124 88.3533 82.9258 86.2049 84.4523L82.4735 85.3003C82.4735 85.3003 81.795 84.5654 81.4558 84C81.1166 83.4912 77.4417 83.3215 77.4417 83.3215C77.4417 83.3215 80.212 84.3392 80.2685 84.6219C80.2685 84.9046 80.4947 86.5442 80.8339 87.3357C79.8162 87.788 78.742 88.2402 77.5547 88.6925C73.9364 90.0494 70.7138 91.0106 67.8304 91.689C67.5477 91.6325 68.1131 91.4064 68 91.2933C67.8304 91.1237 67.2085 88.9187 67.1519 88.8057C67.0954 88.6926 65.795 85.9223 65.795 85.9223C65.795 85.9223 66.3604 87.788 66.3604 88.5795C66.3604 89.371 65.9081 90.6149 65.8516 91.0106C65.795 91.3498 65.5689 91.9717 65.4558 92.2544C63.477 92.6502 61.7243 92.8198 60.0282 92.9894C58.4452 92.9329 56.3533 92.8198 55.7314 92.6501C54.7137 92.3675 55.053 89.8799 55.053 89.8799C55.053 89.8799 54.1484 91.3498 52.848 92.5371C52.7349 92.6502 52.6784 92.6502 52.6219 92.7633C49.5689 92.311 47.2508 91.4629 45.4417 90.7279C44.7632 89.8799 49.4558 88.636 49.4558 88.636C49.4558 88.636 46.6855 89.0883 45.1024 89.371C44.4805 89.4841 44.0282 89.4276 43.6325 89.371C42.4452 87.1661 46.5159 84.2827 46.5159 84.2827C42.6148 86.5442 40.1272 89.258 40.2968 91.0106C39.901 92.5371 40.1272 93.2156 36.9045 96.099C37.8091 95.3074 41.8798 92.9894 45.6113 94.0636C49.9081 95.3639 46.007 99.9434 46.007 99.9434C46.007 99.9434 51.265 94.4593 55.5053 95.1943C59.7455 95.9858 62.6289 100 62.6289 100C62.6289 100 64.6643 94.2897 69.9788 93.4982C75.2933 92.7632 81.6254 94.7986 81.6254 94.7986C81.6254 94.7986 79.7597 92.0282 81.9081 90.106C84.0565 88.1837 92.0848 86.9399 92.0848 86.9399Z" fill="white"/>
<path d="M60.1415 43.6325L57.2581 61.7244L61.1591 60.1979L62.1203 71.5619L65.2863 53.3569L61.4418 54.4876L60.1415 43.6325Z" fill="white"/>
<path d="M93.1026 31.3074L83.774 34.5301L88.3535 20L71.6185 33.3428L68.7351 49.9082L74.5584 47.6467L69.4701 63.5336L75.2369 61.8375L74.1061 78.1202L90.9542 50.417L84.509 52.1131L93.1026 31.3074ZM77.3288 67.5478L79.1379 58.0495L74.8411 59.4064L79.5902 43.2368L72.9189 45.7244L75.2934 34.8693L81.0037 30.629L78.2333 39.6184L86.2051 36.4524L80.2121 55.1096L84.622 53.9223L77.3288 67.5478Z" fill="white"/>
<path d="M36.2262 62.6857L29.6679 63.7034L56.1272 82.4737L48.6078 68.0002L54.5442 67.3217L43.576 54.6574L49.8516 54.4312L40.6361 40.3535L20 34.6998L29.9505 46.2334L20.0565 47.0249L36.2262 62.6857ZM36.9046 64.4384L41.4276 63.7599L28.5371 49.0037L37.1308 48.721L31.0247 41.5973L37.9223 43.2369L44.424 52.2829L37.3004 52.6786L48.0424 65.6256L43.576 66.0779L49.0036 74.0497L36.9046 64.4384Z" fill="white"/>
<defs>
<linearGradient id="paint0_linear_214_343" x1="60" y1="0" x2="60" y2="120" gradientUnits="userSpaceOnUse">
<stop stop-color="#369FD7"/>
<stop offset="1" stop-color="#2071D3"/>
</linearGradient>
</defs>
</svg>
