<svg width="200" height="200" viewBox="0 0 200 200" fill="none" xmlns="http://www.w3.org/2000/svg">
<circle cx="100" cy="100" r="99" fill="url(#paint0_linear_214_372)" stroke="white" stroke-width="2"/>
<path d="M161.325 76.263C161.325 76.263 139.517 98.8843 123.975 84.2374C123.975 84.2374 132.275 78.1345 133.903 79.762C135.449 81.308 133.17 85.3766 133.089 85.5394C133.415 85.2139 139.924 79.5992 137.646 76.4258C135.856 73.9032 124.382 75.8561 110.631 84.6443L105.504 80.413L104.853 88.7128C102.575 90.4216 100.296 92.2932 97.9366 94.4088L84.1848 45.9114C84.1848 45.9114 94.9258 38.0998 107.213 34.8449L108.434 36.1468V40.9478L111.282 44.1212L109.491 40.4595L111.933 35.1704L111.688 33.7871C116.978 32.9733 122.267 33.1361 126.986 35.2518L136.832 71.869L135.856 40.3782C135.856 40.3782 145.946 39.4831 149.201 34.8449L150.991 59.0122C155.141 66.8239 161.325 76.263 161.325 76.263Z" fill="white"/>
<path d="M98.5061 140.465C85.4866 142.418 74.5015 140.872 73.8505 136.885C73.4436 134.2 77.8377 131.189 84.6729 128.91C85.4866 128.666 86.219 128.422 87.1141 128.178C86.3004 128.422 85.4866 128.666 84.6729 128.992C80.1161 130.701 77.2681 132.653 77.5122 134.362C78.0005 137.21 87.0327 138.268 97.8551 136.641C108.596 135.013 116.977 131.352 116.571 128.422C116.245 126.632 112.502 125.493 107.131 125.411C106.969 125.411 106.806 125.411 106.643 125.411C106.806 125.411 106.969 125.411 107.131 125.411C114.943 125.411 120.476 127.039 120.883 129.805C121.534 133.63 111.444 138.431 98.5061 140.465Z" fill="white"/>
<path d="M128.451 138.513C129.02 138.106 129.509 137.699 129.997 137.292C129.509 137.699 129.02 138.106 128.451 138.513Z" stroke="white" stroke-miterlimit="10"/>
<path d="M133.984 130.701C133.984 131.19 133.903 131.678 133.74 132.247C133.821 131.678 133.903 131.19 133.984 130.701Z" stroke="white" stroke-miterlimit="10"/>
<path d="M128.451 138.513C129.02 138.106 129.509 137.699 129.997 137.292C129.509 137.699 129.02 138.106 128.451 138.513Z" stroke="white" stroke-miterlimit="10"/>
<path d="M133.984 130.701C133.984 131.19 133.903 131.678 133.74 132.247C133.821 131.678 133.903 131.19 133.984 130.701Z" stroke="white" stroke-miterlimit="10"/>
<path d="M156.362 126.551L141.552 130.213C140.576 126.388 137.239 123.133 132.194 120.774L144.97 117.356L156.362 126.551Z" fill="white"/>
<path d="M60.9125 150.23L44.4754 154.298L40 145.673L55.0537 141.604C55.0537 141.686 55.0537 141.686 55.0537 141.767C55.4606 145.103 57.5763 147.951 60.9125 150.23Z" fill="white"/>
<path d="M123.487 161.866L105.911 166.667L99.564 153.322C105.097 153.241 112.339 151.858 117.059 150.881L123.487 161.866Z" fill="white"/>
<path d="M84.5914 112.555L85.7306 116.217L83.2081 116.949L81.1738 113.45L84.5914 112.555Z" fill="white"/>
<path d="M78.4077 47.7018C78.4077 47.7018 71.8166 49.2478 72.142 50.4684L95.0888 133.305C95.0888 133.305 100.053 133.549 101.761 131.677L78.4077 47.7018Z" fill="white"/>
<path d="M141.715 131.352C141.715 130.945 141.633 130.619 141.552 130.294C140.657 126.469 137.239 123.215 132.194 120.855C122.267 118.251 112.746 117.437 104.446 117.6L105.097 119.634C105.748 119.634 106.318 119.634 106.969 119.634C107.457 119.634 107.945 119.634 108.515 119.634C108.759 119.634 109.003 119.634 109.247 119.634C109.491 119.634 109.736 119.634 109.98 119.634C110.224 119.634 110.468 119.634 110.712 119.634C111.2 119.634 111.688 119.634 112.177 119.716C112.909 119.716 113.56 119.797 114.292 119.878C114.536 119.878 114.781 119.96 114.943 119.96C115.187 119.96 115.432 120.041 115.594 120.041C116.001 120.122 116.489 120.123 116.896 120.204C117.14 120.204 117.303 120.285 117.547 120.285C117.791 120.285 117.954 120.367 118.198 120.367C118.605 120.448 119.012 120.529 119.419 120.611C119.826 120.692 120.232 120.773 120.639 120.855C121.29 121.018 121.86 121.099 122.511 121.262C122.674 121.262 122.836 121.343 122.999 121.424C123.731 121.587 124.464 121.831 125.196 122.075C125.522 122.157 125.766 122.32 126.091 122.401H126.173C126.417 122.482 126.742 122.645 126.986 122.726C127.149 122.808 127.312 122.889 127.474 122.971C127.637 123.052 127.8 123.133 127.881 123.215C128.125 123.296 128.288 123.459 128.532 123.54C128.695 123.622 128.939 123.703 129.102 123.866C129.346 124.028 129.672 124.191 129.916 124.354C130.078 124.517 130.323 124.598 130.485 124.761L130.567 124.842C130.729 125.005 130.892 125.086 131.055 125.249C131.218 125.412 131.38 125.574 131.543 125.737C131.624 125.737 131.624 125.819 131.624 125.819C131.706 125.9 131.869 126.063 132.031 126.144C132.194 126.307 132.275 126.469 132.438 126.551C132.438 126.551 132.438 126.551 132.438 126.632C132.682 126.958 132.926 127.283 133.089 127.609L133.17 127.69C133.252 127.853 133.333 128.016 133.415 128.178C133.415 128.178 133.415 128.26 133.496 128.341C133.577 128.504 133.577 128.585 133.659 128.748C133.74 128.911 133.74 129.155 133.821 129.317C133.821 129.48 133.903 129.724 133.903 129.887C133.903 130.05 133.903 130.131 133.903 130.294C133.903 130.457 133.903 130.619 133.903 130.782C133.903 131.27 133.821 131.759 133.659 132.328C133.659 132.491 133.577 132.572 133.496 132.735C133.415 132.898 133.415 133.061 133.333 133.142C133.252 133.305 133.171 133.467 133.089 133.549C133.008 133.712 132.926 133.793 132.845 133.956C132.764 134.118 132.682 134.281 132.601 134.363C132.52 134.525 132.438 134.607 132.275 134.769C132.113 135.014 131.95 135.176 131.787 135.42C131.706 135.502 131.624 135.583 131.543 135.746C131.299 135.99 131.055 136.234 130.811 136.478C130.567 136.722 130.323 136.966 130.078 137.129C129.997 137.129 129.997 137.211 129.916 137.211C129.427 137.617 128.939 138.024 128.37 138.431C128.207 138.594 127.963 138.675 127.8 138.838C126.091 140.059 123.976 141.116 121.697 142.174C121.453 142.256 121.29 142.337 121.046 142.5C120.965 142.5 120.965 142.5 120.883 142.581C120.639 142.662 120.314 142.825 120.07 142.907C119.744 142.988 119.5 143.151 119.175 143.232C118.768 143.395 118.361 143.558 117.954 143.72C117.222 143.964 116.489 144.208 115.757 144.453C115.187 144.615 114.618 144.778 114.048 144.941C113.56 145.104 112.99 145.266 112.502 145.348C112.258 145.429 112.014 145.51 111.688 145.592C111.363 145.673 110.956 145.755 110.631 145.836C109.329 146.161 108.027 146.487 106.643 146.731C106.074 146.812 105.586 146.975 105.016 147.056C104.69 147.138 104.446 147.138 104.121 147.219C103.714 147.301 103.389 147.382 102.982 147.382C102.819 147.382 102.575 147.463 102.331 147.463C101.924 147.545 101.517 147.545 101.11 147.626C100.622 147.707 100.134 147.789 99.6454 147.789C97.1229 148.114 94.6004 148.277 92.2406 148.358C91.9965 148.358 91.7524 148.358 91.4269 148.358C90.125 148.358 88.9044 148.44 87.6838 148.358C86.8701 148.358 86.1378 148.358 85.4054 148.277C85.1613 148.277 84.9172 148.277 84.6731 148.277C84.1849 148.277 83.6966 148.196 83.2084 148.196C82.7202 148.196 82.3133 148.114 81.8251 148.114C81.3369 148.114 80.93 148.033 80.4418 147.952C80.1976 147.952 80.0349 147.87 79.7908 147.87C78.6516 147.707 77.6751 147.545 76.6173 147.382C76.2104 147.301 75.8036 147.219 75.4781 147.138C74.6644 146.975 73.8507 146.812 73.1183 146.568C72.9556 146.487 72.7928 146.487 72.5487 146.406C71.4909 146.08 70.4331 145.755 69.538 145.348C69.2939 145.266 69.0498 145.185 68.8056 145.022C68.1547 144.697 67.5037 144.453 66.9341 144.127C66.69 143.964 66.4459 143.883 66.2831 143.72C65.5508 143.232 64.8998 142.744 64.3302 142.174C64.2488 142.093 64.1675 142.011 64.0861 141.93C63.2724 141.116 62.7028 140.221 62.3773 139.326C62.2959 139.163 62.2959 138.919 62.2145 138.757C62.1332 138.594 62.1332 138.35 62.1332 138.187C62.1332 138.024 62.1332 137.943 62.1332 137.78C62.1332 137.617 62.1332 137.455 62.1332 137.292C62.1332 137.129 62.1332 136.966 62.1332 136.804C62.2145 136.397 62.2959 136.071 62.3773 135.664C62.3773 135.583 62.4587 135.502 62.4587 135.42C62.6214 134.932 62.8655 134.444 63.1096 133.956C63.191 133.793 63.2724 133.63 63.4351 133.467C63.5165 133.305 63.6792 133.142 63.7606 132.979C63.9233 132.816 64.0861 132.572 64.2488 132.41C64.4116 132.247 64.5743 132.084 64.7371 131.921C64.8184 131.759 64.9812 131.677 65.0626 131.515C65.1439 131.433 65.2253 131.352 65.3067 131.27C65.388 131.189 65.5508 131.026 65.7135 130.945C65.9576 130.782 66.1204 130.538 66.3645 130.375C66.5272 130.213 66.7713 130.05 67.0155 129.887C67.1782 129.724 67.4223 129.562 67.5851 129.48L67.6664 129.399C67.8292 129.236 68.0733 129.073 68.3174 128.992C68.8056 128.667 69.3752 128.341 69.9448 128.016C70.189 127.853 70.4331 127.771 70.5958 127.609C71.1654 127.283 71.8164 126.958 72.4674 126.632C72.7929 126.469 73.0369 126.307 73.3624 126.225C73.6879 126.063 74.0134 125.9 74.3389 125.819C74.583 125.656 74.9085 125.574 75.234 125.412C75.3967 125.33 75.4781 125.33 75.6409 125.249C75.885 125.168 76.1291 125.086 76.3732 124.923C76.8614 124.761 77.2683 124.598 77.7565 124.435C78.0006 124.354 78.2447 124.272 78.4889 124.191C78.9771 124.028 79.4653 123.866 79.9535 123.703C80.1976 123.621 80.4418 123.54 80.6859 123.459C81.3368 123.296 81.9878 123.052 82.6388 122.889C85.3241 122.238 87.6024 121.913 87.6024 121.913L86.9515 119.472C85.2427 119.797 83.6152 120.122 81.9878 120.448C79.0584 121.099 76.5359 121.831 74.1761 122.645C70.1889 124.028 67.0155 125.574 64.4116 127.12C64.4116 127.12 64.3302 127.12 64.3302 127.202C60.4244 129.806 57.5764 132.735 56.0303 135.746C56.0303 135.827 55.9489 135.909 55.9489 135.99C55.298 137.292 54.9725 138.594 54.8911 139.977C54.8911 140.221 54.8911 140.465 54.8911 140.628C54.8911 140.954 54.8911 141.198 54.9725 141.523V141.605C54.9725 141.686 54.9725 141.686 54.9725 141.686C55.3793 144.941 57.495 147.789 60.9126 150.149C68.887 155.6 83.9407 158.204 100.703 156.17C102.738 155.926 104.609 155.601 106.562 155.275C111.933 154.299 116.978 152.834 121.453 151.125C134.391 146.324 142.691 138.757 141.715 131.352Z" fill="white"/>
<defs>
<linearGradient id="paint0_linear_214_372" x1="100" y1="0" x2="100" y2="200" gradientUnits="userSpaceOnUse">
<stop stop-color="#AD4129"/>
<stop offset="1" stop-color="#AD0429"/>
</linearGradient>
</defs>
</svg>
