<svg width="200" height="251" viewBox="0 0 200 251" fill="none" xmlns="http://www.w3.org/2000/svg">
<path d="M84.2635 131.853L86.8832 138.693L112.642 153.246L117.3 152.809C119.483 150.335 121.083 147.425 122.393 145.387L121.811 142.768L96.7794 122.684L92.9955 122.83C90.0849 125.886 84.2635 131.853 84.2635 131.853Z" fill="#6DD0E7"/>
<path d="M126.323 138.547L99.5452 115.99L99.9818 108.568L107.113 101.873L114.972 103.619L136.802 128.36L135.783 132.58L131.999 137.238L126.323 138.547Z" fill="#6DD0E7"/>
<path d="M102.164 173.62C104.347 177.84 123.703 187.154 123.703 187.154L128.506 221.646C129.961 222.664 131.417 223.537 132.872 224.265C133.891 224.702 134.764 225.138 135.783 225.429C139.712 226.739 143.932 227.321 148.007 227.176L145.97 201.562L169.401 216.697L169.255 204.182L176.386 219.608C180.316 217.716 182.79 216.261 182.79 216.261L175.076 173.474L199.235 127.922L197.197 118.026L173.184 91.5392L164.744 90.2294L135.055 109.149L134.618 115.261L147.571 128.65L157.758 123.993L168.382 96.7784C168.236 98.2337 165.617 118.172 166.927 119.918C168.236 121.81 189.193 122.538 189.193 122.538C189.193 122.538 167.509 128.359 162.415 131.27C157.176 134.18 148.88 175.075 148.88 175.075C150.19 177.404 168.382 175.657 168.382 175.657C147.571 185.99 126.177 184.971 126.177 184.971L139.712 175.512C139.712 175.512 150.918 136.8 150.627 135.199C150.627 134.908 149.608 135.636 148.007 137.091C140.294 144.077 118.028 166.78 118.028 166.78L100.418 155.283C100.272 155.428 99.9815 169.254 102.164 173.62Z" fill="#6DD0E7"/>
<path d="M129.233 107.694L117.736 97.7981L116.281 91.3946L124.431 82.9537L130.543 83.0992L140.876 95.1784L129.524 102.601L129.233 107.694Z" fill="#6DD0E7"/>
<path d="M147.425 90.2301L134.036 75.6768L133.599 71.1652L142.477 64.9073L151.063 67.6725L161.978 81.7892L147.425 90.2301Z" fill="#6DD0E7"/>
<path d="M161.978 81.7899L164.452 83.2452L161.687 83.6818L147.425 90.2307L161.978 81.7899Z" fill="#6DD0E7"/>
<path d="M100.418 155.429L111.624 161.25H120.502L129.525 149.607L128.943 146.551L134.618 146.115L143.059 136.51L145.242 133.162L148.153 137.528L119.919 175.803L104.347 161.687L100.418 155.429Z" fill="#6DD0E7"/>
<path d="M146.843 118.317L134.618 115.261L134.181 108.275L146.988 99.1069L147.861 97.7972L150.481 97.215L164.743 90.2294L146.843 118.317Z" fill="#6DD0E7"/>
<path d="M110.605 74.6583L158.485 36.2376L102.746 67.0906L99.5445 34.0546L86.0099 67.6728L29.6887 0L71.7477 83.9725L52.3918 84.4091L60.5417 98.5258L0 128.797L63.1613 119.628L32.1628 158.049L75.6771 139.275L70.2924 127.923L81.3529 115.408L85.7188 114.825L83.8269 108.859L64.0345 107.84L76.6958 100.127L73.0575 96.6338L86.1555 99.9811L76.2592 71.02L91.2491 89.7938L93.8687 74.5128L96.4883 88.484L110.605 74.6583Z" fill="#6DD0E7"/>
<path d="M118.562 234.017L119.872 224.121L121.036 222.229L122.783 225.285L141.993 250.026L132.824 202L132.97 201.563L156.401 216.699L156.255 204.183L163.532 219.609L189 245.514L160.767 175.076L159.893 190.212L110.703 187.01L118.562 234.017Z" fill="#6DD0E7"/>
</svg>
