<svg width="24" height="24" fill="none" xmlns="http://www.w3.org/2000/svg"><path d="M12 24c6.627 0 12-5.373 12-12S18.627 0 12 0 0 5.373 0 12s5.373 12 12 12z" fill="#ED256D"/><path d="M10.59 9.194c1.71 1.794 2.65 4.326 4.826 5.661 1.573.966 3.773.176 4.546-1.455.394-.008.789-.008 1.182-.006a4.337 4.337 0 01-4.086 3.008c-2.336 0-3.36-.75-6.11-4.755C8.892 8.735 7.885 8.71 6.75 8.757c-1.134.047-2.937.968-2.945 3.324-.007 2.256 2.017 3.243 2.945 3.248.929.005 2.366-.117 3.974-2.56.256.367.505.74.752 1.114-1.294 1.63-2.45 2.519-4.726 2.519-2.277 0-4.114-2.21-4.114-4.321 0-2.11 1.972-4.478 4.114-4.48 2.142-.004 3.015.722 3.839 1.593zm10.773 2.477v1.083c-1.75.017-3.503.005-5.254.007v-.947c1.383-.004 2.73.005 4.113-.004-.234-1.908-1.441-3.021-3.251-3.021-1.81 0-3.066 1.499-3.7 2.444a45.93 45.93 0 01-.719-1.062c.999-1.292 2.634-2.567 4.419-2.57 2.274-.076 4.218 1.96 4.392 4.07z" fill="#fff"/></svg>