<svg width="24" height="24" fill="none" xmlns="http://www.w3.org/2000/svg"><path d="M12 24c6.627 0 12-5.373 12-12S18.627 0 12 0 0 5.373 0 12s5.373 12 12 12z" fill="#F04086"/><path d="M18.448 12.776c-.504-.552-1.232-.896-2.176-1.032v-.024a2.928 2.928 0 002.616-2.936c0-1.168-.376-1.968-1.16-2.592-.776-.624-1.952-.832-3.536-.832H8.208v5.576H4.775v2.128h9.377c.744 0 1.296.056 1.664.352a1.455 1.455 0 01.552 1.24A1.676 1.676 0 0115.816 16c-.368.304-.928.504-1.664.504h-3.216v-1.656H8.208v3.792h6.184c1.568 0 2.776-.416 3.608-1.048.832-.64 1.224-1.584 1.224-2.736a3.107 3.107 0 00-.776-2.08zm-4.64-1.848h-2.872v-3.44h2.872c1.48 0 2.216.576 2.216 1.72 0 1.144-.736 1.72-2.216 1.72z" fill="#fff"/></svg>