<svg width="24" height="24" fill="none" xmlns="http://www.w3.org/2000/svg"><path d="M12 24c6.627 0 12-5.373 12-12S18.627 0 12 0 0 5.373 0 12s5.373 12 12 12z" fill="#9885F8"/><path d="M18.538 8.4c.268.451.45.948.535 1.466a3.322 3.322 0 01-.754.571 1.674 1.674 0 01-1.407.123 3.362 3.362 0 01-1.494-1.134c-.874-1.128-2.134-1.699-3.054-1.716-.92-.018-1.35.023-2.502.591-1.388.685-2.998 2.637-3.377 4.574a5.557 5.557 0 01.025-1.837A5.428 5.428 0 019.217 7.18a5.119 5.119 0 011.411-.579 6.695 6.695 0 011.938-.187c1.21.046 2.264.544 3.217 1.263.461.378.887.798 1.27 1.255a.797.797 0 00.94.2 1.023 1.023 0 00.545-.732zm-6.43 10.152c-1.671-.433-3.098-1.252-4.176-2.627l-.042-.053a.072.072 0 01-.052-.083 1.527 1.527 0 01-.435-.553 6.387 6.387 0 01-.747-1.614 7.957 7.957 0 011.756-3.565 4.742 4.742 0 00.431 4.867 5.673 5.673 0 002.2 1.721c1.053.486 2.174.677 3.319.764.24.018.7.012.94.003-.228.533-.277.862-.69 1.422-.597-.05-1.952-.138-2.504-.282zm-4.27-2.764zm4.423 5.33c-.11.008-.244.01-.357.012-1.278.015-2.432-.158-3.583-.755a11.004 11.004 0 01-2.914-2.229c-.098-.103-.188-.213-.283-.32-.243-.319-.532-.6-.754-.94-.083-.127-.727-1.108-.8-1.239 1.278 1.172 2.561 2.322 4.25 2.877.581.287 1.89.898 2.574 1.029.716.137 2.32.406 3.914-.36-.351.758-1.305 1.488-2.047 1.926zm6.126-9.066c-.88.08-1.524.476-1.913 1.285-.255.53-.302 1.107-.393 1.672-.116.717-.214 1.436-.38 2.144 0 .006-.003.01-.005.016-.264 1.509-1.303 2.923-2.645 3.856 1.39-.26 2.523-1.005 3.42-2.214a7.355 7.355 0 00.824-1.95c.34-1.189.12-2.126.71-3.06.588-.935 1.63-1.249 2.266-1.363-.475-.352-1.268-.442-1.884-.386zm2.59 1.655a1.72 1.72 0 00-.404-.93 2.45 2.45 0 00-1.515.551c.2.14.351.338.433.567.07.318.026.65-.125.938-.362.78-.672 1.331-1.639 1.84-.168.645-.306 1.295-.642 1.85.802-.218 1.32-.642 2.002-1.094a4.853 4.853 0 001.032-.963c.663-.798 1.044-1.697.859-2.759zm-1.185-6.455a6.807 6.807 0 00-1.304-1.738 8.873 8.873 0 00-4.185-2.338 9.827 9.827 0 00-1.908-.288c-.634-.034-.717-.077-2.162.138-1.445.215-3.227 1.245-4.499 2.48a9.695 9.695 0 00-1.736 2.279 7.372 7.372 0 00-1.009 3.702c.007.695.063 1.388.168 2.075.059.378.139.752.24 1.12a13.646 13.646 0 003.53 3.056 7.879 7.879 0 01-1.496-1.867 7.348 7.348 0 01-.972-3.211 7.642 7.642 0 014.446-7.618 6.244 6.244 0 011.632-.541c.618-.112 2.398-.207 3.587.081 1.808.44 3.29 1.361 4.316 2.949.049.075.94 1.45.96 2.14a1.92 1.92 0 00.217-.297c.393-.677.537-1.397.175-2.122z" fill="#fff"/></svg>