<svg width="66" height="66" fill="none" xmlns="http://www.w3.org/2000/svg"><g clip-path="url(#clip0_580_42)" fill="#fff"><path d="M43.355 8.461A41.002 41.002 0 0033.039 5.25a29.823 29.823 0 00-1.321 2.718 38.23 38.23 0 00-11.432 0 28.927 28.927 0 00-1.337-2.718A40.866 40.866 0 008.625 8.469C2.097 18.241.327 27.771 1.212 37.166c4.33 3.203 8.526 5.148 12.652 6.422a31.113 31.113 0 002.71-4.421 26.753 26.753 0 01-4.268-2.057c.358-.263.708-.537 1.046-.82 8.228 3.812 17.166 3.812 25.295 0 .343.283.693.557 1.046.82a26.684 26.684 0 01-4.274 2.061 30.974 30.974 0 002.71 4.42c4.129-1.273 8.329-3.218 12.659-6.425 1.038-10.89-1.774-20.333-7.433-28.705zm-25.66 22.927c-2.47 0-4.496-2.284-4.496-5.065 0-2.782 1.982-5.07 4.495-5.07s4.538 2.285 4.495 5.07c.004 2.781-1.982 5.065-4.495 5.065zm16.61 0c-2.469 0-4.494-2.284-4.494-5.065 0-2.782 1.982-5.07 4.495-5.07s4.538 2.285 4.495 5.07c0 2.781-1.982 5.065-4.495 5.065z"/><path opacity=".5" d="M55.657 39.982l5.462 2.859.147 4.362-10.08 3.665-3.74 3.556-3.555-1.21-11.987 5.059-11.51-.806-3.115-7.588 1.906-2.75-3.96 1.833 1.247 4.985L12 59.556l5.718-3.702 1.723 3.702 7.515.55-.404 2.382 12.537 2.163 3.812-2.64-4.545.147-5.719-1.392 1.173-.99 10.08-4.032 5.17 3.262 3.665-6.818 10.447-3.666.66-6.048-8.175-2.492z"/></g><defs><clipPath id="clip0_580_42"><path fill="#fff" d="M0 0h66v66H0z"/></clipPath></defs></svg>