<svg width="22" height="17" fill="none" xmlns="http://www.w3.org/2000/svg"><g clip-path="url(#clip0_214_742)"><path fill-rule="evenodd" clip-rule="evenodd" d="M2.609 3.366a.781.781 0 00-.278-.679L.278.35V0h6.378l4.93 10.214L15.92 0H22v.349l-1.756 1.59a.473.473 0 00-.196.467v11.69a.473.473 0 00.196.464l1.715 1.591v.349H13.33v-.349l1.777-1.63c.175-.164.175-.213.175-.465V4.608l-4.94 11.854h-.668L3.923 4.608v7.945c-.047.333.07.67.318.91l2.311 2.649v.35H0v-.35l2.31-2.648a1.02 1.02 0 00.299-.911V3.366z" fill="#fff" fill-opacity=".3"/></g><defs><clipPath id="clip0_214_742"><path fill="#fff" d="M0 0h22v16.5H0z"/></clipPath></defs></svg>