<svg width="24" height="20" fill="none" xmlns="http://www.w3.org/2000/svg"><g clip-path="url(#clip0_214_738)"><path d="M24 2.309c-.903.393-1.858.655-2.835.776A4.892 4.892 0 0023.33.365a9.832 9.832 0 01-3.12 1.192 4.92 4.92 0 00-8.511 3.364 5.06 5.06 0 00.114 1.122C7.723 5.844 4.103 3.883 1.67.897a4.922 4.922 0 001.512 6.576A4.86 4.86 0 01.96 6.868v.053a4.943 4.943 0 003.942 4.834 4.911 4.911 0 01-1.29.163 4.35 4.35 0 01-.931-.084c.637 1.948 2.446 3.38 4.597 3.427a9.886 9.886 0 01-6.1 2.098A9.209 9.209 0 010 17.292 13.851 13.851 0 007.548 19.5c9.054 0 14.004-7.5 14.004-14a12.8 12.8 0 00-.018-.637A9.816 9.816 0 0024 2.31z" fill="#fff" fill-opacity=".3"/></g><defs><clipPath id="clip0_214_738"><path fill="#fff" d="M0 0h24v19.5H0z"/></clipPath></defs></svg>