<svg width="24" height="24" fill="none" xmlns="http://www.w3.org/2000/svg"><g clip-path="url(#clip0_214_740)"><path d="M22.39 5.976a11.951 11.951 0 00-4.367-4.366C16.183.537 14.176 0 12 0 9.823 0 7.815.537 5.976 1.61A11.95 11.95 0 001.61 5.976C.537 7.815 0 9.823 0 12c0 2.614.763 4.966 2.289 7.054 1.526 2.088 3.497 3.533 5.914 4.335.281.053.49.016.625-.108a.612.612 0 00.202-.47l-.007-.843c-.006-.531-.009-.995-.009-1.39l-.358.062a4.537 4.537 0 01-.867.055 6.558 6.558 0 01-1.087-.11c-.38-.07-.74-.23-1.046-.468a1.979 1.979 0 01-.687-.96l-.157-.36a3.9 3.9 0 00-.491-.796c-.225-.292-.452-.49-.68-.594l-.11-.079a1.17 1.17 0 01-.202-.188.828.828 0 01-.142-.218c-.03-.073-.005-.133.078-.179.084-.048.236-.07.453-.07l.313.047c.208.04.466.165.773.374.31.211.569.489.758.812.24.428.53.753.867.977.34.224.681.336 1.024.335.299.004.597-.022.891-.077.243-.05.479-.13.703-.235.094-.698.349-1.235.765-1.61a10.637 10.637 0 01-1.6-.282 6.317 6.317 0 01-1.47-.61 4.209 4.209 0 01-1.258-1.046c-.333-.416-.606-.963-.82-1.64-.213-.678-.32-1.459-.32-2.343 0-1.261.412-2.334 1.235-3.22-.386-.948-.35-2.01.11-3.187.301-.094.749-.024 1.343.211s1.029.435 1.304.602c.277.166.498.308.664.422a11.28 11.28 0 016 0l.594-.375a8.396 8.396 0 011.438-.688c.551-.208.973-.265 1.266-.171.468 1.177.51 2.24.125 3.188.823.885 1.234 1.958 1.233 3.219 0 .884-.106 1.668-.32 2.35-.213.683-.489 1.23-.827 1.642a4.368 4.368 0 01-1.266 1.039 6.361 6.361 0 01-1.469.608c-.526.135-1.06.23-1.601.283.541.469.812 1.208.812 2.218v3.297a.621.621 0 00.195.468c.13.125.335.163.618.11 2.416-.803 4.387-2.248 5.912-4.336C23.238 16.966 24 14.614 24 12c0-2.177-.537-4.185-1.61-6.024z" fill="#fff" fill-opacity=".3"/></g><defs><clipPath id="clip0_214_740"><path fill="#fff" d="M0 0h24v23.413H0z"/></clipPath></defs></svg>