<svg width="24" height="22" fill="none" xmlns="http://www.w3.org/2000/svg"><g clip-path="url(#clip0_1417_2119)"><path d="M.425 10.492l5.526 2.163 2.143 7.21a.637.637 0 001.032.327l3.08-2.633a.88.88 0 011.121-.03l5.562 4.227a.64.64 0 001.016-.411L23.982.816a.666.666 0 00-.875-.775L.415 9.214a.695.695 0 00.01 1.277zm7.325 1.012l10.8-6.976a.195.195 0 01.23.313L9.86 13.53c-.317.31-.519.718-.574 1.158l-.302 2.356a.274.274 0 01-.542.042L7.27 12.785a1.168 1.168 0 01.48-1.281z" fill="#fff" fill-opacity=".3"/></g><defs><clipPath id="clip0_1417_2119"><path fill="#fff" d="M0 0h24v21.885H0z"/></clipPath></defs></svg>