<svg width="170" height="173" fill="none" xmlns="http://www.w3.org/2000/svg"><circle cx="87.175" cy="86.958" r="66.316" fill="url(#paint0_linear_257_623)" stroke="#fff" stroke-width="1.802"/><path d="M112.061 63.791a58.793 58.793 0 00-14.792-4.604 42.763 42.763 0 00-1.895 3.897c-5.515-.822-10.98-.822-16.393 0a41.465 41.465 0 00-1.918-3.897 58.599 58.599 0 00-14.803 4.616C52.9 77.816 50.361 91.48 51.63 104.952c6.209 4.593 12.226 7.384 18.142 9.209a44.592 44.592 0 003.885-6.339 38.282 38.282 0 01-6.118-2.95 30.19 30.19 0 001.5-1.175c11.797 5.466 24.615 5.466 36.271 0 .491.405.993.799 1.5 1.175a38.197 38.197 0 01-6.129 2.956 44.415 44.415 0 003.885 6.339c5.921-1.826 11.944-4.616 18.153-9.215 1.489-15.616-2.543-29.156-10.658-41.16zM75.264 96.668c-3.541 0-6.445-3.275-6.445-7.264 0-3.988 2.842-7.269 6.445-7.269 3.604 0 6.508 3.275 6.446 7.27.006 3.988-2.842 7.263-6.446 7.263zm23.82 0c-3.54 0-6.445-3.275-6.445-7.264 0-3.988 2.842-7.269 6.446-7.269 3.603 0 6.507 3.275 6.445 7.27 0 3.988-2.842 7.263-6.445 7.263z" fill="#fff"/><circle cx="146.327" cy="104.878" r="14.97" fill="#fff" stroke="#fff" stroke-width="1.261"/><mask id="a" style="mask-type:alpha" maskUnits="userSpaceOnUse" x="131" y="90" width="30" height="30"><circle cx="146.327" cy="104.878" r="14.34" fill="#C4C4C4"/></mask><g mask="url(#a)"><path d="M180.737 90.527h-54.49v2.208h54.49v-2.208zm0 26.469h-54.49v2.208h54.49v-2.208zm0-4.414h-54.49v2.208h54.49v-2.208zm0-4.403h-54.49v2.208h54.49v-2.208zm0-4.414h-54.49v2.209h54.49v-2.209zm0-4.421h-54.49v2.208h54.49v-2.209zm0-4.399h-54.49v2.208h54.49v-2.208z" fill="#B01820"/><path d="M180.737 114.792h-54.49v2.209h54.49v-2.209zm0-4.406h-54.49v2.209h54.49v-2.209zm0-4.414h-54.49v2.209h54.49v-2.209zm0-4.418h-54.49v2.209h54.49v-2.209zm0-4.398h-54.49v2.208h54.49v-2.208zm0-4.418h-54.49v2.208h54.49v-2.208z" fill="#fff"/><path d="M148.045 90.534h-21.796v15.444h21.796V90.534z" fill="#002A70"/><path d="M131.699 91.187l-.201.617h-.645l.53.373-.201.616.517-.387.516.387-.201-.616.531-.373h-.646l-.2-.617zm3.626 0l-.186.617h-.645l.516.373-.201.616.516-.387.531.387-.201-.616.516-.373h-.645l-.201-.617zm3.644 0l-.201.617h-.645l.516.373-.201.616.531-.387.516.387-.201-.616.516-.373h-.645l-.186-.617zm3.629 0l-.201.617h-.645l.531.373-.201.616.516-.387.516.387-.201-.616.531-.373h-.645l-.201-.617zm3.11 1.606l.516-.387.531.387-.201-.616.516-.373h-.645l-.201-.617-.186.617h-.645l.516.373-.201.616zm-14.009 1.479l-.201.617h-.645l.53.373-.201.617.517-.373.516.373-.201-.617.531-.373h-.646l-.2-.617zm3.626 0l-.186.617h-.645l.516.373-.201.617.516-.373.531.373-.201-.617.516-.373h-.645l-.201-.617zm3.644 0l-.201.617h-.645l.516.373-.201.617.531-.373.516.373-.201-.617.516-.373h-.645l-.186-.617zm3.629 0l-.201.617h-.645l.531.373-.201.617.516-.373.516.373-.201-.617.531-.373h-.645l-.201-.617zm3.626 0l-.186.617h-.645l.516.373-.201.617.516-.373.531.373-.201-.617.516-.373h-.645l-.201-.617zm-14.525 3.095l-.201.602h-.645l.53.387-.201.603.517-.373.516.373-.201-.603.531-.387h-.646l-.2-.602zm3.626 0l-.187.602h-.645l.516.387-.2.603.516-.373.53.373-.2-.603.516-.387h-.645l-.201-.602zm3.643 0l-.201.602h-.645l.516.387-.2.603.53-.373.516.373-.2-.603.516-.387h-.645l-.187-.602zm3.629 0l-.201.602h-.645l.531.387-.201.603.516-.373.516.373-.201-.603.531-.387h-.645l-.201-.602zm3.628 0l-.186.602h-.645l.516.387-.201.603.516-.373.531.373-.201-.603.516-.387h-.645l-.201-.602zm-14.526 3.082l-.201.617h-.645l.53.372-.201.617.517-.387.516.387-.201-.617.531-.372h-.646l-.2-.617zm3.626 0l-.187.617h-.645l.516.372-.2.617.516-.387.53.387-.2-.617.516-.372h-.645l-.201-.617zm3.643 0l-.201.617h-.645l.516.372-.2.617.53-.387.516.387-.2-.617.516-.372h-.645l-.187-.617zm3.629 0l-.201.617h-.645l.531.372-.201.617.516-.387.516.387-.201-.617.531-.372h-.645l-.201-.617zm3.628 0l-.186.617h-.645l.516.372-.201.617.516-.387.531.387-.201-.617.516-.372h-.645l-.201-.617zm-14.326 3.701l-.2-.603-.201.603h-.645l.53.387-.201.602.517-.373.516.373-.201-.602.531-.387h-.646zm3.627 0l-.201-.603-.186.603h-.645l.516.387-.201.602.516-.373.531.373-.201-.602.516-.387h-.645zm3.629 0l-.186-.603-.201.603h-.645l.516.387-.201.602.531-.373.516.373-.201-.602.516-.387h-.645zm3.644 0l-.201-.603-.201.603h-.645l.531.387-.201.602.516-.373.516.373-.201-.602.531-.387h-.645zm3.626 0l-.201-.603-.186.603h-.645l.516.387-.201.602.516-.373.531.373-.201-.602.516-.387h-.645zm-12.908-11.416l-.2.602h-.646l.517.387-.201.602.53-.373.517.373-.201-.602.516-.387h-.645l-.187-.602zm3.629 0l-.2.602h-.646l.531.387-.201.602.516-.373.517.373-.201-.602.53-.387h-.645l-.201-.602zm3.627 0l-.187.602h-.645l.516.387-.201.602.517-.373.53.373-.201-.602.517-.387h-.646l-.2-.602zm3.643 0l-.2.602h-.646l.517.387-.201.602.53-.373.517.373-.201-.602.516-.387h-.645l-.187-.602zm-10.899 3.086l-.201.617h-.645l.516.373-.201.616.531-.387.516.387-.201-.617.517-.372h-.646l-.186-.617zm3.629 0l-.201.617h-.645l.53.373-.2.616.516-.387.516.387-.201-.617.531-.372h-.645l-.201-.617zm3.626 0l-.186.617h-.646l.517.373-.201.616.516-.387.531.387-.201-.617.516-.372h-.645l-.201-.617zm3.643 0l-.2.617h-.646l.517.373-.201.616.53-.387.517.387-.201-.617.516-.372h-.645l-.187-.617zm-10.898 3.094l-.201.602h-.645l.516.373-.201.617.531-.373.516.373-.201-.617.517-.373h-.646l-.186-.602zm3.629 0l-.201.602h-.645l.53.373-.2.617.516-.373.516.373-.201-.617.531-.373h-.645l-.201-.602zm3.626 0l-.186.602h-.646l.517.373-.201.617.516-.373.531.373-.201-.617.516-.373h-.645l-.201-.602zm3.643 0l-.2.602h-.646l.517.373-.201.617.53-.373.517.373-.201-.617.516-.373h-.645l-.187-.602zm-10.712 3.698l-.186-.616-.201.616h-.645l.516.373-.201.603.531-.373.516.373-.201-.603.517-.373h-.646zm3.644 0l-.201-.616-.201.616h-.645l.53.373-.2.603.516-.373.516.373-.201-.603.531-.373h-.645zm3.626 0l-.201-.616-.186.616h-.646l.517.373-.201.603.516-.373.531.373-.201-.603.516-.373h-.645zm3.629 0l-.187-.616-.2.616h-.646l.517.373-.201.603.53-.373.517.373-.201-.603.516-.373h-.645z" fill="#fff"/></g><circle cx="133.781" cy="136.256" r="14.97" fill="#fff" stroke="#fff" stroke-width="1.261"/><mask id="b" style="mask-type:alpha" maskUnits="userSpaceOnUse" x="119" y="121" width="30" height="30"><circle cx="133.781" cy="136.256" r="14.34" fill="#C4C4C4"/></mask><g mask="url(#b)"><path d="M162.46 141.037h-43.019v9.564h43.019v-9.564z" fill="#D52B1E"/><path d="M162.46 131.486h-43.019v9.565h43.019v-9.565z" fill="#0039A6"/><path d="M162.46 121.92h-43.019v9.565h43.019v-9.565z" fill="#fff"/></g><path d="M86.28 1.3s69.986 2.876 79.093 69.527l4.257-13.489S149.931-4.452 86.28 1.3zm5.377 171.284S14.625 169.412 4.6 95.926L.242 110.907c.11 0 21.356 68.019 91.415 61.677z" fill="#00C4F5" fill-opacity=".1"/><defs><linearGradient id="paint0_linear_257_623" x1="52.223" y1="27.808" x2="130.194" y2="142.524" gradientUnits="userSpaceOnUse"><stop stop-color="#48DBFF"/><stop offset="1" stop-color="#32B7E5"/></linearGradient></defs></svg>