<svg width="59" height="82" fill="none" xmlns="http://www.w3.org/2000/svg"><g clip-path="url(#clip0_214_485)" fill="#fff" fill-opacity=".7"><path d="M11.303 72.85H6.368a.224.224 0 00-.228.23v2.431c0 .132.098.23.228.23H8.29v3.023s-.44.148-1.629.148c-1.4 0-3.371-.526-3.371-4.88 0-4.369 2.052-4.944 3.974-4.944 1.661 0 2.378.296 2.834.444.147.05.277-.099.277-.23l.554-2.35a.211.211 0 00-.082-.18C10.652 66.641 9.528 66 6.661 66 3.371 66 0 67.413 0 74.197 0 80.981 3.86 82 7.118 82c2.703 0 4.332-1.166 4.332-1.166.065-.033.081-.132.081-.181V73.08a.224.224 0 00-.228-.23zm25.408-6.029a.224.224 0 00-.228-.23h-2.768a.224.224 0 00-.229.23v5.405h-4.332V66.82a.224.224 0 00-.228-.23h-2.769a.224.224 0 00-.228.23v14.653c0 .132.098.23.228.23h2.77c.13 0 .227-.098.227-.23V75.2h4.332v6.259c0 .131.098.23.229.23H36.5c.13 0 .228-.099.228-.23V66.82h-.017zm-20.18 1.922c0-1.002-.798-1.823-1.791-1.823-.994 0-1.792.821-1.792 1.823s.798 1.824 1.792 1.824c.993 0 1.791-.822 1.791-1.824zm-.195 9.627v-6.768a.224.224 0 00-.228-.23h-2.769c-.13 0-.244.131-.244.262v9.692c0 .28.179.362.407.362h2.492c.277 0 .342-.132.342-.378v-2.94zm30.914-6.966h-2.753a.224.224 0 00-.228.23v7.18s-.7.508-1.694.508-1.254-.46-1.254-1.429v-6.258a.224.224 0 00-.228-.23H38.29a.224.224 0 00-.227.23v6.735c0 2.907 1.612 3.63 3.827 3.63 1.824 0 3.274-1.019 3.274-1.019s.065.526.097.592c.033.066.114.131.196.131h1.775c.13 0 .228-.098.228-.23v-9.84c.017-.13-.081-.23-.212-.23zm7.524-.328c-1.563 0-2.622.706-2.622.706v-4.96a.224.224 0 00-.228-.23h-2.785a.224.224 0 00-.228.23v14.652c0 .132.097.23.228.23h1.938c.081 0 .146-.049.195-.131.05-.082.114-.674.114-.674s1.14 1.085 3.29 1.085c2.525 0 3.974-1.298 3.974-5.816.017-4.5-2.296-5.092-3.876-5.092zM53.7 79.322c-.96-.032-1.596-.46-1.596-.46v-4.648s.635-.395 1.417-.46c.993-.083 1.954.213 1.954 2.595-.016 2.513-.44 3.023-1.775 2.973zm-29.383-7.95h-2.085v-2.777c0-.098-.049-.164-.18-.164H19.22c-.114 0-.163.05-.163.148v2.875s-1.417.345-1.515.378a.232.232 0 00-.163.23v1.806c0 .132.098.23.228.23h1.45v4.337c0 3.22 2.231 3.532 3.746 3.532.684 0 1.515-.23 1.645-.28.082-.032.13-.114.13-.213v-1.987a.234.234 0 00-.228-.23c-.114 0-.44.049-.749.049-1.026 0-1.368-.477-1.368-1.1v-4.124h2.085c.13 0 .228-.098.228-.23v-2.25a.234.234 0 00-.228-.23z"/></g><g clip-path="url(#clip1_214_485)"><path fill-rule="evenodd" clip-rule="evenodd" d="M29.139 0C14.848 0 3.256 11.478 3.256 25.629c0 11.32 7.463 20.912 17.626 24.371 1.27.157 1.746-.629 1.746-1.258V44.34c-7.145 1.572-8.733-3.46-8.733-3.46-1.111-2.987-2.858-3.773-2.858-3.773-2.382-1.572.159-1.572.159-1.572 2.54.157 3.97 2.673 3.97 2.673 2.381 3.93 6.033 2.83 7.462 2.2.16-1.729.953-2.83 1.588-3.458-5.716-.63-11.75-2.83-11.75-12.736 0-2.83.953-5.032 2.7-6.918-.16-.472-1.112-3.145.317-6.604 0 0 2.223-.63 7.145 2.673 2.065-.63 4.288-.786 6.51-.786 2.224 0 4.447.314 6.511.786 4.922-3.302 7.145-2.673 7.145-2.673 1.43 3.459.477 6.132.318 6.76 1.588 1.73 2.7 4.089 2.7 6.92 0 9.905-6.034 11.949-11.75 12.578.952.786 1.746 2.358 1.746 4.717v7.075c0 .63.476 1.415 1.746 1.258C47.876 46.54 55.18 36.95 55.18 25.629 55.02 11.478 43.43 0 29.139 0z" fill="#fff"/></g><defs><clipPath id="clip0_214_485"><path fill="#fff" transform="translate(0 66)" d="M0 0h58.667v16H0z"/></clipPath><clipPath id="clip1_214_485"><path fill="#fff" transform="translate(3.256)" d="M0 0h51.765v50H0z"/></clipPath></defs></svg>