<svg width="79" height="75" fill="none" xmlns="http://www.w3.org/2000/svg"><path d="M72.224 50.173a36.5 36.5 0 11-9.65-39.676" stroke="#25FF08"/><path d="M69 31.28l-.15.15-19.749 21.854-40.85-20.752 38.795 13.233 15.088-19.548.15-.2 2.155 1.704-.15.15-16.44 20.801-9.223-3.007 9.724 4.26 18.194-20.3.1-.15 2.357 1.804z" fill="#25FF08"/><path d="M78.323 13.485l-4.26 25.563L68.9 31.48l-.05-.05-2.305-1.805.1-.15 2.606-2.857 2.005 2.556 1.103-8.32-8.12 2.706 2.556 1.203-2.356 2.957-.15.15-2.155-1.653-.452-.351-7.167-2.506 23.808-9.875zM13 31.01l23.346 6.273 5.384-7.426.654 3.312L45 23.283l-8.956 4.667 3.07.652-4.026 6.172L13 31.011zm-5 4.273l11.613 10.17.593-2.125L25 52.283l-8.797-3.997 1.977-1.012L8 35.284z" fill="#25FF08"/></svg>