<svg width="53" height="49" fill="none" xmlns="http://www.w3.org/2000/svg"><path d="M5.422 13.503a20.298 20.298 0 0116.22-.844c10.25 3.86 15.646 15.318 12.015 25.676a19.568 19.568 0 01-4.118 6.918c3.662-2.756 6.933-8.162 6.933-8.162l9.452-6.38c.13-.08.03-.266-.082-.225-1.669.384-6.007 1.102-6.874-1.025-1.089-2.65-1.916-8.25 14.45-20.66.13-.08.03-.265-.138-.204-3.506 1.526-15.69 6.583-18.726 5.909-2.827-.623-2.363-4.502-2.064-6.038.05-.209-.199-.372-.385-.273-1.485.888-5.82 3.19-9.58 1.48-3.15-1.426-4.061-4.458-4.355-6.317-.069-.451-.637-.53-.854-.167-1.063 1.877-3.013 5.154-3.961 5.689-1.264.712-5.266 1.308-7.933 4.623z" fill="#5C5C86"/><path d="M24.405 20.188c-.975-1.2-2.082-2.416-4.754-3.572a16.169 16.169 0 00-2.758-.87l.04 1.508c2.152.075 4.661.782 7.472 2.934zm-9.37-2.656l-.24-1.975a13.478 13.478 0 00-7.03 1.695l2.36 2.918c.902-.835 2.584-2.143 4.91-2.638zM4.164 38.7c1.518 1.733 3.422 3.135 5.709 4.018a14.51 14.51 0 007.338.73l-1.94-7.003a7.452 7.452 0 01-3.344-.214 7.924 7.924 0 01-2.215-1.035L4.164 38.7zM.9 27.261a14.41 14.41 0 001.936 9.701l5.14-3.23a6.775 6.775 0 01-.845-1.278l-.122-.337-.122-.336-.02-.056c-.003-.094-.062-.168-.064-.263l-.04-.112c-.021-.056-.024-.15-.044-.206-.02-.056-.04-.112-.023-.15-.02-.056-.023-.15-.043-.207-.02-.056-.003-.094-.023-.15-.02-.056-.04-.112-.043-.206-.02-.056-.003-.095-.023-.15-.02-.057-.023-.15-.043-.207-.02-.056-.003-.094-.023-.15a.882.882 0 00-.046-.3c-.02-.057-.002-.095-.005-.19-.02-.055-.022-.15-.043-.206l-.153-.071-5.35-1.896zm.72-2.735c-.088.19-.14.4-.173.57l4.99 1.773.037.018c-.002-.094.051-.209.049-.303.115-.645.286-1.31.533-1.938.442-1.144 1.018-2.178 1.75-3.046l-3.038-2.862c-1.83 1.425-3.267 3.406-4.147 5.788zm19.14 8.34c-.813 1.342-2.03 2.355-3.448 2.996l2.11 7.037c2.6-.88 4.933-2.488 6.649-4.665l1.33 3.228c4.591-10.42 1.34-17.107 1.34-17.107l.038.018c-2.142 3.188-11.06 7.63-11.06 7.63l3.042.863z" fill="#5C5C86"/></svg>