<svg width="50" height="46" fill="none" xmlns="http://www.w3.org/2000/svg"><path d="M40.211 19.367s10.865 4.615 9.702 16.75c0 0-1.999-2.034-2.798-2.434 0 0-7.776 19.913-40.406 8.975 0 0 5.015-1.744 5.233-2.543 0 0-13.408-6.722-11.81-20.385l1.78.473s3.162-7.05 11.556-7.231c0 0-18.277 9.702-2.108 22.128 16.17 12.428 31.322-.98 31.322-.98s6.213-5.778-2.47-14.753z" fill="#5C5C86"/><path d="M37.813 20.13s4.215 3.415 4.034 9.265c0 0-.654-1.453-1.163-1.707 0 0-4.179 11.881-24.563 5.087 0 0 1.853-.364 1.962-.872 0 0-7.885-4.18-6.867-12.718l.98 1.199s-.181-2.798 5.197-4.251c0 0-9.23 5.014 1.38 12.063 9.848 6.577 17.478.327 17.478.327s5.015-2.434 1.563-8.393z" fill="#5C5C86"/><path d="M16.992 12.536l3.234-8.212 4.87 1.453L26.222 0l9.665 3.706-1.453 4.797 5.014 1.49-1.853 6.83-5.305-1.09-1.853 6.105-8.212-1.163 1.308-6.758-6.54-1.381z" fill="#5C5C86"/></svg>