<svg width="49" height="36" fill="none" xmlns="http://www.w3.org/2000/svg"><path d="M10.666 10.51l4.1-4.277 15.853 7.83-10.1 14.56-11.7-6.941c-1.893-1.145-4.231-2.641-5.158-3.333.659-.79 1.723-1.98 2.857-3.484l2.462-2.601 1.686-1.755zm6.601 10.436l1.197-4.173a2.238 2.238 0 001.605-.895c.703-.925.6-2.161-.173-2.738-.774-.576-1.971-.252-2.646.68-.54.751-.767 1.455-.4 2.087l-3.597 2.91 4.014 2.129zm4.409 8.555l.212 4.111 9.692-14.626-.678-4.706-9.226 15.221zM2.011 21.875L21.832 33.72l-1.875-3.746L4.24 19.904c-.913-.318-1.343-.317-1.897.025-.45.278-.87 1.685-.332 1.946zm38.224-9.001l-3.191 3.764 2.702 1.395 3.605-4.878c.267-.362.455-.772.506-1.245l-.002-.122-1.56 1.087s-.962-.802-1.425-1.154c-.013.057-.015-.064-.028-.007-.137.453-.318.835-.607 1.16zm3.098-4.27l.419-.234-.322-.561-.097.795zm-1.543.243l-.927.72c.022.036.022.036.015.065l1.805 1.214 1.377-.827c.019-.208.03-.387.014-.573l-1.066.537-1.218-1.136zm-.275-2.429l.415.037-.147-.277-.243.003-.025.237zm-.551.537l-.33 1.013.084.414 1.014-.7-.768-.727zm-1.063-.251l-.31.412.252.605.208-1.012-.15-.005zm-.137-1.729l-.09.251.572.014-.483-.265zm-2.147.493l-.836.591.52.88.309-.412.007-1.059zm-9.929 5.478l2.457 1.277 3.478-4.211c.127-.152.275-.268.43-.414.15-.116.327-.226.497-.307.1-.037.207-.103.335-.133l.527-.179c.029.007.035-.022.064-.015l-.28-.612-.797-.218-.101-.6.958-1.107-1.605.38a2.883 2.883 0 00-1.483.892l-4.48 5.247z" fill="#5C5C86"/><path d="M41.93 6.455l-.147-.277-.243.003-.025.237.415.037zm-1.212 1.927l1.014-.7-.768-.727-.33 1.013.084.414zm-.817-1.678l-.31.412.252.605.208-1.011-.15-.006zm-2.292-.176l.007-1.06-.836.591.52.88.309-.411zm6.008.871l-.162.173-.026.237-.09.767.413-.206.448-.228c-.16-.22-.372-.482-.583-.743zm-2.118-2.712l-.164.052.746.691.035-.022c-.297-.282-.479-.537-.617-.721zm-1.736.288l-.09.251.573.014.064-.015.088-.373-.579.015-.056.108zM37.658 3.75l.095.63.454-.257.072-.56-.288-.067s-.106.066-.333.255zm3.112 5.826l-.028.116.078-.073-.05-.043z" fill="#606060"/><path d="M43.455 7.572l-.026.237-.096.795.419-.234.447-.228 1.827-.933-1.408-.969-1 1.158-.163.174zm-6.162-5.999l.365 2.178.13.606.426-.263.1-.552.188-1.44-1.209-.529zm2.613 1.253L41.475.802l.08 1.2-1.382 1.493-.267-.669zm.728 5.142l.084.414 1.014-.7-.768-.727-.33 1.013zm.665-3.208l.746.692.035-.022 1.778-.854.318-.834-2.678.945-.2.074zm-4.519 1.3l.52.88.309-.412.007-1.06-.836.591zm2.894-.834l.572.014.064-.015.088-.373-.579.015-.056.108-.09.251zm-.082 1.89l.251.605.208-1.011-.15-.006-.31.412zm1.948-.935l-.025.237.415.037-.147-.277-.243.003z" fill="#5C5C86"/><path d="M40.77 9.576l-.028.116.078-.073-.05-.043z" fill="#606060"/><path d="M45.69 4.008l3.225-1.21-.48 1.524-2.323.21-.422-.524z" fill="#5C5C86"/></svg>