<svg width="43" height="44" fill="none" xmlns="http://www.w3.org/2000/svg"><path d="M13.258 8.07l.836 3.506-4.783 18.84c.758-.046 1.986-.063 2.038.016l7.376-19.146L14.769.726 13.258 8.07zm-6.345.873L6.23 29.465c.078-.052 1.198.453 1.87.755l3.156-19.328 1.954-2.859L14.69.777 6.913 8.943zM1.338 30.421l4.73-.174 2.487 1.319 2.77-.241 4.265 2-.12 2.941-4.383-2.284-5.534-1.258-5.248.448 1.033-2.751zm11.036.441l.579-1.213.733 1.907-1.312-.694zM3.91 29.568l1.437-1.484.032 1.354-1.469.13z" fill="#5C5C86"/><path d="M5.358 39.363l.424-5.775 2.306.493 2.3.45-1.826 5.389c.529.531.78 1.223.612 1.963-.238 1.216-1.587 2.01-2.98 1.708-1.392-.303-2.298-1.511-2.059-2.727a2.206 2.206 0 011.223-1.5zm1.095 3.18c.74.167 1.412-.251 1.548-.903.135-.652-.362-1.273-1.06-1.445-.741-.167-1.413.251-1.548.903-.183.615.32 1.277 1.06 1.444zm32.914-29.609l-.752 2.529-9.695 10.101c.459.28 1.272.648 1.262.768l11.44-9.355 1.269-8.028-3.524 3.985zm-4.255-1.738L27.378 23.81c.06.005.604.713.928 1.161l8.807-11.019 2.259-1.078L42.9 8.83l-7.789 2.367zM23.977 22.685l3.003 1.574 1.063 1.715 1.86.817 1.936 2.812-1.111 1.776-1.921-2.992-3.028-2.72-3.422-1.61 1.62-1.372zm6.758 4.235l.773-.599-.244 1.487-.529-.888zm-4.863-3.837l1.422-.424-.494.862-.928-.438z" fill="#5C5C86"/><path d="M23.272 29.736l2.338-3.482 1.291 1.131 1.292 1.132-3.06 2.759c.14.493.035 1.027-.299 1.421-.598.673-1.685.704-2.473.036-.788-.668-.938-1.765-.34-2.438.334-.394.773-.599 1.251-.56zm-.438 2.373c.394.334.998.324 1.267-.015.329-.334.259-.943-.195-1.282-.394-.333-.998-.323-1.267.016-.269.34-.199.948.195 1.281z" fill="#5C5C86"/></svg>