<svg width="43" height="28" fill="none" xmlns="http://www.w3.org/2000/svg"><path d="M15.32 5.826L37.553 2.67l.22-.03-.017.147-5.435 21.82-2.095-6.75-8.114 7.343 1.267-5.08.504-1.849.543-1.916-.007-.027.02-.034.685-.64.32 1.513 6.229-5.639.46 3.847 3.024-10.35L24.5 6.937l3.795.84-6.23 5.638 1.38.46-.692.613.007.027-2.022.341-1.828.319-5.167.756 8.114-7.344-6.537-2.76z" fill="#5C5C86"/><path d="M21.195 14.42l1.227-.642.333.71.007.027-10.415 9.417-.027.007-1.88.447 10.3-9.53.455-.435zm3.899 2.297l-.676-.39-10.415 9.417-.651 1.831 10.972-9.68.77-1.178zM2.516 9.972l8.054-1.136.068-.018-.025.043-1.937 7.892-.759-2.424-2.94 2.65.457-1.839.185-.67.176-.704.034-.01.227-.243.112.554 2.267-2.03.151 1.382 1.109-3.764-3.863.706 1.365.328-2.232 2.022.482.163-.227.243-.734.123-.665.106-1.894.288 2.94-2.65-2.351-1.012z" fill="#5C5C86"/><path d="M4.63 13.093l.449-.23.14.254-3.8 3.39-.68.183 3.747-3.45.143-.147zm1.424.822l-.259-.15-3.757 3.417-.228.645 3.952-3.505.292-.406z" fill="#5C5C86"/></svg>