<svg width="50" height="29" fill="none" xmlns="http://www.w3.org/2000/svg"><path d="M43.372 13.036l-.107.107L29.223 28.68.178 13.927l27.584 9.408L38.49 9.437l.107-.143 1.533 1.212-.107.107-11.69 14.79-6.557-2.139 6.914 3.03L41.626 11.86l.07-.107 1.676 1.283z" fill="#5C5C86"/><path d="M50 .384l-3.029 18.175-3.67-5.38-.036-.037-1.64-1.282.072-.107L43.55 9.72l1.425 1.818.785-5.916-5.774 1.924 1.818.856-1.675 2.102-.107.107-1.533-1.176-.32-.25-5.097-1.781L50 .384zM3.555 12.845l16.6 4.46 3.827-5.28.465 2.354 1.86-7.028-6.367 3.318 2.182.463-2.862 4.389-15.705-2.676zM0 15.882l8.257 7.231.422-1.51 3.408 6.366-6.254-2.841 1.405-.72L0 15.882z" fill="#5C5C86"/></svg>