<svg width="44" height="46" fill="none" xmlns="http://www.w3.org/2000/svg"><path d="M31.059 13.735s-2.402 5.883-3.922 9.51l-9.02-2.059 3.04-10.392c3.087-.393 9.902 2.941 9.902 2.941zm-13.04 7.648L14.048 36.48 8.85 23.883c-.49-1.128-.686-3.579-.392-4.755l9.56 2.255z" fill="#5C5C86"/><path d="M.567 17.608l.784-4.51c.931-5.393 2.01-11.08 2.01-11.08S9.194-.873 21.058.696l2.45.343C29.147 2.018 35.96 3.931 44 7.46c0 0-2.55 6.961-5.49 13.677l-1.03 2.353c-1.96 4.265-4.02 8.138-5.49 9.413-3.138 2.745-13.873 9.559-18.53 12.451a.372.372 0 01-.197.098c-1.47.686-2.745.392-2.745.392l-.441-.49S-.61 25.745.027 21.284c.098-.931.295-2.206.54-3.676zm11.47 24.56s14.511-9.756 17.256-12.158c2.746-2.402 7.5-20.099 7.5-20.099C18.314 1.774 7.382 5.744 7.382 5.744S4.243 18.05 3.802 21.088c-.392 3.04 8.236 21.08 8.236 21.08z" fill="#5C5C86"/></svg>