<svg width="80" height="82" fill="none" xmlns="http://www.w3.org/2000/svg"><path fill-rule="evenodd" clip-rule="evenodd" d="M15.666 0h50v50h-50V0zm11.51 15.625c.307.277.464.685.423 1.097v14.846a1.708 1.708 0 01-.455 1.474l-3.529 4.28v.564H33.62v-.564l-3.528-4.28c-.38-.39-.56-.934-.486-1.474v-12.84l8.781 19.158h1.02L46.95 18.73V34c0 .407 0 .485-.267.752l-2.713 2.633v.565h13.172v-.565l-2.618-2.57a.784.784 0 01-.298-.753V15.17a.784.784 0 01.298-.752l2.681-2.571v-.565h-9.283L41.304 27.79l-7.527-16.508h-9.738v.565l3.136 3.778z" fill="#fff"/><g clip-path="url(#clip0_214_477)"><path d="M40.583 80.214c0 .282 0 .346.185.519l1.036 1.05v.044h-4.596V79.81c-.463 1.329-1.687 2.207-3.049 2.189-2.363 0-4.078-1.92-4.078-5.453 0-3.309 1.85-5.517 4.449-5.517 1.151-.075 2.223.613 2.671 1.716v-4.448a.56.56 0 00-.21-.538l-.987-.986v-.044l4.579-.557v14.041zm-3.375-.64v-6.636a1.698 1.698 0 00-1.37-.666c-1.117 0-2.197 1.05-2.197 4.166 0 2.919.932 3.949 2.092 3.949a1.833 1.833 0 001.475-.813zm6.423 2.253v-8.96a.615.615 0 00-.185-.538l-1.018-1.087v-.045h4.597v9.087c0 .282 0 .346.185.519l1.012.986v.044l-4.591-.006zm-.167-13.907c0-1.06.83-1.92 1.851-1.92 1.023 0 1.852.86 1.852 1.92s-.83 1.92-1.852 1.92c-1.022 0-1.85-.86-1.85-1.92zm15.963 12.275c0 .282 0 .365.185.538l1.037 1.05v.044h-4.622v-2.298c-.42 1.453-1.703 2.454-3.165 2.47-2.049 0-3.147-1.548-3.147-4.48 0-1.414 0-2.962.043-4.703a.555.555 0 00-.185-.519l-1.018-1.055v-.045h4.56v5.843c0 1.92.271 3.2 1.431 3.2a1.845 1.845 0 001.493-.967v-6.4a.614.614 0 00-.185-.537l-1.024-1.094v-.045h4.597v8.998zm15.648 1.632c0-.346.062-4.749.062-5.76 0-1.92-.29-3.245-1.592-3.245a2.049 2.049 0 00-1.635.922c.13.598.193 1.21.185 1.824 0 1.331-.043 3.027-.062 4.723a.555.555 0 00.185.518l1.037.986v.045h-4.64c0-.32.062-4.749.062-5.76 0-1.952-.29-3.245-1.574-3.245a1.84 1.84 0 00-1.53.947v6.528c0 .282 0 .346.185.519l1.012.985v.045h-4.59v-8.96a.615.615 0 00-.186-.537l-1.018-1.12v-.045h4.597v2.278c.426-1.504 1.784-2.515 3.295-2.451 1.53 0 2.567.883 3.005 2.56.486-1.547 1.887-2.584 3.455-2.56 2.049 0 3.209 1.568 3.209 4.531 0 1.414-.043 3.027-.062 4.723a.52.52 0 00.21.518l1.012.986v.045h-4.622zm-57.749-1.395l1.364 1.35v.045h-6.917v-.045l1.389-1.35a.555.555 0 00.185-.519V71.28c0-.365 0-.858.061-1.28L8.744 82h-.056L3.857 70.96c-.105-.275-.136-.294-.204-.48v7.238c-.058.485.021.976.228 1.415l1.944 2.65v.044H.667v-.045l1.943-2.656a2.6 2.6 0 00.228-1.408v-8a1.588 1.588 0 00-.32-1.094l-1.376-1.85v-.044h4.936l4.134 9.35 3.64-9.35h4.832v.044l-1.358 1.568a.56.56 0 00-.21.538v11.033a.52.52 0 00.21.519zm5.412-4.327v.045c0 2.74 1.364 3.84 2.962 3.84 1.334.047 2.57-.729 3.147-1.977h.043C28.334 80.72 26.718 82 24.3 82c-2.611 0-5.073-1.632-5.073-5.415 0-3.974 2.468-5.561 5.195-5.561 2.197 0 4.536 1.075 4.536 4.531v.55h-6.22zm0-.55h3.042v-.557c0-2.816-.562-3.565-1.407-3.565-1.024 0-1.647 1.12-1.647 4.122h.012z" fill="#fff" fill-opacity=".7"/></g><defs><clipPath id="clip0_214_477"><path fill="#fff" transform="translate(.667 66)" d="M0 0h79.03v16H0z"/></clipPath></defs></svg>