<svg width="16" height="16" fill="none" xmlns="http://www.w3.org/2000/svg"><path d="M12.363 3.604C9.293.24 5.183-.98 3.173.849c-.338.294-.587.678-.767 1.084-.88 2.077.09 5.396 2.574 8.174.022.045.068.068.113.113l.022.022.023.023c2.438 2.664 5.554 3.974 7.722 3.454.068-.022.113-.022.18-.045a3.04 3.04 0 001.265-.7c1.987-1.806 1.13-6.006-1.942-9.37zm.768 7.541c-1.355 1.22-4.245.249-6.458-2.19C4.46 6.517 3.738 3.56 5.07 2.317c1.332-1.22 4.245-.249 6.458 2.19s2.935 5.42 1.603 6.638zm-11.99-5.96L.125 6.472C-.055 5.456.012 4.823.012 4.823l1.22-1.919s-.045.136-.09.384c-.068.384-.113 1.061 0 1.897zm.678 2.212L.78 8.617a10.989 10.989 0 01-.52-1.513l1.017-1.22c.068.226.135.452.226.7.09.271.203.542.316.813zm1.016 1.987l-.971 1.152a9.332 9.332 0 01-.835-1.423L2.067 7.94c.203.497.452.948.768 1.445zm1.603 1.942l-.993 1.061-.181-.18a14.22 14.22 0 01-1.129-1.265l.994-1.106c.383.474.79.97 1.31 1.49zm2.032 1.739l-.993.993a16.186 16.186 0 01-1.671-1.31l1.016-1.038c.429.406.925.813 1.467 1.242a.63.63 0 01.181.113zm2.213 1.287l-.971.948c-.542-.226-1.129-.542-1.784-.948l.994-.949c.632.407 1.219.723 1.76.949zm3.048.428L10.173 16s-.768-.045-1.942-.497l1.016-.948c1.265.406 2.1.293 2.394.248.045-.022.09-.022.09-.022z" fill="#fff" fill-opacity=".7"/><path d="M12.16 10.716c-.022 0-.045.023-.068.023-1.422-.09-3.25-1.061-4.741-2.71-1.197-1.309-1.965-2.8-2.19-4.064 0-.135 0-.27.022-.406.61.022 1.942.18 3.387 1.22.271.202.542.428.813.677.023.022.045.045.09.067.113.113.249.226.362.362.022.022.022.045.045.045.768.835 2.145 2.596 2.28 4.787z" fill="#fff" fill-opacity=".7"/><path d="M9.518 5.568l-.09-.09.09.09z" fill="#606060"/></svg>