<svg width="15" height="16" fill="none" xmlns="http://www.w3.org/2000/svg"><path d="M14.274 6.87s-3.49 3.62-5.977 1.276c0 0 1.328-.977 1.588-.716.248.247-.117.898-.13.924.052-.052 1.094-.95.73-1.458-.287-.404-2.123-.091-4.324 1.315l-.82-.677-.104 1.328c-.365.274-.73.573-1.107.912L1.929 2.013S3.648.763 5.614.242L5.81.45v.769l.456.507-.286-.586.39-.846-.04-.221c.847-.13 1.693-.105 2.448.234l1.576 5.86-.156-5.04s1.614-.143 2.135-.885l.287 3.867c.664 1.25 1.654 2.761 1.654 2.761zM1.005 2.3s-1.055.247-1.003.442l3.672 13.256s.794.04 1.068-.26L1.005 2.299z" fill="#fff" fill-opacity=".7"/></svg>