<svg width="16" height="19" fill="none" xmlns="http://www.w3.org/2000/svg"><path d="M15.848 11.102a7.118 7.118 0 00-2.34-4.865 6.824 6.824 0 00-5.033-1.762c-3.83.237-6.73 3.61-6.492 7.508.05.695.187 1.356.407 1.983a7.13 7.13 0 002.152 3.085c.136.119.289.22.441.339.136.102.271.186.407.271 1.05.644 2.254 1 3.542 1 .136 0 .288 0 .424-.017a6.844 6.844 0 005.119-2.83 4.96 4.96 0 00.406-.627c.068-.12.136-.238.204-.373.135-.271.254-.56.373-.848.27-.746.406-1.56.406-2.39-.017-.17-.017-.322-.017-.474zm-1.458 2.847c-.085.187-.17.373-.254.543a2.705 2.705 0 01-.22.372c-.085.12-.153.238-.238.356a5.08 5.08 0 01-.56.644 5.835 5.835 0 01-6.474 1.306 6.01 6.01 0 01-.576-.272c-.153-.084-.305-.186-.458-.288-.102-.067-.203-.152-.305-.22a6.234 6.234 0 01-1.881-2.44 5.854 5.854 0 01-.475-2.035c-.203-3.356 2.288-6.27 5.576-6.474.12 0 .255-.017.373-.017 1.458 0 2.848.542 3.95 1.525a6.21 6.21 0 011.423 1.899 6.26 6.26 0 01.593 2.305c.068 1-.118 1.949-.474 2.796z" fill="#fff" fill-opacity=".7"/><path d="M4.05 5.322a4.746 4.746 0 00-.677.458 5.8 5.8 0 00-.983 1.067s0 .017-.017.017c-.576.78-1 1.695-1.22 2.678l-.356-.39L0 8.272V8.22a7.122 7.122 0 012.068-3.373l1.203.289.695.169.085.017zm11.086.814c.017 0 .017 0 0 0 .017 0 .017 0 0 0zm0-.034c0 .017 0 .017 0 0 0 .017 0 .017 0 0 0 .017 0 .017 0 0zm-.289-.39c0 .017.017.017 0 0 .153.186.238.339.272.39-.051-.068-.204-.34-.441-.61.068.084.118.17.17.22zM13.73 4.187l-.271.169a.355.355 0 01.101.068l.255-.322-.017-.017-.068.102zm2.203 1.067a7.075 7.075 0 00-3.085-2.474l-1.034.678-.593.39-.05.033c.27.051.542.12.796.204.475.17.915.407 1.288.678 0 0 .017 0 .017.017a7.19 7.19 0 012.068 2.1l.203-.491L16 5.288c-.05 0-.068-.017-.068-.034zm-.78.882c-.016 0-.016 0 0 0-.016-.017-.016-.017 0 0-.016-.017-.016-.017 0 0l-.016-.017c-.051-.068-.204-.34-.441-.61a2.683 2.683 0 00-.39-.373c-.017-.017-.034-.017-.034-.034l.119.05c-.255-.27-.543-.559-.83-.728l.253-.322-.016-.017.101-.153a9.389 9.389 0 00-.813-.542c-.051-.034-.085-.05-.102-.068 0 0-.017 0-.017-.017 0 0-.017 0-.017-.017 0 0 .034 0 .05.017.018 0 .018 0 .035.017.017 0 .017 0 .034.017.017 0 .017 0 .034.017.254.085.525.22.762.39.017 0 .017.017.034.017.034.017.085.05.119.085.424.288.949.728 1.424 1.39l.034.033.017.017-.34.848zm-.305-.424c0 .017.017.017 0 0 .153.186.238.339.272.39-.051-.068-.204-.34-.441-.61.068.084.118.17.17.22zM9.508 0L3.407 1.237l.491 2.424 1.95-.39 1.576-.322-.119-.271-.254-.56.017.018L6.83.898l.068-.017L8.881.475l.322 1.593-1.78.305.052.288.05.271.509-.101 1.949-.39L9.508 0z" fill="#fff" fill-opacity=".7"/><path d="M8.237 3.78h-.034c-.762.05-1.491.22-2.152.491l-.204-1.017-.05-.27 1.508-.306.119.271.203.424-.102-.458-.05-.27.508-.103.05.272.204.966zm.203 1.05l-1.88.373a5.832 5.832 0 011.711-.372.29.29 0 00.17 0zm4.763 6.441a4.363 4.363 0 00-1.44-3A4.189 4.189 0 008.66 7.186a4.787 4.787 0 00-.712.102l1.136 4.339-1.916 2.322-.847 1.017a4.451 4.451 0 001.881.864c.238.051.475.068.73.068h.27c.238-.017.458-.05.678-.101h.017a4.26 4.26 0 001.356-.594 4.245 4.245 0 001.22-1.237 4.362 4.362 0 00.712-2.407.567.567 0 00.017-.288z" fill="#fff" fill-opacity=".7"/></svg>