<svg width="12" height="16" fill="none" xmlns="http://www.w3.org/2000/svg"><path d="M0 6.6l.258.674 2.54 1.435.459-.043c.215-.244.373-.53.502-.732l-.057-.258-2.468-1.98-.373.015C.574 6.01 0 6.6 0 6.6zm4.147.66l-2.64-2.224.043-.732.703-.66.774.173L5.18 6.256l-.1.416-.374.459-.56.13z" fill="#fff" fill-opacity=".7"/><path d="M1.765 10.718c.215.416 2.123 1.334 2.123 1.334l.474 3.4c.143.101.287.187.43.259.1.043.187.086.287.115a3.47 3.47 0 001.205.172l-.2-2.525 2.31 1.492-.015-1.234.703 1.52c.388-.186.631-.33.631-.33l-.76-4.218 2.382-4.49-.201-.976-2.367-2.611-.833-.13-2.927 1.866-.043.602 1.277 1.32 1.005-.459 1.047-2.683c-.014.144-.273 2.11-.143 2.281.129.187 2.195.259 2.195.259s-2.138.574-2.64.86c-.517.288-1.335 4.32-1.335 4.32.13.229 1.923.057 1.923.057-2.052 1.018-4.16.918-4.16.918l1.333-.933S6.572 7.088 6.543 6.93c0-.029-.1.043-.259.186-.76.69-2.955 2.927-2.955 2.927L1.593 8.91c-.015.014-.043 1.377.172 1.808zm2.668-6.5L3.3 3.243l-.144-.632.804-.832.603.015 1.018 1.19-1.119.732-.029.502zm1.794-1.721l-1.32-1.435-.043-.445L5.739 0l.847.273 1.076 1.391-1.435.833z" fill="#fff" fill-opacity=".7"/><path d="M7.662 1.664l.244.144-.273.043-1.406.646 1.435-.833zm-6.069 7.26l1.105.574h.875l.89-1.148-.058-.3.56-.044.832-.947.215-.33.287.43-2.784 3.774L1.98 9.541l-.387-.617zM6.17 5.266l-1.206-.302-.043-.688 1.263-.904.086-.13.258-.057 1.406-.689-1.764 2.77z" fill="#fff" fill-opacity=".7"/></svg>