<svg width="16" height="17" fill="none" xmlns="http://www.w3.org/2000/svg"><path d="M4.706 4.911s.874 2.14 1.426 3.459l3.28-.75-1.105-3.778c-1.123-.143-3.601 1.07-3.601 1.07zm4.742 2.781l1.444 5.49 1.89-4.58c.178-.41.25-1.302.142-1.73l-3.476.82z" fill="#fff" fill-opacity=".7"/><path d="M15.794 6.32l-.285-1.64c-.339-1.961-.731-4.03-.731-4.03S12.657-.4 8.343.17L7.45.294C5.401.651 2.923 1.346 0 2.63c0 0 .927 2.53 1.997 4.973l.374.856c.713 1.55 1.462 2.959 1.996 3.422 1.141.999 5.045 3.476 6.739 4.528a.135.135 0 00.071.036c.535.25.998.142.998.142l.16-.178s3.887-7.13 3.655-8.752a24.462 24.462 0 00-.196-1.337zm-4.171 8.93s-5.277-3.547-6.275-4.42C4.35 9.956 2.62 3.52 2.62 3.52 9.34.563 13.316 2.007 13.316 2.007s1.141 4.474 1.301 5.58c.143 1.104-2.994 7.665-2.994 7.665z" fill="#fff" fill-opacity=".7"/></svg>