<svg width="235" height="22" fill="none" xmlns="http://www.w3.org/2000/svg"><path d="M9.974 21.391c.274.015.553.022.837.022 2.175 0 4.06-.43 5.655-1.29a8.95 8.95 0 003.71-3.755c.858-1.623 1.287-3.52 1.287-5.69 0-2.171-.429-4.058-1.287-5.662a8.812 8.812 0 00-3.71-3.696C14.871.44 12.986 0 10.811 0 8.637 0 6.742.44 5.126 1.32a9.041 9.041 0 00-3.71 3.696C.54 6.62.1 8.506.1 10.677c0 .318.01.629.027.934h5.628c-.02-.3-.03-.611-.03-.934 0-2.131.449-3.745 1.346-4.84.898-1.095 2.145-1.642 3.74-1.642 1.596 0 2.843.557 3.74 1.672.918 1.095 1.377 2.698 1.377 4.81 0 2.132-.459 3.755-1.377 4.87-.897 1.114-2.144 1.672-3.74 1.672-.28 0-.56-.018-.837-.055v4.227zm35.077-.242V.264h-5.296v11.792L30.091.264h-4.1v20.885h5.237V9.3l9.664 11.85h4.159zM65.346.264h-15.2v20.885h15.2v-4.224h-9.724v-4.282h9.095V8.419h-9.095V4.488h9.724V.264zm34.713 0h-3.022l-5.805 16.69L85.428.295l-2.274-.03-5.894 16.603L71.545.264h-3.142l7.48 20.885h2.574L84.23 5.016l5.745 16.133h2.573l7.51-20.885z" fill="#fff"/><path fill-rule="evenodd" clip-rule="evenodd" d="M115.461 15.987l2.274 5.162h3.142L111.362.264h-2.603L99.274 21.15h3.142l2.274-5.163h10.771zm-1.047-2.405h-8.677l4.338-9.945 4.339 9.944z" fill="#fff"/><path d="M129.528 12.76L138.025.264h-3.53l-6.493 9.856-6.523-9.856h-3.53l8.467 12.438v8.447h3.112V12.76z" fill="#fff"/><path fill-rule="evenodd" clip-rule="evenodd" d="M155.435 12.232c-.679-.88-1.626-1.476-2.843-1.79 1.077-.39 1.905-.987 2.484-1.789.598-.801.897-1.77.897-2.904 0-1.78-.588-3.138-1.765-4.077-1.157-.939-2.813-1.408-4.967-1.408h-7.869V21.15h8.198c2.214 0 3.91-.48 5.087-1.438 1.197-.958 1.795-2.366 1.795-4.224 0-1.31-.339-2.395-1.017-3.256zm-6.343-2.288h-6.463V1.408h6.463c3.69 0 5.535 1.389 5.535 4.165 0 1.428-.469 2.513-1.406 3.256-.938.744-2.314 1.115-4.129 1.115zm4.637 9.005c-.897.704-2.294 1.056-4.189 1.056h-6.911v-8.858h6.911c3.71 0 5.566 1.496 5.566 4.488 0 1.486-.459 2.59-1.377 3.315z" fill="#fff"/><path d="M162.722.264V21.15h11.32v-1.115h-10.094V.265h-1.226z" fill="#fff"/><path fill-rule="evenodd" clip-rule="evenodd" d="M179.818 20.093c1.416.86 3.072 1.291 4.967 1.291 1.915 0 3.57-.43 4.967-1.29 1.416-.861 2.493-2.093 3.231-3.697.758-1.623 1.137-3.53 1.137-5.72s-.379-4.077-1.137-5.661c-.738-1.604-1.815-2.836-3.231-3.696C188.355.46 186.7.03 184.785.03c-1.915 0-3.571.43-4.967 1.29-1.396.86-2.473 2.092-3.231 3.696-.738 1.604-1.108 3.5-1.108 5.69 0 2.19.37 4.088 1.108 5.691.758 1.604 1.835 2.836 3.231 3.696zm10.831-2.405c-1.396 1.662-3.351 2.493-5.864 2.493-2.514 0-4.468-.83-5.865-2.493-1.396-1.682-2.094-4.019-2.094-7.01 0-2.993.688-5.31 2.064-6.953 1.397-1.662 3.361-2.493 5.895-2.493 2.533 0 4.488.821 5.864 2.464 1.396 1.643 2.095 3.97 2.095 6.981 0 3.012-.699 5.349-2.095 7.011z" fill="#fff"/><path d="M202.611 20.123c1.416.84 3.102 1.261 5.057 1.261 2.992 0 5.405-.939 7.24-2.816l-.628-1.027c-1.057.939-2.104 1.614-3.142 2.024-1.017.411-2.184.616-3.5.616-2.593 0-4.598-.83-6.014-2.493-1.417-1.662-2.125-4-2.125-7.01 0-2.993.708-5.31 2.125-6.953 1.436-1.662 3.441-2.493 6.014-2.493 1.316 0 2.483.205 3.5.616 1.038.41 2.085 1.085 3.142 2.024l.628-1.027C213.073.968 210.66.03 207.668.03c-1.955 0-3.641.43-5.057 1.291-1.416.84-2.513 2.063-3.291 3.667-.758 1.584-1.137 3.48-1.137 5.69 0 2.21.379 4.127 1.137 5.75.778 1.603 1.875 2.835 3.291 3.696zm30.058 1.026h1.855l-12.507-10.618L233.836.264h-1.796l-11.31 9.768V.264h-1.226v20.885h1.226V11.06l11.939 10.09z" fill="#fff"/><path d="M0 15.283h6.233v6.11H0v-6.11z" fill="#2670FF"/></svg>