<svg width="20" height="16" fill="none" xmlns="http://www.w3.org/2000/svg"><g clip-path="url(#clip0_107_35)"><path d="M17.96 0h1.9v10.257h-1.9V0zm-1.165.863a7.736 7.736 0 01-2.182 1.631 7.732 7.732 0 01-3.438.812H3.142v3.889a2.242 2.242 0 001.241 2.004V16l3.31-1.655V8.27H5.381a1.077 1.077 0 01-1.075-1.076v-.243h6.869c.358 0 .715.025 1.07.076v.167a1.077 1.077 0 01-1.077 1.076H8.857v6.074L12.167 16V9.198a2.242 2.242 0 001.239-1.915 7.653 7.653 0 013.39 2.11V.863zM0 2.685h1.978v4.887H0V2.685z" fill="#6DD0E7"/></g><defs><clipPath id="clip0_107_35"><path fill="#fff" d="M0 0h19.86v16H0z"/></clipPath></defs></svg>