<svg width="17" height="16" fill="none" xmlns="http://www.w3.org/2000/svg"><g clip-path="url(#clip0_107_37)"><path d="M16.415 2.037a1.197 1.197 0 01-1.242.282l-.595 1.354-.461.329.9.9-.697.696-.958-.957-.889.888a6.2 6.2 0 01.467.289l.21.147v.256c0 1.626-.232 3.158-.693 4.552a8.872 8.872 0 01-.084.246l3.369 3.32-.125 1.116-1.115.124-2.887-2.847c-.209.387-.44.76-.693 1.12-.825 1.172-1.654 1.859-2.047 2.148v-3.572c.05-.071.1-.144.148-.216.835-1.264 1.357-2.761 1.55-4.451l.042-.383-.361-.134a5.787 5.787 0 00-1.38-.338V4.402a8.003 8.003 0 011.876.372l1.373-1.372-.957-.958.696-.697.9.9.329-.462 1.354-.593a1.194 1.194 0 111.97.445zM7.89 12.428l-.149-.217C6.905 10.948 6.383 9.45 6.192 7.76l-.044-.384.362-.134a5.745 5.745 0 011.38-.335V4.403a7.992 7.992 0 00-1.858.366l-1.388-1.37.955-.955-.697-.697-.9.9-.33-.461L2.32 1.59a1.192 1.192 0 10-.728.728l.595 1.354.46.33-.899.899.698.697.959-.96.898.884a5.98 5.98 0 00-.478.295l-.21.147v.256c0 1.626.233 3.158.692 4.552.037.111.076.222.115.33L1.105 14.42l.124 1.116 1.115.124 2.848-2.85c.198.36.415.707.65 1.041.825 1.172 1.654 1.859 2.048 2.148v-3.572zm.493-1.046c.583-.97.972-2.09 1.16-3.338a4.123 4.123 0 00-1.16-.18 4.137 4.137 0 00-1.159.178c.187 1.249.576 2.369 1.16 3.34z" fill="#6DD0E7"/></g><defs><clipPath id="clip0_107_37"><path fill="#fff" d="M0 0h16.764v16H0z"/></clipPath></defs></svg>