<svg width="16" height="16" fill="none" xmlns="http://www.w3.org/2000/svg"><path d="M4.944 6.47c-.52 0-.941.304-.941.682v1.71c0 .172.09.331.238.452l2.845-2.845H4.944zm6.112 3.074c.52 0 .94-.308.94-.683v-1.71c0-.18-.096-.345-.255-.467l-2.858 2.86h2.173zM4.944 6.47c-.52 0-.941.304-.941.682v1.71c0 .172.09.331.238.452l2.845-2.845H4.944zm6.797.214l-2.858 2.86h2.173c.52 0 .94-.308.94-.683v-1.71c0-.18-.096-.345-.255-.467zm4.066-6.51a.619.619 0 00-.874.014L8.65 6.47 5.577 9.544l-1.23 1.23-4.166 4.165a.62.62 0 10.878.876l.48-.48 1.259-1.26L6.1 10.774l1.23-1.23 3.073-3.074 1.23-1.23 2.435-2.436 1.741-1.741.013-.013a.62.62 0 00-.015-.875zm.186 7.833a7.994 7.994 0 01-12.315 6.725l3.958-3.959h4.36a1.23 1.23 0 001.23-1.23V6.47a1.225 1.225 0 00-.39-.898l1.889-1.889a7.955 7.955 0 011.268 4.324zM12.31 1.274L8.345 5.239H4.003a1.23 1.23 0 00-1.23 1.23v3.075a1.227 1.227 0 00.38.887l-1.886 1.886A7.995 7.995 0 0112.31 1.274z" fill="#6DD0E7"/></svg>