<svg width="66" height="66" fill="none" xmlns="http://www.w3.org/2000/svg"><g clip-path="url(#clip0_580_31)" fill="#fff"><path d="M23.807 30.863l-.962 10.454s-.384 3.207 2.822 0c3.207-3.206 6.285-5.708 6.285-5.708l-8.145-4.746z"/><path d="M17.073 27.72L6.492 24.259s-1.283-.514-.834-1.668c.064-.256.256-.449.77-.77C8.8 20.217 49.78 5.466 49.78 5.466s1.155-.384 1.86-.128c.321.128.513.257.706.77.064.192.128.577.064.962 0 .256-.064.513-.064.898-.257 4.04-7.696 34.119-7.696 34.119s-.45 1.731-2.053 1.795c-.577 0-1.282-.128-2.116-.834-3.142-2.693-13.98-10.004-16.418-11.608a.353.353 0 01-.192-.32c-.064-.193.128-.385.128-.385s18.92-16.803 19.432-18.599c.064-.128-.128-.192-.32-.128-1.283.449-23.024 14.238-25.461 15.713-.128.064-.578 0-.578 0z"/><path opacity=".5" d="M55.657 39.982l5.462 2.859.147 4.362-10.08 3.665-3.74 3.556-3.555-1.21-11.987 5.059-11.51-.806-3.115-7.588 1.906-2.75-3.96 1.833 1.247 4.985L12 59.556l5.718-3.702 1.723 3.702 7.515.55-.404 2.382 12.537 2.163 3.812-2.64-4.545.147-5.719-1.392 1.173-.99 10.08-4.032 5.17 3.262 3.665-6.818 10.447-3.666.66-6.048-8.175-2.492z"/></g><defs><clipPath id="clip0_580_31"><path fill="#fff" d="M0 0h66v66H0z"/></clipPath></defs></svg>