<svg width="170" height="173" fill="none" xmlns="http://www.w3.org/2000/svg"><circle cx="85.161" cy="86.036" r="66.316" fill="url(#paint0_linear_257_605)" stroke="#fff" stroke-width="1.802"/><path d="M75.024 94.983l-1.38 14.99s-.551 4.598 4.047 0 9.013-8.185 9.013-8.185l-11.68-6.805z" fill="#fff"/><path d="M65.37 90.478l-15.174-4.966s-1.839-.736-1.195-2.391c.092-.368.368-.644 1.104-1.104 3.402-2.299 62.167-23.45 62.167-23.45s1.656-.552 2.667-.184c.46.183.736.367 1.012 1.103.092.276.184.828.092 1.38 0 .367-.092.735-.092 1.287-.368 5.794-11.036 48.925-11.036 48.925s-.643 2.483-2.943 2.575c-.827 0-1.839-.184-3.034-1.195-4.507-3.863-20.049-14.347-23.543-16.646a.506.506 0 01-.276-.46c-.092-.276.184-.552.184-.552s27.129-24.094 27.865-26.67c.092-.183-.184-.275-.46-.183-1.839.644-33.015 20.416-36.51 22.531-.184.092-.827 0-.827 0z" fill="#fff"/><circle cx="129.074" cy="129.949" r="14.97" fill="#fff" stroke="#fff" stroke-width="1.261"/><mask id="a" style="mask-type:alpha" maskUnits="userSpaceOnUse" x="114" y="115" width="30" height="30"><circle cx="129.074" cy="129.949" r="14.34" fill="#C4C4C4"/></mask><g mask="url(#a)"><path d="M157.754 134.723h-43.019v9.565h43.019v-9.565z" fill="#D52B1E"/><path d="M157.754 125.173h-43.019v9.564h43.019v-9.564z" fill="#0039A6"/><path d="M157.754 115.606h-43.019v9.565h43.019v-9.565z" fill="#fff"/></g><path d="M86.058.378s69.985 2.876 79.092 69.528l4.256-13.49S149.708-5.373 86.058.379zm5.376 171.284S14.4 168.49 4.377 95.004L.02 109.985c.109 0 21.356 68.019 91.415 61.677z" fill="#00C4F5" fill-opacity=".1"/><defs><linearGradient id="paint0_linear_257_605" x1="50.208" y1="26.885" x2="128.18" y2="141.602" gradientUnits="userSpaceOnUse"><stop stop-color="#4FBE3D"/><stop offset="1" stop-color="#38AB41"/></linearGradient></defs></svg>