<svg width="189" height="192" fill="none" xmlns="http://www.w3.org/2000/svg"><circle cx="95" cy="96" r="74" fill="url(#paint0_linear_214_583)" stroke="#fff" stroke-width="2"/><path d="M83.692 105.981l-1.54 16.726s-.615 5.131 4.515 0c5.131-5.13 10.056-9.132 10.056-9.132l-13.031-7.594z" fill="#fff"/><path d="M72.918 100.953l-16.932-5.541s-2.052-.82-1.333-2.668c.102-.41.41-.718 1.23-1.231 3.797-2.566 69.367-26.167 69.367-26.167s1.847-.615 2.976-.205c.513.205.821.41 1.129 1.231.103.308.205.924.103 1.54 0 .41-.103.82-.103 1.436-.411 6.465-12.314 54.59-12.314 54.59s-.718 2.771-3.283 2.874c-.924 0-2.053-.206-3.387-1.334-5.028-4.31-22.37-16.008-26.268-18.573a.565.565 0 01-.308-.513c-.103-.308.205-.616.205-.616s30.271-26.885 31.092-29.758c.102-.205-.206-.308-.513-.205-2.053.718-36.838 22.78-40.738 25.14-.205.103-.923 0-.923 0z" fill="#fff"/><circle cx="144" cy="145" r="16.7" fill="#fff" stroke="#fff" stroke-width="1.4"/><mask id="a" style="mask-type:alpha" maskUnits="userSpaceOnUse" x="128" y="129" width="32" height="32"><circle cx="144" cy="145" r="16" fill="#C4C4C4"/></mask><g mask="url(#a)"><path d="M176 150.328h-48V161h48v-10.672z" fill="#D52B1E"/><path d="M176 139.672h-48v10.672h48v-10.672z" fill="#0039A6"/><path d="M176 129h-48v10.672h48V129z" fill="#fff"/></g><path d="M96 .422S174.089 3.632 184.251 78L189 62.95S167.02-5.998 96 .421zm6 191.112S16.048 187.996 4.863 106L0 122.716c.122 0 23.828 75.895 102 68.818z" fill="#00C4F5" fill-opacity=".1"/><defs><linearGradient id="paint0_linear_214_583" x1="56" y1="30" x2="143" y2="158" gradientUnits="userSpaceOnUse"><stop stop-color="#37ACE9"/><stop offset="1" stop-color="#198EC5"/></linearGradient></defs></svg>