<svg width="170" height="173" fill="none" xmlns="http://www.w3.org/2000/svg"><circle cx="85.141" cy="86.958" r="66.316" fill="url(#paint0_linear_257_522)" stroke="#fff" stroke-width="1.802"/><path d="M75.394 115.634c25.409 0 39.268-21.02 39.268-39.267 0-.616 0-1.155-.077-1.771 2.695-1.925 5.005-4.389 6.852-7.16-2.463 1.077-5.158 1.847-7.93 2.155 2.849-1.694 5.005-4.389 6.083-7.622-2.695 1.616-5.621 2.694-8.778 3.387-2.541-2.695-6.082-4.388-10.086-4.388A13.768 13.768 0 0086.944 74.75c0 1.078.154 2.156.385 3.156-11.473-.538-21.636-6.082-28.412-14.398a13.891 13.891 0 00-1.848 6.93c0 4.774 2.464 9.008 6.16 11.472a14.209 14.209 0 01-6.236-1.694v.154c0 6.699 4.773 12.243 11.087 13.551a14.13 14.13 0 01-3.619.462 14.5 14.5 0 01-2.618-.23c1.771 5.466 6.853 9.47 12.858 9.547a27.766 27.766 0 01-17.17 5.928c-1.077 0-2.232-.076-3.31-.153 6.082 3.849 13.32 6.159 21.173 6.159z" fill="#fff"/><circle cx="129.057" cy="130.871" r="14.97" fill="#fff" stroke="#fff" stroke-width="1.261"/><mask id="a" style="mask-type:alpha" maskUnits="userSpaceOnUse" x="114" y="116" width="30" height="30"><circle cx="129.057" cy="130.871" r="13.889" fill="#C4C4C4" stroke="#fff" stroke-width=".901"/></mask><g mask="url(#a)"><path d="M163.468 116.528h-54.49v2.208h54.49v-2.208zm.001 26.469h-54.49v2.209h54.49v-2.209zm0-4.414h-54.49v2.209h54.49v-2.209zm0-4.402h-54.49v2.208h54.49v-2.208zm0-4.414h-54.49v2.208h54.49v-2.208zm0-4.422h-54.49v2.209h54.49v-2.209zm0-4.398h-54.49v2.208h54.49v-2.208z" fill="#B01820"/><path d="M163.471 140.795h-54.49v2.208h54.49v-2.208zm0-4.402h-54.49v2.208h54.49v-2.208zm0-4.414h-54.49v2.208h54.49v-2.208zm0-4.422h-54.49v2.208h54.49v-2.208zm0-4.399h-54.49v2.208h54.49v-2.208zm0-4.418H108.98v2.208h54.491v-2.208z" fill="#fff"/><path d="M130.777 116.533H108.98v15.443h21.797v-15.443z" fill="#002A70"/><path d="M114.43 117.192l-.201.617h-.646l.531.373-.201.616.517-.387.516.387-.201-.616.531-.373h-.646l-.2-.617zm3.628 0l-.186.617h-.645l.516.373-.201.616.516-.387.531.387-.201-.616.516-.373h-.645l-.201-.617zm3.642 0l-.201.617h-.645l.516.373-.201.616.531-.387.516.387-.201-.616.516-.373h-.645l-.186-.617zm3.628 0l-.2.617h-.646l.531.373-.201.616.516-.387.517.387-.201-.616.53-.373h-.645l-.201-.617zm3.111 1.606l.516-.387.531.387-.201-.616.516-.373h-.645l-.201-.617-.186.617h-.645l.516.373-.201.616zm-14.009 1.479l-.201.617h-.646l.531.373-.201.616.517-.372.516.372-.201-.616.531-.373h-.646l-.2-.617zm3.628 0l-.186.617h-.645l.516.373-.201.616.516-.372.531.372-.201-.616.516-.373h-.645l-.201-.617zm3.642 0l-.201.617h-.645l.516.373-.201.616.531-.372.516.372-.201-.616.516-.373h-.645l-.186-.617zm3.628 0l-.2.617h-.646l.531.373-.201.616.516-.372.517.372-.201-.616.53-.373h-.645l-.201-.617zm3.627 0l-.186.617h-.645l.516.373-.201.616.516-.372.531.372-.201-.616.516-.373h-.645l-.201-.617zm-14.525 3.095l-.201.602h-.646l.531.387-.201.603.517-.373.516.373-.201-.603.531-.387h-.646l-.2-.602zm3.628 0l-.187.602h-.645l.516.387-.2.603.516-.373.53.373-.2-.603.516-.387h-.645l-.201-.602zm3.641 0l-.201.602h-.645l.516.387-.201.603.531-.373.516.373-.2-.603.516-.387h-.646l-.186-.602zm3.629 0l-.201.602h-.645l.53.387-.2.603.516-.373.516.373-.201-.603.531-.387h-.645l-.201-.602zm3.628 0l-.186.602h-.645l.516.387-.201.603.516-.373.531.373-.201-.603.516-.387h-.645l-.201-.602zm-14.526 3.082l-.201.616h-.646l.531.373-.201.617.517-.387.516.387-.201-.617.531-.373h-.646l-.2-.616zm3.628 0l-.187.616h-.645l.516.373-.2.617.516-.387.53.387-.2-.617.516-.373h-.645l-.201-.616zm3.641 0l-.201.616h-.645l.516.373-.201.617.531-.387.516.387-.2-.617.516-.373h-.646l-.186-.616zm3.629 0l-.201.616h-.645l.53.373-.2.617.516-.387.516.387-.201-.617.531-.373h-.645l-.201-.616zm3.628 0l-.186.616h-.645l.516.373-.201.617.516-.387.531.387-.201-.617.516-.373h-.645l-.201-.616zm-14.326 3.701l-.2-.603-.201.603h-.646l.531.387-.201.602.517-.373.516.373-.201-.602.531-.387h-.646zm3.629 0l-.201-.603-.186.603h-.645l.516.387-.201.602.516-.373.531.373-.201-.602.516-.387h-.645zm3.627 0l-.186-.603-.201.603h-.645l.516.387-.201.602.531-.373.516.373-.201-.602.516-.387h-.645zm3.643 0l-.201-.603-.2.603h-.646l.531.387-.201.602.516-.373.517.373-.201-.602.53-.387h-.645zm3.627 0l-.201-.603-.186.603h-.645l.516.387-.201.602.516-.373.531.373-.201-.602.516-.387h-.645zm-12.904-11.416l-.2.602h-.646l.516.387-.2.602.53-.373.517.373-.201-.602.516-.387h-.645l-.187-.602zm3.627 0l-.201.602h-.645l.531.387-.201.602.516-.373.516.373-.2-.602.53-.387h-.645l-.201-.602zm3.627 0l-.187.602h-.645l.516.387-.201.602.517-.373.53.373-.201-.602.517-.387h-.646l-.2-.602zm3.643 0l-.2.602h-.646l.516.387-.2.602.53-.373.516.373-.2-.602.516-.387h-.645l-.187-.602zm-10.897 3.086l-.201.617h-.645l.516.372-.201.617.531-.387.516.387-.201-.617.516-.372h-.645l-.186-.617zm3.627 0l-.201.617h-.645l.53.372-.2.617.516-.387.516.387-.201-.617.531-.372h-.645l-.201-.617zm3.626 0l-.186.617h-.646l.517.372-.201.617.516-.387.531.387-.201-.617.516-.372h-.645l-.201-.617zm3.643 0l-.2.617h-.646l.516.372-.2.617.53-.387.517.387-.201-.617.516-.372h-.645l-.187-.617zm-10.896 3.094l-.201.602h-.645l.516.373-.201.616.531-.372.516.372-.201-.616.516-.373h-.645l-.186-.602zm3.627 0l-.201.602h-.645l.53.373-.2.616.516-.372.516.372-.201-.616.531-.373h-.645l-.201-.602zm3.626 0l-.186.602h-.646l.517.373-.201.616.516-.372.531.372-.201-.616.516-.373h-.645l-.201-.602zm3.643 0l-.2.602h-.646l.516.373-.2.616.53-.372.517.372-.201-.616.516-.373h-.645l-.187-.602zm-10.71 3.698l-.186-.616-.201.616h-.645l.516.373-.201.602.531-.372.516.372-.201-.602.516-.373h-.645zm3.642 0l-.201-.616-.201.616h-.645l.53.373-.2.602.516-.372.516.372-.201-.602.531-.373h-.645zm3.626 0l-.201-.616-.186.616h-.646l.517.373-.201.602.516-.372.531.372-.201-.602.516-.373h-.645zm3.629 0l-.187-.616-.2.616h-.646l.516.373-.2.602.53-.372.517.372-.201-.602.516-.373h-.645z" fill="#fff"/></g><path d="M86.038 1.3s69.985 2.876 79.092 69.527l4.257-13.489S149.688-4.452 86.038 1.3zm5.377 171.284s-77.033-3.172-87.057-76.658L0 110.907c.109 0 21.356 68.019 91.415 61.677z" fill="#00C4F5" fill-opacity=".1"/><defs><linearGradient id="paint0_linear_257_522" x1="50.188" y1="27.808" x2="128.159" y2="142.524" gradientUnits="userSpaceOnUse"><stop stop-color="#FFD748"/><stop offset="1" stop-color="#E59D32"/></linearGradient></defs></svg>