<svg width="189" height="192" fill="none" xmlns="http://www.w3.org/2000/svg"><circle cx="95" cy="96" r="74" fill="url(#paint0_linear_1417_1921)" stroke="#fff" stroke-width="2"/><path d="M84.125 127.997c28.351 0 43.815-23.454 43.815-43.815 0-.687 0-1.288-.086-1.976 3.007-2.148 5.584-4.897 7.646-7.99-2.749 1.203-5.756 2.062-8.849 2.406 3.179-1.89 5.584-4.897 6.787-8.505-3.007 1.804-6.271 3.007-9.794 3.78C120.809 68.89 116.857 67 112.39 67c-8.505 0-15.378 6.873-15.378 15.378 0 1.203.172 2.406.43 3.522C84.64 85.3 73.3 79.113 65.74 69.835a15.499 15.499 0 00-2.062 7.732c0 5.327 2.749 10.052 6.873 12.8a15.854 15.854 0 01-6.96-1.89v.172c0 7.475 5.327 13.66 12.372 15.121a15.794 15.794 0 01-4.038.515 16.05 16.05 0 01-2.92-.258c1.975 6.1 7.645 10.568 14.346 10.653a30.982 30.982 0 01-19.158 6.616c-1.203 0-2.491-.086-3.694-.172 6.787 4.295 14.862 6.873 23.625 6.873z" fill="#fff"/><circle cx="144" cy="145" r="16.7" fill="#fff" stroke="#fff" stroke-width="1.4"/><mask id="a" style="mask-type:alpha" maskUnits="userSpaceOnUse" x="128" y="129" width="32" height="32"><circle cx="144" cy="145" r="15.5" fill="#C4C4C4" stroke="#fff"/></mask><g mask="url(#a)"><path d="M182.4 129h-60.8v2.464h60.8V129zm0 29.536h-60.8V161h60.8v-2.464zm0-4.928h-60.8v2.464h60.8v-2.464zm0-4.912h-60.8v2.464h60.8v-2.464zm0-4.928h-60.8v2.464h60.8v-2.464zm0-4.928h-60.8v2.464h60.8v-2.464zm0-4.912h-60.8v2.464h60.8v-2.464z" fill="#B01820"/><path d="M182.4 156.072h-60.8v2.464h60.8v-2.464zm0-4.912h-60.8v2.464h60.8v-2.464zm0-4.928h-60.8v2.464h60.8v-2.464zm0-4.928h-60.8v2.464h60.8v-2.464zm0-4.912h-60.8v2.464h60.8v-2.464zm0-4.928h-60.8v2.464h60.8v-2.464z" fill="#fff"/><path d="M145.92 129H121.6v17.232h24.32V129z" fill="#002A70"/><path d="M127.68 129.736l-.224.688h-.72l.592.416-.224.688.576-.432.576.432-.224-.688.592-.416h-.72l-.224-.688zm4.048 0l-.208.688h-.72l.576.416-.224.688.576-.432.592.432-.224-.688.576-.416h-.72l-.224-.688zm4.064 0l-.224.688h-.72l.576.416-.224.688.592-.432.576.432-.224-.688.576-.416H136l-.208-.688zm4.048 0l-.224.688h-.72l.592.416-.224.688.576-.432.576.432-.224-.688.592-.416h-.72l-.224-.688zm3.472 1.792l.576-.432.592.432-.224-.688.576-.416h-.72l-.224-.688-.208.688h-.72l.576.416-.224.688zm-15.632 1.648l-.224.688h-.72l.592.416-.224.688.576-.416.576.416-.224-.688.592-.416h-.72l-.224-.688zm4.048 0l-.208.688h-.72l.576.416-.224.688.576-.416.592.416-.224-.688.576-.416h-.72l-.224-.688zm4.064 0l-.224.688h-.72l.576.416-.224.688.592-.416.576.416-.224-.688.576-.416H136l-.208-.688zm4.048 0l-.224.688h-.72l.592.416-.224.688.576-.416.576.416-.224-.688.592-.416h-.72l-.224-.688zm4.048 0l-.208.688h-.72l.576.416-.224.688.576-.416.592.416-.224-.688.576-.416h-.72l-.224-.688zm-16.208 3.456l-.224.672h-.72l.592.432-.224.672.576-.416.576.416-.224-.672.592-.432h-.72l-.224-.672zm4.048 0l-.208.672h-.72l.576.432-.224.672.576-.416.592.416-.224-.672.576-.432h-.72l-.224-.672zm4.064 0l-.224.672h-.72l.576.432-.224.672.592-.416.576.416-.224-.672.576-.432H136l-.208-.672zm4.048 0l-.224.672h-.72l.592.432-.224.672.576-.416.576.416-.224-.672.592-.432h-.72l-.224-.672zm4.048 0l-.208.672h-.72l.576.432-.224.672.576-.416.592.416-.224-.672.576-.432h-.72l-.224-.672zm-16.208 3.44l-.224.688h-.72l.592.416-.224.688.576-.432.576.432-.224-.688.592-.416h-.72l-.224-.688zm4.048 0l-.208.688h-.72l.576.416-.224.688.576-.432.592.432-.224-.688.576-.416h-.72l-.224-.688zm4.064 0l-.224.688h-.72l.576.416-.224.688.592-.432.576.432-.224-.688.576-.416H136l-.208-.688zm4.048 0l-.224.688h-.72l.592.416-.224.688.576-.432.576.432-.224-.688.592-.416h-.72l-.224-.688zm4.048 0l-.208.688h-.72l.576.416-.224.688.576-.432.592.432-.224-.688.576-.416h-.72l-.224-.688zm-15.984 4.128l-.224-.672-.224.672h-.72l.592.432-.224.672.576-.416.576.416-.224-.672.592-.432h-.72zm4.048 0l-.224-.672-.208.672h-.72l.576.432-.224.672.576-.416.592.416-.224-.672.576-.432h-.72zm4.048 0l-.208-.672-.224.672h-.72l.576.432-.224.672.592-.416.576.416-.224-.672.576-.432H136zm4.064 0l-.224-.672-.224.672h-.72l.592.432-.224.672.576-.416.576.416-.224-.672.592-.432h-.72zm4.048 0l-.224-.672-.208.672h-.72l.576.432-.224.672.576-.416.592.416-.224-.672.576-.432h-.72zm-14.4-12.736l-.224.672h-.72l.576.432-.224.672.592-.416.576.416-.224-.672.576-.432h-.72l-.208-.672zm4.048 0l-.224.672h-.72l.592.432-.224.672.576-.416.576.416-.224-.672.592-.432h-.72l-.224-.672zm4.048 0l-.208.672h-.72l.576.432-.224.672.576-.416.592.416-.224-.672.576-.432h-.72l-.224-.672zm4.064 0l-.224.672h-.72l.576.432-.224.672.592-.416.576.416-.224-.672.576-.432h-.72l-.208-.672zm-12.16 3.44l-.224.688h-.72l.576.416-.224.688.592-.432.576.432-.224-.688.576-.416h-.72l-.208-.688zm4.048 0l-.224.688h-.72l.592.416-.224.688.576-.432.576.432-.224-.688.592-.416h-.72l-.224-.688zm4.048 0l-.208.688h-.72l.576.416-.224.688.576-.432.592.432-.224-.688.576-.416h-.72l-.224-.688zm4.064 0l-.224.688h-.72l.576.416-.224.688.592-.432.576.432-.224-.688.576-.416h-.72l-.208-.688zm-12.16 3.456l-.224.672h-.72l.576.416-.224.688.592-.416.576.416-.224-.688.576-.416h-.72l-.208-.672zm4.048 0l-.224.672h-.72l.592.416-.224.688.576-.416.576.416-.224-.688.592-.416h-.72l-.224-.672zm4.048 0l-.208.672h-.72l.576.416-.224.688.576-.416.592.416-.224-.688.576-.416h-.72l-.224-.672zm4.064 0l-.224.672h-.72l.576.416-.224.688.592-.416.576.416-.224-.688.576-.416h-.72l-.208-.672zm-11.952 4.128l-.208-.688-.224.688h-.72l.576.416-.224.672.592-.416.576.416-.224-.672.576-.416h-.72zm4.064 0l-.224-.688-.224.688h-.72l.592.416-.224.672.576-.416.576.416-.224-.672.592-.416h-.72zm4.048 0l-.224-.688-.208.688h-.72l.576.416-.224.672.576-.416.592.416-.224-.672.576-.416h-.72zm4.048 0l-.208-.688-.224.688h-.72l.576.416-.224.672.592-.416.576.416-.224-.672.576-.416h-.72z" fill="#fff"/></g><path d="M96 .422S174.089 3.632 184.251 78L189 62.95S167.02-5.998 96 .421zm6 191.112S16.048 187.996 4.863 106L0 122.716c.122 0 23.828 75.895 102 68.818z" fill="#00C4F5" fill-opacity=".1"/><defs><linearGradient id="paint0_linear_1417_1921" x1="56" y1="30" x2="143" y2="158" gradientUnits="userSpaceOnUse"><stop stop-color="#64E3FF"/><stop offset="1" stop-color="#279CEB"/></linearGradient></defs></svg>