<svg width="66" height="66" fill="none" xmlns="http://www.w3.org/2000/svg"><g clip-path="url(#clip0_580_4)" fill="#fff"><path d="M25.186 43.373c17.719 0 27.384-14.659 27.384-27.384 0-.43 0-.806-.054-1.235 1.88-1.342 3.49-3.06 4.779-4.994a19.163 19.163 0 01-5.53 1.504c1.986-1.181 3.49-3.06 4.241-5.316-1.879 1.128-3.92 1.88-6.12 2.363-1.773-1.88-4.243-3.061-7.035-3.061a9.602 9.602 0 00-9.611 9.611c0 .752.107 1.504.268 2.202-8-.376-15.088-4.242-19.813-10.041a9.687 9.687 0 00-1.288 4.832c0 3.33 1.718 6.283 4.295 8a9.908 9.908 0 01-4.349-1.18v.107c0 4.671 3.329 8.537 7.732 9.45a9.853 9.853 0 01-2.524.322 10.04 10.04 0 01-1.825-.16c1.235 3.812 4.779 6.604 8.967 6.657a19.365 19.365 0 01-11.974 4.135c-.752 0-1.557-.054-2.309-.108 4.242 2.685 9.29 4.296 14.766 4.296z"/><path opacity=".5" d="M55.657 39.982l5.462 2.859.147 4.362-10.08 3.665-3.74 3.556-3.555-1.21-11.987 5.059-11.51-.806-3.115-7.588 1.906-2.75-3.96 1.833 1.247 4.985L12 59.556l5.718-3.702 1.723 3.702 7.515.55-.404 2.382 12.537 2.163 3.812-2.64-4.545.147-5.719-1.392 1.173-.99 10.08-4.032 5.17 3.262 3.665-6.818 10.447-3.666.66-6.048-8.175-2.492z"/></g><defs><clipPath id="clip0_580_4"><path fill="#fff" d="M0 0h66v66H0z"/></clipPath></defs></svg>