<svg width="32" height="32" fill="none" xmlns="http://www.w3.org/2000/svg"><mask id="a" style="mask-type:alpha" maskUnits="userSpaceOnUse" x="0" y="0" width="32" height="32"><circle cx="16" cy="16" r="16" fill="#C4C4C4"/></mask><g mask="url(#a)"><path d="M54.4 0H-6.4v2.464h60.8V0zm0 29.536H-6.4V32h60.8v-2.464zm0-4.928H-6.4v2.464h60.8v-2.464zm0-4.912H-6.4v2.464h60.8v-2.464zm0-4.928H-6.4v2.464h60.8v-2.464zm0-4.928H-6.4v2.464h60.8V9.84zm0-4.912H-6.4v2.464h60.8V4.928z" fill="#B01820"/><path d="M54.4 27.072H-6.4v2.464h60.8v-2.464zm0-4.912H-6.4v2.464h60.8V22.16zm0-4.928H-6.4v2.464h60.8v-2.464zm0-4.928H-6.4v2.464h60.8v-2.464zm0-4.912H-6.4v2.464h60.8V7.392zm0-4.928H-6.4v2.464h60.8V2.464z" fill="#fff"/><path d="M17.92 0H-6.4v17.232h24.32V0z" fill="#002A70"/><path d="M-.32.736l-.224.688h-.72l.592.416-.224.688.576-.432.576.432-.224-.688.592-.416h-.72L-.32.736zm4.048 0l-.208.688H2.8l.576.416-.224.688.576-.432.592.432-.224-.688.576-.416h-.72L3.728.736zm4.064 0l-.224.688h-.72l.576.416-.224.688.592-.432.576.432-.224-.688.576-.416H8L7.792.736zm4.048 0l-.224.688h-.72l.592.416-.224.688.576-.432.576.432-.224-.688.592-.416h-.72L11.84.736zm3.472 1.792l.576-.432.592.432-.224-.688.576-.416h-.72l-.224-.688-.208.688h-.72l.576.416-.224.688zM-.32 4.176l-.224.688h-.72l.592.416-.224.688.576-.416.576.416-.224-.688.592-.416h-.72l-.224-.688zm4.048 0l-.208.688H2.8l.576.416-.224.688.576-.416.592.416-.224-.688.576-.416h-.72l-.224-.688zm4.064 0l-.224.688h-.72l.576.416-.224.688.592-.416.576.416-.224-.688.576-.416H8l-.208-.688zm4.048 0l-.224.688h-.72l.592.416-.224.688.576-.416.576.416-.224-.688.592-.416h-.72l-.224-.688zm4.048 0l-.208.688h-.72l.576.416-.224.688.576-.416.592.416-.224-.688.576-.416h-.72l-.224-.688zM-.32 7.632l-.224.672h-.72l.592.432-.224.672.576-.416.576.416-.224-.672.592-.432h-.72l-.224-.672zm4.048 0l-.208.672H2.8l.576.432-.224.672.576-.416.592.416-.224-.672.576-.432h-.72l-.224-.672zm4.064 0l-.224.672h-.72l.576.432-.224.672.592-.416.576.416-.224-.672.576-.432H8l-.208-.672zm4.048 0l-.224.672h-.72l.592.432-.224.672.576-.416.576.416-.224-.672.592-.432h-.72l-.224-.672zm4.048 0l-.208.672h-.72l.576.432-.224.672.576-.416.592.416-.224-.672.576-.432h-.72l-.224-.672zM-.32 11.072l-.224.688h-.72l.592.416-.224.688.576-.432.576.432-.224-.688.592-.416h-.72l-.224-.688zm4.048 0l-.208.688H2.8l.576.416-.224.688.576-.432.592.432-.224-.688.576-.416h-.72l-.224-.688zm4.064 0l-.224.688h-.72l.576.416-.224.688.592-.432.576.432-.224-.688.576-.416H8l-.208-.688zm4.048 0l-.224.688h-.72l.592.416-.224.688.576-.432.576.432-.224-.688.592-.416h-.72l-.224-.688zm4.048 0l-.208.688h-.72l.576.416-.224.688.576-.432.592.432-.224-.688.576-.416h-.72l-.224-.688zM-.096 15.2l-.224-.672-.224.672h-.72l.592.432-.224.672.576-.416.576.416-.224-.672.592-.432h-.72zm4.048 0l-.224-.672-.208.672H2.8l.576.432-.224.672.576-.416.592.416-.224-.672.576-.432h-.72zM8 15.2l-.208-.672-.224.672h-.72l.576.432-.224.672.592-.416.576.416-.224-.672.576-.432H8zm4.064 0l-.224-.672-.224.672h-.72l.592.432-.224.672.576-.416.576.416-.224-.672.592-.432h-.72zm4.048 0l-.224-.672-.208.672h-.72l.576.432-.224.672.576-.416.592.416-.224-.672.576-.432h-.72zM1.712 2.464l-.224.672h-.72l.576.432-.224.672.592-.416.576.416-.224-.672.576-.432h-.72l-.208-.672zm4.048 0l-.224.672h-.72l.592.432-.224.672.576-.416.576.416-.224-.672.592-.432h-.72l-.224-.672zm4.048 0l-.208.672h-.72l.576.432-.224.672.576-.416.592.416-.224-.672.576-.432h-.72l-.224-.672zm4.064 0l-.224.672h-.72l.576.432-.224.672.592-.416.576.416-.224-.672.576-.432h-.72l-.208-.672zm-12.16 3.44l-.224.688h-.72l.576.416-.224.688.592-.432.576.432-.224-.688.576-.416h-.72l-.208-.688zm4.048 0l-.224.688h-.72l.592.416-.224.688.576-.432.576.432-.224-.688.592-.416h-.72l-.224-.688zm4.048 0l-.208.688h-.72l.576.416-.224.688.576-.432.592.432-.224-.688.576-.416h-.72l-.224-.688zm4.064 0l-.224.688h-.72l.576.416-.224.688.592-.432.576.432-.224-.688.576-.416h-.72l-.208-.688zM1.712 9.36l-.224.672h-.72l.576.416-.224.688.592-.416.576.416-.224-.688.576-.416h-.72l-.208-.672zm4.048 0l-.224.672h-.72l.592.416-.224.688.576-.416.576.416-.224-.688.592-.416h-.72L5.76 9.36zm4.048 0l-.208.672h-.72l.576.416-.224.688.576-.416.592.416-.224-.688.576-.416h-.72l-.224-.672zm4.064 0l-.224.672h-.72l.576.416-.224.688.592-.416.576.416-.224-.688.576-.416h-.72l-.208-.672zM1.92 13.488l-.208-.688-.224.688h-.72l.576.416-.224.672.592-.416.576.416-.224-.672.576-.416h-.72zm4.064 0L5.76 12.8l-.224.688h-.72l.592.416-.224.672.576-.416.576.416-.224-.672.592-.416h-.72zm4.048 0l-.224-.688-.208.688h-.72l.576.416-.224.672.576-.416.592.416-.224-.672.576-.416h-.72zm4.048 0l-.208-.688-.224.688h-.72l.576.416-.224.672.592-.416.576.416-.224-.672.576-.416h-.72z" fill="#fff"/></g></svg>