<svg width="232" height="55" viewBox="0 0 232 55" fill="none" xmlns="http://www.w3.org/2000/svg">
<g clip-path="url(#clip0_332_58)">
<path d="M65.6216 27.56C65.6216 21.9227 69.95 17.1074 75.747 17.1074C79.4957 17.1074 81.8144 18.7125 83.6308 20.6699L81.7758 22.6665C80.2299 20.9831 78.3749 19.7304 75.7083 19.7304C71.6891 19.7304 68.636 23.1754 68.636 27.56C68.636 31.9055 71.7664 35.3505 75.8629 35.3505C78.3749 35.3505 80.2299 34.0195 81.8144 32.3361L83.7468 34.1369C81.7758 36.3684 79.4184 38.0126 75.7083 38.0126C69.9886 38.0126 65.6216 33.2365 65.6216 27.56ZM87.0704 10.7654L90.0075 9.31689V21.0614C91.3215 18.9082 93.3697 17.1466 96.7706 17.1466C101.524 17.1466 104.307 20.3959 104.307 25.172V37.582H101.37V25.8375C101.37 22.1184 99.3986 19.8087 95.9204 19.8087C92.5195 19.8087 90.0075 22.3141 90.0075 26.0724V37.5429H87.0704V10.7654ZM122.239 30.183V28.343C120.384 27.7949 118.413 27.4817 116.48 27.4817C112.809 27.4817 110.722 29.126 110.722 31.5923C110.722 34.0978 113.002 35.5854 115.669 35.5854C119.301 35.5463 122.239 33.354 122.239 30.183ZM107.746 31.6706C107.746 27.3643 111.186 25.1328 116.171 25.1328C118.683 25.1328 120.461 25.4852 122.2 25.9941V25.3677C122.2 21.8052 120.074 19.9652 116.364 19.9652C114.046 19.9652 112.191 20.5525 110.374 21.4137L109.485 18.9865C111.649 17.9687 113.775 17.264 116.674 17.264C119.456 17.264 121.62 18.047 123.05 19.4563C124.441 20.8657 125.098 22.7839 125.098 25.3286V37.5429H122.2V34.5676C120.809 36.3293 118.567 37.9735 115.089 37.9735C111.418 37.9735 107.746 35.8203 107.746 31.6706ZM130.084 17.538H133.021V21.0223C134.335 18.8691 136.383 17.1074 139.784 17.1074C144.538 17.1074 147.32 20.3567 147.32 25.1328V37.5429H144.383V25.8375C144.383 22.1184 142.412 19.8087 138.934 19.8087C135.533 19.8087 133.021 22.3141 133.021 26.0724V37.5429H130.084V17.538ZM168.073 26.503C168.073 22.3924 164.556 19.7304 160.808 19.7304C157.059 19.7304 153.967 22.3533 153.967 26.5422C153.967 30.5745 157.136 33.354 160.808 33.354C164.556 33.354 168.073 30.6136 168.073 26.503ZM151.88 41.0271L153.233 38.7173C155.475 40.4007 157.987 41.262 160.808 41.262C165.136 41.262 167.996 38.8348 167.996 34.1369V31.788C166.296 34.0978 163.861 36.0161 160.267 36.0161C155.552 36.0161 150.992 32.4144 150.992 26.5813C150.992 20.7482 155.552 17.1466 160.267 17.1466C163.977 17.1466 166.373 18.9865 167.957 21.1788V17.5772H170.895V34.0587C170.895 37.1514 169.967 39.5003 168.382 41.1445C166.643 42.9453 164.015 43.8066 160.885 43.8066C157.561 43.8066 154.547 42.867 151.88 41.0271ZM190.604 26.3464C190.256 22.7056 188.208 19.6129 184.305 19.6129C180.904 19.6129 178.315 22.4707 177.89 26.3464H190.604ZM184.846 35.3897C187.551 35.3897 189.445 34.2544 191.068 32.571L192.884 34.2544C190.913 36.4859 188.479 38.0126 184.769 38.0126C179.358 38.0126 174.914 33.7846 174.914 27.56C174.914 21.7661 178.933 17.1074 184.382 17.1074C190.218 17.1074 193.58 21.8444 193.58 27.7166C193.58 27.9907 193.58 28.3038 193.541 28.7736H177.89C178.315 32.9625 181.368 35.3897 184.846 35.3897ZM197.676 12.0181L200.614 10.5305V37.5037H197.676V12.0181ZM205.985 10.7654L208.923 9.31689V37.582H205.985V10.7654ZM212.826 42.8279L213.831 40.479C214.797 40.9879 215.647 41.2228 216.922 41.2228C218.662 41.2228 219.782 40.2832 220.98 37.4646L212.014 17.538H215.261L222.41 34.2152L228.748 17.538H231.879L223.608 38.2084C221.946 42.3581 220.014 43.8457 217.038 43.8457C215.377 43.8457 214.14 43.4934 212.826 42.8279Z" fill="white" fill-opacity="0.5"/>
<path d="M27.6322 46.0786C27.2071 46.5092 26.7433 46.9007 26.2409 47.253C25.2748 47.9968 24.27 48.6232 23.1879 49.2104C21.0623 50.3066 18.8208 51.1287 16.4634 51.5985C15.8837 51.7159 15.304 51.8334 14.7243 51.9117L13.8354 52.0291L13.4103 52.0683L12.9852 52.1074L12.0963 52.1857L11.2075 52.2248C10.6278 52.264 10.0094 52.264 9.42973 52.3032C7.69064 52.3032 5.95155 52.2249 4.21246 52.0683C4.4057 51.7942 4.59893 51.481 4.79216 51.1678C5.33321 50.3066 5.83561 49.367 6.29937 48.4275C7.14959 46.5483 7.80658 44.5909 8.34763 42.6335C8.85004 40.7152 9.46838 38.8753 10.164 36.9961C10.8597 35.117 11.6712 33.3162 12.5987 31.5545C11.9418 32.2983 11.3621 33.1205 10.821 33.9817C10.28 34.8038 9.73891 35.7043 9.27515 36.5655C8.30899 38.3272 7.45877 40.2063 6.80178 42.0854C6.10614 43.9254 5.37186 45.7654 4.48299 47.4488C3.59412 49.1321 2.51202 50.6981 1.27533 52.1857L0 53.7516L2.00962 54.0257C4.48299 54.378 6.99501 54.5738 9.50703 54.4955C10.1254 54.4563 10.7824 54.4563 11.4007 54.378L12.3282 54.2997L13.2557 54.1823C13.8741 54.104 14.4924 53.9474 15.1108 53.8691C15.7291 53.7125 16.3474 53.595 16.9658 53.3993C17.5841 53.2427 18.1638 53.0078 18.7822 52.8121C19.3619 52.5772 19.9802 52.3423 20.5599 52.0683C21.7193 51.5593 22.8401 50.8938 23.8835 50.1891C24.927 49.4845 25.8931 48.6624 26.782 47.7228C27.6322 46.7832 28.4051 45.8045 28.9462 44.6692C28.5211 45.2173 28.096 45.6871 27.6322 46.0786ZM41.4676 12.2935C42.1633 11.5889 43.0908 11.1974 44.0956 11.1974C45.0618 11.1974 45.9893 11.5497 46.7236 12.2935C48.1535 13.7812 48.1535 16.1301 46.7236 17.6177C45.2936 19.0662 42.9362 19.0662 41.4676 17.6177C40.772 16.913 40.3855 15.9735 40.3855 14.9556C40.3855 13.9378 40.772 12.9982 41.4676 12.2935ZM44.0956 20.9845C45.6415 20.9845 47.1487 20.3972 48.3081 19.2228C50.6269 16.8347 50.6269 13.0374 48.3081 10.6493C45.9893 8.3004 42.2019 8.3004 39.8831 10.6493C38.7624 11.7846 38.144 13.3114 38.144 14.9165C38.144 16.5216 38.7624 18.0483 39.8831 19.1836C41.0039 20.3581 42.5111 20.9845 44.0956 20.9845ZM45.8347 29.6754C37.2938 37.3093 33.7383 38.014 30.1829 36.3698L34.0475 31.4371C34.6272 30.7324 35.0137 29.8711 35.2456 28.9707L36.7914 22.3547L30.2988 23.9206C29.41 24.1555 28.5597 24.547 27.8641 25.1342L22.9946 29.049C21.3328 25.4474 22.0671 21.8457 29.5645 13.1939C36.6755 5.01194 51.6703 3.13282 56.1146 2.74133C55.7668 7.2434 53.9118 22.4721 45.8347 29.6754ZM40.1537 41.4982C40.0764 41.8505 39.8831 42.2029 39.574 42.3986C38.6851 43.025 37.2938 43.8863 36.0571 44.6692L36.1344 44.4343C36.7141 42.0463 36.7141 40.2063 36.1344 38.9536C37.7576 38.4446 39.4967 37.5442 41.4676 36.174C40.9652 38.014 40.4242 40.2063 40.1537 41.4982ZM26.6661 37.231C26.1636 37.8966 25.3521 38.2489 24.5405 38.2097H22.5695L29.294 29.9886L21.1783 36.8004V34.8038C21.1396 33.9817 21.4874 33.1596 22.1444 32.6507L29.2554 26.935C29.7191 26.5827 30.2602 26.3086 30.8012 26.1521L33.6997 25.4474L33.0041 28.3835C32.8495 28.9707 32.6176 29.5188 32.2311 29.9886L26.6661 37.231ZM15.0721 23.0593L14.8402 23.1376C15.5745 21.8849 16.4247 20.4755 17.0431 19.5751C17.2363 19.2619 17.5841 19.0662 17.932 18.9879C19.2073 18.7139 21.3715 18.1658 23.1879 17.696C21.8352 19.6926 20.9464 21.4934 20.444 23.1376C19.2459 22.433 17.4295 22.433 15.0721 23.0593ZM57.3127 0.353285C56.5011 0.392433 36.8687 1.29285 27.8641 11.6672C27.0139 12.6459 26.2023 13.6637 25.3907 14.6816C24.0767 15.0339 19.5165 16.2867 17.5068 16.7173C16.5793 16.913 15.7291 17.4611 15.1881 18.2832C13.7968 20.3189 11.4007 24.5078 11.3234 24.6644L9.58432 27.6788L12.7533 26.2695C14.8402 25.3691 18.3184 24.4295 19.5551 25.1733C19.7483 25.2908 19.9802 25.5257 20.0189 26.1129C20.0575 27.6005 20.444 29.049 21.1783 30.4975L20.7531 30.8499C19.5551 31.8286 18.8595 33.3162 18.9368 34.8821V40.4804H24.4632C26.0091 40.5586 27.4776 39.854 28.4438 38.6404L28.7916 38.2097C30.2215 38.9536 31.6514 39.3842 33.12 39.3842C33.6997 39.4233 33.8929 39.6191 34.0475 39.854C34.8204 41.1067 33.8929 44.6692 32.9654 46.7832L31.5741 49.9934L34.5499 48.2317C34.7432 48.1143 38.8397 45.6871 40.8493 44.2777C41.6222 43.7297 42.1633 42.9075 42.3565 41.9288C42.7816 39.8931 44.0183 35.2345 44.3661 33.9034C45.2936 33.1596 46.2598 32.2983 47.3033 31.3588C57.5059 22.2372 58.4334 2.3107 58.4721 1.48859L58.5107 0.23584L57.3127 0.353285Z" fill="white" fill-opacity="0.5"/>
</g>
<defs>
<clipPath id="clip0_332_58">
<rect width="231.879" height="54.8077" fill="white"/>
</clipPath>
</defs>
</svg>
