<svg width="463" height="117" viewBox="0 0 463 117" fill="none" xmlns="http://www.w3.org/2000/svg">
<path d="M35.7783 43.3277V0.181152L0.231445 59.5779L35.7783 43.3277Z" fill="#FFBA00"/>
<path d="M35.7783 80.7413V43.3277L0.231445 59.5779L35.7783 80.7413ZM35.7783 43.3277L71.3681 59.5779L35.7783 0.181152V43.3277Z" fill="#FFBA00"/>
<path d="M35.7781 43.3276V80.7416L71.3678 59.5777L35.7781 43.3276Z" fill="#FFBA00"/>
<path d="M35.7783 87.5087L0.231445 66.3882L35.7783 116.819V87.5087Z" fill="#FFBA00"/>
<path d="M71.3678 66.3882L35.7781 87.5087V116.819L71.3678 66.3882Z" fill="#FFBA00"/>
<path d="M130.812 67.5949C130.812 68.4139 130.084 69.1467 129.271 69.1467H100.833C101.561 75.9569 106.829 82.5951 114.281 82.5951C119.377 82.5951 123.146 80.6122 126.016 76.4743C126.315 76.0431 126.744 75.7415 127.257 75.7415C128.071 75.7415 128.671 76.3452 128.671 77.1642C128.671 77.4658 128.585 77.6811 128.457 77.897C125.587 82.9401 119.891 85.3965 114.281 85.3965C104.688 85.3965 97.8779 76.7759 97.8779 67.552C97.8779 58.3277 104.688 49.7502 114.281 49.7502C123.874 49.7502 130.812 58.3711 130.812 67.5949ZM127.729 66.2156C127.129 58.9313 121.733 52.6814 114.281 52.6814C106.829 52.6814 101.518 58.9313 100.833 66.2156H127.729ZM165.374 50.2243C166.188 50.2243 166.787 50.9572 166.787 51.69C166.787 52.509 166.188 53.1555 165.374 53.1555H157.751V83.4141C157.751 84.1469 157.108 84.8363 156.295 84.8363C155.481 84.8363 154.838 84.1035 154.838 83.4141V53.1555H147.515C146.701 53.1555 146.102 52.509 146.102 51.69C146.102 50.9572 146.701 50.2243 147.515 50.2243H154.838V39.276C154.838 38.4571 155.481 37.8536 156.295 37.8536C157.108 37.8536 157.751 38.4571 157.751 39.276V50.2243H165.374ZM211.713 64.9226V83.1983C211.713 84.0173 211.242 84.6209 210.514 84.6209C209.7 84.6209 209.315 84.0173 209.315 83.1983V64.9226C209.315 58.7589 205.76 52.5952 198.908 52.5952C190.129 52.5952 186.231 60.3106 186.702 68.1986C186.702 68.4139 186.659 69.3191 186.659 69.4482V83.1983C186.659 84.0173 186.274 84.6209 185.46 84.6209C184.646 84.6209 184.261 84.0173 184.261 83.1983V23.1553C184.261 22.4226 184.646 21.7329 185.46 21.7329C186.274 21.7329 186.659 22.4657 186.659 23.1553V57.1209C189.571 52.7243 193.469 49.7502 198.565 49.7502C206.917 49.7502 211.713 57.1209 211.713 64.9226ZM263.021 67.5949C263.021 68.4139 262.293 69.1467 261.479 69.1467H233.042C233.77 75.9569 239.037 82.5951 246.489 82.5951C251.586 82.5951 255.355 80.6122 258.224 76.4743C258.524 76.0431 258.952 75.7415 259.466 75.7415C260.28 75.7415 260.879 76.3452 260.879 77.1642C260.879 77.4658 260.794 77.6811 260.665 77.897C257.796 82.9401 252.1 85.3965 246.489 85.3965C236.896 85.3965 230.086 76.7759 230.086 67.552C230.086 58.3277 236.896 49.7502 246.489 49.7502C256.083 49.7502 263.021 58.3711 263.021 67.5949ZM259.98 66.2156C259.381 58.9313 253.984 52.6814 246.532 52.6814C239.08 52.6814 233.77 58.9313 233.084 66.2156H259.98ZM298.011 51.69C298.011 52.5952 297.497 53.1121 296.641 53.2417C288.289 54.4914 284.477 61.345 284.477 69.362V83.0692C284.477 83.8882 283.835 84.4913 283.021 84.4913C282.208 84.4913 281.565 83.8882 281.565 83.0692V51.7762C281.565 50.9572 282.208 50.3536 283.021 50.3536C283.835 50.3536 284.477 50.9572 284.477 51.7762V58.1552C286.876 54.1465 291.544 50.3536 296.426 50.3536C297.154 50.3536 298.011 50.871 298.011 51.69ZM344.779 67.5949C344.779 68.4139 344.051 69.1467 343.237 69.1467H314.799C315.527 75.9569 320.795 82.5951 328.247 82.5951C333.344 82.5951 337.113 80.6122 339.982 76.4743C340.282 76.0431 340.71 75.7415 341.224 75.7415C342.038 75.7415 342.637 76.3452 342.637 77.1642C342.637 77.4658 342.552 77.6811 342.423 77.897C339.554 82.9401 333.858 85.3965 328.247 85.3965C318.654 85.3965 311.844 76.7759 311.844 67.552C311.844 58.3277 318.654 49.7502 328.247 49.7502C337.841 49.7071 344.779 58.3711 344.779 67.5949ZM341.738 66.2156C341.138 58.9313 335.742 52.6814 328.29 52.6814C320.838 52.6814 315.527 58.9313 314.842 66.2156H341.738ZM390.989 51.9915V83.3707C390.989 84.1897 390.261 84.7934 389.533 84.7934C388.72 84.7934 388.077 84.1897 388.077 83.3707V77.4658C385.679 82.1639 381.524 85.569 376.214 85.569C367.734 85.569 363.023 78.1985 363.023 70.3968V52.0344C363.023 51.3016 363.665 50.6122 364.479 50.6122C365.293 50.6122 365.935 51.345 365.935 52.0344V70.3968C365.935 76.5605 369.404 82.7242 376.257 82.7242C385.85 82.7242 388.12 73.7157 388.12 63.7586V52.0778C388.12 51.345 388.763 50.6551 389.576 50.6551C390.261 50.5689 390.989 51.3016 390.989 51.9915ZM462.768 64.8363V83.1983C462.768 84.0173 462.04 84.6209 461.312 84.6209C460.499 84.6209 459.856 84.0173 459.856 83.1983V64.8363C459.856 58.6726 456.387 52.6381 449.535 52.6381C440.969 52.6381 437.672 61.8624 437.672 69.0604V83.1983C437.672 84.0173 436.944 84.6209 436.216 84.6209C435.402 84.6209 434.759 84.0173 434.759 83.1983V64.8363C434.759 58.6726 431.376 52.6381 424.566 52.6381C415.915 52.6381 412.317 59.4916 412.618 68.6292V83.1983C412.618 84.0173 411.975 84.6209 411.161 84.6209C410.348 84.6209 409.705 84.0173 409.705 83.1983V51.8191C409.705 51.0001 410.348 50.3967 411.161 50.3967C411.975 50.3967 412.618 51.0001 412.618 51.8191V57.0346C415.016 52.6381 419.513 49.7502 424.609 49.7502C430.434 49.7502 434.931 53.4571 436.772 58.888C439.128 53.5433 443.71 49.7502 449.621 49.7502C458.015 49.7502 462.768 57.0346 462.768 64.8363Z" fill="#FFBA00"/>
</svg>
