<svg width="524" height="70" viewBox="0 0 524 70" fill="none" xmlns="http://www.w3.org/2000/svg">
<path fill-rule="evenodd" clip-rule="evenodd" d="M110.41 44.1959V44.3264C110.41 50.9812 104.861 54.3736 96.5384 54.3084H78.9019V17.7073H96.1421C103.672 17.7073 108.362 21.4261 108.362 27.1675V27.298C108.362 31.4083 106.116 33.757 103.474 35.1922C107.768 36.8235 110.41 39.3026 110.41 44.1959ZM94.3585 32.5174C97.9917 32.5174 100.237 31.4083 100.237 28.668V28.5375C100.237 26.1236 98.3219 24.7535 94.8871 24.7535H86.8285V32.5174H94.3585ZM96.5384 47.3274C100.105 47.3274 102.285 46.0879 102.285 43.3478V43.2173C102.285 40.7379 100.436 39.2374 96.2741 39.2374H86.8285V47.3274H96.5384ZM127.518 17.7726V54.3736H119.327V17.7726H127.518ZM171.378 17.7726V54.3736H164.442L146.475 31.0821V54.3736H138.417V17.7726H145.947L163.319 40.3465V17.7726H171.378ZM200.64 17.5116L216.559 54.3736H207.906L204.537 46.1531H188.882L185.513 54.3736H177.19L193.11 17.5116H200.64ZM191.855 39.0417H201.697L196.809 27.1675L191.855 39.0417ZM255.399 17.7726V54.3736H248.463L230.496 31.0821V54.3736H222.438V17.7726H229.968L247.34 40.3465V17.7726H255.399ZM292.324 43.2826L297.541 48.4365C293.709 52.4817 289.483 54.9608 282.349 54.9608C271.45 54.9608 263.325 46.6098 263.325 36.1056V35.9751C263.325 25.6017 271.318 17.0549 282.679 17.0549C289.681 17.0549 293.842 19.4036 297.278 22.731L292.058 28.668C289.152 26.1236 286.246 24.5578 282.547 24.5578C276.272 24.5578 271.78 29.7121 271.78 35.9751V36.1056C271.78 42.3689 276.206 47.5884 282.547 47.5884C286.84 47.5884 289.418 45.8922 292.324 43.2826ZM332.352 47.197V54.3084H304.147V17.7073H332.089V24.884H312.205V32.3217H329.709V39.4984H312.205V47.197H332.352ZM29.2953 2.63623L11.3285 12.8793L17.934 16.6634L29.2953 10.2044L40.6565 16.6634L47.262 12.8793L29.2953 2.63623ZM40.6565 22.0133L47.262 25.7974V33.3655L35.9005 39.8246V52.7426L29.2953 56.5268L22.6898 52.7426V39.8246L11.3285 33.3655V25.7974L17.934 22.0133L29.2953 28.4722L40.6565 22.0133ZM47.262 38.7155V46.2836L40.6565 50.0678V42.4994L47.262 38.7155ZM40.5905 55.4175L51.9519 48.9584V36.0404L58.5571 32.2564V52.7426L40.5905 62.9856V55.4175ZM51.9519 23.1224L45.3464 19.3384L51.9519 15.5543L58.5571 19.3384V26.9065L51.9519 30.6907V23.1224ZM22.6898 65.726V58.1578L29.2953 61.9418L35.9005 58.1578V65.726L29.2953 69.5099L22.6898 65.726ZM17.934 50.0678L11.3285 46.2836V38.7155L17.934 42.4994V50.0678ZM29.2953 23.1224L22.6898 19.3384L29.2953 15.5543L35.9005 19.3384L29.2953 23.1224ZM13.244 19.3384L6.63861 23.1224V30.6907L0.0332031 26.9065V19.3384L6.63861 15.5543L13.244 19.3384ZM0.0332031 32.2564L6.63861 36.0404V48.9584L17.9999 55.4175V62.9856L0.0332031 52.7426V32.2564ZM353.72 36.4175C353.72 46.9867 361.778 55.3377 372.612 55.3377C379.614 55.3377 383.84 52.7933 387.672 48.8137L383.511 44.638C380.339 47.5738 377.433 49.4008 372.876 49.4008C365.809 49.4008 360.656 43.529 360.656 36.287C360.656 29.0451 365.743 23.3036 372.876 23.3036C377.104 23.3036 380.274 25.1304 383.248 27.8706L387.409 23.1079C383.84 19.7805 379.747 17.4318 372.876 17.4318C361.648 17.4318 353.72 25.9786 353.72 36.4175ZM399.891 54.6853V39.2228H417.594V54.6853H424.134V18.019H417.594V33.2857H399.891V18.019H393.354V54.6853H399.891ZM461.126 54.6853H467.994L451.546 17.758H445.536L429.221 54.6853H435.892L439.724 45.8124H457.293L461.126 54.6853ZM442.168 40.1362L448.507 25.4566L454.914 40.1362H442.168ZM479.817 54.6853V18.019H473.28V54.6853H479.817ZM521.233 18.019H514.826H514.761V43.3332L494.877 18.019H488.866V54.6853H495.273V28.5882L515.752 54.6853H521.233V18.019Z" fill="#FFBA00"/>
</svg>
