<svg width="232" height="54" viewBox="0 0 232 54" fill="none" xmlns="http://www.w3.org/2000/svg">
<path fill-rule="evenodd" clip-rule="evenodd" d="M1.83885 9.21375C8.97834e-06 12.825 0 17.55 0 27C0 36.45 8.97834e-06 41.175 1.83885 44.7863C3.45885 47.9588 6.04089 50.5406 9.2141 52.1606C12.825 54 17.55 54 27 54C36.45 54 41.175 54 44.7859 52.1606C47.9591 50.5406 50.5411 47.9588 52.1611 44.7863C54 41.175 54 36.45 54 27C54 17.55 54 12.825 52.1611 9.21375C50.5411 6.04125 47.9591 3.45938 44.7859 1.83938C41.175 0 36.45 0 27 0C17.55 0 12.825 0 9.2141 1.83938C6.04089 3.45938 3.45885 6.04125 1.83885 9.21375ZM40.4744 14.5631C40.9476 14.5631 41.3938 14.7572 41.7235 15.0863C42.0532 15.4238 42.2379 15.8794 42.2294 16.3434C42.1456 21.3722 41.9509 25.2197 41.5885 28.2656C41.2347 31.3116 40.7032 33.5728 39.9017 35.4038C39.3617 36.6272 38.6938 37.6397 37.9094 38.5003C36.855 39.6394 35.6485 40.4663 34.3326 41.251C33.7699 41.5875 33.1844 41.9198 32.5705 42.2684C31.2617 43.012 29.8208 43.8297 28.1894 44.9213C27.5997 45.3178 26.8309 45.3178 26.2412 44.9213C24.5842 43.8169 23.1248 42.9891 21.8032 42.2395C21.5105 42.0728 21.2234 41.91 20.9421 41.7488C19.3974 40.8544 18.0061 40.0022 16.7911 38.7703C15.9811 37.9603 15.2806 36.9731 14.7235 35.8003C13.9647 34.2309 13.4489 32.3325 13.0694 29.8772C12.5635 26.595 12.3106 22.3003 12.2182 16.3434C12.2097 15.8794 12.3859 15.4238 12.7156 15.0863C13.0438 14.7572 13.5 14.5631 13.9732 14.5631H14.698C16.9347 14.5716 21.87 14.3522 26.1388 11.0278C26.7726 10.5384 27.6579 10.5384 28.2917 11.0278C32.5606 14.3522 37.4959 14.5716 39.7412 14.5631H40.4744ZM36.5509 34.2816C37.0994 33.1509 37.5556 31.59 37.9009 29.3456C38.3144 26.6625 38.5674 23.0175 38.6867 18.0563C36.0535 17.9803 31.5317 17.4741 27.2189 14.5716C22.9074 17.4656 18.3856 17.9719 15.7609 18.0563C15.8547 22.1569 16.0394 25.3463 16.335 27.8522C16.6732 30.7041 17.1535 32.6363 17.7532 33.9947C18.1497 34.8975 18.5874 35.5472 19.1117 36.1209C19.8109 36.8888 20.6976 37.5216 21.9041 38.2472C22.4043 38.5475 22.9557 38.8598 23.5568 39.1999C24.6268 39.8055 25.8518 40.499 27.2189 41.3691C28.5617 40.5132 29.7696 39.8268 30.8269 39.2256C31.1452 39.0444 31.4507 38.8709 31.7421 38.7028C33.2271 37.8506 34.3241 37.1419 35.1426 36.315C35.6912 35.7497 36.1374 35.1338 36.5509 34.2816Z" fill="white" fill-opacity="0.5"/>
<path d="M75.1552 21.6116H69.1072V18.0476H85.5772V21.6116H79.5292V36.9476H75.1552V21.6116ZM90.5295 24.3386C91.034 23.6366 91.709 23.1055 92.5545 22.7456C93.4185 22.3856 94.409 22.2056 95.5245 22.2056V26.0936C95.057 26.0576 94.7416 26.0396 94.5796 26.0396C93.3731 26.0396 92.4281 26.3816 91.7446 27.0656C91.061 27.7316 90.7186 28.7396 90.7186 30.0896V36.9476H86.5066V22.4216H90.5295V24.3386ZM111.959 22.4216V36.9476H107.963V35.2196C107.405 35.8495 106.738 36.3355 105.965 36.6776C105.191 37.0016 104.354 37.1636 103.454 37.1636C101.546 37.1636 100.034 36.6146 98.918 35.5166C97.8011 34.4185 97.244 32.7896 97.244 30.6296V22.4216H101.456V30.0086C101.456 32.3486 102.437 33.5186 104.399 33.5186C105.407 33.5186 106.217 33.1946 106.829 32.5466C107.44 31.8805 107.747 30.8996 107.747 29.6036V22.4216H111.959ZM119.938 37.1636C118.732 37.1636 117.552 37.0196 116.401 36.7316C115.249 36.4256 114.331 36.0476 113.647 35.5976L115.051 32.5736C115.699 32.9875 116.482 33.3296 117.4 33.5996C118.318 33.8515 119.218 33.9776 120.1 33.9776C121.882 33.9776 122.773 33.5366 122.773 32.6546C122.773 32.2406 122.53 31.9436 122.044 31.7636C121.558 31.5835 120.811 31.4306 119.803 31.3046C118.615 31.1245 117.633 30.9176 116.86 30.6836C116.086 30.4495 115.411 30.0356 114.835 29.4416C114.277 28.8476 113.998 28.0016 113.998 26.9036C113.998 25.9856 114.258 25.1756 114.781 24.4736C115.321 23.7535 116.094 23.1956 117.103 22.7996C118.129 22.4035 119.334 22.2056 120.721 22.2056C121.747 22.2056 122.763 22.3225 123.772 22.5566C124.798 22.7726 125.644 23.0785 126.31 23.4746L124.906 26.4716C123.627 25.7515 122.233 25.3916 120.721 25.3916C119.82 25.3916 119.145 25.5176 118.696 25.7696C118.246 26.0215 118.021 26.3455 118.021 26.7416C118.021 27.1916 118.264 27.5065 118.75 27.6866C119.236 27.8666 120.009 28.0376 121.072 28.1996C122.26 28.3975 123.232 28.6135 123.988 28.8476C124.744 29.0636 125.401 29.4686 125.959 30.0626C126.516 30.6566 126.796 31.4846 126.796 32.5466C126.796 33.4465 126.526 34.2476 125.986 34.9496C125.446 35.6516 124.653 36.2005 123.61 36.5966C122.584 36.9746 121.359 37.1636 119.938 37.1636ZM137.953 36.2456C137.539 36.5515 137.026 36.7856 136.414 36.9476C135.82 37.0915 135.19 37.1636 134.524 37.1636C132.796 37.1636 131.456 36.7226 130.501 35.8406C129.566 34.9585 129.097 33.6625 129.097 31.9526V25.9856H126.856V22.7456H129.097V19.2086H133.309V22.7456H136.927V25.9856H133.309V31.8986C133.309 32.5106 133.462 32.9875 133.768 33.3296C134.092 33.6536 134.542 33.8156 135.118 33.8156C135.784 33.8156 136.351 33.6355 136.819 33.2756L137.953 36.2456ZM175.207 18.0476L169.024 36.9476H164.326L160.168 24.1496L155.875 36.9476H151.204L144.994 18.0476H149.53L153.796 31.3316L158.251 18.0476H162.301L166.621 31.4396L171.022 18.0476H175.207ZM181.321 22.2056C183.57 22.2056 185.298 22.7456 186.505 23.8256C187.71 24.8875 188.314 26.4986 188.314 28.6586V36.9476H184.372V35.1386C183.579 36.4886 182.104 37.1636 179.944 37.1636C178.827 37.1636 177.855 36.9746 177.028 36.5966C176.218 36.2186 175.597 35.6966 175.165 35.0306C174.733 34.3645 174.517 33.6085 174.517 32.7626C174.517 31.4126 175.02 30.3506 176.029 29.5766C177.055 28.8025 178.629 28.4156 180.754 28.4156H184.102C184.102 27.4976 183.822 26.7956 183.265 26.3096C182.706 25.8055 181.869 25.5536 180.754 25.5536C179.979 25.5536 179.215 25.6796 178.459 25.9316C177.72 26.1656 177.09 26.4896 176.569 26.9036L175.057 23.9606C175.848 23.4025 176.793 22.9705 177.892 22.6646C179.007 22.3586 180.15 22.2056 181.321 22.2056ZM180.997 34.3286C181.716 34.3286 182.355 34.1666 182.914 33.8426C183.471 33.5005 183.867 33.0056 184.102 32.3576V30.8726H181.213C179.485 30.8726 178.621 31.4396 178.621 32.5736C178.621 33.1136 178.827 33.5456 179.242 33.8696C179.674 34.1755 180.258 34.3286 180.997 34.3286ZM191.315 16.9136H195.527V36.9476H191.315V16.9136ZM198.626 16.9136H202.838V36.9476H198.626V16.9136ZM220.167 29.7386C220.167 29.7926 220.14 30.1706 220.086 30.8726H209.096C209.294 31.7725 209.763 32.4836 210.501 33.0056C211.238 33.5275 212.156 33.7886 213.255 33.7886C214.01 33.7886 214.677 33.6806 215.253 33.4646C215.846 33.2305 216.395 32.8706 216.9 32.3846L219.14 34.8146C217.772 36.3806 215.774 37.1636 213.147 37.1636C211.508 37.1636 210.06 36.8485 208.8 36.2186C207.539 35.5706 206.567 34.6796 205.884 33.5456C205.2 32.4116 204.857 31.1245 204.857 29.6846C204.857 28.2625 205.19 26.9846 205.857 25.8506C206.54 24.6985 207.468 23.8075 208.638 23.1776C209.826 22.5296 211.148 22.2056 212.607 22.2056C214.029 22.2056 215.315 22.5115 216.468 23.1236C217.62 23.7356 218.52 24.6175 219.168 25.7696C219.834 26.9036 220.167 28.2266 220.167 29.7386ZM212.634 25.3916C211.68 25.3916 210.879 25.6616 210.231 26.2016C209.583 26.7416 209.186 27.4795 209.043 28.4156H216.198C216.054 27.4976 215.658 26.7686 215.01 26.2286C214.362 25.6705 213.57 25.3916 212.634 25.3916ZM231.529 36.2456C231.116 36.5515 230.603 36.7856 229.99 36.9476C229.396 37.0915 228.767 37.1636 228.1 37.1636C226.372 37.1636 225.032 36.7226 224.077 35.8406C223.142 34.9585 222.673 33.6625 222.673 31.9526V25.9856H220.432V22.7456H222.673V19.2086H226.885V22.7456H230.503V25.9856H226.885V31.8986C226.885 32.5106 227.039 32.9875 227.344 33.3296C227.668 33.6536 228.119 33.8156 228.694 33.8156C229.361 33.8156 229.928 33.6355 230.395 33.2756L231.529 36.2456Z" fill="white" fill-opacity="0.5"/>
</svg>
