<svg width="274" height="47" viewBox="0 0 274 47" fill="none" xmlns="http://www.w3.org/2000/svg">
<g clip-path="url(#clip0_332_79)">
<path fill-rule="evenodd" clip-rule="evenodd" d="M262.716 24.6704L258.727 13.841H257.761L253.778 24.6704H262.716ZM271.743 37.6083H267.482L264.143 28.5428H252.353L249.018 37.6083H244.757L255.822 7.67114H260.679L271.743 37.6083Z" fill="white" fill-opacity="0.5"/>
<path fill-rule="evenodd" clip-rule="evenodd" d="M225.916 22.6013C228.984 22.6013 232.641 21.6506 232.641 17.1265C232.641 12.3306 228.429 11.6153 225.916 11.6153H216.921V22.6013H225.916ZM229.311 26.1738L236.446 37.5831H231.56L224.716 26.5809H216.921V37.5831H212.869V7.67114H225.916C233.36 7.67114 236.692 12.4205 236.692 17.1265C236.692 23.8733 231.233 25.7302 229.311 26.1738Z" fill="white" fill-opacity="0.5"/>
<path fill-rule="evenodd" clip-rule="evenodd" d="M198.642 26.2212C198.642 26.5425 198.552 34.0824 190.81 34.0824C183.603 34.0824 182.993 28.063 182.978 26.2212V7.67114H178.924V26.2212C178.924 31.6334 182.037 37.9548 190.81 37.9548C199.582 37.9548 202.696 31.6334 202.696 26.2212V7.67114H198.642V26.2212Z" fill="white" fill-opacity="0.5"/>
<path fill-rule="evenodd" clip-rule="evenodd" d="M170.858 7.67114V11.6517H151.089V19.4886H168.648V23.4217H151.089V37.5831H147.036V7.67114H170.858Z" fill="white" fill-opacity="0.5"/>
<path fill-rule="evenodd" clip-rule="evenodd" d="M130.437 7.67114V31.4435H129.552L115.248 7.67114H110.004V37.5831H114.057V14.5634H114.941L128.597 37.5831H134.49V7.67114H130.437Z" fill="white" fill-opacity="0.5"/>
<path fill-rule="evenodd" clip-rule="evenodd" d="M77.0874 7.67114V11.3638H86.0881V33.8914H77.0874V37.5831H99.1407V33.8914H90.141V11.3638H99.1407V7.67114H77.0874Z" fill="white" fill-opacity="0.5"/>
</g>
<g clip-path="url(#clip1_332_79)">
<path fill-rule="evenodd" clip-rule="evenodd" d="M1.51025 0V7.02255L17.4804 5.29721H23.375V16.6668L13.4494 19.8559L0 23.2642L1.99719 30.1329L14.8846 24.93L23.375 22.2025V40.8678H17.4804L1.51025 39.1386V46.163H50.283V39.1386L34.3128 40.8678H28.4165V22.2025L36.8647 24.9146L49.7979 30.1329L51.7933 23.2642L38.3786 19.8655L28.4165 16.6668V5.29721H34.3128L50.283 7.02255V0H1.51025Z" fill="white" fill-opacity="0.5"/>
</g>
<defs>
<clipPath id="clip0_332_79">
<rect width="196.565" height="31.2717" fill="white" transform="translate(77.0874 7.4458)"/>
</clipPath>
<clipPath id="clip1_332_79">
<rect width="53.0875" height="46.163" fill="white"/>
</clipPath>
</defs>
</svg>
