<svg width="154" height="57" viewBox="0 0 154 57" fill="none" xmlns="http://www.w3.org/2000/svg">
<g clip-path="url(#clip0_332_72)">
<path d="M83.4962 38.7441H88.3261V16.134H81.5708L76.0992 30.2356L70.6272 16.134H63.9058V38.7441H68.7018V22.473L75.052 38.7441H77.146L83.4962 22.473V38.7441ZM102.495 38.7441H106.784V28.1681C106.784 23.456 103.373 21.9646 99.6574 21.9646C97.0903 21.9646 94.5232 22.778 92.5305 24.5409L94.1516 27.4222C95.5365 26.1339 97.1576 25.4899 98.9142 25.4899C101.076 25.4899 102.495 26.5748 102.495 28.2357V30.507C101.414 29.1851 99.4885 28.5067 97.3265 28.5067C94.7259 28.5067 91.6522 29.8966 91.6522 33.7273C91.6522 37.3882 94.7259 39.151 97.3265 39.151C99.4547 39.151 101.38 38.3711 102.495 37.0492V38.7441ZM102.495 34.8118C101.785 35.7612 100.434 36.2357 99.0492 36.2357C97.3604 36.2357 95.9754 35.3543 95.9754 33.8289C95.9754 32.2699 97.3604 31.3545 99.0492 31.3545C100.434 31.3545 101.785 31.829 102.495 32.778V34.8118ZM110.701 42.9474C112.728 44.7442 114.923 45.3882 117.727 45.3882C121.746 45.3882 126.542 43.8628 126.542 37.6256V22.3715H122.219V24.4729C120.902 22.812 119.145 21.9646 117.186 21.9646C113.066 21.9646 109.992 24.9474 109.992 30.3032C109.992 35.7612 113.099 38.6425 117.186 38.6425C119.179 38.6425 120.935 37.6932 122.219 36.0662V37.7271C122.219 40.9475 119.787 41.8629 117.727 41.8629C115.666 41.8629 113.944 41.2864 112.626 39.829L110.701 42.9474ZM122.219 32.9478C121.51 33.9984 119.956 34.8118 118.537 34.8118C116.106 34.8118 114.417 33.1169 114.417 30.3036C114.417 27.4898 116.106 25.7949 118.537 25.7949C119.956 25.7949 121.51 26.5748 122.219 27.6597V32.9471V32.9478ZM132.925 19.9647C134.343 19.9647 135.492 18.8122 135.492 17.3883C135.492 15.9645 134.343 14.812 132.925 14.812C131.54 14.812 130.358 15.9645 130.358 17.3883C130.358 18.8122 131.54 19.9647 132.925 19.9647ZM130.797 38.7441H135.087V22.3715H130.797V38.7441ZM138.293 30.541C138.293 35.5917 141.907 39.151 146.94 39.151C150.284 39.151 152.31 37.6932 153.391 36.1678L150.588 33.5578C149.811 34.6424 148.629 35.3207 147.142 35.3207C144.542 35.3207 142.718 33.388 142.718 30.541C142.718 27.6933 144.542 25.7949 147.142 25.7949C148.629 25.7949 149.811 26.4393 150.588 27.5577L153.391 24.9474C152.31 23.4224 150.284 21.9646 146.94 21.9646C141.907 21.9646 138.293 25.5239 138.293 30.541Z" fill="white" fill-opacity="0.5"/>
<path d="M23.4721 0C25.9215 3.01081 28.6228 5.80683 31.5439 8.35559C29.5978 14.6917 28.5499 21.4237 28.5499 28.4011C28.5499 35.3785 29.5978 42.1105 31.5439 48.447C28.6228 50.9957 25.9211 53.7914 23.4721 56.8022C21.0223 53.7914 18.321 50.9957 15.3996 48.447C17.346 42.1105 18.3943 35.3785 18.3943 28.4011C18.3943 21.4237 17.346 14.6917 15.3996 8.35559C18.3214 5.80683 21.0227 3.01043 23.4721 0ZM9.81552 44.0659C6.72372 41.8908 3.4416 39.9683 0 38.3289C0.954621 35.1882 1.46804 31.8551 1.46804 28.4011C1.46804 24.9471 0.954621 21.6139 0 18.4733C3.4416 16.8339 6.72335 14.9114 9.81552 12.7363C10.9981 17.7651 11.624 23.0099 11.624 28.4011C11.624 33.7923 10.9981 39.0371 9.81552 44.0659ZM35.3198 28.4011C35.3198 33.7923 35.9457 39.0371 37.1283 44.0659C40.2205 41.8908 43.5022 39.9683 46.9438 38.3289C45.9892 35.1882 45.4758 31.8551 45.4758 28.4011C45.4758 24.9471 45.9892 21.6139 46.9438 18.4733C43.5022 16.8339 40.2205 14.9114 37.1283 12.7363C35.9457 17.7651 35.3198 23.0099 35.3198 28.4011Z" fill="white" fill-opacity="0.5"/>
</g>
<defs>
<clipPath id="clip0_332_72">
<rect width="153.462" height="57" fill="white"/>
</clipPath>
</defs>
</svg>
