<svg width="282" height="54" viewBox="0 0 282 54" fill="none" xmlns="http://www.w3.org/2000/svg">
<path d="M247.51 27.2291C246.063 26.275 244.47 25.5965 242.961 24.7484C241.982 24.1971 240.94 23.7093 240.091 23.0096C238.644 21.8223 238.942 19.49 240.452 18.4721C242.62 17.0303 246.212 17.8359 246.595 20.7833C246.595 20.8468 246.659 20.8894 246.723 20.8894H249.997C250.082 20.8894 250.146 20.8257 250.125 20.741C249.955 18.7053 249.168 17.0091 247.723 15.9277C246.34 14.8887 244.767 14.3374 243.087 14.3374C234.435 14.3374 233.648 23.4761 238.304 26.3599C238.836 26.6991 243.406 28.989 245.023 29.9856C246.638 30.9821 247.148 32.8057 246.446 34.2475C245.808 35.5622 244.15 36.4739 242.493 36.3679C240.685 36.2619 239.282 35.2866 238.793 33.7599C238.708 33.4843 238.665 32.9541 238.665 32.7209C238.665 32.6573 238.602 32.5936 238.538 32.5936H234.988C234.925 32.5936 234.861 32.6573 234.861 32.7209C234.861 35.2866 235.499 36.7071 237.242 38.0007C238.878 39.2304 240.663 39.7393 242.514 39.7393C247.361 39.7393 249.87 37.0039 250.378 34.1627C250.825 31.385 249.997 28.883 247.51 27.2291Z" fill="white" fill-opacity="0.5"/>
<path d="M93.3659 14.8042H91.7929H90.0709C90.0071 14.8042 89.9646 14.8466 89.9433 14.889L87.0311 24.473C86.9885 24.6003 86.8185 24.6003 86.776 24.473L83.8636 14.889C83.8423 14.8254 83.7997 14.8042 83.7359 14.8042H82.0141H80.4409H78.3151C78.2513 14.8042 78.1875 14.8678 78.1875 14.9314V39.4004C78.1875 39.4639 78.2513 39.5276 78.3151 39.5276H81.8652C81.929 39.5276 81.9929 39.4639 81.9929 39.4004V20.8048C81.9929 20.6564 82.2054 20.6353 82.248 20.7624L85.1815 30.4101L85.394 31.0885C85.4153 31.1522 85.4579 31.1734 85.5217 31.1734H88.2428C88.3064 31.1734 88.349 31.1309 88.3703 31.0885L88.5828 30.4101L91.5165 20.7624C91.559 20.614 91.7716 20.6564 91.7716 20.8048V39.4004C91.7716 39.4639 91.8354 39.5276 91.8991 39.5276H95.4493C95.513 39.5276 95.5768 39.4639 95.5768 39.4004V14.9314C95.5768 14.8678 95.513 14.8042 95.4493 14.8042H93.3659Z" fill="white" fill-opacity="0.5"/>
<path d="M193.152 14.8042C193.088 14.8042 193.045 14.8466 193.024 14.889L190.113 24.473C190.07 24.6003 189.9 24.6003 189.858 24.473L186.945 14.889C186.924 14.8254 186.881 14.8042 186.817 14.8042H181.417C181.353 14.8042 181.29 14.8678 181.29 14.9314V39.4004C181.29 39.4639 181.353 39.5276 181.417 39.5276H184.968C185.032 39.5276 185.096 39.4639 185.096 39.4004V20.8048C185.096 20.6564 185.308 20.6353 185.351 20.7624L188.283 30.4101L188.496 31.0885C188.517 31.1522 188.56 31.1734 188.624 31.1734H191.345C191.409 31.1734 191.451 31.1309 191.473 31.0885L191.685 30.4101L194.619 20.7624C194.662 20.614 194.875 20.6564 194.875 20.8048V39.4004C194.875 39.4639 194.938 39.5276 195.002 39.5276H198.552C198.615 39.5276 198.679 39.4639 198.679 39.4004V14.9314C198.679 14.8678 198.615 14.8042 198.552 14.8042H193.152Z" fill="white" fill-opacity="0.5"/>
<path d="M147.362 14.8042H140.75H137.2H130.589C130.525 14.8042 130.461 14.8678 130.461 14.9314V17.9847C130.461 18.0483 130.525 18.112 130.589 18.112H137.073V39.4004C137.073 39.4639 137.136 39.5276 137.2 39.5276H140.75C140.814 39.5276 140.878 39.4639 140.878 39.4004V18.112H147.362C147.426 18.112 147.489 18.0483 147.489 17.9847V14.9314C147.489 14.8678 147.447 14.8042 147.362 14.8042Z" fill="white" fill-opacity="0.5"/>
<path d="M168.301 39.5269H171.532C171.617 39.5269 171.68 39.4421 171.659 39.3574L164.984 14.8036C164.963 14.74 164.921 14.7188 164.857 14.7188H163.624H161.456H160.223C160.159 14.7188 160.116 14.7612 160.095 14.8036L153.42 39.3574C153.399 39.4421 153.463 39.5269 153.548 39.5269H156.779C156.843 39.5269 156.885 39.4845 156.907 39.4421L158.841 32.2965C158.862 32.233 158.905 32.2117 158.969 32.2117H166.112C166.176 32.2117 166.218 32.2541 166.24 32.2965L168.174 39.4421C168.195 39.4845 168.259 39.5269 168.301 39.5269ZM159.819 28.7131L162.412 19.1502C162.455 19.0231 162.625 19.0231 162.668 19.1502L165.261 28.7131C165.282 28.7979 165.218 28.8827 165.133 28.8827H159.946C159.861 28.8827 159.798 28.7979 159.819 28.7131Z" fill="white" fill-opacity="0.5"/>
<path d="M223.403 39.5269H226.633C226.718 39.5269 226.782 39.4421 226.761 39.3574L220.086 14.8036C220.065 14.74 220.022 14.7188 219.958 14.7188H218.726H216.558H215.324C215.26 14.7188 215.218 14.7612 215.196 14.8036L208.522 39.3574C208.5 39.4421 208.564 39.5269 208.649 39.5269H211.881C211.945 39.5269 211.988 39.4845 212.009 39.4421L213.943 32.2965C213.964 32.233 214.007 32.2117 214.071 32.2117H221.213C221.277 32.2117 221.32 32.2541 221.341 32.2965L223.275 39.4421C223.296 39.4845 223.339 39.5269 223.403 39.5269ZM214.92 28.7131L217.514 19.1502C217.556 19.0231 217.726 19.0231 217.769 19.1502L220.362 28.7131C220.384 28.7979 220.32 28.8827 220.235 28.8827H215.048C214.962 28.8827 214.899 28.7979 214.92 28.7131Z" fill="white" fill-opacity="0.5"/>
<path d="M109.99 35.9015V28.3106C109.99 28.2471 110.054 28.1835 110.117 28.1835H119.577C119.641 28.1835 119.705 28.1198 119.705 28.0562V25.0029C119.705 24.9394 119.641 24.8757 119.577 24.8757H110.117C110.054 24.8757 109.99 24.8121 109.99 24.7484V18.2602C109.99 18.1966 110.054 18.1329 110.117 18.1329H120.874C120.938 18.1329 121.002 18.0693 121.002 18.0058V14.9524C121.002 14.8888 120.938 14.8252 120.874 14.8252H109.99H106.312C106.248 14.8252 106.185 14.8888 106.185 14.9524V18.1329V24.8968V28.2047V36.05V39.4001C106.185 39.4637 106.248 39.5274 106.312 39.5274H109.99H121.32C121.384 39.5274 121.448 39.4637 121.448 39.4001V36.1773C121.448 36.1136 121.384 36.05 121.32 36.05H110.096C110.032 36.0289 109.99 35.9863 109.99 35.9015Z" fill="white" fill-opacity="0.5"/>
<path d="M279.949 39.3153L267.662 26.6567C267.619 26.6144 267.619 26.5296 267.662 26.4872L278.717 15.0372C278.802 14.9524 278.738 14.8252 278.632 14.8252H274.104C274.062 14.8252 274.04 14.8464 274.019 14.8676L264.644 24.5789C264.559 24.6637 264.432 24.6 264.432 24.494V14.9524C264.432 14.8888 264.368 14.8252 264.304 14.8252H260.753C260.689 14.8252 260.625 14.8888 260.625 14.9524V39.4214C260.625 39.485 260.689 39.5487 260.753 39.5487H264.304C264.368 39.5487 264.432 39.485 264.432 39.4214V28.65C264.432 28.544 264.581 28.4803 264.644 28.5651L275.273 39.5061C275.294 39.5274 275.336 39.5487 275.358 39.5487H279.885C279.971 39.5274 280.034 39.379 279.949 39.3153Z" fill="white" fill-opacity="0.5"/>
<path d="M53.9315 1.63623L32.7271 17.1817L36.436 8.16694L53.9315 1.63623Z" stroke="white" stroke-opacity="0.5" stroke-width="0.25" stroke-linecap="round" stroke-linejoin="round"/>
<path d="M4.35742 1.63623L25.3637 17.1817L21.853 8.16693L4.35742 1.63623Z" stroke="white" stroke-opacity="0.5" stroke-width="0.25" stroke-linecap="round" stroke-linejoin="round"/>
<path d="M46.193 38.5093L40.4746 47.2452L52.7194 50.6166L56.2271 38.7002L46.193 38.5093Z" stroke="white" stroke-opacity="0.5" stroke-width="0.25" stroke-linecap="round" stroke-linejoin="round"/>
<path d="M2.08252 38.7002L5.56886 50.6166L17.7924 47.2452L12.0952 38.5093L2.08252 38.7002Z" stroke="white" stroke-opacity="0.5" stroke-width="0.25" stroke-linecap="round" stroke-linejoin="round"/>
<path d="M17.1332 23.7519L13.7319 28.8832L25.8491 29.4345L25.3635 17.1821L17.1332 23.7519Z" stroke="white" stroke-opacity="0.5" stroke-width="0.25" stroke-linecap="round" stroke-linejoin="round"/>
<path d="M41.1552 23.752L32.7274 17.1816L32.4395 29.4346L44.5566 28.8833L41.1552 23.752Z" stroke="white" stroke-opacity="0.5" stroke-width="0.25" stroke-linecap="round" stroke-linejoin="round"/>
<path d="M17.7925 47.2453L25.1265 43.7044L18.8129 38.7852L17.7925 47.2453Z" stroke="white" stroke-opacity="0.5" stroke-width="0.25" stroke-linecap="round" stroke-linejoin="round"/>
<path d="M33.1626 43.7044L40.4753 47.2453L39.4762 38.7852L33.1626 43.7044Z" stroke="white" stroke-opacity="0.5" stroke-width="0.25" stroke-linecap="round" stroke-linejoin="round"/>
<path d="M40.4753 47.2455L33.1626 43.7046L33.7577 48.4541L33.6939 50.4685L40.4753 47.2455Z" stroke="white" stroke-opacity="0.5" stroke-width="0.25" stroke-linecap="round" stroke-linejoin="round"/>
<path d="M17.7925 47.2455L24.5952 50.4685L24.5526 48.4541L25.1265 43.7046L17.7925 47.2455Z" stroke="white" stroke-opacity="0.5" stroke-width="0.25" stroke-linecap="round" stroke-linejoin="round"/>
<path d="M17.7924 47.2452L18.8554 38.5093L12.0952 38.7002L17.7924 47.2452Z" stroke="white" stroke-opacity="0.5" stroke-width="0.25" stroke-linecap="round" stroke-linejoin="round"/>
<path d="M39.4331 38.5093L40.4748 47.2452L46.1932 38.7002L39.4331 38.5093Z" stroke="white" stroke-opacity="0.5" stroke-width="0.25" stroke-linecap="round" stroke-linejoin="round"/>
<path d="M44.5566 28.8828L32.4395 29.4341L33.5661 35.6469L35.3519 31.8937L39.6673 33.8657L44.5566 28.8828Z" stroke="white" stroke-opacity="0.5" stroke-width="0.25" stroke-linecap="round" stroke-linejoin="round"/>
<path d="M18.6426 33.8657L22.9367 31.8937L24.7225 35.6469L25.8491 29.4341L13.7319 28.8828L18.6426 33.8657Z" stroke="white" stroke-opacity="0.5" stroke-width="0.25" stroke-linecap="round" stroke-linejoin="round"/>
<path d="M13.7324 28.8828L18.8132 38.7849L18.643 33.8657L13.7324 28.8828Z" stroke="white" stroke-opacity="0.5" stroke-width="0.25" stroke-linecap="round" stroke-linejoin="round"/>
<path d="M39.6674 33.8657L39.4761 38.7849L44.5568 28.8828L39.6674 33.8657Z" stroke="white" stroke-opacity="0.5" stroke-width="0.25" stroke-linecap="round" stroke-linejoin="round"/>
<path d="M25.8499 29.4341L24.7231 35.6469L26.1474 42.9832L26.4664 33.3144L25.8499 29.4341Z" stroke="white" stroke-opacity="0.5" stroke-width="0.25" stroke-linecap="round" stroke-linejoin="round"/>
<path d="M32.4395 29.4341L31.8442 33.2933L32.1419 42.9832L33.5662 35.6469L32.4395 29.4341Z" stroke="white" stroke-opacity="0.5" stroke-width="0.25" stroke-linecap="round" stroke-linejoin="round"/>
<path d="M33.5664 35.6469L32.1421 42.9832L33.1625 43.7042L39.4763 38.785L39.6676 33.8657L33.5664 35.6469Z" stroke="white" stroke-opacity="0.5" stroke-width="0.25" stroke-linecap="round" stroke-linejoin="round"/>
<path d="M18.6426 33.8657L18.8128 38.785L25.1263 43.7042L26.1468 42.9832L24.7225 35.6469L18.6426 33.8657Z" stroke="white" stroke-opacity="0.5" stroke-width="0.25" stroke-linecap="round" stroke-linejoin="round"/>
<path d="M33.6937 50.4681L33.7573 48.4537L33.2047 47.9872H25.0841L24.5526 48.4537L24.5952 50.4681L17.7925 47.2451L20.1734 49.1958L24.999 52.5248H33.2684L38.1153 49.1958L40.4749 47.2451L33.6937 50.4681Z" stroke="white" stroke-opacity="0.5" stroke-width="0.25" stroke-linecap="round" stroke-linejoin="round"/>
<path d="M33.1623 43.7042L32.1419 42.9834H26.147L25.1268 43.7042L24.5527 48.4539L25.0842 47.9874H33.2048L33.7576 48.4539L33.1623 43.7042Z" stroke="white" stroke-opacity="0.5" stroke-width="0.25" stroke-linecap="round" stroke-linejoin="round"/>
<path d="M54.8459 18.5778L56.6529 9.79961L53.9318 1.63623L33.1626 17.0089L41.1556 23.7515L52.4437 27.0382L54.931 24.1333L53.8469 23.3486L55.5687 21.7797L54.2507 20.7619L55.9727 19.4472L54.8459 18.5778Z" stroke="white" stroke-opacity="0.5" stroke-width="0.25" stroke-linecap="round" stroke-linejoin="round"/>
<path d="M1.63623 9.79961L3.46444 18.5778L2.29524 19.4472L4.03841 20.7619L2.7204 21.7797L4.44232 23.3486L3.35814 24.1333L5.84537 27.0382L17.1336 23.7515L25.1266 17.0089L4.35729 1.63623L1.63623 9.79961Z" stroke="white" stroke-opacity="0.5" stroke-width="0.25" stroke-linecap="round" stroke-linejoin="round"/>
<path d="M52.4436 27.0379L41.1555 23.7515L44.5568 28.8828L39.4761 38.7847L46.1937 38.7H56.2275L52.4436 27.0379Z" stroke="white" stroke-opacity="0.5" stroke-width="0.25" stroke-linecap="round" stroke-linejoin="round"/>
<path d="M17.1333 23.7515L5.84522 27.0379L2.08252 38.7H12.0952L18.8127 38.7847L13.732 28.8828L17.1333 23.7515Z" stroke="white" stroke-opacity="0.5" stroke-width="0.25" stroke-linecap="round" stroke-linejoin="round"/>
<path d="M32.4396 29.4342L32.9065 17.0088L36.4361 8.16699H21.853L25.1267 17.0088L25.8495 29.4342L26.1259 33.3356L26.1472 42.9833H32.142L32.1633 33.3356L32.4396 29.4342Z" stroke="white" stroke-opacity="0.5" stroke-width="0.25" stroke-linecap="round" stroke-linejoin="round"/>
</svg>
