<svg width="189" height="55" viewBox="0 0 189 55" fill="none" xmlns="http://www.w3.org/2000/svg">
<g clip-path="url(#clip0_332_63)">
<path d="M24.1533 54.817C37.4905 54.817 48.3024 43.9788 48.3024 30.6093C48.3024 17.2398 37.4905 6.40161 24.1533 6.40161C10.8161 6.40161 0.00415039 17.2398 0.00415039 30.6093C0.00415039 43.9788 10.8161 54.817 24.1533 54.817Z" fill="white" fill-opacity="0.5"/>
<path d="M51.3212 13.1344C54.9472 13.1344 57.8867 10.1877 57.8867 6.5529C57.8867 2.91806 54.9472 -0.0285645 51.3212 -0.0285645C47.6951 -0.0285645 44.7556 2.91806 44.7556 6.5529C44.7556 10.1877 47.6951 13.1344 51.3212 13.1344Z" fill="white" fill-opacity="0.5"/>
<path d="M59.4468 42.6364H63.4087L65.7859 30.2678C66.1255 28.5279 66.4651 25.7289 66.4651 25.7289H66.5406C66.5406 25.7289 66.5783 28.3009 66.6915 29.8896L67.7103 42.6364H71.8232L77.7473 29.8518C78.5774 28.0362 79.5207 25.7289 79.5207 25.7289H79.5962C79.5962 25.7289 78.917 28.3766 78.5397 30.2678L76.1625 42.6364H80.1622L84.3128 21.0386H78.0869L72.9175 32.2725C71.6723 34.9581 70.7289 37.8706 70.7289 37.8706H70.6912C70.6912 37.8706 70.6535 34.7689 70.4271 31.743L69.597 21.0765H63.5974L59.4468 42.6364ZM90.3124 43.0903C95.595 43.0903 98.8778 38.7405 98.8778 33.7855C98.8778 29.2087 95.6704 26.7123 91.7462 26.7123C86.4636 26.7123 83.0299 30.9865 83.0299 35.8659C83.0676 40.6317 86.2749 43.0903 90.3124 43.0903ZM87.0673 36.1306C87.0673 33.1425 88.4257 29.7761 91.5198 29.7761C93.897 29.7761 94.8403 31.6295 94.8403 33.672C94.8403 36.6223 93.5197 40.0265 90.3878 40.0265C88.0107 40.0644 87.0673 38.2488 87.0673 36.1306ZM106.311 43.0903C111.594 43.0903 114.877 38.7405 114.877 33.7855C114.877 29.2087 111.669 26.7123 107.745 26.7123C102.462 26.7123 99.0287 30.9865 99.0287 35.8659C99.0287 40.6317 102.274 43.0903 106.311 43.0903ZM103.066 36.1306C103.066 33.1425 104.425 29.7761 107.519 29.7761C109.896 29.7761 110.839 31.6295 110.839 33.672C110.839 36.6223 109.518 40.0265 106.387 40.0265C104.009 40.0644 103.066 38.2488 103.066 36.1306ZM121.216 27.1662H117.254L114.273 42.6364H118.31L119.933 34.2016C120.348 31.9321 121.706 30.1922 123.593 30.1922C125.291 30.1922 126.083 31.3269 125.706 33.3694L123.895 42.6743H127.932L129.781 32.9155C130.46 29.2844 128.687 26.788 125.63 26.788C123.442 26.788 122.121 27.7714 120.801 29.6626H120.725L121.216 27.1662ZM129.857 42.6364H134.309L135.818 34.8068H141.063C145.893 34.8068 149.176 32.0456 149.176 27.431C149.176 23.3838 146.421 21.0765 142.308 21.0765H134.045L129.857 42.6364ZM137.743 24.8589H141.705C143.667 24.8589 144.686 25.918 144.686 27.6579C144.686 30.23 142.837 31.3269 140.837 31.3269H136.498L137.743 24.8589ZM156.911 42.6364H160.722V42.4851C160.496 42.1069 160.383 41.3882 160.609 40.3291L162.043 32.9155C162.873 28.4144 160.005 26.7501 156.156 26.7501C152.194 26.7501 149.742 28.6792 149.214 31.8565H152.836C153.213 30.3056 154.308 29.6626 156.006 29.6626C157.553 29.6626 158.42 30.2678 158.42 31.3647C158.42 32.9155 157.288 33.029 154.421 33.256C150.647 33.5586 147.402 34.315 147.402 38.4001C147.402 41.6152 149.93 42.939 152.308 42.939C154.534 42.939 155.666 41.8799 156.609 40.8965H156.685C156.647 41.5395 156.722 42.1069 156.911 42.6364ZM151.289 38.0975C151.289 35.9793 153.44 36.0928 154.911 35.7902C155.93 35.6389 156.911 35.3741 157.854 34.9959L157.364 37.4545C157.062 38.8918 155.704 40.2157 153.591 40.2157C152.27 40.2157 151.289 39.497 151.289 38.0975ZM160.76 47.7427H163.288C166.269 47.7427 167.59 46.5324 169.137 43.4308L177.136 27.204H173.023L169.816 34.2394C169.137 35.6767 168.382 37.7571 168.382 37.7571H168.306C168.306 37.7571 168.08 35.6767 167.854 34.2394L166.797 27.204H162.571L164.797 38.211C165.061 39.3457 165.25 40.5183 165.326 41.6908C165.326 43.6199 164.344 44.5655 162.646 44.5655H161.364L160.76 47.7427ZM178.834 21.5682H180.381L179.513 26.0315H180.607L181.475 21.5682H183.022L183.211 20.6604H179.023L178.834 21.5682ZM182.456 26.0693H183.437L184.041 22.9677L184.23 21.833C184.23 21.833 184.23 22.476 184.268 22.892L184.532 26.0693H185.55L187.022 22.892C187.248 22.4381 187.475 21.8708 187.475 21.8708C187.475 21.8708 187.286 22.5516 187.211 23.0055L186.607 26.1071H187.626L188.682 20.6604H187.135L185.852 23.4594C185.55 24.1403 185.286 24.8589 185.286 24.8589C185.286 24.8589 185.286 24.0646 185.211 23.3459L185.022 20.6982H183.513L182.456 26.0693Z" fill="white" fill-opacity="0.5"/>
</g>
<defs>
<clipPath id="clip0_332_63">
<rect width="188.665" height="54.8077" fill="white"/>
</clipPath>
</defs>
</svg>
