<svg width="127" height="44" viewBox="0 0 127 44" fill="none" xmlns="http://www.w3.org/2000/svg">
<g clip-path="url(#clip0_332_69)">
<path d="M33.4783 9.37383C36.583 9.37383 38.5281 7.25712 38.5281 4.64903C38.4907 1.88975 36.583 -0.151367 33.5531 -0.151367C30.5233 -0.151367 28.5408 1.88975 28.6156 4.64903C28.5408 7.25712 30.5233 9.37383 33.4783 9.37383ZM70.7345 -0.151367C67.7047 -0.151367 65.7222 1.88975 65.797 4.64903C65.7222 7.25712 67.7047 9.37383 70.6597 9.37383C73.7644 9.37383 75.7095 7.25712 75.7095 4.64903C75.6721 1.88975 73.7644 -0.151367 70.7345 -0.151367Z" fill="white" fill-opacity="0.5"/>
<path d="M66.0215 13.1161H57.5677L54.9119 18.0299C54.1264 19.5418 53.3783 21.0916 52.5554 22.7169H52.4431C51.6576 21.2806 50.8347 19.7308 49.9743 18.1811L47.0193 13.1161H29.8874C29.5508 9.56307 27.8675 6.53919 25.5109 4.64927C22.7429 2.41916 18.5908 1.28521 12.7929 1.28521C7.06984 1.28521 2.99261 1.66319 0.0749512 2.15457V43.6194H9.38901V28.6135C10.2493 28.7269 11.3715 28.8025 12.6059 28.8025C18.1794 28.8025 22.9299 27.4417 26.1094 24.38C27.3064 23.2461 28.2041 21.8476 28.84 20.26V43.6572H46.5704L49.4133 38.1765C50.1614 36.6645 50.9469 35.1904 51.695 33.5651H51.882C52.6302 35.1148 53.3783 36.6645 54.2386 38.1765L57.2685 43.6572H75.4103V13.1161H66.0215ZM12.5311 21.4696C11.1845 21.4696 10.1745 21.394 9.38901 21.205V8.8449C10.0623 8.6559 11.3715 8.46691 13.2792 8.46691C17.9549 8.46691 20.6108 10.7726 20.6108 14.6281C20.6108 18.9371 17.5435 21.4696 12.5311 21.4696ZM38.2289 40.6712V15.6864L46.533 28.1221L38.2289 40.6712ZM57.8296 27.6685L66.0215 15.6864V40.709L57.8296 27.6685ZM115.135 18.6725C109.749 16.6314 107.43 15.4218 107.43 12.7381C107.43 10.5458 109.412 8.6937 113.489 8.6937C117.567 8.6937 120.522 9.86545 122.205 10.697L124.262 3.02394C121.794 1.88999 118.352 0.907227 113.639 0.907227C104.998 0.907227 99.3875 5.17845 98.1531 11.075V1.5876H88.7642V28.0465C88.7642 34.5856 86.2954 36.3999 82.3304 36.3999C80.4601 36.3999 78.8142 36.0976 77.505 35.644L76.4577 43.3171C78.328 43.9218 81.1334 44.2998 83.3029 44.2998C92.43 44.2998 98.1157 40.1042 98.1157 28.1599V15.951C99.163 20.7136 103.315 23.8509 109.3 25.9676C114.312 27.7819 116.257 29.256 116.257 31.9019C116.257 34.6612 113.976 36.4377 109.637 36.4377C105.634 36.4377 101.744 35.1148 99.2004 33.8297L97.2927 41.6917C99.6493 43.0147 104.325 44.262 109.076 44.262C120.484 44.262 125.871 38.2899 125.871 31.2216C125.946 25.2872 122.467 21.4318 115.135 18.6725Z" fill="white" fill-opacity="0.5"/>
</g>
<defs>
<clipPath id="clip0_332_69">
<rect width="126.058" height="43.8462" fill="white"/>
</clipPath>
</defs>
</svg>
